<svg width="20" height="20" viewBox="0 0 20 20" fill="none" xmlns="http://www.w3.org/2000/svg">
<path d="M17.3828 10.3516C17.3828 10.1068 17.2917 9.89323 17.1094 9.71094L11.9609 4.57812C11.8672 4.48438 11.7682 4.41406 11.6641 4.36719C11.5599 4.32031 11.4505 4.29688 11.3359 4.29688C11.0964 4.29688 10.8958 4.375 10.7344 4.53125C10.5781 4.6875 10.5 4.88281 10.5 5.11719C10.5 5.24219 10.5208 5.35677 10.5625 5.46094C10.6094 5.5599 10.6719 5.64844 10.75 5.72656L12.5 7.5L15.4141 10.1641L15.6875 9.65625L12.9766 9.49219H3.48438C3.22396 9.49219 3.01302 9.57292 2.85156 9.73438C2.69531 9.89062 2.61719 10.0964 2.61719 10.3516C2.61719 10.6016 2.69531 10.8073 2.85156 10.9688C3.01302 11.125 3.22396 11.2031 3.48438 11.2031H12.9766L15.6875 11.0469L15.4141 10.5469L12.5 13.2031L10.75 14.9688C10.6719 15.0469 10.6094 15.138 10.5625 15.2422C10.5208 15.3464 10.5 15.4583 10.5 15.5781C10.5 15.8125 10.5781 16.0078 10.7344 16.1641C10.8958 16.3203 11.0964 16.3984 11.3359 16.3984C11.5651 16.3984 11.7708 16.3099 11.9531 16.1328L17.1094 10.9922C17.2917 10.8099 17.3828 10.5964 17.3828 10.3516Z" fill="#0F2D35"/>
</svg>
