<svg width="22" height="22" viewBox="0 0 22 22" fill="none" xmlns="http://www.w3.org/2000/svg">
<path d="M10.9926 18.0546C11.2426 18.0552 11.4485 17.9749 11.6103 17.8138C11.7669 17.6526 11.8455 17.4445 11.846 17.1893L11.8667 7.49398L11.7784 4.94692L11.2622 5.20363L13.8654 8.10763L15.6273 9.86139C15.7053 9.93968 15.7963 9.99977 15.9004 10.0417C16.0044 10.0888 16.1164 10.1124 16.2361 10.1127C16.4705 10.1132 16.666 10.0355 16.8226 9.87956C16.9792 9.72365 17.0577 9.5259 17.0582 9.28631C17.0587 9.05194 16.9706 8.84342 16.7939 8.66075L11.6565 3.49353C11.5682 3.4048 11.4693 3.33688 11.3601 3.28977C11.2508 3.24266 11.1389 3.21898 11.0243 3.21874C10.9045 3.21848 10.7899 3.24168 10.6804 3.28832C10.5657 3.33495 10.4666 3.40245 10.3831 3.49081L5.22365 8.63607C5.04618 8.81798 4.95719 9.02612 4.95669 9.2605C4.95618 9.50008 5.03388 9.69816 5.1898 9.85475C5.34571 10.0113 5.54086 10.0899 5.77523 10.0904C5.89503 10.0906 6.00705 10.0674 6.11132 10.0208C6.21558 9.97933 6.30685 9.91963 6.38514 9.84167L8.16231 8.09546L10.7779 5.20259L10.255 4.94367L10.1558 7.49034L10.1351 17.1856C10.1346 17.4408 10.2148 17.6493 10.376 17.8111C10.5319 17.9729 10.7374 18.0541 10.9926 18.0546Z" fill="#208F96"/>
</svg>
