<svg width="20" height="20" viewBox="0 0 20 20" fill="none" xmlns="http://www.w3.org/2000/svg">
<path d="M10 14.6406C10.1354 14.6406 10.263 14.6146 10.3828 14.5625C10.5026 14.5104 10.612 14.4323 10.7109 14.3281L16.6562 8.24219C16.8333 8.0651 16.9219 7.85417 16.9219 7.60938C16.9219 7.4375 16.8802 7.28125 16.7969 7.14062C16.7188 7 16.612 6.89062 16.4766 6.8125C16.3411 6.72917 16.1875 6.6875 16.0156 6.6875C15.7656 6.6875 15.5469 6.78125 15.3594 6.96875L9.625 12.8516H10.3828L4.64062 6.96875C4.45312 6.78125 4.23438 6.6875 3.98438 6.6875C3.8125 6.6875 3.65885 6.72917 3.52344 6.8125C3.38802 6.89062 3.27865 7 3.19531 7.14062C3.11719 7.28125 3.07812 7.4375 3.07812 7.60938C3.07812 7.73438 3.09896 7.85156 3.14062 7.96094C3.1875 8.0651 3.25521 8.15885 3.34375 8.24219L9.28906 14.3281C9.5026 14.5365 9.73958 14.6406 10 14.6406Z" fill="#208F96"/>
</svg>
