<svg width="18" height="20" viewBox="0 0 18 20" fill="none" xmlns="http://www.w3.org/2000/svg">
<path d="M9 14.6406C9.13542 14.6406 9.26302 14.6146 9.38281 14.5625C9.5026 14.5104 9.61198 14.4323 9.71094 14.3281L15.6562 8.24219C15.8333 8.0651 15.9219 7.85417 15.9219 7.60938C15.9219 7.4375 15.8802 7.28125 15.7969 7.14062C15.7188 7 15.612 6.89062 15.4766 6.8125C15.3411 6.72917 15.1875 6.6875 15.0156 6.6875C14.7656 6.6875 14.5469 6.78125 14.3594 6.96875L8.625 12.8516H9.38281L3.64062 6.96875C3.45312 6.78125 3.23438 6.6875 2.98438 6.6875C2.8125 6.6875 2.65885 6.72917 2.52344 6.8125C2.38802 6.89062 2.27865 7 2.19531 7.14062C2.11719 7.28125 2.07812 7.4375 2.07812 7.60938C2.07812 7.73438 2.09896 7.85156 2.14062 7.96094C2.1875 8.0651 2.25521 8.15885 2.34375 8.24219L8.28906 14.3281C8.5026 14.5365 8.73958 14.6406 9 14.6406Z" fill="#208F96"/>
</svg>
