<svg width="20" height="20" viewBox="0 0 20 20" fill="none" xmlns="http://www.w3.org/2000/svg">
<path d="M10.0078 2.21875C9.75261 2.21875 9.54688 2.29948 9.39063 2.46094C9.22917 2.6224 9.14844 2.83073 9.14844 3.08594L9.14844 12.7812L9.24219 15.3281L9.76563 15.0703L7.15625 12.1719L5.38281 10.4219C5.30469 10.3437 5.21354 10.2812 5.10938 10.2344C5.00521 10.1927 4.89323 10.1719 4.77344 10.1719C4.53906 10.1719 4.34375 10.25 4.1875 10.4062C4.03125 10.5625 3.95313 10.7604 3.95313 11C3.95313 11.2344 4.04167 11.4427 4.21875 11.625L9.36719 16.7812C9.45052 16.8698 9.54948 16.9375 9.66406 16.9844C9.77344 17.0312 9.88802 17.0547 10.0078 17.0547C10.1224 17.0547 10.2344 17.0312 10.3438 16.9844C10.4531 16.9375 10.5521 16.8698 10.6406 16.7812L15.7891 11.625C15.9661 11.4427 16.0547 11.2344 16.0547 11C16.0547 10.7604 15.9766 10.5625 15.8203 10.4062C15.6641 10.25 15.4688 10.1719 15.2344 10.1719C15.1146 10.1719 15.0026 10.1927 14.8984 10.2344C14.7943 10.2812 14.7031 10.3437 14.625 10.4219L12.8594 12.1719L10.25 15.0703L10.7656 15.3281L10.8594 12.7812L10.8594 3.08594C10.8594 2.83073 10.7813 2.6224 10.625 2.46094C10.4635 2.29948 10.2578 2.21875 10.0078 2.21875Z" fill="#544AC9"/>
</svg>
