<svg width="13" height="16" viewBox="0 0 13 16" fill="none" xmlns="http://www.w3.org/2000/svg">
<path d="M6.49219 0.945312C6.24219 0.945312 6.03646 1.02604 5.875 1.1875C5.71875 1.34896 5.64062 1.55729 5.64062 1.8125V11.5078L5.73438 14.0547L6.25 13.7969L3.64062 10.8984L1.875 9.14844C1.79688 9.07031 1.70573 9.01042 1.60156 8.96875C1.4974 8.92188 1.38542 8.89844 1.26562 8.89844C1.03125 8.89844 0.835938 8.97656 0.679688 9.13281C0.523438 9.28906 0.445312 9.48698 0.445312 9.72656C0.445312 9.96094 0.533854 10.1693 0.710938 10.3516L5.85938 15.5078C5.94792 15.5964 6.04688 15.6641 6.15625 15.7109C6.26562 15.7578 6.3776 15.7812 6.49219 15.7812C6.61198 15.7812 6.72656 15.7578 6.83594 15.7109C6.95052 15.6641 7.04948 15.5964 7.13281 15.5078L12.2812 10.3516C12.4583 10.1693 12.5469 9.96094 12.5469 9.72656C12.5469 9.48698 12.4688 9.28906 12.3125 9.13281C12.1562 8.97656 11.9609 8.89844 11.7266 8.89844C11.6068 8.89844 11.4948 8.92188 11.3906 8.96875C11.2865 9.01042 11.1953 9.07031 11.1172 9.14844L9.34375 10.8984L6.73438 13.7969L7.25781 14.0547L7.35156 11.5078V1.8125C7.35156 1.55729 7.27083 1.34896 7.10938 1.1875C6.95312 1.02604 6.7474 0.945312 6.49219 0.945312Z" fill="#208F96"/>
</svg>
