<svg width="100" height="93" viewBox="0 0 100 93" fill="none" xmlns="http://www.w3.org/2000/svg">
<g clip-path="url(#clip0_31_9259)">
<path d="M68.8196 86.3435C68.5786 85.9928 68.3238 85.6421 68.0759 85.2914C67.1188 83.9504 66.1203 82.5545 65.3628 81.0416C65.2802 80.8765 65.0874 80.4846 65.2389 80.072C65.3904 79.6594 65.8862 79.4668 66.0445 79.4118C66.4956 79.2808 66.956 79.1843 67.4218 79.123C67.7385 79.0749 68.0415 79.0267 68.3376 78.9511C70.1693 78.511 71.6705 77.0256 71.9941 75.3408C72.2627 73.9586 72.0286 72.6796 71.3262 71.6343C70.6238 70.5891 69.4463 69.9839 68.0553 69.7707C67.8596 69.7379 67.6615 69.7218 67.4631 69.7226C65.9137 69.7226 64.3299 70.6234 63.4209 72.0056C63.2557 72.2601 63.1111 72.5283 62.9596 72.8102C62.7408 73.2272 62.4947 73.6292 62.2228 74.0136C62.1195 74.1443 61.8234 74.5363 61.3276 74.5431H61.3138C60.88 74.5431 60.5839 74.2337 60.453 74.103C59.2824 72.8859 58.2977 71.483 57.3474 70.1283C57.1064 69.7845 56.8585 69.4269 56.6106 69.0831L52.4238 63.2448L58.2701 59.0638L59.3306 58.3211C60.6527 57.3927 62.0231 56.4369 63.1799 55.3229L63.235 55.2747L63.1868 55.2335C62.8465 54.9935 62.4899 54.7775 62.1195 54.5871C61.8302 54.4289 61.5273 54.2639 61.238 54.0782C59.2824 52.7991 58.1875 50.5023 58.5111 48.3637C58.7659 46.6995 59.5854 45.2829 60.8249 44.3683H60.8455C61.8078 43.7293 62.9402 43.3939 64.0958 43.4056C64.5302 43.4062 64.9637 43.4476 65.3904 43.5294C67.5182 43.9351 69.3154 45.7368 69.8663 48.0061C69.949 48.3362 70.0041 48.6731 70.0523 49.0032C70.1098 49.4142 70.195 49.8208 70.307 50.2204C70.3158 50.2379 70.3228 50.2564 70.3277 50.2754L70.3966 50.2479C71.8358 49.5258 73.1923 48.5631 74.5076 47.6279C74.8588 47.3803 75.2168 47.119 75.568 46.8783L81.4625 42.7729L98.2577 66.5043C100.31 69.3994 99.6281 73.4016 96.7428 75.4371L72.9306 92.2368L68.8196 86.3435Z" fill="#8379F8"/>
<path d="M81.3319 43.5225L97.8103 66.8206C99.6834 69.4681 99.0636 73.1265 96.4262 74.9901L73.0686 91.4666L69.2743 86.0271C68.083 84.3286 66.7884 82.6576 65.8588 80.794C65.7762 80.6289 65.6935 80.4433 65.7555 80.2645C65.8175 80.0857 66.0241 79.9963 66.21 79.9413C66.9468 79.7075 67.7181 79.6662 68.4686 79.4874C70.4105 79.0198 72.1527 77.4451 72.5383 75.4439C72.8207 73.9792 72.5865 72.5145 71.7809 71.3179C70.9752 70.1214 69.6186 69.4475 68.1381 69.2274C67.9149 69.1923 67.6893 69.1739 67.4633 69.1724C65.6729 69.1724 63.9307 70.2177 62.9598 71.703C62.5397 72.3494 62.2436 73.0646 61.7822 73.6766C61.6652 73.8348 61.5137 73.993 61.3209 73.993H61.314C61.1281 73.993 60.9835 73.8554 60.8526 73.7248C59.4065 72.2257 58.2634 70.4446 57.0584 68.7598L53.1953 63.3685L58.594 59.5107C60.2811 58.3073 62.0646 57.1658 63.5589 55.7217C63.6966 55.591 63.8343 55.4397 63.8343 55.2541C63.8343 55.0684 63.669 54.9102 63.5175 54.7933C62.9047 54.3326 62.1816 54.0369 61.5412 53.6174C59.861 52.524 58.7524 50.461 59.0553 48.4462C59.2826 46.9677 59.985 45.668 61.1556 44.8084C62.0301 44.217 63.0424 43.9419 64.096 43.9419C64.4956 43.9413 64.8945 43.9782 65.2873 44.052C67.2842 44.4371 68.8612 46.1769 69.3363 48.1161C69.5153 48.8656 69.5498 49.6358 69.7839 50.3716C69.8459 50.5573 69.9354 50.7567 70.1144 50.8255C70.1567 50.839 70.2009 50.846 70.2453 50.8461C70.386 50.8354 70.5226 50.7931 70.6447 50.7223C72.5039 49.794 74.1841 48.5012 75.885 47.3115L81.3319 43.5225ZM81.5936 41.9958L80.6984 42.6216L75.2515 46.4107L74.191 47.1602C73.0617 47.9648 71.8979 48.7969 70.6929 49.457C70.6584 49.2782 70.6309 49.0926 70.5965 48.9C70.5504 48.5508 70.486 48.2042 70.4036 47.8616C70.1124 46.6853 69.5163 45.6062 68.6752 44.7328C67.78 43.8113 66.6783 43.1993 65.4939 42.9723C65.0331 42.8849 64.565 42.8412 64.096 42.8417C62.8298 42.8302 61.5894 43.1992 60.5359 43.9007L60.5152 43.9144L60.4945 43.9282C59.1449 44.9253 58.2428 46.4726 57.9673 48.2811C57.7883 49.4708 57.9949 50.7086 58.5664 51.8639C59.1075 52.9497 59.9272 53.8727 60.9421 54.5389C61.2451 54.7383 61.555 54.9033 61.858 55.0684L62.3469 55.3435C61.3209 56.258 60.1502 57.0764 59.014 57.8672L57.9467 58.6167L54.786 60.8792L52.5549 62.4746L51.6597 63.1141L52.3001 64.0081L54.8066 67.5152L56.1632 69.3994L56.9 70.4446C57.864 71.8199 58.8556 73.2365 60.0607 74.4881C60.2191 74.6531 60.646 75.0932 61.314 75.0932H61.3415C61.8442 75.0864 62.2918 74.8319 62.6568 74.3437C63.0217 73.8554 63.2145 73.491 63.4418 73.0715C63.5933 72.7964 63.731 72.542 63.8825 72.3082C64.6882 71.0704 66.0929 70.2727 67.4633 70.2727C67.634 70.273 67.8043 70.2868 67.9728 70.314C69.2123 70.4996 70.2177 71.0704 70.8788 71.9506C71.5398 72.8308 71.6913 74.0067 71.4572 75.2376C71.168 76.7161 69.8321 78.0227 68.207 78.4147C67.9315 78.4834 67.6423 78.5316 67.3393 78.5797C66.8456 78.646 66.3576 78.7495 65.8795 78.8892C65.2873 79.0748 64.9016 79.4118 64.7226 79.8794C64.4885 80.5189 64.7639 81.0759 64.8741 81.2891C65.6453 82.8432 66.6576 84.253 67.6285 85.6145L68.3722 86.6598L69.3983 88.1314L72.1665 92.0923L72.8 93.0069L73.7021 92.3674L97.0597 75.8841C97.8089 75.361 98.4458 74.6938 98.933 73.9214C99.4202 73.1491 99.7479 72.2873 99.8968 71.3867C100.052 70.485 100.027 69.5615 99.824 68.6693C99.6208 67.7771 99.243 66.9339 98.7124 66.188L82.2271 42.8898L81.5936 41.9958Z" fill="#0F2D35"/>
<path d="M38.5964 33.9913C38.5138 33.5649 38.4311 33.1386 38.3554 32.7191C38.0593 31.1306 37.7494 29.4939 37.2123 27.9811L37.1848 27.9123L37.1297 27.9398C36.7716 28.1323 36.4479 28.3799 36.0968 28.6412C35.7456 28.9025 35.5665 29.0469 35.2704 29.2326C34.2657 29.8699 33.1002 30.2085 31.91 30.2091C30.8575 30.2194 29.8245 29.9256 28.9352 29.3633C27.5236 28.4418 26.5664 27.1146 26.2427 25.6086V25.5949C25.988 24.082 26.3805 22.4866 27.3514 21.1113C28.3223 19.7359 30.2023 18.7732 32.1372 18.7732C32.521 18.7716 32.9039 18.8085 33.2803 18.8832C33.6178 18.9451 33.9483 19.0345 34.2651 19.1239C34.6851 19.2339 35.0845 19.344 35.4839 19.3921H35.5459V19.3165C35.4839 17.7142 35.1602 16.0776 34.8504 14.4959C34.7677 14.0764 34.6782 13.6501 34.6025 13.2237L33.2872 6.16828L61.8646 0.673828C62.2702 0.591468 62.6832 0.550001 63.0972 0.550049C64.5859 0.55008 66.0283 1.06753 67.1767 2.01362C68.3251 2.95971 69.108 4.27544 69.3911 5.73505L74.9068 34.3213L67.8348 35.6348L66.5747 35.8755C64.9495 36.1987 63.2693 36.5287 61.5753 36.5906H61.4583C61.3274 36.5906 60.9281 36.5906 60.6388 36.3018C60.3496 36.013 60.3496 35.4629 60.3703 35.2978C60.4339 34.832 60.5352 34.372 60.6733 33.9225C60.7559 33.613 60.8385 33.3173 60.8936 33.0217C61.2448 31.1718 60.508 29.1913 59.1032 28.2011C58.1943 27.5616 57.182 27.2246 56.1835 27.2246C55.9366 27.2244 55.6901 27.2451 55.4467 27.2865C54.221 27.5478 53.1674 28.3111 52.3962 29.4939C51.4597 30.9311 51.5147 33.0423 52.527 34.6308C52.6923 34.8852 52.8782 35.1259 53.071 35.3803C53.3632 35.7502 53.6279 36.1409 53.8629 36.5494C53.9387 36.6938 54.1797 37.127 53.9869 37.5809C53.794 38.0347 53.3947 38.131 53.2225 38.1929C51.6249 38.7637 49.9447 39.0731 48.3127 39.3826L47.0526 39.6301L40.0012 41.033L38.5964 33.9913Z" fill="#2FB7BF"/>
<path d="M63.0972 1.10031C64.4581 1.10073 65.7766 1.5736 66.8268 2.43796C67.877 3.30231 68.5936 4.50438 68.854 5.83833L74.2596 33.8814L67.7384 35.0917C65.6933 35.4699 63.6343 35.965 61.5547 36.0475H61.4583C61.2999 36.0475 61.1347 36.0269 61.0314 35.9169C60.9281 35.8068 60.8936 35.5593 60.9143 35.3736C61.0038 34.6034 61.293 33.8814 61.4308 33.1318C61.8095 31.1651 61.0865 28.9302 59.42 27.7611C58.4422 27.0666 57.3266 26.6815 56.1836 26.6815C55.9021 26.6808 55.621 26.7038 55.3434 26.7503C53.9318 27.0528 52.7474 27.9468 51.9348 29.1984C50.8262 30.9038 50.9845 33.2487 52.0657 34.9335C52.4788 35.5799 53.0091 36.1438 53.3809 36.8177C53.4704 36.9896 53.5531 37.189 53.4773 37.3678C53.4016 37.5466 53.2156 37.6223 53.0366 37.6842C51.0741 38.3787 48.9807 38.6881 46.9424 39.0939L40.435 40.3867C40.0012 38.2205 39.5743 36.0544 39.1404 33.8814C38.7342 31.8527 38.4243 29.7554 37.7288 27.8024C37.6668 27.6236 37.5842 27.431 37.412 27.3623C37.3645 27.3403 37.3129 27.3286 37.2605 27.3279C37.1208 27.3378 36.9858 27.3827 36.868 27.4586C36.1863 27.823 35.6216 28.3594 34.9744 28.772C34.0565 29.3491 32.9946 29.6565 31.91 29.6591C30.9666 29.6591 30.0301 29.4184 29.2382 28.9027C27.9781 28.0843 27.0829 26.9084 26.7799 25.4918C26.4769 24.0752 26.9314 22.6449 27.7921 21.4208C28.7631 20.0455 30.464 19.3166 32.1304 19.3166C32.4792 19.3173 32.8272 19.3495 33.1702 19.4129C33.9277 19.5573 34.6507 19.8392 35.4151 19.9355H35.5872C35.6543 19.9404 35.7217 19.932 35.7855 19.9107C35.8494 19.8895 35.9083 19.8558 35.9591 19.8117C36.0899 19.6811 36.0968 19.4748 36.0899 19.2891C36.0073 17.2123 35.5184 15.1562 35.1327 13.1138C34.7333 10.9408 34.3294 8.77008 33.9208 6.60164L61.9679 1.20346C62.3403 1.13312 62.7182 1.0963 63.0972 1.09343M63.0972 -0.00683594C62.6488 -0.00458639 62.2016 0.0391545 61.7613 0.123822L33.7142 5.51513L32.64 5.7283L32.8397 6.80106L33.4456 10.0606L34.0516 13.3133C34.1342 13.7465 34.2169 14.1797 34.2995 14.5923C34.5681 15.9539 34.8435 17.3499 34.9537 18.7183L34.4028 18.5808C34.0792 18.4914 33.7349 18.3951 33.3768 18.3263C32.9658 18.2493 32.5486 18.2102 32.1304 18.2094C31.1289 18.2091 30.1395 18.4274 29.2313 18.849C28.2988 19.2834 27.4929 19.9485 26.8901 20.7813C25.8365 22.2804 25.4096 24.0133 25.6919 25.6706V25.7188C26.0431 27.3623 27.0829 28.8201 28.6254 29.8173C29.5619 30.4293 30.6981 30.7525 31.8963 30.7525C33.1904 30.7489 34.4575 30.3819 35.5528 29.6935C35.8627 29.4941 36.145 29.2809 36.4135 29.0746L36.868 28.7376C37.2812 30.0511 37.5429 31.4539 37.7977 32.8155L38.0456 34.0945L38.7479 37.636L39.3401 40.593L39.5674 41.6795L40.6485 41.4663L47.1559 40.1735L48.416 39.9328C50.0687 39.6165 51.7696 39.3002 53.4085 38.7157C53.6288 38.64 54.221 38.4337 54.4896 37.8011C54.6893 37.3403 54.6411 36.8315 54.345 36.2951C54.0489 35.7587 53.7941 35.4355 53.5117 35.0573C53.3189 34.8097 53.1468 34.5759 52.9953 34.3421C52.0932 32.9324 52.0381 31.0619 52.8576 29.8035C53.5462 28.7514 54.4758 28.0706 55.55 27.8299C55.7596 27.7968 55.9714 27.7807 56.1836 27.7818C57.065 27.7818 57.9671 28.0843 58.7865 28.662C60.0191 29.5284 60.6664 31.282 60.3496 32.9255C60.3014 33.2006 60.2188 33.4825 60.1362 33.7851C60.0122 34.2458 59.8814 34.7203 59.8194 35.2429C59.7574 35.7656 59.8952 36.3432 60.2532 36.6939C60.6113 37.0446 60.9556 37.1478 61.4583 37.1478H61.596C63.3313 37.0859 65.0322 36.7489 66.678 36.4257L67.9381 36.1782L71.2021 35.573L74.4593 34.9679L75.5542 34.7685L75.3407 33.6751L69.9351 5.62515C69.6265 4.04059 68.7754 2.61264 67.5277 1.58628C66.2801 0.559909 64.7137 -0.000903259 63.0972 4.32441e-05V-0.00683594Z" fill="#0F2D35"/>
<path d="M24.6868 54.6213C23.4611 54.6213 22.2284 54.2156 21.1267 53.4385C19.3569 52.1938 18.4617 49.8145 18.8956 47.5177C18.9575 47.1808 19.0471 46.8507 19.1366 46.5344C19.2566 46.136 19.3464 45.7291 19.4051 45.3172C19.4108 45.2971 19.4131 45.2762 19.412 45.2553H19.3363C17.7318 45.3241 16.0929 45.6404 14.5091 45.9567L13.2352 46.2043L6.17004 47.5177L0.668045 18.9658C0.505702 18.1387 0.508511 17.2877 0.676312 16.4616C0.844112 15.6356 1.1736 14.8507 1.64587 14.1521C2.11444 13.4536 2.71732 12.8549 3.4195 12.391C4.12168 11.9271 4.90916 11.6071 5.73622 11.4496L34.3618 5.94141L35.677 13.0037C35.7527 13.4232 35.8423 13.8496 35.9249 14.269C36.2417 15.8919 36.5722 17.5698 36.6411 19.2546C36.6479 19.4403 36.6617 19.8804 36.3518 20.1899C36.159 20.3824 35.9042 20.4787 35.5875 20.4787L35.3465 20.4649C34.8812 20.3947 34.4211 20.2937 33.9692 20.1623C33.6594 20.073 33.3633 19.9973 33.0672 19.9354C32.7581 19.8801 32.4447 19.8524 32.1307 19.8529C30.5469 19.8529 29.0595 20.5681 28.2469 21.7233C27.4343 22.8786 27.1107 24.1371 27.3242 25.3749C27.5376 26.6127 28.3571 27.6579 29.5346 28.4212C30.2094 28.8613 31.0289 29.0883 31.9103 29.0883C32.8898 29.0877 33.8493 28.8112 34.6785 28.2906C34.9333 28.1255 35.1743 27.9467 35.436 27.7473C35.804 27.4556 36.1929 27.1912 36.5997 26.9565C36.8014 26.8401 37.0281 26.774 37.2608 26.7639C37.3885 26.7645 37.5149 26.7902 37.6327 26.8396C38.0389 27.0115 38.1835 27.4241 38.2455 27.596C38.8171 29.1914 39.1338 30.8693 39.4368 32.4991C39.5126 32.9117 39.5952 33.3449 39.6778 33.7575L41.0826 40.7992L34.0312 42.2021L32.7573 42.4427C31.1735 42.7453 29.5346 43.0479 28.0197 43.5911L27.9439 43.6186C27.9546 43.6338 27.9638 43.6499 27.9715 43.6668C28.1785 44.0299 28.4158 44.3749 28.6807 44.6983C28.8735 44.9596 29.0801 45.2347 29.266 45.5235C30.5262 47.4902 30.5813 50.0346 29.3969 51.85C28.4741 53.2666 27.1451 54.2156 25.6371 54.5388H25.6164C25.3096 54.5939 24.9985 54.6215 24.6868 54.6213Z" fill="#F7BA31"/>
<path d="M33.9208 6.58794C34.3248 8.76096 34.7288 10.934 35.1327 13.107C35.5184 15.1425 36.0073 17.1986 36.0899 19.2754C36.0968 19.4611 36.0899 19.6742 35.9591 19.8049C35.9083 19.849 35.8494 19.8827 35.7855 19.9039C35.7217 19.9252 35.6543 19.9336 35.5872 19.9287L35.4151 19.9149C34.6507 19.8255 33.9277 19.5436 33.1702 19.3992C32.8277 19.3324 32.4793 19.3002 32.1304 19.3029C30.464 19.3029 28.7631 20.0318 27.7922 21.4072C26.9314 22.6243 26.5389 24.0547 26.7799 25.4781C27.0209 26.9016 27.9781 28.0706 29.2382 28.8821C30.0301 29.3978 30.9666 29.6385 31.91 29.6385C32.9951 29.6393 34.0579 29.3316 34.9744 28.7514C35.6217 28.3388 36.1863 27.8093 36.868 27.438C36.9876 27.3671 37.1219 27.3247 37.2605 27.3142C37.3124 27.3127 37.364 27.3221 37.412 27.3417C37.5842 27.4174 37.6668 27.6099 37.7288 27.7818C38.4243 29.7417 38.7342 31.8322 39.1404 33.8677C39.5743 36.0338 40.0012 38.2 40.435 40.3661L33.9277 41.6589C31.8894 42.0646 29.796 42.3741 27.8335 43.0686C27.6544 43.1305 27.4685 43.2131 27.3928 43.385C27.317 43.5569 27.3996 43.7632 27.4892 43.9351C27.861 44.609 28.3912 45.1729 28.8044 45.8193C29.8786 47.5041 30.0439 49.849 28.9352 51.5544C28.1158 52.806 26.9383 53.7 25.5266 54.0025C25.249 54.049 24.968 54.072 24.6865 54.0713C23.5434 54.0713 22.4279 53.6862 21.4432 52.9917C19.7836 51.8226 19.0606 49.5877 19.4324 47.621C19.577 46.8714 19.8662 46.1494 19.9558 45.3792C19.9764 45.1935 19.9764 44.9735 19.8387 44.8359C19.701 44.6984 19.5701 44.7053 19.4118 44.7053H19.3154C17.2358 44.7878 15.1768 45.2829 13.1316 45.6611L6.6105 46.8714L1.2049 18.8628C0.592039 15.6789 2.66476 12.5981 5.83925 11.993L33.9208 6.58794ZM34.8022 5.302L33.7142 5.5083L5.63267 10.9065C4.73443 11.0776 3.87921 11.4253 3.11672 11.9294C2.35423 12.4335 1.69969 13.0839 1.19113 13.8428C0.677817 14.6011 0.319317 15.453 0.136165 16.3498C-0.0469864 17.2466 -0.0511913 18.1707 0.123787 19.0691L5.52938 47.0846L5.73596 48.1574L6.81019 47.9579L9.10326 47.5316L13.3382 46.7408C13.7652 46.6651 14.199 46.5757 14.619 46.4932C15.9756 46.225 17.3735 45.95 18.7507 45.8468C18.7025 46.0187 18.6543 46.2044 18.6061 46.3901C18.5166 46.7201 18.4202 47.0571 18.3513 47.4147C18.1333 48.6068 18.233 49.8353 18.6405 50.9768C19.0743 52.1871 19.8249 53.198 20.8096 53.8925C22.0009 54.7315 23.3437 55.1716 24.6865 55.1716C25.0302 55.1717 25.3733 55.1441 25.7125 55.089H25.7539C27.3996 54.7315 28.8595 53.6931 29.858 52.1596C30.5122 51.1487 30.8358 49.9315 30.7876 48.6456C30.7441 47.4357 30.3806 46.2589 29.734 45.2348C29.5343 44.9253 29.3209 44.6434 29.1143 44.3752C28.9972 44.217 28.887 44.0726 28.7837 43.9213C30.0921 43.5156 31.4969 43.2474 32.8603 42.993C33.2804 42.9174 33.7142 42.8348 34.1411 42.7454L37.1435 42.1472L40.6485 41.4457L41.7296 41.2326L41.5162 40.1529L41.3509 39.3415L40.2216 33.6545C40.1389 33.235 40.0563 32.8087 39.9806 32.3961C39.6707 30.7525 39.347 29.0471 38.7686 27.4174C38.686 27.1904 38.4794 26.6059 37.8527 26.3308C37.6648 26.2538 37.4637 26.2141 37.2605 26.2139C36.9361 26.2235 36.619 26.3133 36.3378 26.4753C35.9052 26.7252 35.491 27.0055 35.0983 27.3142C34.8504 27.4999 34.6163 27.6787 34.3822 27.8231C33.643 28.2915 32.7854 28.5396 31.91 28.5382C31.1778 28.5495 30.4579 28.3489 29.8373 27.9606C28.7837 27.2798 28.102 26.3446 27.861 25.2718C27.62 24.1991 27.9712 23.0644 28.6942 22.0398C29.4173 21.0152 30.7256 20.4032 32.1304 20.4032C32.4098 20.4038 32.6886 20.4291 32.9636 20.4788C33.2391 20.5338 33.5214 20.6095 33.8244 20.692C34.2857 20.8158 34.7609 20.9464 35.2842 21.0083L35.5872 21.0289C35.8001 21.0348 36.012 20.9983 36.2107 20.9216C36.4093 20.8449 36.5906 20.7294 36.7441 20.582C37.2261 20.0937 37.1986 19.4679 37.1917 19.2341C37.1228 17.5012 36.7854 15.8027 36.4618 14.1591C36.3791 13.7465 36.2965 13.3202 36.2207 12.9007L35.6079 9.64805L35.0019 6.38851L34.8022 5.302Z" fill="#0F2D35"/>
<path d="M17.773 80.1956C16.2844 80.1961 14.8419 79.6799 13.6925 78.7353C12.543 77.7906 11.7582 76.4763 11.4723 75.0174L5.96338 46.4243L13.0354 45.1108L14.2956 44.8701C15.9207 44.5469 17.6009 44.2169 19.2949 44.155H19.4119C19.5428 44.155 19.9353 44.155 20.2314 44.4438C20.5275 44.7326 20.5206 45.2827 20.4999 45.4478C20.4363 45.9136 20.335 46.3736 20.197 46.8231C20.1143 47.1326 20.0317 47.4283 19.9766 47.724C19.6254 49.5738 20.3622 51.5543 21.7601 52.5445C22.676 53.184 23.6882 53.521 24.6867 53.521C24.931 53.5198 25.1749 53.5014 25.4166 53.466C26.6492 53.1978 27.7028 52.4345 28.4741 51.2517C29.4037 49.8145 29.3555 47.7033 28.3363 46.1148C28.1779 45.8604 27.992 45.6197 27.7992 45.3653C27.5238 45.0008 27.2346 44.6226 27.0073 44.1962C26.9247 44.0518 26.6905 43.6186 26.8834 43.1647C27.0762 42.7109 27.4687 42.6146 27.6477 42.5527C29.2384 41.9888 30.9255 41.6725 32.5506 41.363L33.8177 41.1224L40.869 39.7126L42.2669 46.7543C42.3564 47.1807 42.4322 47.6071 42.5148 48.0265C42.8109 49.6082 43.1208 51.2517 43.6579 52.7646L43.6855 52.8333L43.7405 52.8058C44.1005 52.5958 44.4456 52.3615 44.7735 52.1044C45.0351 51.905 45.3037 51.6987 45.5998 51.513C46.6059 50.8789 47.7705 50.5404 48.9602 50.5365C50.0126 50.5274 51.0453 50.8211 51.935 51.3823C53.3467 52.3038 54.3038 53.631 54.6275 55.137V55.1508C54.8891 56.6636 54.4966 58.259 53.5257 59.6343C52.5548 61.0097 50.6749 61.9724 48.733 61.9724C48.3515 61.974 47.9708 61.9371 47.5968 61.8624C47.2525 61.8005 46.9288 61.7111 46.6052 61.6217C46.2815 61.5323 45.7926 61.4016 45.3863 61.3535H45.3312V61.4291C45.3932 63.0314 45.7169 64.6681 46.0267 66.2497L46.2746 67.5219L47.5899 74.5773L18.9988 80.0718C18.5954 80.1538 18.1847 80.1952 17.773 80.1956Z" fill="#F58439"/>
<path d="M40.435 40.3592C40.862 42.5231 41.2935 44.6915 41.7296 46.8645C42.1359 48.8932 42.4389 50.9905 43.1413 52.9504C43.2033 53.1223 43.2859 53.3149 43.4512 53.3836C43.499 53.4047 43.5504 53.4164 43.6027 53.418C43.7446 53.4084 43.8819 53.3634 44.002 53.2873C44.6769 52.9229 45.2484 52.3865 45.8957 51.9739C46.8132 51.3962 47.8754 51.0887 48.96 51.0868C49.905 51.0769 50.8327 51.3396 51.6319 51.8432C52.8851 52.6616 53.7803 53.8375 54.0902 55.2541C54.4001 56.6707 53.9387 58.101 53.071 59.3251C52.107 60.7004 50.4061 61.4293 48.7328 61.4293C48.3863 61.4283 48.0406 61.3961 47.6999 61.333C46.9424 61.1886 46.2194 60.9067 45.455 60.8173L45.2829 60.8035C45.2147 60.7981 45.1461 60.8062 45.0811 60.8275C45.016 60.8487 44.9559 60.8827 44.9041 60.9273C44.7733 61.058 44.7733 61.2643 44.7802 61.4499C44.8628 63.5267 45.3517 65.5828 45.7305 67.6252L46.9493 74.1374L18.8953 79.5356C18.5252 79.6059 18.1496 79.6427 17.7729 79.6456C16.4116 79.6465 15.0925 79.1741 14.042 78.3095C12.9915 77.4449 12.2752 76.2421 12.0161 74.9076L6.61051 46.8645L13.1316 45.6543C15.1768 45.276 17.2358 44.7809 19.3154 44.6984H19.4118C19.5702 44.6984 19.7285 44.719 19.8387 44.8291C19.9489 44.9391 19.9764 45.1866 19.9558 45.3723C19.8594 46.1425 19.577 46.8645 19.4324 47.6141C19.0606 49.5808 19.7836 51.8157 21.4432 52.9848C22.4279 53.6793 23.5434 54.0644 24.6865 54.0644C24.9657 54.0654 25.2445 54.0424 25.5197 53.9956C26.9383 53.6931 28.1158 52.7991 28.9353 51.5476C30.0439 49.8421 29.8787 47.4972 28.8044 45.8124C28.3913 45.166 27.8541 44.6021 27.4892 43.9282C27.3997 43.7563 27.317 43.5569 27.3928 43.3781C27.4685 43.1993 27.6544 43.1236 27.8335 43.0617C29.7891 42.3672 31.8894 42.0578 33.9208 41.652L40.435 40.3592ZM41.2958 39.0664L40.2216 39.2796L35.8764 40.146L33.7073 40.5793L32.4472 40.82C30.8014 41.1294 29.1005 41.4457 27.4616 42.0302C27.2413 42.1059 26.6491 42.3191 26.3805 42.9448C26.1808 43.4056 26.229 43.9145 26.5182 44.4508C26.7652 44.8849 27.0461 45.2987 27.3583 45.6886C27.5443 45.9362 27.7233 46.17 27.8748 46.4038C28.7769 47.8135 28.832 49.684 28.0125 50.9424C27.3239 51.9945 26.3943 52.6753 25.3132 52.916C25.106 52.9491 24.8964 52.9652 24.6865 52.9641C23.7982 52.9641 22.8961 52.6616 22.0767 52.0839C20.8441 51.2175 20.2037 49.4639 20.5135 47.8204C20.5686 47.5453 20.6444 47.2634 20.727 46.9608C20.8718 46.4842 20.9777 45.9966 21.0438 45.503C21.1195 44.8978 20.9749 44.4027 20.6168 44.052C20.2588 43.7013 19.9076 43.5981 19.4118 43.5981H19.2741C17.5388 43.66 15.8379 43.997 14.1921 44.3202L12.9319 44.5677L7.29223 45.613L6.40392 45.778L5.31592 45.9775L5.52939 47.0708L10.935 75.1139C11.2436 76.6984 12.0947 78.1264 13.3423 79.1528C14.59 80.1791 16.1564 80.7399 17.7729 80.739C18.2213 80.7367 18.6685 80.693 19.1088 80.6083L47.1559 75.2239L48.2301 75.0107L48.0304 73.938L46.8185 67.4258C46.7358 66.9925 46.6532 66.5593 46.5706 66.1467C46.302 64.7851 46.0266 63.3892 45.9164 62.0207L46.4604 62.1582C46.7909 62.2545 47.1283 62.3439 47.4933 62.4127C47.902 62.4897 48.3169 62.5288 48.7328 62.5296C49.7365 62.5305 50.7283 62.3122 51.6387 61.8901C52.5693 61.4554 53.3729 60.7902 53.9731 59.9577C55.0336 58.4586 55.4536 56.7257 55.1713 55.0684V55.0203C54.8201 53.3767 53.7734 51.9189 52.2378 50.9218C51.2613 50.3002 50.1249 49.9753 48.9669 49.9865C47.6726 49.989 46.4052 50.3561 45.3104 51.0456C44.9936 51.245 44.7182 51.4582 44.4428 51.6645L43.9883 52.0014C43.582 50.688 43.3203 49.2851 43.0587 47.9235C42.9829 47.5041 42.9003 47.0708 42.8176 46.6445L42.1015 43.103L41.5162 40.146L41.2958 39.0664Z" fill="#0F2D35"/>
</g>
<defs>
<clipPath id="clip0_31_9259">
<rect width="100" height="93" fill="white"/>
</clipPath>
</defs>
</svg>
