<svg width="150" height="100" viewBox="0 0 150 100" fill="none" xmlns="http://www.w3.org/2000/svg">
<rect width="170" height="100" transform="translate(-10)" fill="white"/>
<path d="M56.9648 52.2148V68.0352H72.7852V72.4648H56.9648C55.7695 72.4648 54.7148 72.043 53.8008 71.1992C52.957 70.2852 52.5352 69.2305 52.5352 68.0352V52.2148H56.9648ZM93.0352 68.0352V52.2148H97.4648V68.0352C97.4648 69.2305 97.0078 70.2852 96.0938 71.1992C95.25 72.043 94.2305 72.4648 93.0352 72.4648H77.2148V68.0352H93.0352ZM93.0352 27.5352C94.2305 27.5352 95.25 27.9922 96.0938 28.9062C97.0078 29.75 97.4648 30.7695 97.4648 31.9648V47.7852H93.0352V31.9648H77.2148V27.5352H93.0352ZM85.2305 39.7695C85.9336 40.4023 86.2852 41.1758 86.2852 42.0898C86.2852 43.0039 85.9336 43.8125 85.2305 44.5156C84.5977 45.1484 83.8242 45.4648 82.9102 45.4648C81.9961 45.4648 81.1875 45.1484 80.4844 44.5156C79.8516 43.8125 79.5352 43.0039 79.5352 42.0898C79.5352 41.1758 79.8516 40.4023 80.4844 39.7695C81.1875 39.0664 81.9961 38.7148 82.9102 38.7148C83.8242 38.7148 84.5977 39.0664 85.2305 39.7695ZM70.4648 52.2148L77.2148 60.5469L81.75 54.5352L88.5 63.5H61.5L70.4648 52.2148ZM56.9648 31.9648V47.7852H52.5352V31.9648C52.5352 30.7695 52.957 29.75 53.8008 28.9062C54.7148 27.9922 55.7695 27.5352 56.9648 27.5352H72.7852V31.9648H56.9648Z" fill="#0F2D35" fill-opacity="0.3"/>
</svg>
