<svg width="267" height="58" viewBox="0 0 267 58" fill="none" xmlns="http://www.w3.org/2000/svg">
<mask id="mask0_43_17362" style="mask-type:alpha" maskUnits="userSpaceOnUse" x="0" y="0" width="267" height="58">
<rect width="267" height="58" fill="#D9D9D9"/>
</mask>
<g mask="url(#mask0_43_17362)">
<path d="M2.391 47V43.736L8.247 30.248C10.935 24.104 11.799 20.648 11.799 17.624C11.799 14.648 10.839 13.4 8.679 13.4C6.615 13.4 5.751 15.512 5.751 18.2V21.656H2.295V18.2C2.295 13.016 5.271 10.04 8.679 10.04C12.183 10.04 15.159 12.152 15.159 18.056C15.159 20.456 14.055 25.208 11.223 31.64L5.991 43.64H15.015V47H2.391ZM18.6555 41.288V16.232C18.6555 12.68 21.2955 10.04 24.8475 10.04C28.3995 10.04 31.0395 12.68 31.0395 16.232V41.288C31.0395 44.84 28.3995 47.48 24.8475 47.48C21.2955 47.48 18.6555 44.84 18.6555 41.288ZM21.9195 40.808C21.9195 42.968 23.1675 44.312 24.8475 44.312C26.5275 44.312 27.7755 42.968 27.7755 40.808V16.232C27.7755 14.552 26.5275 13.304 24.8475 13.304C23.1675 13.304 21.9195 14.552 21.9195 16.232V40.808ZM35.016 47V43.736L40.872 30.248C43.56 24.104 44.424 20.648 44.424 17.624C44.424 14.648 43.464 13.4 41.304 13.4C39.24 13.4 38.376 15.512 38.376 18.2V21.656H34.92V18.2C34.92 13.016 37.896 10.04 41.304 10.04C44.808 10.04 47.784 12.152 47.784 18.056C47.784 20.456 46.68 25.208 43.848 31.64L38.616 43.64H47.64V47H35.016ZM62.4645 37.064H64.7685V40.232H62.4645V47H59.2005V40.232H50.7525V36.392C50.7525 28.712 54.0645 15.176 59.2005 10.52H62.4645V37.064ZM53.9205 37.064H59.2005V14.264C56.2245 19.496 53.9205 30.296 53.9205 36.536V37.064Z" fill="#0F2D35"/>
<path d="M115.932 10.52H131.484V13.688H125.34V47H122.076V13.688H115.932V10.52ZM147.683 47H144.323L142.403 35.816H135.635L133.859 47H130.499L136.835 10.52H140.963L147.683 47ZM136.115 32.552H141.875L138.947 15.32H138.851L136.115 32.552ZM152.12 47V10.52H155.384V47H152.12ZM175.252 39.8H175.396L177.844 10.52H181.108L177.172 47H173.524L170.5 21.08H170.404L167.668 47H163.684L159.7 10.52H162.964L165.652 39.8H165.796L169.012 10.52H171.796L175.252 39.8ZM198.214 47H194.854L192.934 35.816H186.166L184.39 47H181.03L187.366 10.52H191.494L198.214 47ZM186.646 32.552H192.406L189.478 15.32H189.382L186.646 32.552ZM206.155 10.52L213.019 40.76H213.115V10.52H216.283V47H211.531L204.667 16.76H204.571V47H201.403V10.52H206.155Z" fill="#0F2D35"/>
</g>
</svg>
