<svg width="291" height="90" viewBox="0 0 291 90" fill="none" xmlns="http://www.w3.org/2000/svg">
<mask id="mask0_47_35200" style="mask-type:alpha" maskUnits="userSpaceOnUse" x="0" y="0" width="291" height="90">
<path d="M0 0H291V90H0V0Z" fill="#D9D9D9"/>
</mask>
<g mask="url(#mask0_47_35200)">
<mask id="mask1_47_35200" style="mask-type:alpha" maskUnits="userSpaceOnUse" x="-2" y="0" width="291" height="90">
<rect x="-2" width="291" height="90" fill="#D9D9D9"/>
</mask>
<g mask="url(#mask1_47_35200)">
</g>
<g clip-path="url(#clip0_47_35200)">
<path d="M0.391 63V59.736L6.247 46.248C8.935 40.104 9.799 36.648 9.799 33.624C9.799 30.648 8.839 29.4 6.679 29.4C4.615 29.4 3.751 31.512 3.751 34.2V37.656H0.295V34.2C0.295 29.016 3.271 26.04 6.679 26.04C10.183 26.04 13.159 28.152 13.159 34.056C13.159 36.456 12.055 41.208 9.223 47.64L3.991 59.64H13.015V63H0.391ZM16.6555 57.288V32.232C16.6555 28.68 19.2955 26.04 22.8475 26.04C26.3995 26.04 29.0395 28.68 29.0395 32.232V57.288C29.0395 60.84 26.3995 63.48 22.8475 63.48C19.2955 63.48 16.6555 60.84 16.6555 57.288ZM19.9195 56.808C19.9195 58.968 21.1675 60.312 22.8475 60.312C24.5275 60.312 25.7755 58.968 25.7755 56.808V32.232C25.7755 30.552 24.5275 29.304 22.8475 29.304C21.1675 29.304 19.9195 30.552 19.9195 32.232V56.808ZM33.016 63V59.736L38.872 46.248C41.56 40.104 42.424 36.648 42.424 33.624C42.424 30.648 41.464 29.4 39.304 29.4C37.24 29.4 36.376 31.512 36.376 34.2V37.656H32.92V34.2C32.92 29.016 35.896 26.04 39.304 26.04C42.808 26.04 45.784 28.152 45.784 34.056C45.784 36.456 44.68 41.208 41.848 47.64L36.616 59.64H45.64V63H33.016ZM60.4645 53.064H62.7685V56.232H60.4645V63H57.2005V56.232H48.7525V52.392C48.7525 44.712 52.0645 31.176 57.2005 26.52H60.4645V53.064ZM51.9205 53.064H57.2005V30.264C54.2245 35.496 51.9205 46.296 51.9205 52.536V53.064Z" fill="#0F2D35"/>
<path d="M125.932 26.52H141.484V29.688H135.34V63H132.076V29.688H125.932V26.52ZM157.683 63H154.323L152.403 51.816H145.635L143.859 63H140.499L146.835 26.52H150.963L157.683 63ZM146.115 48.552H151.875L148.947 31.32H148.851L146.115 48.552ZM162.12 63V26.52H165.384V63H162.12ZM185.252 55.8H185.396L187.844 26.52H191.108L187.172 63H183.524L180.5 37.08H180.404L177.668 63H173.684L169.7 26.52H172.964L175.652 55.8H175.796L179.012 26.52H181.796L185.252 55.8ZM208.214 63H204.854L202.934 51.816H196.166L194.39 63H191.03L197.366 26.52H201.494L208.214 63ZM196.646 48.552H202.406L199.478 31.32H199.382L196.646 48.552ZM216.155 26.52L223.019 56.76H223.115V26.52H226.283V63H221.531L214.667 32.76H214.571V63H211.403V26.52H216.155Z" fill="#0F2D35"/>
</g>
</g>
<defs>
<clipPath id="clip0_47_35200">
<rect width="1350" height="58" fill="white" transform="translate(-14 16)"/>
</clipPath>
</defs>
</svg>
