<svg xmlns="http://www.w3.org/2000/svg" width="16" height="16" viewBox="0 0 16 16" fill="none">
  <path d="M5.91647 10.789C6.44322 11.1558 7.03582 11.3346 7.70366 11.3346C8.3715 11.3346 8.96409 11.1558 9.49084 10.789C10.0176 10.4222 10.4032 9.94245 10.629 9.34985H4.77832C5.01348 9.94245 5.38973 10.4222 5.91647 10.789Z" fill="black" fill-opacity="0.87"/>
  <path d="M6.2928 7.37447C6.46212 7.20516 6.54677 7.00763 6.54677 6.77247C6.54677 6.53732 6.46212 6.33978 6.2928 6.17047C6.12349 6.00116 5.92596 5.9165 5.69081 5.9165C5.45565 5.9165 5.25812 6.00116 5.08881 6.17047C4.91949 6.33978 4.83484 6.53732 4.83484 6.77247C4.83484 7.00763 4.91949 7.20516 5.08881 7.37447C5.25812 7.54378 5.45565 7.62844 5.69081 7.62844C5.92596 7.62844 6.12349 7.54378 6.2928 7.37447Z" fill="currentColor"/>
  <path d="M13.291 7.98593H12.4257C12.3504 7.98593 12.2846 8.04237 12.2846 8.12702C12.2846 8.12702 12.2846 8.12702 12.2846 8.13643V8.16465C12.2846 8.16465 12.2846 8.17405 12.2846 8.18346C12.2846 9.43449 11.8331 10.5162 10.9301 11.4192C10.0271 12.3222 8.94535 12.7737 7.69432 12.7737C6.4433 12.7737 5.36158 12.3222 4.45858 11.4192C3.55558 10.5162 3.10408 9.43449 3.10408 8.18346C3.10408 6.93243 3.55558 5.85071 4.45858 4.94772C5.36158 4.04472 6.4433 3.59322 7.69432 3.59322C8.94535 3.59322 8.73842 3.67787 9.21813 3.84719C9.28398 3.866 9.35923 3.84719 9.38745 3.78134L9.76369 2.94419C9.78251 2.89716 9.76369 2.84072 9.70726 2.82191C9.08645 2.58675 8.4092 2.47388 7.69432 2.47388C6.12348 2.47388 4.76899 3.02884 3.65905 4.14819C2.53971 5.26753 1.98474 6.61262 1.98474 8.18346C1.98474 9.7543 2.53971 11.1088 3.65905 12.2187C4.77839 13.3381 6.12348 13.893 7.69432 13.893C9.26516 13.893 10.6103 13.3381 11.7296 12.2187C12.8395 11.1088 13.4039 9.77311 13.4039 8.21168C13.4039 8.05177 13.4039 7.97652 13.2816 7.97652L13.291 7.98593Z" fill="currentColor"/>
  <path d="M9.10529 6.17047C8.93597 6.33978 8.85132 6.53732 8.85132 6.77247C8.85132 7.00763 8.93597 7.20516 9.10529 7.37447C9.2746 7.54378 9.47213 7.62844 9.70729 7.62844C9.94244 7.62844 10.14 7.54378 10.3093 7.37447C10.4786 7.20516 10.5633 7.00763 10.5633 6.77247C10.5633 6.53732 10.4786 6.33978 10.3093 6.17047C10.14 6.00116 9.94244 5.9165 9.70729 5.9165C9.47213 5.9165 9.2746 6.00116 9.10529 6.17047Z" fill="currentColor"/>
  <path d="M14.6079 3.98819H13.3192V2.72776C13.3192 2.65251 13.2628 2.59607 13.1876 2.59607H12.1435C12.0682 2.59607 12.0118 2.65251 12.0118 2.72776V3.98819H10.7231C10.6479 3.98819 10.5914 4.04463 10.5914 4.11988V5.16397C10.5914 5.23922 10.6479 5.29566 10.7231 5.29566H12.0118V6.55609C12.0118 6.63134 12.0682 6.68778 12.1435 6.68778H13.1876C13.2628 6.68778 13.3192 6.63134 13.3192 6.55609V5.29566H14.6079C14.6831 5.29566 14.7396 5.23922 14.7396 5.16397V4.11988C14.7396 4.04463 14.6831 3.98819 14.6079 3.98819Z" fill="currentColor"/>
</svg>