<svg width="20" height="20" viewBox="0 0 20 20" fill="none" xmlns="http://www.w3.org/2000/svg">
<circle cx="10" cy="10" r="10" fill="url(#paint0_radial_31_4562)"/>
<path d="M6.29043 10.8054C7.23105 10.923 8.17168 9.62963 8.39508 7.91299C8.41859 7.73663 8.43035 7.5485 8.44211 7.38389L7.27809 6.58436L5.67903 5.49089L4.91477 4.96179C4.78543 4.86773 4.59731 4.903 4.50325 5.03234C4.40918 5.16167 4.44446 5.3498 4.57379 5.44386L5.39684 6.00823C5.20871 6.43151 5.06762 6.9371 4.99707 7.47796C4.77368 9.19459 5.36157 10.6878 6.30219 10.8172L6.29043 10.8054Z" fill="#4F3C2D"/>
<path d="M15.5085 5.02058C15.4145 4.89124 15.2381 4.85597 15.097 4.95003L14.3328 5.47913L12.7337 6.57261L11.5697 7.37214C11.5697 7.5485 11.5932 7.72487 11.6167 7.90124C11.8401 9.61787 12.7807 10.923 13.7213 10.7937C14.662 10.6761 15.2381 9.18284 15.0265 7.45444C14.9559 6.91358 14.8148 6.408 14.6267 5.98472L15.4497 5.42034C15.5791 5.32628 15.6144 5.14991 15.5203 5.00882L15.5085 5.02058Z" fill="#4F3C2D"/>
<path d="M9.99411 11.4874C12.2281 11.4874 14.2975 12.5926 15.532 14.4503C15.6966 14.709 15.6378 15.05 15.3792 15.2146C15.1205 15.3792 14.7795 15.3204 14.6149 15.0617C13.5802 13.5097 11.8518 12.5926 9.99411 12.5926C8.13638 12.5926 6.40799 13.5215 5.3733 15.0617C5.20869 15.3204 4.85596 15.3792 4.60904 15.2146C4.35037 15.05 4.29158 14.6972 4.45619 14.4503C5.69076 12.5926 7.77189 11.4874 9.99411 11.4874Z" fill="#4F3C2D"/>
<defs>
<radialGradient id="paint0_radial_31_4562" cx="0" cy="0" r="1" gradientUnits="userSpaceOnUse" gradientTransform="translate(9.99412 10) scale(9.99412 10)">
<stop stop-color="#F3A338"/>
<stop offset="0.5" stop-color="#F27C4B"/>
<stop offset="0.8" stop-color="#F26356"/>
<stop offset="1" stop-color="#F25B5B"/>
</radialGradient>
</defs>
</svg>
