<svg width="20" height="20" viewBox="0 0 20 20" fill="none" xmlns="http://www.w3.org/2000/svg">
<circle cx="10" cy="10" r="10" fill="url(#paint0_linear_31_4568)"/>
<path d="M3.79778 10.0882C4.00942 9.5826 4.30336 9.18284 4.66785 8.88889C5.03234 8.59495 5.44387 8.4421 5.90242 8.4421H6.7725C6.59613 8.66549 6.41976 8.93592 6.25515 9.24163C6.07879 9.55909 5.93769 9.92358 5.82012 10.3351C5.70254 10.7466 5.64375 11.2052 5.64375 11.7225C5.64375 12.2399 5.76133 13.0511 6.00824 13.6273C6.25515 14.2152 6.64316 14.709 7.19578 15.1088H6.11406C5.60848 15.1088 5.16168 14.9559 4.76192 14.6502C4.36215 14.3445 4.04469 13.9447 3.82129 13.4392C3.58614 12.9336 3.48032 12.381 3.48032 11.7813C3.48032 11.1817 3.58614 10.582 3.79778 10.0764V10.0882ZM6.61965 10.4527C6.70195 10.0764 6.83129 9.71194 7.00765 9.38272C7.18402 9.0535 7.39566 8.71252 7.65433 8.35979C8.11289 7.74839 8.63023 7.07819 9.18284 6.34921C9.73546 5.62023 10.241 4.8207 10.6996 3.93886C10.8172 3.71546 10.9348 3.52734 11.0641 3.38625C11.1934 3.24515 11.358 3.17461 11.5814 3.17461C11.8048 3.17461 12.0282 3.25691 12.1811 3.40976C12.3457 3.56261 12.428 3.78601 12.428 4.0682C12.428 4.35039 12.381 4.63257 12.2751 4.93827C12.1693 5.24398 12.0517 5.56144 11.9224 5.86714C11.7931 6.17284 11.6637 6.46679 11.5697 6.74897C11.4639 7.0194 11.4168 7.26632 11.4168 7.4662C11.4168 7.66608 11.4991 7.87772 11.6637 8.00706C11.8283 8.13639 12.0517 8.20694 12.3222 8.20694H14.4738C14.6737 8.20694 14.8619 8.25397 15.0147 8.34803C15.1793 8.4421 15.2969 8.57143 15.391 8.73604C15.485 8.90065 15.5321 9.07702 15.5321 9.2769C15.5321 9.47678 15.5085 9.60612 15.4497 9.73545C15.391 9.86479 15.3204 9.98237 15.2263 10.0647C15.1323 10.147 15.1323 10.2293 15.2028 10.2998C15.2851 10.3704 15.3439 10.4762 15.391 10.6173C15.438 10.7584 15.4615 10.8877 15.4615 11.0406C15.4615 11.1934 15.4145 11.4168 15.3322 11.5814C15.2499 11.746 15.1323 11.8636 15.0029 11.9459C14.8971 12.0047 14.8736 12.087 14.9442 12.1811C15.0853 12.3574 15.1558 12.5926 15.1558 12.863C15.1558 13.1335 15.0853 13.3098 14.9559 13.4862C14.8148 13.6626 14.662 13.7801 14.4738 13.8624C14.3915 13.886 14.3798 13.9447 14.4386 14.0388C14.4739 14.1094 14.5091 14.1799 14.5326 14.274C14.5562 14.3563 14.5679 14.4621 14.5679 14.5797C14.5679 14.8736 14.4738 15.0852 14.274 15.2381C14.0858 15.391 13.8624 15.4968 13.6273 15.5556C13.4627 15.6026 13.2393 15.6379 12.9453 15.6614C12.6514 15.6849 12.3104 15.6967 11.9224 15.6967H11.0876C10.3821 15.6967 9.73546 15.6026 9.17109 15.4027C8.60671 15.2028 8.12464 14.9206 7.72488 14.5679C7.32511 14.2034 7.01941 13.7919 6.81953 13.3098C6.60789 12.8278 6.50207 12.3104 6.50207 11.746C6.50207 11.1817 6.5491 10.8407 6.6314 10.4644L6.61965 10.4527Z" fill="white"/>
<defs>
<linearGradient id="paint0_linear_31_4568" x1="9.99412" y1="0" x2="9.99412" y2="20.0118" gradientUnits="userSpaceOnUse">
<stop stop-color="#458281"/>
<stop offset="0.1" stop-color="#457F7A"/>
<stop offset="0.7" stop-color="#457761"/>
<stop offset="1" stop-color="#457559"/>
</linearGradient>
</defs>
</svg>
