<svg width="20" height="20" viewBox="0 0 20 20" fill="none" xmlns="http://www.w3.org/2000/svg">
<circle cx="10" cy="10" r="10" fill="url(#paint0_linear_31_4547)"/>
<path d="M3.63318 17.7072C4.63259 18.5303 5.78485 19.1652 7.0547 19.5532V8.79483L3.63318 9.42975V17.7072Z" fill="#43CEDD"/>
<path d="M16.4139 17.6602L16.3198 9.20635L13.0042 9.01822V19.5414C14.274 19.1417 15.4263 18.495 16.4257 17.672L16.4139 17.6602Z" fill="#43CEDD"/>
<path d="M3.56263 9.73545C3.76251 9.64139 4.00943 9.53557 4.31513 9.45326C4.62083 9.3592 4.99708 9.28865 5.44388 9.28865C5.89067 9.28865 6.26692 9.3592 6.57262 9.45326C6.87833 9.54732 7.12524 9.65314 7.32512 9.73545C7.71313 9.91182 7.94829 10.0176 8.06586 9.92357C8.12465 9.87654 8.14817 9.79424 8.12465 9.65314C8.10114 9.51205 8.01883 9.32393 7.84247 9.10053C7.6661 8.87713 7.39567 8.63022 6.9959 8.43033C6.59614 8.23045 6.06704 8.06584 5.44388 8.06584C4.82071 8.06584 4.29161 8.21869 3.89185 8.43033C3.49208 8.63022 3.22165 8.88889 3.04529 9.10053C2.86892 9.32393 2.78662 9.51205 2.7631 9.65314C2.73959 9.79424 2.7631 9.8883 2.82189 9.92357C2.95123 10.0176 3.17462 9.92357 3.56263 9.73545Z" fill="#4F3C2D"/>
<path d="M12.6749 9.73545C12.8748 9.64139 13.1217 9.53557 13.4274 9.45326C13.7331 9.3592 14.1093 9.28865 14.5561 9.28865C15.0029 9.28865 15.3792 9.3592 15.6849 9.45326C15.9906 9.54732 16.2375 9.65314 16.4374 9.73545C16.8254 9.91182 17.0605 10.0176 17.1781 9.92357C17.2369 9.87654 17.2604 9.79424 17.2369 9.65314C17.2134 9.51205 17.1311 9.32393 16.9547 9.10053C16.7783 8.87713 16.5079 8.63022 16.1081 8.43033C15.7084 8.23045 15.1793 8.06584 14.5561 8.06584C13.933 8.06584 13.4039 8.21869 13.0041 8.43033C12.6043 8.63022 12.3339 8.88889 12.1575 9.10053C11.9812 9.32393 11.8989 9.51205 11.8753 9.65314C11.8518 9.79424 11.8753 9.8883 11.9341 9.92357C12.0635 10.0176 12.2869 9.92357 12.6749 9.73545Z" fill="#4F3C2D"/>
<path d="M8.64197 16.0964C8.84185 16.0376 9.05349 16.0023 9.28865 15.9788C9.51205 15.9553 9.7472 15.9436 10.0059 15.9436C10.2645 15.9436 10.4997 15.9436 10.7231 15.9788C10.9465 16.0023 11.1699 16.0494 11.3698 16.0964C11.7578 16.2022 12.0282 16.3198 12.0988 16.261C12.134 16.2375 12.1458 16.1434 12.1223 16.0141C12.0988 15.873 12.04 15.6849 11.8989 15.4615C11.7695 15.2381 11.5579 14.9794 11.2287 14.7795C10.9112 14.5679 10.4644 14.415 9.99412 14.4268C9.5238 14.4268 9.07701 14.5679 8.75955 14.7795C8.44209 14.9912 8.23045 15.2499 8.10111 15.4615C7.97178 15.6849 7.91299 15.873 7.87771 16.0141C7.8542 16.1552 7.86595 16.2375 7.90123 16.261C7.97177 16.3198 8.2422 16.2022 8.63021 16.0964H8.64197Z" fill="#4F3C2D"/>
<defs>
<linearGradient id="paint0_linear_31_4547" x1="9.99412" y1="0" x2="9.99412" y2="20.0118" gradientUnits="userSpaceOnUse">
<stop stop-color="#F9D05D"/>
<stop offset="1" stop-color="#F4C737"/>
</linearGradient>
</defs>
</svg>
