<svg width="20" height="20" viewBox="0 0 20 20" fill="none" xmlns="http://www.w3.org/2000/svg">
<circle cx="10" cy="10" r="10" fill="url(#paint0_linear_31_4538)"/>
<path d="M9.61786 8.33627C9.61786 6.45503 8.08934 4.92651 6.2081 4.92651C4.32685 4.92651 2.79834 6.45503 2.79834 8.33627C2.79834 10.2175 4.32685 11.746 6.2081 11.746C8.08934 11.746 9.61786 10.2175 9.61786 8.33627Z" fill="white"/>
<path d="M7.31337 8.33627C7.31337 7.72487 6.81954 7.23104 6.20814 7.23104C5.59673 7.23104 5.10291 7.72487 5.10291 8.33627C5.10291 8.94768 5.59673 9.44151 6.20814 9.44151C6.81954 9.44151 7.31337 8.94768 7.31337 8.33627Z" fill="#4F3C2D"/>
<path d="M10.3821 8.33627C10.3821 6.45503 11.9107 4.92651 13.7919 4.92651C15.6731 4.92651 17.2017 6.45503 17.2017 8.33627C17.2017 10.2175 15.6731 11.746 13.7919 11.746C11.9107 11.746 10.3821 10.2175 10.3821 8.33627Z" fill="white"/>
<path d="M12.6866 8.33627C12.6866 7.72487 13.1805 7.23104 13.7919 7.23104C14.4033 7.23104 14.8971 7.72487 14.8971 8.33627C14.8971 8.94768 14.4033 9.44151 13.7919 9.44151C13.1805 9.44151 12.6866 8.94768 12.6866 8.33627Z" fill="#4F3C2D"/>
<path d="M11.6637 15.2146C11.6637 16.2845 10.923 17.1546 9.99413 17.1546C9.06526 17.1546 8.32452 16.2845 8.32452 15.2146C8.32452 14.1446 9.06526 13.2745 9.99413 13.2745C10.923 13.2745 11.6637 14.1446 11.6637 15.2146Z" fill="#4F3C2D"/>
<path d="M12.7455 2.83363L13.1452 2.98648C13.3098 3.04527 13.5097 3.12757 13.7331 3.23339C13.8507 3.29218 13.9565 3.35097 14.0859 3.40976C14.2034 3.48031 14.321 3.55085 14.4503 3.63316C14.9559 3.97413 15.3204 4.35038 15.5673 4.63257C15.826 4.91476 15.9906 5.07937 16.0612 5.05585C16.1317 5.03233 16.1552 4.76191 16.0024 4.3739C15.9201 4.17402 15.8025 3.95062 15.6261 3.7037C15.4498 3.46855 15.2146 3.20988 14.9207 2.98648C14.7678 2.8689 14.615 2.77484 14.4621 2.70429C14.3092 2.63375 14.1564 2.5632 14.0153 2.52793C13.7214 2.43386 13.4627 2.41035 13.2275 2.42211C13.0041 2.42211 12.8278 2.48089 12.7102 2.55144C12.5926 2.62199 12.5573 2.69253 12.5691 2.72781C12.5809 2.77484 12.6514 2.79835 12.7455 2.83363Z" fill="#4F3C2D"/>
<path d="M7.50147 2.83363L7.1017 2.98648C6.93709 3.04527 6.73721 3.12757 6.51381 3.23339C6.39623 3.29218 6.29041 3.35097 6.16108 3.40976C6.0435 3.48031 5.92592 3.55085 5.79659 3.63316C5.291 3.97413 4.92651 4.35038 4.6796 4.63257C4.42093 4.91476 4.25632 5.07937 4.18577 5.05585C4.11522 5.03233 4.09171 4.76191 4.24456 4.3739C4.32686 4.17402 4.44444 3.95062 4.62081 3.7037C4.79717 3.46855 5.03233 3.20988 5.32628 2.98648C5.47913 2.8689 5.63198 2.77484 5.78483 2.70429C5.93768 2.63375 6.09053 2.5632 6.23162 2.52793C6.52557 2.43386 6.78424 2.41035 7.0194 2.42211C7.24279 2.42211 7.41916 2.48089 7.53674 2.55144C7.65432 2.62199 7.68959 2.69253 7.67783 2.72781C7.66608 2.77484 7.59553 2.79835 7.50147 2.83363Z" fill="#4F3C2D"/>
<defs>
<linearGradient id="paint0_linear_31_4538" x1="9.99412" y1="0" x2="9.99412" y2="20.0118" gradientUnits="userSpaceOnUse">
<stop stop-color="#F9D05D"/>
<stop offset="1" stop-color="#F4C737"/>
</linearGradient>
</defs>
</svg>
