<svg width="20" height="20" viewBox="0 0 20 20" fill="none" xmlns="http://www.w3.org/2000/svg">
<circle cx="10" cy="10" r="10" fill="url(#paint0_linear_31_4555)"/>
<path d="M5.51439 10.9465C7.16048 10.6173 8.30099 9.30041 8.83009 8.1599C9.33567 7.04292 9.39446 5.90241 8.95942 5.18518C8.57141 4.53851 7.8777 4.43269 7.50146 4.43269C7.03114 4.43269 6.54907 4.56202 6.18458 4.80894C5.94943 4.96179 5.74954 5.09112 5.50263 5.07936C5.26748 5.07936 5.06759 4.96179 4.8442 4.80894C4.49146 4.57378 4.03291 4.43269 3.57435 4.43269C2.90416 4.43269 2.3633 4.70311 2.06936 5.18518C1.64608 5.90241 1.69311 7.04292 2.19869 8.1599C2.71604 9.30041 3.85654 10.629 5.51439 10.9465Z" fill="#F25B5B"/>
<path d="M14.4856 10.9465C16.1317 10.6173 17.2722 9.30041 17.8013 8.1599C18.3069 7.04292 18.3657 5.90241 17.9306 5.18518C17.5426 4.53851 16.8489 4.43269 16.4726 4.43269C16.0023 4.43269 15.5203 4.56202 15.1558 4.80894C14.9206 4.96179 14.7207 5.09112 14.4738 5.07936C14.2387 5.07936 14.0388 4.96179 13.8154 4.80894C13.4627 4.57378 13.0041 4.43269 12.5455 4.43269C11.8754 4.43269 11.3345 4.70311 11.0405 5.18518C10.6173 5.90241 10.6643 7.04292 11.1699 8.1599C11.6872 9.30041 12.8277 10.629 14.4856 10.9465Z" fill="#F25B5B"/>
<path d="M14.5326 16.5667C14.9677 16.1787 15.3557 15.7319 15.6849 15.2499C15.9436 14.8618 16.167 14.4503 16.3316 14.0388C16.4609 13.7213 16.5667 13.4039 16.6608 13.0629C16.7078 12.8748 16.7431 12.6984 16.7666 12.522C16.8019 12.3222 16.7666 12.1458 16.6843 12.0517C16.6255 11.9812 16.5432 11.9459 16.4256 11.9459C16.308 11.9459 16.214 11.9694 16.0729 12.0282C15.6379 12.1928 15.2263 12.3339 14.7795 12.4397C14.1211 12.6044 13.3333 12.7454 12.522 12.8395C11.6402 12.9453 10.7701 12.9924 10.0294 12.9924H9.95884C9.2181 12.9924 8.35978 12.9336 7.46619 12.8395C6.6549 12.7454 5.86713 12.6044 5.20869 12.4397C4.77366 12.3339 4.35038 12.1928 3.91534 12.0282C3.786 11.9812 3.65667 11.9459 3.5626 11.9459C3.46854 11.9459 3.36272 11.9812 3.30393 12.0517C3.22163 12.1458 3.18635 12.3222 3.22163 12.522C3.24514 12.6984 3.28042 12.8865 3.32745 13.0629C3.40975 13.3921 3.51557 13.7213 3.65667 14.0388C3.82128 14.4503 4.04467 14.8618 4.30334 15.2499C4.63256 15.7319 5.02057 16.1787 5.45561 16.5667C6.00822 17.0606 6.63139 17.4486 7.28982 17.7425C8.14814 18.107 9.05349 18.2951 9.98236 18.3069C10.9112 18.3069 11.8166 18.1188 12.6749 17.7425C13.3451 17.4486 13.9565 17.0606 14.5091 16.5667H14.5326Z" fill="#4F3C2D"/>
<path d="M4.18576 13.7449V13.7684H4.20928C5.97295 14.7443 7.98353 15.2498 10.0059 15.2498C12.0282 15.2498 14.0505 14.7325 15.826 13.7566H15.8495V13.7213C15.9553 13.4627 16.0259 13.2158 16.0846 12.9806C16.0964 12.9218 16.1082 12.863 16.1199 12.8042L16.1434 12.6984L16.0376 12.7337C15.6731 12.863 15.3086 12.9806 14.9324 13.0747C14.2504 13.251 13.4391 13.3921 12.5926 13.4862C11.6872 13.592 10.7936 13.6508 10.0294 13.6508H9.95884C9.19458 13.6508 8.31275 13.592 7.39564 13.4862C6.54908 13.3921 5.74955 13.2393 5.05584 13.0747C4.67959 12.9806 4.3151 12.863 3.95061 12.7337L3.84479 12.6984L3.8683 12.8042C3.88006 12.863 3.89182 12.9218 3.90358 12.9806C3.96237 13.2275 4.04467 13.4627 4.15049 13.7331L4.18576 13.7449Z" fill="white"/>
<defs>
<linearGradient id="paint0_linear_31_4555" x1="9.99412" y1="0" x2="9.99412" y2="20.0118" gradientUnits="userSpaceOnUse">
<stop stop-color="#F9D05D"/>
<stop offset="1" stop-color="#F4C737"/>
</linearGradient>
</defs>
</svg>
