<svg width="25" height="24" viewBox="0 0 25 24" fill="none" xmlns="http://www.w3.org/2000/svg">
<path d="M17.386 7.93634C17.2756 7.63715 17.0994 7.36633 16.8705 7.14404C16.6483 6.91516 16.3776 6.73901 16.0782 6.6286C15.8354 6.5343 15.4707 6.42206 14.7989 6.39148C14.0721 6.35834 13.8542 6.3512 12.0144 6.3512C10.1744 6.3512 9.95648 6.35815 9.22992 6.3913C8.55811 6.42206 8.19318 6.5343 7.95056 6.6286C7.65118 6.73901 7.38037 6.91516 7.15826 7.14404C6.92938 7.36633 6.75323 7.63696 6.64264 7.93634C6.54834 8.17914 6.4361 8.54407 6.40552 9.21588C6.37238 9.94244 6.36523 10.1603 6.36523 12.0004C6.36523 13.8402 6.37238 14.0581 6.40552 14.7849C6.4361 15.4567 6.54834 15.8214 6.64264 16.0642C6.75323 16.3636 6.9292 16.6342 7.15808 16.8565C7.38037 17.0854 7.651 17.2615 7.95038 17.3719C8.19318 17.4664 8.55811 17.5787 9.22992 17.6093C9.95648 17.6424 10.1742 17.6494 12.0142 17.6494C13.8544 17.6494 14.0723 17.6424 14.7987 17.6093C15.4705 17.5787 15.8354 17.4664 16.0782 17.3719C16.6792 17.1401 17.1542 16.6652 17.386 16.0642C17.4803 15.8214 17.5925 15.4567 17.6233 14.7849C17.6564 14.0581 17.6634 13.8402 17.6634 12.0004C17.6634 10.1603 17.6564 9.94244 17.6233 9.21588C17.5927 8.54407 17.4805 8.17914 17.386 7.93634ZM12.0144 15.5385C10.0601 15.5385 8.47589 13.9545 8.47589 12.0002C8.47589 10.0459 10.0601 8.46185 12.0144 8.46185C13.9685 8.46185 15.5527 10.0459 15.5527 12.0002C15.5527 13.9545 13.9685 15.5385 12.0144 15.5385ZM15.6926 9.14886C15.236 9.14886 14.8657 8.77863 14.8657 8.32196C14.8657 7.8653 15.236 7.49506 15.6926 7.49506C16.1493 7.49506 16.5195 7.8653 16.5195 8.32196C16.5193 8.77863 16.1493 9.14886 15.6926 9.14886Z" fill="black" fill-opacity="0.66"/>
<path d="M14.3117 12.0002C14.3117 13.2688 13.2835 14.2971 12.0152 14.2971C10.7469 14.2971 9.71875 13.2688 9.71875 12.0002C9.71875 10.7317 10.7469 9.70337 12.0152 9.70337C13.2835 9.70337 14.3117 10.7317 14.3117 12.0002Z" fill="black" fill-opacity="0.66"/>
<path d="M22.2838 0.00012207H1.74554C0.789551 0.00012207 0.0146484 0.775024 0.0146484 1.73102V22.2692C0.0146484 23.2252 0.789551 24.0001 1.74554 24.0001H22.2838C23.2397 24.0001 24.0146 23.2252 24.0146 22.2692V1.73102C24.0146 0.775024 23.2397 0.00012207 22.2838 0.00012207V0.00012207ZM18.8637 14.841C18.8304 15.5745 18.7137 16.0753 18.5435 16.5137C18.1855 17.4393 17.4538 18.171 16.5282 18.5289C16.09 18.6992 15.5891 18.8157 14.8557 18.8492C14.1209 18.8827 13.8862 18.8907 12.0148 18.8907C10.1433 18.8907 9.90875 18.8827 9.17377 18.8492C8.44043 18.8157 7.93945 18.6992 7.50128 18.5289C7.04132 18.3559 6.62494 18.0847 6.2807 17.7341C5.93024 17.39 5.65906 16.9734 5.48602 16.5137C5.31573 16.0755 5.1991 15.5745 5.16577 14.8412C5.1319 14.1062 5.12402 13.8715 5.12402 12.0001C5.12402 10.1288 5.1319 9.89404 5.16559 9.15924C5.19891 8.42572 5.31537 7.92493 5.48566 7.48657C5.65869 7.02679 5.93005 6.61023 6.2807 6.26617C6.62476 5.91553 7.04132 5.64435 7.5011 5.47131C7.93945 5.30103 8.44025 5.18457 9.17377 5.15106C9.90857 5.11755 10.1433 5.1095 12.0146 5.1095C13.886 5.1095 14.1207 5.11755 14.8555 5.15125C15.5891 5.18457 16.0898 5.30103 16.5282 5.47113C16.988 5.64417 17.4045 5.91553 17.7488 6.26617C18.0992 6.61041 18.3706 7.02679 18.5435 7.48657C18.7139 7.92493 18.8304 8.42572 18.8639 9.15924C18.8974 9.89404 18.9053 10.1288 18.9053 12.0001C18.9053 13.8715 18.8974 14.1062 18.8637 14.841Z" fill="black" fill-opacity="0.66"/>
</svg>
