<svg width="20" height="20" viewBox="0 0 20 20" fill="none" xmlns="http://www.w3.org/2000/svg">
<path d="M3.34375 12.5078C3.25521 12.5911 3.1875 12.6875 3.14062 12.7969C3.09896 12.9062 3.07812 13.0234 3.07812 13.1484C3.07812 13.3203 3.11719 13.474 3.19531 13.6094C3.27865 13.7448 3.38802 13.8542 3.52344 13.9375C3.65885 14.0208 3.8125 14.0625 3.98438 14.0625C4.25 14.0625 4.46875 13.9688 4.64062 13.7812L10.3828 7.90625H9.625L15.3594 13.7812C15.5365 13.9688 15.7552 14.0625 16.0156 14.0625C16.1875 14.0625 16.3411 14.0208 16.4766 13.9375C16.612 13.8542 16.7188 13.7448 16.7969 13.6094C16.8802 13.474 16.9219 13.3203 16.9219 13.1484C16.9219 12.8932 16.8333 12.6797 16.6562 12.5078L10.7109 6.42188C10.612 6.32292 10.5026 6.2474 10.3828 6.19531C10.263 6.13802 10.1354 6.10677 10 6.10156C9.72917 6.10156 9.49219 6.20833 9.28906 6.42188L3.34375 12.5078Z" fill="#544AC9"/>
</svg>
