<svg width="18" height="20" viewBox="0 0 18 20" fill="none" xmlns="http://www.w3.org/2000/svg">
<path d="M2.34375 12.5078C2.25521 12.5911 2.1875 12.6875 2.14062 12.7969C2.09896 12.9062 2.07812 13.0234 2.07812 13.1484C2.07812 13.3203 2.11719 13.474 2.19531 13.6094C2.27865 13.7448 2.38802 13.8542 2.52344 13.9375C2.65885 14.0208 2.8125 14.0625 2.98438 14.0625C3.25 14.0625 3.46875 13.9688 3.64062 13.7812L9.38281 7.90625H8.625L14.3594 13.7812C14.5365 13.9688 14.7552 14.0625 15.0156 14.0625C15.1875 14.0625 15.3411 14.0208 15.4766 13.9375C15.612 13.8542 15.7188 13.7448 15.7969 13.6094C15.8802 13.474 15.9219 13.3203 15.9219 13.1484C15.9219 12.8932 15.8333 12.6797 15.6562 12.5078L9.71094 6.42188C9.61198 6.32292 9.5026 6.2474 9.38281 6.19531C9.26302 6.13802 9.13542 6.10677 9 6.10156C8.72917 6.10156 8.49219 6.20833 8.28906 6.42188L2.34375 12.5078Z" fill="#208F96"/>
</svg>
