<svg width="32" height="32" viewBox="0 0 32 32" fill="none" xmlns="http://www.w3.org/2000/svg">
<path d="M15.9844 2.34375C15.5469 2.34375 15.1927 2.47917 14.9219 2.75C14.651 3.02083 14.5156 3.375 14.5156 3.8125V22.6875L14.6875 27.3125L15.5781 26.9219L10.4844 21.2656L7.125 17.9688C6.98958 17.8333 6.83333 17.7344 6.65625 17.6719C6.47917 17.599 6.28646 17.5625 6.07812 17.5625C5.66146 17.5625 5.31771 17.6979 5.04688 17.9688C4.78646 18.2396 4.65625 18.5781 4.65625 18.9844C4.65625 19.3802 4.80729 19.7396 5.10938 20.0625L14.8906 29.8438C15.0469 30.0104 15.2188 30.1302 15.4062 30.2031C15.5938 30.2865 15.7865 30.3281 15.9844 30.3281C16.1927 30.3281 16.3906 30.2865 16.5781 30.2031C16.7656 30.1302 16.9375 30.0104 17.0938 29.8438L26.8594 20.0625C27.1719 19.7396 27.3281 19.3802 27.3281 18.9844C27.3281 18.5781 27.1927 18.2396 26.9219 17.9688C26.651 17.6979 26.3125 17.5625 25.9062 17.5625C25.6979 17.5625 25.5052 17.599 25.3281 17.6719C25.151 17.7344 24.9948 17.8333 24.8594 17.9688L21.5 21.2656L16.375 26.9219L17.2969 27.3125L17.4688 22.6875V3.8125C17.4688 3.375 17.3281 3.02083 17.0469 2.75C16.776 2.47917 16.4219 2.34375 15.9844 2.34375Z" fill="white"/>
</svg>
