<svg width="20" height="20" viewBox="0 0 20 20" fill="none" xmlns="http://www.w3.org/2000/svg">
<path d="M9.99219 2.94531C9.74219 2.94531 9.53646 3.02604 9.375 3.1875C9.21875 3.34896 9.14062 3.55729 9.14062 3.8125V13.5078L9.23438 16.0547L9.75 15.7969L7.14062 12.8984L5.375 11.1484C5.29688 11.0703 5.20573 11.0104 5.10156 10.9688C4.9974 10.9219 4.88542 10.8984 4.76562 10.8984C4.53125 10.8984 4.33594 10.9766 4.17969 11.1328C4.02344 11.2891 3.94531 11.487 3.94531 11.7266C3.94531 11.9609 4.03385 12.1693 4.21094 12.3516L9.35938 17.5078C9.44792 17.5964 9.54688 17.6641 9.65625 17.7109C9.76562 17.7578 9.8776 17.7812 9.99219 17.7812C10.112 17.7812 10.2266 17.7578 10.3359 17.7109C10.4505 17.6641 10.5495 17.5964 10.6328 17.5078L15.7812 12.3516C15.9583 12.1693 16.0469 11.9609 16.0469 11.7266C16.0469 11.487 15.9688 11.2891 15.8125 11.1328C15.6562 10.9766 15.4609 10.8984 15.2266 10.8984C15.1068 10.8984 14.9948 10.9219 14.8906 10.9688C14.7865 11.0104 14.6953 11.0703 14.6172 11.1484L12.8438 12.8984L10.2344 15.7969L10.7578 16.0547L10.8516 13.5078V3.8125C10.8516 3.55729 10.7708 3.34896 10.6094 3.1875C10.4531 3.02604 10.2474 2.94531 9.99219 2.94531Z" fill="#208F96"/>
</svg>
