<svg width="48" height="48" viewBox="0 0 48 48" fill="none" xmlns="http://www.w3.org/2000/svg">
<path d="M40.6113 24.291C40.6113 23.7637 40.3828 23.2363 39.9785 22.8672L28.4121 11.3008C27.9727 10.8613 27.498 10.6855 27.0059 10.6855C25.916 10.6855 25.125 11.459 25.125 12.5137C25.125 13.0586 25.3359 13.5332 25.6875 13.8848L29.625 17.875L34.793 22.6211L30.7148 22.375H9.33984C8.17969 22.375 7.38867 23.1484 7.38867 24.291C7.38867 25.416 8.17969 26.207 9.33984 26.207H30.7148L34.8105 25.9609L29.625 30.707L25.6875 34.6973C25.3359 35.0312 25.125 35.5059 25.125 36.0508C25.125 37.1055 25.916 37.8965 27.0059 37.8965C27.498 37.8965 27.9551 37.7031 28.377 37.2988L39.9785 25.7148C40.3828 25.3281 40.6113 24.8184 40.6113 24.291Z" fill="white"/>
</svg>
