<svg width="20" height="20" viewBox="0 0 20 20" fill="none" xmlns="http://www.w3.org/2000/svg">
<path d="M9.99219 17.7812C10.2474 17.7812 10.4531 17.7005 10.6094 17.5391C10.7708 17.3776 10.8516 17.1693 10.8516 16.9141L10.8516 7.21875L10.7578 4.67187L10.2344 4.92969L12.8438 7.82812L14.6172 9.57812C14.6953 9.65625 14.7865 9.71875 14.8906 9.76562C14.9948 9.80729 15.1068 9.82812 15.2266 9.82812C15.4609 9.82812 15.6563 9.75 15.8125 9.59375C15.9688 9.4375 16.0469 9.23958 16.0469 9C16.0469 8.76562 15.9583 8.55729 15.7813 8.375L10.6328 3.21875C10.5495 3.13021 10.4505 3.0625 10.3359 3.01562C10.2266 2.96875 10.112 2.94531 9.99219 2.94531C9.8776 2.94531 9.76562 2.96875 9.65625 3.01562C9.54688 3.0625 9.44792 3.13021 9.35938 3.21875L4.21094 8.375C4.03385 8.55729 3.94531 8.76562 3.94531 9C3.94531 9.23958 4.02344 9.4375 4.17969 9.59375C4.33594 9.75 4.53125 9.82812 4.76563 9.82812C4.88542 9.82812 4.9974 9.80729 5.10156 9.76562C5.20573 9.71875 5.29688 9.65625 5.375 9.57812L7.14063 7.82812L9.75 4.92969L9.23438 4.67187L9.14062 7.21875L9.14063 16.9141C9.14063 17.1693 9.21875 17.3776 9.375 17.5391C9.53646 17.7005 9.74219 17.7812 9.99219 17.7812Z" fill="#544AC9"/>
</svg>
