<svg width="20" height="20" viewBox="0 0 20 20" fill="none" xmlns="http://www.w3.org/2000/svg">
<path d="M11.354 17.0418C11.229 16.9168 11.1665 16.7675 11.1665 16.5939C11.1665 16.4203 11.229 16.271 11.354 16.146L14.2707 13.2293H4.7915C4.61095 13.2293 4.46164 13.1703 4.34359 13.0522C4.22553 12.9342 4.1665 12.7849 4.1665 12.6043V3.9585C4.1665 3.77794 4.22553 3.62864 4.34359 3.51058C4.46164 3.39252 4.61095 3.3335 4.7915 3.3335C4.97206 3.3335 5.12136 3.39252 5.23942 3.51058C5.35748 3.62864 5.4165 3.77794 5.4165 3.9585V11.9793H14.2915L11.354 9.04183C11.2429 8.93072 11.1873 8.78836 11.1873 8.61475C11.1873 8.44113 11.2498 8.29183 11.3748 8.16683C11.4998 8.04183 11.6491 7.97933 11.8228 7.97933C11.9964 7.97933 12.1457 8.04183 12.2707 8.16683L16.229 12.1252C16.2984 12.1946 16.3471 12.2641 16.3748 12.3335C16.4026 12.4029 16.4165 12.4793 16.4165 12.5627C16.4165 12.646 16.4026 12.7224 16.3748 12.7918C16.3471 12.8613 16.2984 12.9307 16.229 13.0002L12.229 17.0627C12.1179 17.1877 11.9755 17.2467 11.8019 17.2397C11.6283 17.2328 11.479 17.1668 11.354 17.0418V17.0418Z" fill="#0F2D35"/>
</svg>
