<svg width="20" height="20" viewBox="0 0 20 20" fill="none" xmlns="http://www.w3.org/2000/svg">
<path d="M15.7734 13.2422L15.7656 5.39844C15.7656 5.1276 15.6823 4.90885 15.5156 4.74219C15.3542 4.57031 15.1328 4.48438 14.8516 4.48438H7.00781C6.7474 4.48438 6.53385 4.57031 6.36719 4.74219C6.20052 4.91406 6.11719 5.11458 6.11719 5.34375C6.11719 5.57292 6.20312 5.77083 6.375 5.9375C6.54688 6.09896 6.75 6.17969 6.98438 6.17969H9.76562L13.125 6.0625L11.7031 7.3125L4.27344 14.7656C4.08594 14.9531 3.99219 15.1589 3.99219 15.3828C3.99219 15.5339 4.03385 15.6771 4.11719 15.8125C4.20052 15.9479 4.30729 16.0547 4.4375 16.1328C4.57292 16.2161 4.71875 16.2578 4.875 16.2578C5.10417 16.2578 5.3099 16.1693 5.49219 15.9922L12.9375 8.54688L14.2031 7.125L14.0781 10.3438V13.2656C14.0781 13.5 14.1589 13.7057 14.3203 13.8828C14.4818 14.0547 14.6797 14.1406 14.9141 14.1406C15.1432 14.1406 15.3438 14.0547 15.5156 13.8828C15.6875 13.7109 15.7734 13.4974 15.7734 13.2422Z" fill="#D6610C"/>
</svg>
