<svg width="21" height="18" viewBox="0 0 21 18" fill="none" xmlns="http://www.w3.org/2000/svg">
<line x1="11" y1="2.18557e-08" x2="11" y2="4" stroke="#0F2D35" stroke-opacity="0.3"/>
<path d="M1.02 16V14.86H2.964V8.716H1.368V7.84C2.208 7.696 2.784 7.48 3.3 7.168H4.344V14.86H6.072V16H1.02ZM10.0598 16.168C8.66775 16.168 7.79175 15.604 7.15575 14.98L7.82775 14.08C8.31975 14.584 8.96775 15.028 9.89175 15.028C10.8878 15.028 11.6318 14.32 11.6318 13.144C11.6318 11.98 10.9598 11.308 9.95175 11.308C9.39975 11.308 9.06375 11.464 8.54775 11.8L7.86375 11.368L8.12775 7.168H12.6158V8.344H9.33975L9.13575 10.6C9.50775 10.408 9.86775 10.3 10.3478 10.3C11.8238 10.3 13.0358 11.164 13.0358 13.108C13.0358 15.052 11.5958 16.168 10.0598 16.168ZM17.1075 16.168C15.3675 16.168 14.2515 14.62 14.2515 11.548C14.2515 8.5 15.3675 7.012 17.1075 7.012C18.8355 7.012 19.9635 8.5 19.9635 11.548C19.9635 14.62 18.8355 16.168 17.1075 16.168ZM17.1075 15.064C18.0075 15.064 18.6315 14.104 18.6315 11.548C18.6315 9.028 18.0075 8.092 17.1075 8.092C16.2075 8.092 15.5715 9.028 15.5715 11.548C15.5715 14.104 16.2075 15.064 17.1075 15.064Z" fill="#0F2D35" fill-opacity="0.5"/>
</svg>
