<svg width="14" height="18" viewBox="0 0 14 18" fill="none" xmlns="http://www.w3.org/2000/svg">
<line x1="7.5" y1="2.18557e-08" x2="7.5" y2="4" stroke="#0F2D35" stroke-opacity="0.3"/>
<path d="M3.216 16.168C1.824 16.168 0.948 15.604 0.312 14.98L0.984 14.08C1.476 14.584 2.124 15.028 3.048 15.028C4.044 15.028 4.788 14.32 4.788 13.144C4.788 11.98 4.116 11.308 3.108 11.308C2.556 11.308 2.22 11.464 1.704 11.8L1.02 11.368L1.284 7.168H5.772V8.344H2.496L2.292 10.6C2.664 10.408 3.024 10.3 3.504 10.3C4.98 10.3 6.192 11.164 6.192 13.108C6.192 15.052 4.752 16.168 3.216 16.168ZM10.2638 16.168C8.52375 16.168 7.40775 14.62 7.40775 11.548C7.40775 8.5 8.52375 7.012 10.2638 7.012C11.9918 7.012 13.1198 8.5 13.1198 11.548C13.1198 14.62 11.9918 16.168 10.2638 16.168ZM10.2638 15.064C11.1638 15.064 11.7878 14.104 11.7878 11.548C11.7878 9.028 11.1638 8.092 10.2638 8.092C9.36375 8.092 8.72775 9.028 8.72775 11.548C8.72775 14.104 9.36375 15.064 10.2638 15.064Z" fill="#0F2D35" fill-opacity="0.5"/>
</svg>
