<svg width="21" height="18" viewBox="0 0 21 18" fill="none" xmlns="http://www.w3.org/2000/svg">
<line x1="11" y1="2.18557e-08" x2="11" y2="4" stroke="#0F2D35" stroke-opacity="0.3"/>
<path d="M1.02 16V14.86H2.964V8.716H1.368V7.84C2.208 7.696 2.784 7.48 3.3 7.168H4.344V14.86H6.072V16H1.02ZM10.2638 16.168C8.52375 16.168 7.40775 14.62 7.40775 11.548C7.40775 8.5 8.52375 7.012 10.2638 7.012C11.9918 7.012 13.1198 8.5 13.1198 11.548C13.1198 14.62 11.9918 16.168 10.2638 16.168ZM10.2638 15.064C11.1638 15.064 11.7878 14.104 11.7878 11.548C11.7878 9.028 11.1638 8.092 10.2638 8.092C9.36375 8.092 8.72775 9.028 8.72775 11.548C8.72775 14.104 9.36375 15.064 10.2638 15.064ZM17.1075 16.168C15.3675 16.168 14.2515 14.62 14.2515 11.548C14.2515 8.5 15.3675 7.012 17.1075 7.012C18.8355 7.012 19.9635 8.5 19.9635 11.548C19.9635 14.62 18.8355 16.168 17.1075 16.168ZM17.1075 15.064C18.0075 15.064 18.6315 14.104 18.6315 11.548C18.6315 9.028 18.0075 8.092 17.1075 8.092C16.2075 8.092 15.5715 9.028 15.5715 11.548C15.5715 14.104 16.2075 15.064 17.1075 15.064Z" fill="#0F2D35" fill-opacity="0.5"/>
</svg>
