<svg width="20" height="21" viewBox="0 0 20 21" fill="none" xmlns="http://www.w3.org/2000/svg">
<path d="M15.0078 10.8594C15.0078 10.9948 14.9818 11.1198 14.9297 11.2344C14.8776 11.349 14.7995 11.4583 14.6953 11.5625L8.60938 17.5156C8.4375 17.6927 8.22396 17.7812 7.96875 17.7812C7.80208 17.7812 7.64844 17.7396 7.50781 17.6562C7.36719 17.5781 7.25521 17.4688 7.17188 17.3281C7.09375 17.1927 7.05469 17.0417 7.05469 16.875C7.05469 16.625 7.14844 16.4036 7.33594 16.2109L12.8203 10.8594L7.33594 5.50781C7.14844 5.3151 7.05469 5.09635 7.05469 4.85156C7.05469 4.67969 7.09375 4.52604 7.17188 4.39062C7.25521 4.25521 7.36719 4.14844 7.50781 4.07031C7.64844 3.98698 7.80208 3.94531 7.96875 3.94531C8.22396 3.94531 8.4375 4.03125 8.60938 4.20312L14.6953 10.1562C14.7995 10.2604 14.8776 10.3698 14.9297 10.4844C14.9818 10.599 15.0078 10.724 15.0078 10.8594Z" fill="black"/>
</svg>
