<svg width="20" height="21" viewBox="0 0 20 21" fill="none" xmlns="http://www.w3.org/2000/svg">
<path d="M5 10.8594C5 10.724 5.02344 10.599 5.07031 10.4844C5.1224 10.3698 5.20052 10.2604 5.30469 10.1562L11.3906 4.20312C11.5677 4.03125 11.7812 3.94531 12.0312 3.94531C12.2031 3.94531 12.3568 3.98698 12.4922 4.07031C12.6328 4.14844 12.7448 4.25521 12.8281 4.39062C12.9115 4.52604 12.9531 4.67969 12.9531 4.85156C12.9531 5.09635 12.8568 5.3151 12.6641 5.50781L7.17969 10.8594L12.6641 16.2109C12.8568 16.4036 12.9531 16.625 12.9531 16.875C12.9531 17.0417 12.9115 17.1927 12.8281 17.3281C12.7448 17.4688 12.6328 17.5781 12.4922 17.6562C12.3568 17.7396 12.2031 17.7812 12.0312 17.7812C11.7812 17.7812 11.5677 17.6927 11.3906 17.5156L5.30469 11.5625C5.20052 11.4583 5.1224 11.349 5.07031 11.2344C5.02344 11.1198 5 10.9948 5 10.8594Z" fill="black"/>
</svg>
