<svg width="21" height="20" viewBox="0 0 21 20" fill="none" xmlns="http://www.w3.org/2000/svg">
<path d="M16.2734 13.2422C16.2734 13.4974 16.1875 13.7109 16.0156 13.8828C15.8438 14.0547 15.6432 14.1406 15.4141 14.1406C15.1797 14.1406 14.9818 14.0547 14.8203 13.8828C14.6589 13.7057 14.5781 13.5 14.5781 13.2656V10.3438L14.7031 7.125L13.4375 8.54688L5.99219 15.9922C5.8099 16.1693 5.60417 16.2578 5.375 16.2578C5.21875 16.2578 5.07292 16.2161 4.9375 16.1328C4.80729 16.0547 4.70052 15.9479 4.61719 15.8125C4.53385 15.6771 4.49219 15.5339 4.49219 15.3828C4.49219 15.1589 4.58594 14.9531 4.77344 14.7656L12.2031 7.3125L13.625 6.0625L10.2656 6.17969H7.48438C7.25 6.17969 7.04688 6.09896 6.875 5.9375C6.70312 5.77083 6.61719 5.57292 6.61719 5.34375C6.61719 5.11458 6.70052 4.91406 6.86719 4.74219C7.03385 4.57031 7.2474 4.48438 7.50781 4.48438H15.3516C15.6328 4.48438 15.8542 4.57031 16.0156 4.74219C16.1823 4.90885 16.2656 5.1276 16.2656 5.39844L16.2734 13.2422Z" fill="white"/>
</svg>
