<svg width="20" height="20" viewBox="0 0 20 20" fill="none" xmlns="http://www.w3.org/2000/svg">
<mask id="mask0_13045_70708" style="mask-type:alpha" maskUnits="userSpaceOnUse" x="0" y="0" width="20" height="20">
<rect width="20" height="20" fill="#D9D9D9"/>
</mask>
<g mask="url(#mask0_13045_70708)">
<path d="M9.99493 13.7754C10.1608 13.7754 10.3013 13.7193 10.4164 13.6072C10.5315 13.495 10.5891 13.3559 10.5891 13.1901C10.5891 13.0242 10.533 12.8838 10.4208 12.7687C10.3086 12.6535 10.1696 12.596 10.0037 12.596C9.83786 12.596 9.69738 12.6521 9.58227 12.7643C9.46715 12.8764 9.4096 13.0155 9.4096 13.1813C9.4096 13.3472 9.4657 13.4877 9.57789 13.6028C9.69007 13.7179 9.82908 13.7754 9.99493 13.7754ZM9.99522 11.0639C10.1475 11.0639 10.2766 11.012 10.3823 10.9082C10.4881 10.8044 10.541 10.6757 10.541 10.5223V6.60557C10.541 6.45211 10.4895 6.32347 10.3864 6.21965C10.2834 6.11583 10.1557 6.06392 10.0034 6.06392C9.85113 6.06392 9.72209 6.11583 9.61633 6.21965C9.51056 6.32347 9.45768 6.45211 9.45768 6.60557V10.5223C9.45768 10.6757 9.5092 10.8044 9.61222 10.9082C9.71525 11.012 9.84292 11.0639 9.99522 11.0639ZM10.0065 17.5831C8.96325 17.5831 7.98075 17.3858 7.05897 16.991C6.13718 16.5963 5.33036 16.0532 4.63852 15.3617C3.94665 14.6701 3.40327 13.864 3.00837 12.9432C2.61347 12.0224 2.41602 11.0386 2.41602 9.99167C2.41602 8.94475 2.61338 7.96388 3.0081 7.04905C3.40282 6.1342 3.94595 5.33085 4.63747 4.63901C5.32902 3.94714 6.13518 3.40376 7.05595 3.00886C7.97673 2.61396 8.96057 2.4165 10.0075 2.4165C11.0544 2.4165 12.0353 2.61387 12.9501 3.00859C13.8649 3.40331 14.6683 3.94643 15.3601 4.63796C16.052 5.3295 16.5954 6.13404 16.9903 7.05157C17.3852 7.96909 17.5826 8.94946 17.5826 9.99267C17.5826 11.0359 17.3853 12.0184 16.9906 12.9402C16.5958 13.862 16.0527 14.6688 15.3612 15.3606C14.6696 16.0525 13.8651 16.5959 12.9476 16.9908C12.0301 17.3857 11.0497 17.5831 10.0065 17.5831Z" fill="white"/>
</g>
</svg>
