<svg width="24" height="24" viewBox="0 0 24 24" fill="none" xmlns="http://www.w3.org/2000/svg">
<mask id="mask0_7930_6619" style="mask-type:alpha" maskUnits="userSpaceOnUse" x="2" y="2" width="20" height="20">
<rect x="2" y="2" width="20" height="20" fill="#D9D9D9"/>
</mask>
<g mask="url(#mask0_7930_6619)">
<path d="M11.9993 18.439L11.2461 17.7579C9.87863 16.5325 8.75015 15.4868 7.86072 14.6209C6.97131 13.755 6.27286 12.9916 5.76539 12.3309C5.2579 11.6701 4.90614 11.071 4.7101 10.5336C4.51404 9.9962 4.41602 9.45026 4.41602 8.89577C4.41602 7.78254 4.8009 6.84104 5.57066 6.07127C6.34043 5.30151 7.28193 4.91663 8.39516 4.91663C9.08106 4.91663 9.74079 5.07983 10.3743 5.40623C11.0079 5.73262 11.5495 6.19977 11.9993 6.80767C12.4491 6.19977 12.9908 5.73262 13.6243 5.40623C14.2579 5.07983 14.9176 4.91663 15.6035 4.91663C16.7167 4.91663 17.6582 5.30151 18.428 6.07127C19.1978 6.84104 19.5826 7.78254 19.5826 8.89577C19.5826 9.45026 19.4881 9.98925 19.299 10.5128C19.1099 11.0363 18.7616 11.6249 18.2541 12.2788C17.7466 12.9326 17.046 13.6994 16.1523 14.5793C15.2587 15.4591 14.1115 16.5325 12.7108 17.7996L11.9993 18.439ZM11.9993 16.9791C13.291 15.821 14.3535 14.8343 15.1868 14.0192C16.0202 13.204 16.6834 12.4943 17.1764 11.8902C17.6695 11.286 18.0132 10.7491 18.2077 10.2796C18.4021 9.81003 18.4993 9.34876 18.4993 8.89577C18.4993 8.07633 18.2216 7.38883 17.666 6.83327C17.1104 6.27772 16.4229 5.99994 15.6035 5.99994C15.112 5.99994 14.6532 6.10331 14.2269 6.31004C13.8006 6.51677 13.3759 6.84877 12.9528 7.30604L12.2237 8.16021H11.775L11.0458 7.30604C10.6174 6.84343 10.1844 6.51009 9.74693 6.30602C9.30943 6.10197 8.85884 5.99994 8.39516 5.99994C7.58106 5.99994 6.8949 6.27772 6.33666 6.83327C5.77844 7.38883 5.49933 8.07633 5.49933 8.89577C5.49933 9.34876 5.58961 9.79961 5.77016 10.2483C5.95072 10.6971 6.28058 11.22 6.75974 11.8173C7.23891 12.4145 7.89863 13.1228 8.73891 13.9423C9.57919 14.7617 10.666 15.774 11.9993 16.9791Z" fill="#575D71"/>
</g>
</svg>
