<svg width="20" height="20" viewBox="0 0 20 20" fill="none"
    xmlns="http://www.w3.org/2000/svg">
    <mask id="mask0_5727_8295" style="mask-type:alpha" maskUnits="userSpaceOnUse" x="0" y="0" width="20" height="20">
        <rect width="20" height="20" fill="#D9D9D9"/>
    </mask>
    <g mask="url(#mask0_5727_8295)">
        <path d="M5.68825 11.0831C5.38913 11.0831 5.13453 10.9766 4.92446 10.7636C4.7144 10.5506 4.60938 10.2945 4.60938 9.9954C4.60938 9.69628 4.71588 9.44168 4.9289 9.23161C5.14191 9.02154 5.39798 8.9165 5.6971 8.9165C5.99623 8.9165 6.25082 9.02301 6.46088 9.23603C6.67094 9.44904 6.77598 9.70511 6.77598 10.0042C6.77598 10.3034 6.66947 10.558 6.45646 10.768C6.24344 10.9781 5.98738 11.0831 5.68825 11.0831ZM9.99594 11.0831C9.69681 11.0831 9.44222 10.9766 9.23215 10.7636C9.02208 10.5506 8.91704 10.2945 8.91704 9.9954C8.91704 9.69628 9.02355 9.44168 9.23656 9.23161C9.44958 9.02154 9.70565 8.9165 10.0048 8.9165C10.3039 8.9165 10.5585 9.02301 10.7686 9.23603C10.9786 9.44904 11.0837 9.70511 11.0837 10.0042C11.0837 10.3034 10.9772 10.558 10.7641 10.768C10.5511 10.9781 10.2951 11.0831 9.99594 11.0831ZM14.3036 11.0831C14.0045 11.0831 13.7499 10.9766 13.5398 10.7636C13.3298 10.5506 13.2247 10.2945 13.2247 9.9954C13.2247 9.69628 13.3312 9.44168 13.5443 9.23161C13.7573 9.02154 14.0133 8.9165 14.3125 8.9165C14.6116 8.9165 14.8662 9.02301 15.0763 9.23603C15.2863 9.44904 15.3913 9.70511 15.3913 10.0042C15.3913 10.3034 15.2848 10.558 15.0718 10.768C14.8588 10.9781 14.6027 11.0831 14.3036 11.0831Z" fill="#575D71"/>
    </g>
</svg>
