<svg width="80" height="80" viewBox="0 0 80 80" fill="none"
    xmlns="http://www.w3.org/2000/svg">
    <rect x="10.5" y="38.5" width="59" height="39" stroke="#007AFF"/>
    <path fill-rule="evenodd" clip-rule="evenodd" d="M43 59.0004C44.2144 58.0882 45 56.6358 45 55C45 52.2386 42.7614 50 40 50C37.2386 50 35 52.2386 35 55C35 56.6358 35.7856 58.0882 37 59.0004V65C37 66.6569 38.3431 68 40 68C41.6569 68 43 66.6569 43 65V59.0004Z" fill="#007AFF"/>
    <path d="M56 38V26C56 17.1634 48.8366 10 40 10C31.1634 10 24 17.1634 24 26H16C16 12.7452 26.7452 2 40 2C53.2548 2 64 12.7452 64 26V38" stroke="#007AFF"/>
</svg>
