<svg width="24" height="24" viewBox="0 0 24 24" fill="none" xmlns="http://www.w3.org/2000/svg">
<mask id="mask0_6073_353552" style="mask-type:alpha" maskUnits="userSpaceOnUse" x="0" y="0" width="24" height="24">
<rect width="24" height="24" fill="#D9D9D9"/>
</mask>
<g mask="url(#mask0_6073_353552)">
<path d="M3 13.4139C3 11.3401 3.61692 9.30934 4.85077 7.32165C6.08461 5.33396 7.78228 3.62012 9.94379 2.18011C10.2607 1.96011 10.5865 1.94165 10.9211 2.12473C11.2557 2.30781 11.423 2.59011 11.423 2.97164V4.42775C11.423 5.16161 11.7215 5.80278 12.3184 6.35124C12.9154 6.8997 13.6192 7.17393 14.43 7.17393C14.7977 7.17393 15.1481 7.1047 15.4812 6.96624C15.8143 6.82778 16.12 6.62394 16.3985 6.35472C16.5585 6.2055 16.7308 6.10935 16.9154 6.06627C17.1 6.02318 17.2708 6.06165 17.4277 6.18165C18.5477 7.02781 19.4231 8.08588 20.0539 9.35587C20.6846 10.6259 21 11.9785 21 13.4139C21 15.3139 20.4811 17.0097 19.4434 18.5012C18.4057 19.9928 17.0523 21.0709 15.383 21.7355C15.8584 21.2847 16.2269 20.7605 16.4884 20.1628C16.7499 19.5651 16.8807 18.9355 16.8807 18.2739C16.8807 17.6293 16.76 17.0201 16.5184 16.4463C16.2769 15.8724 15.9284 15.354 15.4731 14.8909L12 11.4963L8.55695 14.8909C8.08157 15.354 7.7231 15.8724 7.48156 16.4463C7.24004 17.0201 7.11928 17.6293 7.11928 18.2739C7.11928 18.9355 7.25005 19.5651 7.51159 20.1628C7.77314 20.7605 8.1416 21.2847 8.61698 21.7355C6.95543 21.0709 5.60389 19.9928 4.56234 18.5012C3.52078 17.0097 3 15.3139 3 13.4139ZM12 13.4047L14.4946 15.8509C14.8161 16.1724 15.0673 16.5401 15.248 16.9539C15.4288 17.3678 15.5192 17.8078 15.5192 18.2739C15.5192 19.2262 15.1777 20.0409 14.4946 20.7178C13.8115 21.3947 12.98 21.7332 12 21.7332C11.02 21.7332 10.1885 21.3947 9.5054 20.7178C8.82232 20.0409 8.48078 19.2262 8.48078 18.2739C8.48078 17.8078 8.56617 17.3697 8.73695 16.9597C8.90771 16.5497 9.16386 16.1801 9.5054 15.8509L12 13.4047Z" fill="#212944"/>
</g>
</svg>
