<svg width="24" height="24" viewBox="0 0 24 24" fill="none" xmlns="http://www.w3.org/2000/svg">
<mask id="mask0_11996_11360" style="mask-type:alpha" maskUnits="userSpaceOnUse" x="0" y="0" width="24" height="24">
<rect width="24" height="24" transform="matrix(-1 0 0 1 24 0)" fill="#D9D9D9"/>
</mask>
<g mask="url(#mask0_11996_11360)">
<path d="M11.0533 12L15.1264 7.9269C15.2649 7.78845 15.3357 7.61442 15.3389 7.4048C15.3421 7.1952 15.2713 7.01797 15.1264 6.8731C14.9816 6.72822 14.8059 6.65578 14.5995 6.65578C14.3931 6.65578 14.2175 6.72822 14.0726 6.8731L9.5784 11.3673C9.4848 11.4609 9.41877 11.5596 9.38032 11.6635C9.34186 11.7673 9.32262 11.8795 9.32262 12C9.32262 12.1205 9.34186 12.2327 9.38032 12.3365C9.41877 12.4404 9.4848 12.5391 9.5784 12.6327L14.0726 17.1269C14.2111 17.2654 14.3851 17.3362 14.5947 17.3394C14.8043 17.3426 14.9816 17.2718 15.1264 17.1269C15.2713 16.982 15.3438 16.8064 15.3438 16.6C15.3438 16.3936 15.2713 16.218 15.1264 16.0731L11.0533 12Z" fill="#7F8493"/>
</g>
</svg>
