<svg width="60" height="56" viewBox="0 0 60 56" fill="none"
    xmlns="http://www.w3.org/2000/svg">
    <mask id="path-1-inside-1_11639_39185" fill="white">
        <path fill-rule="evenodd" clip-rule="evenodd" d="M11.3372 30.9506C8.52232 28.4389 6.75 24.7836 6.75 20.7143C6.75 13.1401 12.8901 7 20.4643 7C24.5336 7 28.1889 8.77232 30.7006 11.5872L30.7163 11.5714L30.7678 11.6228C33.2803 8.7873 36.9493 7 41.0357 7C48.6099 7 54.75 13.1401 54.75 20.7143C54.75 24.9139 52.8624 28.6725 49.8894 31.1882L30.7163 50.3612L11.3214 30.9663L11.3372 30.9506Z"/>
    </mask>
    <path d="M11.3372 30.9506L12.0443 31.6577L12.7928 30.9092L12.0029 30.2044L11.3372 30.9506ZM30.7006 11.5872L29.9544 12.2529L30.6591 13.0428L31.4076 12.2943L30.7006 11.5872ZM30.7163 11.5714L31.4234 10.8643L30.7164 10.1572L30.0092 10.8643L30.7163 11.5714ZM30.7678 11.6228L30.0607 12.3299L30.8118 13.081L31.5162 12.286L30.7678 11.6228ZM49.8894 31.1882L49.2434 30.4248L49.2117 30.4517L49.1823 30.4811L49.8894 31.1882ZM30.7163 50.3612L30.0092 51.0683L30.7163 51.7755L31.4234 51.0683L30.7163 50.3612ZM11.3214 30.9663L10.6143 30.2592L9.90719 30.9663L10.6143 31.6734L11.3214 30.9663ZM12.0029 30.2044C9.39173 27.8745 7.75 24.4868 7.75 20.7143H5.75C5.75 25.0804 7.65291 29.0034 10.6714 31.6967L12.0029 30.2044ZM7.75 20.7143C7.75 13.6924 13.4424 8 20.4643 8V6C12.3378 6 5.75 12.5878 5.75 20.7143H7.75ZM20.4643 8C24.2368 8 27.6245 9.64173 29.9544 12.2529L31.4467 10.9214C28.7534 7.90291 24.8304 6 20.4643 6V8ZM30.0092 10.8643L29.9935 10.8801L31.4076 12.2943L31.4234 12.2785L30.0092 10.8643ZM31.4749 10.9157L31.4234 10.8643L30.0092 12.2785L30.0607 12.3299L31.4749 10.9157ZM41.0357 6C36.6512 6 32.7136 7.91899 30.0193 10.9596L31.5162 12.286C33.847 9.6556 37.2474 8 41.0357 8V6ZM55.75 20.7143C55.75 12.5878 49.1622 6 41.0357 6V8C48.0577 8 53.75 13.6924 53.75 20.7143H55.75ZM50.5353 31.9516C53.7233 29.2541 55.75 25.2204 55.75 20.7143H53.75C53.75 24.6074 52.0015 28.091 49.2434 30.4248L50.5353 31.9516ZM31.4234 51.0683L50.5965 31.8953L49.1823 30.4811L30.0092 49.6541L31.4234 51.0683ZM10.6143 31.6734L30.0092 51.0683L31.4234 49.6541L12.0285 30.2592L10.6143 31.6734ZM10.6301 30.2434L10.6143 30.2592L12.0285 31.6734L12.0443 31.6577L10.6301 30.2434Z" fill="#007AFF" mask="url(#path-1-inside-1_11639_39185)"/>
    <path d="M42.6105 14.2781C44.6804 14.4399 47.7164 16.7267 47.8866 19.3726" stroke="#007AFF" stroke-linecap="round"/>
</svg>
