<svg width="60" height="56" viewBox="0 0 60 56" fill="none"
    xmlns="http://www.w3.org/2000/svg">
    <mask id="path-1-inside-1_11639_38662" fill="white">
        <path fill-rule="evenodd" clip-rule="evenodd" d="M10.8372 30.9506C8.02232 28.4389 6.25 24.7836 6.25 20.7143C6.25 13.1401 12.3901 7 19.9643 7C24.0336 7 27.6889 8.77232 30.2006 11.5872L30.2163 11.5714L30.2678 11.6228C32.7803 8.7873 36.4493 7 40.5357 7C48.1099 7 54.25 13.1401 54.25 20.7143C54.25 24.9139 52.3624 28.6725 49.3894 31.1882L30.2163 50.3612L10.8214 30.9663L10.8372 30.9506Z"/>
    </mask>
    <path d="M10.8372 30.9506L11.5443 31.6577L12.2928 30.9092L11.5029 30.2044L10.8372 30.9506ZM30.2006 11.5872L29.4544 12.2529L30.1591 13.0428L30.9076 12.2943L30.2006 11.5872ZM30.2163 11.5714L30.9234 10.8643L30.2164 10.1572L29.5092 10.8643L30.2163 11.5714ZM30.2678 11.6228L29.5607 12.3299L30.3118 13.081L31.0162 12.286L30.2678 11.6228ZM49.3894 31.1882L48.7434 30.4248L48.7117 30.4517L48.6823 30.4811L49.3894 31.1882ZM30.2163 50.3612L29.5092 51.0683L30.2163 51.7755L30.9234 51.0683L30.2163 50.3612ZM10.8214 30.9663L10.1143 30.2592L9.40719 30.9663L10.1143 31.6734L10.8214 30.9663ZM11.5029 30.2044C8.89173 27.8745 7.25 24.4868 7.25 20.7143H5.25C5.25 25.0804 7.15291 29.0034 10.1714 31.6967L11.5029 30.2044ZM7.25 20.7143C7.25 13.6924 12.9424 8 19.9643 8V6C11.8378 6 5.25 12.5878 5.25 20.7143H7.25ZM19.9643 8C23.7368 8 27.1245 9.64173 29.4544 12.2529L30.9467 10.9214C28.2534 7.90291 24.3304 6 19.9643 6V8ZM29.5092 10.8643L29.4935 10.8801L30.9076 12.2943L30.9234 12.2785L29.5092 10.8643ZM30.9749 10.9157L30.9234 10.8643L29.5092 12.2785L29.5607 12.3299L30.9749 10.9157ZM40.5357 6C36.1512 6 32.2136 7.91899 29.5193 10.9596L31.0162 12.286C33.347 9.6556 36.7474 8 40.5357 8V6ZM55.25 20.7143C55.25 12.5878 48.6622 6 40.5357 6V8C47.5577 8 53.25 13.6924 53.25 20.7143H55.25ZM50.0353 31.9516C53.2233 29.2541 55.25 25.2204 55.25 20.7143H53.25C53.25 24.6074 51.5015 28.091 48.7434 30.4248L50.0353 31.9516ZM30.9234 51.0683L50.0965 31.8953L48.6823 30.4811L29.5092 49.6541L30.9234 51.0683ZM10.1143 31.6734L29.5092 51.0683L30.9234 49.6541L11.5285 30.2592L10.1143 31.6734ZM10.1301 30.2434L10.1143 30.2592L11.5285 31.6734L11.5443 31.6577L10.1301 30.2434Z" fill="#007AFF" mask="url(#path-1-inside-1_11639_38662)"/>
    <path d="M42.1105 14.2781C44.1804 14.4399 47.2164 16.7267 47.3866 19.3726" stroke="#007AFF" stroke-linecap="round"/>
    <mask id="path-4-outside-2_11639_38662" maskUnits="userSpaceOnUse" x="35.25" y="26" width="22" height="21" fill="black">
        <rect fill="white" x="35.25" y="26" width="22" height="21"/>
        <path fill-rule="evenodd" clip-rule="evenodd" d="M38.1613 36.9794C36.9885 35.9329 36.25 34.4098 36.25 32.7143C36.25 29.5584 38.8084 27 41.9643 27C43.6598 27 45.1829 27.7385 46.2294 28.9113L46.236 28.9047L46.2574 28.9262C47.3043 27.7447 48.833 27 50.5357 27C53.6916 27 56.25 29.5584 56.25 32.7143C56.25 34.464 55.4636 36.0301 54.2249 37.0783L46.236 45.0672L38.1548 36.986L38.1613 36.9794Z"/>
    </mask>
    <path fill-rule="evenodd" clip-rule="evenodd" d="M38.1613 36.9794C36.9885 35.9329 36.25 34.4098 36.25 32.7143C36.25 29.5584 38.8084 27 41.9643 27C43.6598 27 45.1829 27.7385 46.2294 28.9113L46.236 28.9047L46.2574 28.9262C47.3043 27.7447 48.833 27 50.5357 27C53.6916 27 56.25 29.5584 56.25 32.7143C56.25 34.464 55.4636 36.0301 54.2249 37.0783L46.236 45.0672L38.1548 36.986L38.1613 36.9794Z" fill="#6F93FF"/>
    <path d="M38.1613 36.9794L38.8685 37.6865L39.6169 36.938L38.8271 36.2332L38.1613 36.9794ZM46.2294 28.9113L45.4832 29.5771L46.188 30.3669L46.9365 29.6184L46.2294 28.9113ZM46.236 28.9047L46.9431 28.1976L46.236 27.4905L45.5289 28.1976L46.236 28.9047ZM46.2574 28.9262L45.5503 29.6333L46.3014 30.3844L47.0059 29.5894L46.2574 28.9262ZM54.2249 37.0783L53.5789 36.3149L53.5472 36.3418L53.5178 36.3712L54.2249 37.0783ZM46.236 45.0672L45.5289 45.7743L46.236 46.4814L46.9431 45.7743L46.236 45.0672ZM38.1548 36.986L37.4476 36.2789L36.7406 36.986L37.4477 37.6931L38.1548 36.986ZM38.8271 36.2332C37.8579 35.3684 37.25 34.113 37.25 32.7143H35.25C35.25 34.7067 36.1191 36.4974 37.4956 37.7256L38.8271 36.2332ZM37.25 32.7143C37.25 30.1107 39.3607 28 41.9643 28V26C38.2561 26 35.25 29.0061 35.25 32.7143H37.25ZM41.9643 28C43.363 28 44.6184 28.6079 45.4832 29.5771L46.9756 28.2456C45.7474 26.8691 43.9567 26 41.9643 26V28ZM45.5289 28.1976L45.5223 28.2042L46.9365 29.6184L46.9431 29.6119L45.5289 28.1976ZM46.9645 28.2191L46.9431 28.1976L45.5289 29.6118L45.5503 29.6333L46.9645 28.2191ZM50.5357 26C48.5349 26 46.7376 26.8764 45.509 28.263L47.0059 29.5894C47.871 28.613 49.1311 28 50.5357 28V26ZM57.25 32.7143C57.25 29.0061 54.2439 26 50.5357 26V28C53.1393 28 55.25 30.1107 55.25 32.7143H57.25ZM54.8708 37.8417C56.3245 36.6116 57.25 34.7705 57.25 32.7143H55.25C55.25 34.1576 54.6027 35.4486 53.5789 36.3149L54.8708 37.8417ZM46.9431 45.7743L54.932 37.7854L53.5178 36.3712L45.5289 44.3601L46.9431 45.7743ZM37.4477 37.6931L45.5289 45.7743L46.9431 44.3601L38.8619 36.2789L37.4477 37.6931ZM37.4542 36.2723L37.4476 36.2789L38.8619 37.693L38.8685 37.6865L37.4542 36.2723Z" fill="white" mask="url(#path-4-outside-2_11639_38662)"/>
</svg>
