<svg width="20" height="20" viewBox="0 0 20 20" fill="none"
    xmlns="http://www.w3.org/2000/svg">
    <path fill-rule="evenodd" clip-rule="evenodd" d="M10.0002 5.09333C11.5024 5.09333 12.5157 5.74222 13.0935 6.28444L15.3513 4.08C13.9646 2.79111 12.1602 2 10.0002 2C6.87129 2 4.16907 3.79556 2.85352 6.40889L5.44018 8.41778C6.08907 6.48889 7.88463 5.09333 10.0002 5.09333Z" fill="#EA4335"/>
    <path fill-rule="evenodd" clip-rule="evenodd" d="M17.68 10.1778C17.68 9.52001 17.6267 9.04001 17.5111 8.54224H10V11.5111H14.4089C14.32 12.2489 13.84 13.36 12.7733 14.1067L15.2978 16.0622C16.8089 14.6667 17.68 12.6133 17.68 10.1778Z" fill="#4285F4"/>
    <path fill-rule="evenodd" clip-rule="evenodd" d="M5.44889 11.5823C5.28 11.0845 5.18222 10.5512 5.18222 10C5.18222 9.44894 5.28 8.9156 5.44 8.41782L2.85333 6.40894C2.31111 7.49338 2 8.71116 2 10C2 11.2889 2.31111 12.5067 2.85333 13.5912L5.44889 11.5823Z" fill="#FBBC05"/>
    <path fill-rule="evenodd" clip-rule="evenodd" d="M10.0001 18.0001C12.1601 18.0001 13.9734 17.2889 15.2979 16.0623L12.7734 14.1067C12.0979 14.5778 11.1912 14.9067 10.0001 14.9067C7.88453 14.9067 6.08897 13.5112 5.44897 11.5823L2.8623 13.5912C4.17786 16.2045 6.87119 18.0001 10.0001 18.0001Z" fill="#34A853"/>
</svg>
