<svg width="44" height="44" viewBox="0 0 44 44" fill="none" xmlns="http://www.w3.org/2000/svg">
<mask id="mask0_8449_21164" style="mask-type:alpha" maskUnits="userSpaceOnUse" x="12" y="12" width="20" height="20">
<rect x="12" y="12" width="20" height="20" fill="#D9D9D9"/>
</mask>
<g mask="url(#mask0_8449_21164)">
<path d="M19.654 22L25.9313 28.2773C26.0968 28.4428 26.1775 28.6378 26.1734 28.8621C26.1691 29.0865 26.0841 29.2815 25.9186 29.4471C25.7529 29.6126 25.5579 29.6954 25.3336 29.6954C25.1093 29.6954 24.9143 29.6126 24.7486 29.4471L18.3561 23.0673C18.2054 22.9166 18.0937 22.7478 18.0211 22.5608C17.9484 22.3739 17.9121 22.1869 17.9121 22C17.9121 21.8131 17.9484 21.6261 18.0211 21.4392C18.0937 21.2522 18.2054 21.0834 18.3561 20.9327L24.7486 14.54C24.9143 14.3744 25.1114 14.2938 25.34 14.2981C25.5686 14.3024 25.7657 14.3874 25.9313 14.5529C26.0968 14.7185 26.1796 14.9135 26.1796 15.1379C26.1796 15.3622 26.0968 15.5572 25.9313 15.7227L19.654 22Z" fill="#212944"/>
</g>
</svg>
