<svg width="32" height="32" viewBox="0 0 32 32" fill="none" xmlns="http://www.w3.org/2000/svg">
<mask id="mask0_6073_353544" style="mask-type:alpha" maskUnits="userSpaceOnUse" x="0" y="0" width="32" height="32">
<rect width="32" height="32" fill="#D9D9D9"/>
</mask>
<g mask="url(#mask0_6073_353544)">
<path d="M6 18.6666C6 16.3788 6.67379 14.1442 8.02137 11.9628C9.36892 9.78131 11.221 7.8883 13.5777 6.28374C13.9555 6.01536 14.3468 5.99115 14.7516 6.21111C15.1565 6.43104 15.3589 6.7695 15.3589 7.22648V8.68197C15.3589 9.49737 15.6905 10.2098 16.3538 10.8192C17.017 11.4286 17.7991 11.7333 18.7 11.7333C19.104 11.7333 19.491 11.6564 19.8611 11.5025C20.2312 11.3487 20.5709 11.1245 20.8803 10.8299C21.0581 10.6595 21.256 10.5534 21.4739 10.5115C21.6919 10.4696 21.894 10.5199 22.0803 10.6624C23.3082 11.6025 24.2685 12.7759 24.961 14.1824C25.6536 15.589 25.9999 17.0837 25.9999 18.6666C25.9999 20.7401 25.4392 22.5949 24.3179 24.2311C23.1965 25.8673 21.7369 27.0614 19.9392 27.8136C20.4344 27.3218 20.819 26.754 21.0931 26.1102C21.3671 25.4663 21.5042 24.7851 21.5042 24.0666C21.5042 23.3412 21.3677 22.6538 21.0948 22.0042C20.8218 21.3547 20.4287 20.7703 19.9153 20.2512L16 16.4231L12.118 20.2512C11.5852 20.7749 11.1817 21.3596 10.9073 22.0055C10.6329 22.6514 10.4958 23.3384 10.4958 24.0666C10.4958 24.7851 10.6328 25.4663 10.9069 26.1102C11.181 26.754 11.5656 27.3218 12.0607 27.8136C10.2687 27.0614 8.81059 25.8673 7.68637 24.2311C6.56212 22.5949 6 20.7401 6 18.6666ZM16 18.7692L18.7153 21.4307C19.068 21.7834 19.3418 22.1837 19.5367 22.6315C19.7316 23.0794 19.829 23.5578 19.829 24.0666C19.829 25.1036 19.4571 25.9899 18.7132 26.7255C17.9693 27.4611 17.0649 27.8289 16 27.8289C14.935 27.8289 14.0306 27.4611 13.2867 26.7255C12.5429 25.9899 12.1709 25.1036 12.1709 24.0666C12.1709 23.5652 12.264 23.0908 12.45 22.6435C12.636 22.1962 12.9142 21.792 13.2846 21.4307L16 18.7692Z" fill="#212944"/>
</g>
</svg>
