<svg width="20" height="20" viewBox="0 0 20 20" fill="none"
    xmlns="http://www.w3.org/2000/svg">
    <mask id="mask0_9069_21765" style="mask-type:alpha" maskUnits="userSpaceOnUse" x="0" y="0" width="21" height="20">
        <rect x="0.5" width="20" height="20" fill="#D9D9D9"/>
    </mask>
    <g mask="url(#mask0_9069_21765)">
        <path d="M10.5302 14.6794C10.7558 14.6794 10.9471 14.6015 11.1042 14.4459C11.2612 14.29 11.3398 14.0993 11.3398 13.8738C11.3398 13.6481 11.2619 13.4567 11.106 13.2996C10.9502 13.1427 10.7595 13.0642 10.5339 13.0642C10.3084 13.0642 10.1171 13.142 9.95999 13.2977C9.80291 13.4536 9.72436 13.6443 9.72436 13.8698C9.72436 14.0955 9.80228 14.2869 9.95811 14.444C10.1138 14.6009 10.3045 14.6794 10.5302 14.6794ZM10.5071 17.5834C9.46388 17.5834 8.48138 17.386 7.55957 16.9913C6.63777 16.5965 5.83096 16.0534 5.13916 15.3619C4.44735 14.6704 3.90395 13.8642 3.50895 12.9434C3.11409 12.0227 2.91666 11.0388 2.91666 9.9919C2.91666 8.94495 3.11402 7.96405 3.50874 7.04919C3.90346 6.13433 4.44659 5.33099 5.13811 4.63919C5.82964 3.94738 6.63582 3.40398 7.55666 3.00898C8.47735 2.61412 9.46117 2.41669 10.5081 2.41669C11.5551 2.41669 12.536 2.61405 13.4508 3.00877C14.3657 3.40349 15.169 3.94662 15.8608 4.63815C16.5526 5.32967 17.096 6.13419 17.491 7.05169C17.8859 7.96933 18.0833 8.94974 18.0833 9.99294C18.0833 11.0361 17.886 12.0186 17.4912 12.9404C17.0965 13.8622 16.5534 14.669 15.8619 15.3609C15.1703 16.0527 14.3658 16.5961 13.4483 16.9911C12.5307 17.3859 11.5503 17.5834 10.5071 17.5834ZM10.5 16.5C12.3055 16.5 13.8403 15.8681 15.1042 14.6042C16.368 13.3403 17 11.8056 17 10C17 8.19446 16.368 6.65974 15.1042 5.39585C13.8403 4.13196 12.3055 3.50002 10.5 3.50002C8.69443 3.50002 7.15971 4.13196 5.89582 5.39585C4.63193 6.65974 3.99999 8.19446 3.99999 10C3.99999 11.8056 4.63193 13.3403 5.89582 14.6042C7.15971 15.8681 8.69443 16.5 10.5 16.5ZM10.5512 6.43273C10.9401 6.43273 11.2767 6.55516 11.5608 6.80002C11.8451 7.04502 11.9873 7.3512 11.9873 7.71856C11.9873 8.02801 11.901 8.30342 11.7283 8.54481C11.5558 8.78634 11.3542 9.00433 11.1233 9.19877C10.8208 9.4671 10.551 9.76926 10.3139 10.1052C10.0769 10.4411 9.95728 10.8136 9.9552 11.2227C9.94978 11.3745 10.0003 11.4947 10.1067 11.5834C10.213 11.672 10.3371 11.7163 10.4787 11.7163C10.6307 11.7163 10.7587 11.6733 10.8629 11.5873C10.9671 11.5013 11.0346 11.3879 11.0656 11.2469C11.1351 10.9466 11.2603 10.6822 11.4414 10.4536C11.6226 10.225 11.8187 10.0076 12.03 9.80148C12.3337 9.50537 12.5849 9.17565 12.7835 8.81231C12.9823 8.44884 13.0817 8.05898 13.0817 7.64273C13.0817 6.98245 12.8354 6.43301 12.3429 5.9944C11.8504 5.55592 11.261 5.33669 10.5748 5.33669C10.0848 5.33669 9.62714 5.44988 9.20187 5.67627C8.77673 5.9028 8.4268 6.22141 8.15207 6.6321C8.06457 6.7578 8.04138 6.89551 8.08249 7.04523C8.12346 7.19509 8.21756 7.30009 8.36478 7.36023C8.51687 7.43092 8.6661 7.4412 8.81249 7.39106C8.95888 7.34079 9.08117 7.26335 9.17936 7.15877C9.34825 6.95363 9.54916 6.78134 9.78207 6.6419C10.015 6.50245 10.2714 6.43273 10.5512 6.43273Z" fill="#7F8493"/>
    </g>
</svg>
