<svg width="20" height="20" viewBox="0 0 20 20" fill="none"
    xmlns="http://www.w3.org/2000/svg">
    <mask id="mask0_7961_48044" style="mask-type:alpha" maskUnits="userSpaceOnUse" x="0" y="0" width="20" height="21">
        <rect y="0.5" width="20" height="20" fill="#D9D9D9"/>
    </mask>
    <g mask="url(#mask0_7961_48044)">
        <path d="M7.65374 10.5L13.931 16.7773C14.0966 16.9428 14.1773 17.1378 14.1731 17.3621C14.1688 17.5865 14.0839 17.7815 13.9183 17.9471C13.7526 18.1126 13.5576 18.1954 13.3333 18.1954C13.109 18.1954 12.914 18.1126 12.7483 17.9471L6.35582 11.5673C6.20513 11.4166 6.09346 11.2478 6.02082 11.0608C5.94818 10.8739 5.91187 10.6869 5.91187 10.5C5.91187 10.3131 5.94818 10.1261 6.02082 9.93916C6.09346 9.75222 6.20513 9.5834 6.35582 9.43271L12.7483 3.04C12.914 2.87444 13.1112 2.79382 13.3398 2.79812C13.5684 2.80243 13.7655 2.88736 13.931 3.05291C14.0966 3.21847 14.1794 3.41347 14.1794 3.63791C14.1794 3.86222 14.0966 4.05715 13.931 4.22271L7.65374 10.5Z" fill="#212944"/>
    </g>
</svg>
