<svg width="32" height="32" viewBox="0 0 32 32" fill="none" xmlns="http://www.w3.org/2000/svg">
<mask id="mask0_6075_15162" style="mask-type:alpha" maskUnits="userSpaceOnUse" x="0" y="0" width="32" height="32">
<rect width="32" height="32" fill="#D9D9D9"/>
</mask>
<g mask="url(#mask0_6075_15162)">
<path d="M14.3249 28.6665C14.0115 28.6665 13.7353 28.5638 13.4963 28.3584C13.2573 28.153 13.1138 27.8959 13.066 27.5871L12.6412 24.6409C12.2178 24.4973 11.7681 24.2907 11.292 24.0212C10.8159 23.7517 10.4015 23.4654 10.0488 23.1622L7.35049 24.3785C7.04909 24.5061 6.74697 24.5204 6.44412 24.4212C6.14128 24.3221 5.90581 24.1309 5.73772 23.8477L4.05055 20.8819C3.88247 20.5987 3.83375 20.3049 3.90442 20.0003C3.97507 19.6958 4.14144 19.4438 4.40355 19.2444L6.83859 17.4333C6.7987 17.211 6.77007 16.9743 6.75269 16.723C6.73531 16.4717 6.72662 16.2349 6.72662 16.0127C6.72662 15.799 6.73531 15.5673 6.75269 15.3174C6.77007 15.0675 6.7987 14.8173 6.83859 14.5665L4.40355 12.7554C4.14144 12.556 3.9772 12.3019 3.91082 11.9931C3.84444 11.6842 3.8953 11.3882 4.06339 11.105L5.73772 8.17769C5.90581 7.90306 6.14128 7.71404 6.44412 7.61062C6.74697 7.5072 7.04909 7.51931 7.35049 7.64695L10.036 8.84182C10.4143 8.53584 10.8342 8.25023 11.2954 7.98499C11.7567 7.71972 12.201 7.51843 12.6284 7.38112L13.066 4.41272C13.1138 4.1039 13.2573 3.84679 13.4963 3.64139C13.7353 3.43596 14.0115 3.33325 14.3249 3.33325H17.6753C17.9887 3.33325 18.2649 3.43596 18.5039 3.64139C18.7429 3.84679 18.8864 4.1039 18.9342 4.41272L19.359 7.37172C19.8194 7.54094 20.2671 7.74735 20.7022 7.99095C21.1373 8.23455 21.5408 8.51818 21.9129 8.84182L24.6625 7.64695C24.9639 7.51931 25.2638 7.5072 25.5621 7.61062C25.8603 7.71404 26.0935 7.90306 26.2616 8.17769L27.9496 11.1179C28.1177 11.401 28.1664 11.6986 28.0958 12.0106C28.0251 12.3225 27.8587 12.5708 27.5966 12.7554L25.1103 14.5691C25.1673 14.8175 25.2016 15.0624 25.2133 15.3037C25.225 15.545 25.2308 15.7771 25.2308 15.9999C25.2308 16.2141 25.2228 16.4396 25.2069 16.6764C25.1909 16.9131 25.1565 17.1657 25.1035 17.4341L27.5513 19.2444C27.8134 19.429 27.982 19.6773 28.0569 19.9892C28.1318 20.3012 28.0852 20.5987 27.9171 20.8819L26.2445 23.8349C26.0707 24.1181 25.8303 24.3093 25.5232 24.4084C25.216 24.5075 24.9146 24.4933 24.6189 24.3657L21.9129 23.1494C21.526 23.4696 21.1149 23.7618 20.6796 24.0259C20.2442 24.29 19.804 24.4907 19.359 24.6281L18.9342 27.5871C18.8864 27.8959 18.7429 28.153 18.5039 28.3584C18.2649 28.5638 17.9887 28.6665 17.6753 28.6665H14.3249ZM14.6035 26.9914H17.3728L17.8522 23.3204C18.5508 23.1426 19.1982 22.8818 19.7945 22.5379C20.3908 22.1941 20.9625 21.7557 21.5095 21.223L24.9351 22.6922L26.2616 20.3623L23.2428 18.1196C23.3391 17.7412 23.411 17.3802 23.4586 17.0366C23.5062 16.693 23.53 16.3475 23.53 15.9999C23.53 15.6381 23.5085 15.2896 23.4655 14.9546C23.4225 14.6195 23.3482 14.27 23.2428 13.9059L26.2873 11.6375L24.9608 9.30759L21.4967 10.7837C21.0357 10.2737 20.4809 9.82382 19.8321 9.43409C19.1834 9.04433 18.5192 8.79276 17.8394 8.67939L17.3967 5.00842H14.6104L14.1693 8.66655C13.4502 8.81811 12.7876 9.06796 12.1813 9.41612C11.575 9.76428 11.0058 10.2136 10.4736 10.764L7.03939 9.30759L5.71292 11.6375L8.72742 13.8606C8.62544 14.2007 8.54995 14.5486 8.50095 14.9042C8.45193 15.2597 8.42742 15.6292 8.42742 16.0127C8.42742 16.3745 8.45193 16.729 8.50095 17.076C8.54995 17.423 8.62118 17.7708 8.71462 18.1196L5.71292 20.3623L7.03939 22.6922L10.4608 21.229C10.985 21.7634 11.5516 22.2033 12.1608 22.5486C12.7699 22.8939 13.4351 23.1554 14.1565 23.3332L14.6035 26.9914ZM15.9796 19.8375C17.0468 19.8375 17.9532 19.4647 18.6988 18.7191C19.4443 17.9735 19.8171 17.0671 19.8171 15.9999C19.8171 14.9327 19.4443 14.0263 18.6988 13.2807C17.9532 12.5351 17.0468 12.1623 15.9796 12.1623C14.9135 12.1623 14.0074 12.5351 13.2612 13.2807C12.5151 14.0263 12.142 14.9327 12.142 15.9999C12.142 17.0671 12.5151 17.9735 13.2612 18.7191C14.0074 19.4647 14.9135 19.8375 15.9796 19.8375Z" fill="#575D71"/>
</g>
</svg>
