<svg width="20" height="20" viewBox="0 0 20 20" fill="none" xmlns="http://www.w3.org/2000/svg">
<mask id="mask0_8485_80202" style="mask-type:alpha" maskUnits="userSpaceOnUse" x="0" y="0" width="20" height="20">
<rect width="20" height="20" fill="#D9D9D9"/>
</mask>
<g mask="url(#mask0_8485_80202)">
<path d="M9.45866 10.5417H5.95866C5.80519 10.5417 5.67658 10.4901 5.57283 10.3871C5.46894 10.284 5.41699 10.1564 5.41699 10.0042C5.41699 9.85181 5.46894 9.72278 5.57283 9.61708C5.67658 9.51125 5.80519 9.45833 5.95866 9.45833H9.45866V5.95833C9.45866 5.80486 9.51019 5.67625 9.61324 5.5725C9.7163 5.46861 9.84394 5.41667 9.99616 5.41667C10.1485 5.41667 10.2775 5.46861 10.3832 5.5725C10.4891 5.67625 10.542 5.80486 10.542 5.95833V9.45833H14.042C14.1955 9.45833 14.3241 9.50986 14.4278 9.61292C14.5317 9.71597 14.5837 9.84361 14.5837 9.99583C14.5837 10.1482 14.5317 10.2772 14.4278 10.3829C14.3241 10.4888 14.1955 10.5417 14.042 10.5417H10.542V14.0417C10.542 14.1951 10.4905 14.3238 10.3874 14.4275C10.2844 14.5314 10.1567 14.5833 10.0045 14.5833C9.85213 14.5833 9.7231 14.5314 9.61741 14.4275C9.51158 14.3238 9.45866 14.1951 9.45866 14.0417V10.5417Z" fill="#212944"/>
</g>
</svg>
