<svg width="20" height="20" viewBox="0 0 20 20" fill="none"
    xmlns="http://www.w3.org/2000/svg">
    <g clip-path="url(#clip0_7961_37987)">
        <path d="M17.5696 17.9467C18.054 17.9467 18.4468 17.5539 18.4468 17.0696V2.93048C18.4468 2.44593 18.054 2.05326 17.5696 2.05326H3.43063C2.94608 2.05326 2.55347 2.44593 2.55347 2.93048V17.0696C2.55347 17.5539 2.94608 17.9467 3.43063 17.9467H17.5696Z" fill="#3B5998"/>
        <path d="M13.5196 17.9467V11.792H15.5855L15.8948 9.39333H13.5196V7.86189C13.5196 7.16743 13.7124 6.69419 14.7083 6.69419L15.9785 6.69359V4.54827C15.7588 4.51909 15.0048 4.45376 14.1276 4.45376C12.2963 4.45376 11.0426 5.57156 11.0426 7.62441V9.39333H8.97144V11.792H11.0426V17.9467H13.5196Z" fill="white"/>
    </g>
    <defs>
        <clipPath id="clip0_7961_37987">
            <rect width="16" height="16" fill="white" transform="translate(2.5 1.99994)"/>
        </clipPath>
    </defs>
</svg>
