<svg width="44" height="44" viewBox="0 0 44 44" fill="none" xmlns="http://www.w3.org/2000/svg">
<path d="M34 13.3581V17.9295C34 19.7769 32.5284 21.2798 30.7436 21.2798H25.9374C25.2798 21.2798 24.6536 21.0763 24.1057 20.7006L20.7554 24.1448C21.1468 24.7084 21.3503 25.3816 21.3503 26.0704V30.6419C21.3503 32.4892 19.8787 33.9922 18.0939 33.9922H13.2877C11.4873 33.9922 10.0313 32.4892 10.0313 30.6419V26.0704C10.0313 24.2231 11.5029 22.7201 13.2877 22.7201H18.0939C18.7984 22.7201 19.4873 22.955 20.0509 23.3933L23.3699 19.9804C22.9159 19.3855 22.681 18.681 22.681 17.9295V13.3581C22.681 11.5107 24.1526 10.0078 25.9374 10.0078H30.7436C32.544 10.0078 34 11.5107 34 13.3581ZM34 26.0548V30.6262C34 32.4736 32.5284 33.9765 30.7436 33.9765H25.9374C24.137 33.9765 22.681 32.4736 22.681 30.6262V26.0548C22.681 24.2074 24.1526 22.7045 25.9374 22.7045H30.7436C32.544 22.7045 34 24.2074 34 26.0548ZM23.5421 26.0548V30.6262C23.5421 31.9726 24.6067 33.0841 25.9217 33.0841H30.728C32.0431 33.0841 33.1076 31.9882 33.1076 30.6262V26.0548C33.1076 24.7084 32.0431 23.5969 30.728 23.5969H25.9217C24.6067 23.5969 23.5421 24.6927 23.5421 26.0548ZM10 17.9765V13.4051C10 11.5577 11.4716 10.0391 13.2564 10.0391H18.0626C19.863 10.0391 21.319 11.5421 21.319 13.3894V17.9608C21.319 19.8082 19.8474 21.3111 18.0626 21.3111H13.2564C11.456 21.3111 10 19.8082 10 17.9608V17.9765ZM13.2564 20.4344H18.0626C19.3777 20.4344 20.4423 19.3385 20.4423 17.9765V13.4051C20.4423 12.0587 19.3777 10.9471 18.0626 10.9471H13.2564C11.9413 10.9471 10.8767 12.043 10.8767 13.4051V17.9765C10.8767 19.3229 11.9413 20.4344 13.2564 20.4344Z" fill="#000928"/>
</svg>
