<svg width="60" height="56" viewBox="0 0 60 56" fill="none"
    xmlns="http://www.w3.org/2000/svg">
    <mask id="path-1-inside-1_11639_38706" fill="white">
        <path fill-rule="evenodd" clip-rule="evenodd" d="M11.3372 30.9506C8.52232 28.4389 6.75 24.7836 6.75 20.7143C6.75 13.1401 12.8901 7 20.4643 7C24.5336 7 28.1889 8.77232 30.7006 11.5872L30.7163 11.5714L30.7678 11.6228C33.2803 8.7873 36.9493 7 41.0357 7C48.6099 7 54.75 13.1401 54.75 20.7143C54.75 24.9139 52.8624 28.6725 49.8894 31.1882L30.7163 50.3612L11.3214 30.9663L11.3372 30.9506Z"/>
    </mask>
    <path d="M11.3372 30.9506L12.0443 31.6577L12.7928 30.9092L12.0029 30.2044L11.3372 30.9506ZM30.7006 11.5872L29.9544 12.2529L30.6591 13.0428L31.4076 12.2943L30.7006 11.5872ZM30.7163 11.5714L31.4234 10.8643L30.7164 10.1572L30.0092 10.8643L30.7163 11.5714ZM30.7678 11.6228L30.0607 12.3299L30.8118 13.081L31.5162 12.286L30.7678 11.6228ZM49.8894 31.1882L49.2434 30.4248L49.2117 30.4517L49.1823 30.4811L49.8894 31.1882ZM30.7163 50.3612L30.0092 51.0683L30.7163 51.7755L31.4234 51.0683L30.7163 50.3612ZM11.3214 30.9663L10.6143 30.2592L9.90719 30.9663L10.6143 31.6734L11.3214 30.9663ZM12.0029 30.2044C9.39173 27.8745 7.75 24.4868 7.75 20.7143H5.75C5.75 25.0804 7.65291 29.0034 10.6714 31.6967L12.0029 30.2044ZM7.75 20.7143C7.75 13.6924 13.4424 8 20.4643 8V6C12.3378 6 5.75 12.5878 5.75 20.7143H7.75ZM20.4643 8C24.2368 8 27.6245 9.64173 29.9544 12.2529L31.4467 10.9214C28.7534 7.90291 24.8304 6 20.4643 6V8ZM30.0092 10.8643L29.9935 10.8801L31.4076 12.2943L31.4234 12.2785L30.0092 10.8643ZM31.4749 10.9157L31.4234 10.8643L30.0092 12.2785L30.0607 12.3299L31.4749 10.9157ZM41.0357 6C36.6512 6 32.7136 7.91899 30.0193 10.9596L31.5162 12.286C33.847 9.6556 37.2474 8 41.0357 8V6ZM55.75 20.7143C55.75 12.5878 49.1622 6 41.0357 6V8C48.0577 8 53.75 13.6924 53.75 20.7143H55.75ZM50.5353 31.9516C53.7233 29.2541 55.75 25.2204 55.75 20.7143H53.75C53.75 24.6074 52.0015 28.091 49.2434 30.4248L50.5353 31.9516ZM31.4234 51.0683L50.5965 31.8953L49.1823 30.4811L30.0092 49.6541L31.4234 51.0683ZM10.6143 31.6734L30.0092 51.0683L31.4234 49.6541L12.0285 30.2592L10.6143 31.6734ZM10.6301 30.2434L10.6143 30.2592L12.0285 31.6734L12.0443 31.6577L10.6301 30.2434Z" fill="#007AFF" mask="url(#path-1-inside-1_11639_38706)"/>
    <path d="M42.6105 14.2781C44.6804 14.4399 47.7164 16.7267 47.8866 19.3726" stroke="#007AFF" stroke-linecap="round"/>
    <mask id="path-4-outside-2_11639_38706" maskUnits="userSpaceOnUse" x="35.75" y="26" width="22" height="21" fill="black">
        <rect fill="white" x="35.75" y="26" width="22" height="21"/>
        <path fill-rule="evenodd" clip-rule="evenodd" d="M38.6613 36.9794C37.4885 35.9329 36.75 34.4098 36.75 32.7143C36.75 29.5584 39.3084 27 42.4643 27C44.1598 27 45.6829 27.7385 46.7294 28.9113L46.736 28.9047L46.7574 28.9262C47.8043 27.7447 49.333 27 51.0357 27C54.1916 27 56.75 29.5584 56.75 32.7143C56.75 34.464 55.9636 36.0301 54.7249 37.0783L46.736 45.0672L38.6548 36.986L38.6613 36.9794Z"/>
    </mask>
    <path fill-rule="evenodd" clip-rule="evenodd" d="M38.6613 36.9794C37.4885 35.9329 36.75 34.4098 36.75 32.7143C36.75 29.5584 39.3084 27 42.4643 27C44.1598 27 45.6829 27.7385 46.7294 28.9113L46.736 28.9047L46.7574 28.9262C47.8043 27.7447 49.333 27 51.0357 27C54.1916 27 56.75 29.5584 56.75 32.7143C56.75 34.464 55.9636 36.0301 54.7249 37.0783L46.736 45.0672L38.6548 36.986L38.6613 36.9794Z" fill="#6F93FF"/>
    <path d="M38.6613 36.9794L39.3685 37.6865L40.1169 36.938L39.3271 36.2332L38.6613 36.9794ZM46.7294 28.9113L45.9832 29.5771L46.688 30.3669L47.4365 29.6184L46.7294 28.9113ZM46.736 28.9047L47.4431 28.1976L46.736 27.4905L46.0289 28.1976L46.736 28.9047ZM46.7574 28.9262L46.0503 29.6333L46.8014 30.3844L47.5059 29.5894L46.7574 28.9262ZM54.7249 37.0783L54.0789 36.3149L54.0472 36.3418L54.0178 36.3712L54.7249 37.0783ZM46.736 45.0672L46.0289 45.7743L46.736 46.4814L47.4431 45.7743L46.736 45.0672ZM38.6548 36.986L37.9476 36.2789L37.2406 36.986L37.9477 37.6931L38.6548 36.986ZM39.3271 36.2332C38.3579 35.3684 37.75 34.113 37.75 32.7143H35.75C35.75 34.7067 36.6191 36.4974 37.9956 37.7256L39.3271 36.2332ZM37.75 32.7143C37.75 30.1107 39.8607 28 42.4643 28V26C38.7561 26 35.75 29.0061 35.75 32.7143H37.75ZM42.4643 28C43.863 28 45.1184 28.6079 45.9832 29.5771L47.4756 28.2456C46.2474 26.8691 44.4567 26 42.4643 26V28ZM46.0289 28.1976L46.0223 28.2042L47.4365 29.6184L47.4431 29.6119L46.0289 28.1976ZM47.4645 28.2191L47.4431 28.1976L46.0289 29.6118L46.0503 29.6333L47.4645 28.2191ZM51.0357 26C49.0349 26 47.2376 26.8764 46.009 28.263L47.5059 29.5894C48.371 28.613 49.6311 28 51.0357 28V26ZM57.75 32.7143C57.75 29.0061 54.7439 26 51.0357 26V28C53.6393 28 55.75 30.1107 55.75 32.7143H57.75ZM55.3708 37.8417C56.8245 36.6116 57.75 34.7705 57.75 32.7143H55.75C55.75 34.1576 55.1027 35.4486 54.0789 36.3149L55.3708 37.8417ZM47.4431 45.7743L55.432 37.7854L54.0178 36.3712L46.0289 44.3601L47.4431 45.7743ZM37.9477 37.6931L46.0289 45.7743L47.4431 44.3601L39.3619 36.2789L37.9477 37.6931ZM37.9542 36.2723L37.9476 36.2789L39.3619 37.693L39.3685 37.6865L37.9542 36.2723Z" fill="white" mask="url(#path-4-outside-2_11639_38706)"/>
    <mask id="path-6-outside-3_11639_38706" maskUnits="userSpaceOnUse" x="5.75" y="3" width="16" height="16" fill="black">
        <rect fill="white" x="5.75" y="3" width="16" height="16"/>
        <path fill-rule="evenodd" clip-rule="evenodd" d="M8.08782 10.9855C7.26688 10.2529 6.75 9.18682 6.75 7.99999C6.75 5.79086 8.54086 4 10.75 4C11.9368 4 13.0029 4.51688 13.7355 5.33782L13.7402 5.33312L13.7553 5.34821C14.4881 4.52125 15.5582 4 16.75 4C18.9591 4 20.75 5.79086 20.75 7.99999C20.75 9.22548 20.1989 10.3222 19.331 11.056L13.7402 16.6468L8.08333 10.99L8.08782 10.9855Z"/>
    </mask>
    <path fill-rule="evenodd" clip-rule="evenodd" d="M8.08782 10.9855C7.26688 10.2529 6.75 9.18682 6.75 7.99999C6.75 5.79086 8.54086 4 10.75 4C11.9368 4 13.0029 4.51688 13.7355 5.33782L13.7402 5.33312L13.7553 5.34821C14.4881 4.52125 15.5582 4 16.75 4C18.9591 4 20.75 5.79086 20.75 7.99999C20.75 9.22548 20.1989 10.3222 19.331 11.056L13.7402 16.6468L8.08333 10.99L8.08782 10.9855Z" fill="#A9C5FF"/>
    <path d="M8.08782 10.9855L8.79495 11.6926L9.54339 10.9441L8.75362 10.2393L8.08782 10.9855ZM13.7355 5.33782L12.9893 6.00362L13.6941 6.79341L14.4426 6.04493L13.7355 5.33782ZM13.7402 5.33312L14.4473 4.62601L13.7402 3.9189L13.0331 4.62601L13.7402 5.33312ZM13.7553 5.34821L13.0482 6.05532L13.7992 6.8064L14.5037 6.01143L13.7553 5.34821ZM19.331 11.056L18.6854 10.2923L18.6535 10.3193L18.6239 10.3489L19.331 11.056ZM13.7402 16.6468L13.0331 17.3539L13.7402 18.061L14.4473 17.3539L13.7402 16.6468ZM8.08333 10.99L7.37621 10.2829L6.66914 10.99L7.37623 11.6971L8.08333 10.99ZM8.75362 10.2393C8.13631 9.6885 7.75 8.89001 7.75 7.99999H5.75C5.75 9.48364 6.39746 10.8174 7.42202 11.7316L8.75362 10.2393ZM7.75 7.99999C7.75 6.34314 9.09314 5 10.75 5V3C7.98857 3 5.75 5.23857 5.75 7.99999H7.75ZM10.75 5C11.64 5 12.4385 5.38631 12.9893 6.00362L14.4816 4.67202C13.5674 3.64746 12.2336 3 10.75 3V5ZM13.0331 4.62601L13.0284 4.63071L14.4426 6.04493L14.4473 6.04023L13.0331 4.62601ZM14.4624 4.64111L14.4473 4.62601L13.0331 6.04022L13.0482 6.05532L14.4624 4.64111ZM16.75 3C15.2601 3 13.9214 3.65293 13.0068 4.685L14.5037 6.01143C15.0548 5.38956 15.8563 5 16.75 5V3ZM21.75 7.99999C21.75 5.23857 19.5114 3 16.75 3V5C18.4069 5 19.75 6.34314 19.75 7.99999H21.75ZM19.9766 11.8196C21.0597 10.904 21.75 9.53213 21.75 7.99999H19.75C19.75 8.91882 19.3381 9.74046 18.6854 10.2923L19.9766 11.8196ZM14.4473 17.3539L20.0381 11.7631L18.6239 10.3489L13.0331 15.9397L14.4473 17.3539ZM7.37623 11.6971L13.0331 17.3539L14.4473 15.9397L8.79044 10.2829L7.37623 11.6971ZM7.38069 10.2784L7.37621 10.2829L8.79046 11.6971L8.79495 11.6926L7.38069 10.2784Z" fill="white" mask="url(#path-6-outside-3_11639_38706)"/>
</svg>
