<svg width="20" height="20" viewBox="0 0 20 20" fill="none" xmlns="http://www.w3.org/2000/svg">
<mask id="mask0_10056_23045" style="mask-type:alpha" maskUnits="userSpaceOnUse" x="0" y="0" width="20" height="20">
<rect width="20" height="20" fill="#D9D9D9"/>
</mask>
<g mask="url(#mask0_10056_23045)">
<path d="M6.75674 16.5833C6.38831 16.5833 6.07292 16.4521 5.81055 16.1898C5.54818 15.9274 5.41699 15.612 5.41699 15.2436V5.50002H4.95866C4.80519 5.50002 4.67654 5.44851 4.57272 5.34548C4.4689 5.24245 4.41699 5.11479 4.41699 4.96248C4.41699 4.81018 4.4689 4.68114 4.57272 4.57538C4.67654 4.4696 4.80519 4.41671 4.95866 4.41671H8.0003V4.16671C8.0003 3.98627 8.06417 3.83218 8.19189 3.70446C8.31961 3.57674 8.47369 3.51288 8.65414 3.51288H11.3465C11.5269 3.51288 11.681 3.57674 11.8087 3.70446C11.9364 3.83218 12.0003 3.98627 12.0003 4.16671V4.41671H15.042C15.1954 4.41671 15.3241 4.46823 15.4279 4.57127C15.5317 4.6743 15.5836 4.80197 15.5836 4.95427C15.5836 5.10658 15.5317 5.23561 15.4279 5.34138C15.3241 5.44714 15.1954 5.50002 15.042 5.50002H14.5836V15.2345C14.5836 15.6132 14.4524 15.9326 14.1901 16.1929C13.9277 16.4532 13.6123 16.5833 13.2439 16.5833H6.75674ZM13.5003 5.50002H6.5003V15.2436C6.5003 15.3184 6.52435 15.3798 6.57243 15.4279C6.62051 15.476 6.68195 15.5 6.75674 15.5H13.2439C13.3187 15.5 13.3801 15.476 13.4282 15.4279C13.4763 15.3798 13.5003 15.3184 13.5003 15.2436V5.50002ZM8.87441 14C9.02671 14 9.15575 13.9481 9.26151 13.8443C9.36729 13.7405 9.42018 13.6118 9.42018 13.4584V7.54167C9.42018 7.38821 9.36866 7.25957 9.26562 7.15575C9.16259 7.05193 9.03492 7.00002 8.88262 7.00002C8.73031 7.00002 8.60128 7.05193 8.49551 7.15575C8.38975 7.25957 8.33687 7.38821 8.33687 7.54167V13.4584C8.33687 13.6118 8.38838 13.7405 8.49141 13.8443C8.59444 13.9481 8.7221 14 8.87441 14ZM11.118 14C11.2703 14 11.3993 13.9481 11.5051 13.8443C11.6109 13.7405 11.6637 13.6118 11.6637 13.4584V7.54167C11.6637 7.38821 11.6122 7.25957 11.5092 7.15575C11.4062 7.05193 11.2785 7.00002 11.1262 7.00002C10.9739 7.00002 10.8449 7.05193 10.7391 7.15575C10.6333 7.25957 10.5804 7.38821 10.5804 7.54167V13.4584C10.5804 13.6118 10.632 13.7405 10.735 13.8443C10.838 13.9481 10.9657 14 11.118 14Z" fill="#F34B4B"/>
</g>
</svg>
