<svg width="32" height="32" viewBox="0 0 32 32" fill="none" xmlns="http://www.w3.org/2000/svg">
<g clip-path="url(#clip0_6073_353538)">
<path d="M14.162 10.0246H24.8177C24.8177 7.8059 23.1302 6 21.0569 6H6.76085C4.68756 6 3 7.8059 3 10.0246V19.312C3 21.5307 4.68756 23.3366 6.76085 23.3366H7.67695V25.7359C7.67695 26.3034 8.06268 26.5356 8.52073 26.2776L11.1244 24.7297C10.4253 23.93 9.99132 22.8722 9.99132 21.6855V14.4361C9.99132 11.9853 11.8476 9.99877 14.1379 9.99877L14.162 10.0246Z" fill="#212944"/>
<path d="M25.2999 11.5723H14.162C12.6673 11.5723 11.4619 12.8622 11.4619 14.4617V21.7111C11.4619 23.3106 12.6673 24.6005 14.162 24.6005H19.9238L23.8534 26.9224C24.215 27.1288 24.5285 26.9482 24.5285 26.4838V24.6005H25.324C26.8187 24.6005 28.0241 23.3106 28.0241 21.7111V14.4617C28.0241 12.8622 26.8187 11.5723 25.324 11.5723H25.2999Z" fill="#212944"/>
</g>
<defs>
<clipPath id="clip0_6073_353538">
<rect width="25" height="21" fill="white" transform="translate(3 6)"/>
</clipPath>
</defs>
</svg>
