<svg width="20" height="20" viewBox="0 0 20 20" fill="none"
    xmlns="http://www.w3.org/2000/svg">
    <mask id="mask0_8424_38091" style="mask-type:alpha" maskUnits="userSpaceOnUse" x="0" y="0" width="20" height="20">
        <rect width="20" height="20" fill="#D9D9D9"/>
    </mask>
    <g mask="url(#mask0_8424_38091)">
        <path d="M8.92154 11.1634L7.52729 9.79002C7.41191 9.67463 7.28772 9.61561 7.15471 9.61294C7.02169 9.61026 6.89482 9.66929 6.7741 9.79002C6.65338 9.91075 6.59302 10.0397 6.59302 10.177C6.59302 10.3143 6.65338 10.4433 6.7741 10.564L8.45679 12.2467C8.59354 12.3835 8.74846 12.4518 8.92154 12.4518C9.09461 12.4518 9.24952 12.3835 9.38627 12.2467L13.21 8.423C13.3254 8.30763 13.3844 8.17996 13.3871 8.04C13.3897 7.90004 13.3307 7.7697 13.21 7.64898C13.0893 7.52826 12.9637 7.4679 12.8334 7.4679C12.7031 7.4679 12.5775 7.52826 12.4568 7.64898L8.92154 11.1634ZM10.0015 17.5833C8.96207 17.5833 7.98148 17.3859 7.05971 16.9912C6.13792 16.5964 5.3311 16.0533 4.63925 15.3618C3.94739 14.6703 3.40401 13.8638 3.0091 12.9424C2.6142 12.0211 2.41675 11.0407 2.41675 10.0013C2.41675 8.94806 2.61411 7.964 3.00883 7.04917C3.40355 6.13432 3.94668 5.33097 4.63821 4.63913C5.32975 3.94727 6.1362 3.40388 7.05756 3.00898C7.97891 2.61408 8.95928 2.41663 9.99866 2.41663C11.0519 2.41663 12.036 2.61399 12.9508 3.00871C13.8657 3.40343 14.669 3.94656 15.3609 4.63808C16.0527 5.32963 16.5961 6.13261 16.991 7.04702C17.3859 7.96143 17.5834 8.94527 17.5834 9.99854C17.5834 11.0379 17.386 12.0185 16.9913 12.9403C16.5966 13.8621 16.0534 14.6689 15.3619 15.3608C14.6704 16.0526 13.8674 16.596 12.953 16.9909C12.0386 17.3858 11.0547 17.5833 10.0015 17.5833Z" fill="#B2B5BE"/>
    </g>
</svg>
