<svg width="176" height="44" viewBox="0 0 176 44" fill="none"
    xmlns="http://www.w3.org/2000/svg">
    <path d="M124.775 33.5644L120.959 24.6597H119.986V34.5372H120.735V25.9318L124.401 34.5372H125.15L128.667 25.9318V34.5372H129.49V24.6597H128.442L124.775 33.5644Z" fill="#000928"/>
    <path d="M152.238 29.5984C152.238 29.374 152.238 29.2243 152.163 28.9998C152.163 28.7753 152.013 28.5508 151.939 28.3263C151.864 28.1018 151.639 27.9522 151.49 27.7277C151.265 27.578 151.041 27.4284 150.741 27.2787C150.442 27.2039 150.068 27.1291 149.694 27.1291C149.319 27.1291 149.17 27.1291 148.871 27.2787C148.571 27.2787 148.347 27.5032 148.122 27.6529C147.898 27.8025 147.673 27.9522 147.524 28.1767C147.449 28.2515 147.374 28.4012 147.299 28.5508V24.6597H146.551V34.5372H147.299V30.6461C147.299 30.1971 147.299 29.8229 147.449 29.5236C147.524 29.1495 147.748 28.8501 147.898 28.6257C148.122 28.4012 148.347 28.1767 148.646 28.027C148.945 27.8774 149.319 27.8025 149.694 27.8025C150.068 27.8025 150.517 27.8774 150.741 28.027C150.966 28.1767 151.19 28.4012 151.34 28.6257C151.49 28.8501 151.564 29.0746 151.564 29.374C151.564 29.5984 151.564 29.8229 151.564 30.0474V34.5372H152.313V30.1223C152.313 29.9726 152.313 29.8229 152.313 29.5984H152.238Z" fill="#000928"/>
    <path d="M144.081 30.9452C143.857 30.7955 143.557 30.6459 143.258 30.571C142.959 30.4962 142.585 30.4214 142.285 30.3465C141.986 30.3465 141.687 30.1969 141.462 30.122C141.163 30.122 140.938 29.9724 140.714 29.8976C140.489 29.8227 140.34 29.6731 140.19 29.5234C140.04 29.3737 140.04 29.1493 140.04 28.9248C140.04 28.7003 140.04 28.4758 140.19 28.3261C140.34 28.1765 140.489 28.0268 140.639 27.952C140.789 27.8771 141.013 27.8023 141.238 27.7275C141.762 27.6527 142.285 27.6527 142.734 27.7275C142.959 27.7275 143.183 27.8771 143.333 28.0268C143.483 28.1765 143.632 28.3261 143.707 28.5506C143.782 28.7751 143.857 28.9996 143.857 29.2989C143.857 29.3737 144.605 29.3737 144.605 29.3737C144.605 28.8499 144.605 28.4758 144.381 28.2513C144.231 27.952 144.081 27.7275 143.782 27.503C143.557 27.2785 143.258 27.2037 142.884 27.1288C142.285 26.9792 141.612 26.9792 140.938 27.1288C140.639 27.1288 140.34 27.2785 140.115 27.4282C139.891 27.5778 139.666 27.8023 139.517 28.0268C139.367 28.2513 139.292 28.5506 139.292 28.9248C139.292 29.2989 139.442 29.8227 139.666 30.0472C139.891 30.2717 140.19 30.4962 140.564 30.6459C140.938 30.7955 141.313 30.8703 141.762 30.9452C142.136 30.9452 142.585 31.0948 142.884 31.1697C143.258 31.2445 143.483 31.3942 143.707 31.6186C143.932 31.7683 144.006 32.0676 144.006 32.4418C144.006 32.8159 144.006 32.9656 143.782 33.1152C143.632 33.2649 143.483 33.4146 143.258 33.5642C143.034 33.6391 142.809 33.7139 142.585 33.7887C141.986 33.8635 141.462 33.8635 141.013 33.7887C140.789 33.7139 140.489 33.5642 140.34 33.4146C140.115 33.2649 139.966 33.0404 139.891 32.8159C139.741 32.5914 139.666 32.2921 139.666 31.9928C139.666 31.918 138.918 31.918 138.918 31.918C138.918 32.4418 138.993 32.8159 139.142 33.1152C139.292 33.4146 139.517 33.7139 139.741 33.9384C140.04 34.1629 140.34 34.3125 140.639 34.4622C141.013 34.537 141.387 34.6118 141.762 34.6118C142.136 34.6118 142.435 34.6118 142.734 34.537C143.034 34.537 143.408 34.3873 143.632 34.2377C143.932 34.088 144.156 33.8635 144.306 33.6391C144.455 33.4146 144.605 33.0404 144.605 32.6663C144.605 32.2921 144.605 31.9928 144.381 31.6935C144.231 31.469 144.081 31.2445 143.857 31.0948L144.081 30.9452Z" fill="#000928"/>
    <path d="M136.748 28.1018C136.449 27.8025 136.149 27.5032 135.775 27.3535C135.401 27.2039 134.952 27.0542 134.428 27.0542C133.904 27.0542 133.381 27.129 133.006 27.3535C132.632 27.578 132.258 27.8773 131.959 28.1766C131.66 28.5508 131.51 28.9249 131.36 29.3739C131.211 29.8229 131.136 30.3467 131.136 30.7957C131.136 31.2447 131.136 31.7685 131.36 32.2175C131.51 32.6664 131.66 33.0406 131.959 33.4147C132.258 33.7141 132.558 34.0134 132.932 34.2379C133.306 34.4624 133.83 34.5372 134.353 34.5372C135.251 34.5372 135.925 34.3127 136.449 33.8637C136.972 33.4147 137.347 32.7413 137.496 31.9181V31.7685H136.823C136.673 32.442 136.374 32.9658 136 33.3399C135.626 33.7141 135.102 33.8637 134.428 33.8637C133.755 33.8637 133.68 33.7889 133.306 33.6392C133.006 33.4896 132.707 33.2651 132.558 32.9658C132.333 32.6664 132.183 32.3671 132.109 31.993C132.034 31.6188 131.959 31.2447 131.959 30.8705H137.646C137.646 30.7209 137.646 30.7209 137.646 30.646V30.4964C137.646 30.0474 137.646 29.5984 137.421 29.1494C137.272 28.7005 137.047 28.3263 136.823 28.027L136.748 28.1018ZM131.884 30.3467C131.884 30.0474 131.959 29.7481 132.109 29.4488C132.258 29.1494 132.408 28.8501 132.632 28.5508C132.857 28.3263 133.081 28.1018 133.381 27.9522C133.68 27.8025 134.054 27.7277 134.428 27.7277C134.802 27.7277 135.177 27.7277 135.401 27.9522C135.7 28.1018 135.925 28.3263 136.149 28.5508C136.374 28.7753 136.523 29.0746 136.598 29.4488C136.673 29.7481 136.748 30.0474 136.748 30.4215H131.809L131.884 30.3467Z" fill="#000928"/>
    <path d="M161.517 12.5372C161.293 12.5372 161.068 12.4624 160.918 12.4624C160.395 12.4624 159.946 12.6121 159.646 12.8366C159.422 12.9862 159.272 13.2107 159.123 13.4352V12.5372H157.027V19.7957H159.197V15.2311C159.347 14.9318 159.646 14.7821 159.946 14.6325C160.245 14.4828 160.694 14.408 161.143 14.408H161.592V12.5372H161.517Z" fill="#000928"/>
    <path d="M126.646 14.782C127.02 14.2582 127.245 13.6595 127.245 12.9861C127.245 12.5371 127.17 12.0881 126.946 11.6391C126.721 11.265 126.422 10.8908 126.048 10.6663C125.673 10.367 125.15 10.2173 124.701 10.0677C124.177 9.91803 123.578 9.8432 122.98 9.91803H119.986V19.7956H122.231V16.2786H122.755L125.599 19.7956H128.442L125.075 15.8296C125.748 15.6051 126.272 15.231 126.646 14.782ZM125 13.0609C125 13.5847 124.775 13.9588 124.401 14.1833C124.027 14.4078 123.429 14.5575 122.755 14.5575H122.231V11.7139H122.98C123.578 11.7139 124.102 11.7888 124.476 12.0133C124.85 12.2378 125 12.5371 125 12.9861V13.0609Z" fill="#000928"/>
    <path d="M131.36 15.6799H134.952V13.884H131.36V11.7139H135.176V9.91797H129.115V19.7955H135.176V17.9996H131.36V15.6799Z" fill="#000928"/>
    <path d="M154.184 11.3397C153.66 10.8908 153.062 10.5166 152.388 10.2921C151.64 10.0676 150.817 9.91797 149.994 9.91797H146.926V19.7955H149.994C149.994 19.7955 149.994 19.7955 150.069 19.7955C150.817 19.7955 151.64 19.6459 152.314 19.4214C152.987 19.1969 153.586 18.8227 154.109 18.3738C154.633 17.9248 155.007 17.401 155.307 16.8023C155.831 15.5302 155.831 14.1084 155.307 12.8363C155.007 12.2377 154.633 11.7139 154.109 11.2649L154.184 11.3397ZM153.286 16.2037C153.137 16.5778 152.912 16.8772 152.538 17.1765C152.239 17.4758 151.865 17.6255 151.416 17.7751C150.967 17.9248 150.518 17.9996 149.994 17.9996H149.171V11.7139H149.994C150.443 11.7139 150.892 11.7139 151.341 11.9384C151.715 12.088 152.089 12.3125 152.463 12.537C152.763 12.8363 152.987 13.1357 153.212 13.5098C153.586 14.3329 153.586 15.3057 153.212 16.1289L153.286 16.2037Z" fill="#000928"/>
    <path d="M142.137 9.91797H139.742L135.926 19.7955H138.246L138.919 17.7751H142.81L143.484 19.7955H145.803L142.062 9.9928L142.137 9.91797ZM142.286 15.9792H139.667L141.014 12.0132L142.361 15.9792H142.286Z" fill="#000928"/>
    <path d="M44.932 11.1905V16.8776C44.932 19.1973 43.1361 21.068 40.8912 21.068H34.9048C34.0816 21.068 33.2585 20.8435 32.585 20.3197L28.3946 24.6599C28.8435 25.3333 29.1429 26.2313 29.1429 27.0544V32.7415C29.1429 35.0612 27.3469 36.932 25.102 36.932H19.1156C16.8707 36.932 15.0748 35.0612 15.0748 32.7415V27.0544C15.0748 24.7347 16.8707 22.8639 19.1156 22.8639H25.102C26 22.8639 26.8231 23.1633 27.5714 23.6871L31.6871 19.4218C31.0884 18.6735 30.8639 17.7755 30.8639 16.8776V11.1905C30.8639 8.87075 32.6599 7 34.9048 7H40.8912C43.1361 7 44.932 8.87075 44.932 11.1905ZM44.932 27.0544V32.7415C44.932 35.0612 43.1361 36.932 40.8912 36.932H34.9048C32.6599 36.932 30.8639 35.0612 30.8639 32.7415V27.0544C30.8639 24.7347 32.6599 22.8639 34.9048 22.8639H40.8912C43.1361 22.8639 44.932 24.7347 44.932 27.0544ZM31.9116 27.0544V32.7415C31.9116 34.4626 33.2585 35.8095 34.9048 35.8095H40.8912C42.5374 35.8095 43.8844 34.4626 43.8844 32.7415V27.0544C43.8844 25.3333 42.5374 23.9864 40.8912 23.9864H34.9048C33.2585 23.9864 31.9116 25.3333 31.9116 27.0544ZM15 16.9524V11.2653C15 8.94558 16.7959 7.07483 19.0408 7.07483H25.0272C27.2721 7.07483 29.068 8.94558 29.068 11.2653V16.9524C29.068 19.2721 27.2721 21.1429 25.0272 21.1429H19.0408C16.7959 21.1429 15 19.2721 15 16.9524ZM19.0408 20.0204H25.0272C26.6735 20.0204 28.0204 18.6735 28.0204 16.9524V11.2653C28.0204 9.54422 26.6735 8.19728 25.0272 8.19728H19.0408C17.3946 8.19728 16.0476 9.54422 16.0476 11.2653V16.9524C16.0476 18.6735 17.3946 20.0204 19.0408 20.0204Z" fill="#000928"/>
    <path d="M60.8711 20.6938H75.6126V15.6802H60.8711V20.6938ZM71.1228 17.2516H73.5174V19.0475H71.1228V17.2516ZM67.0072 17.2516H69.4017V19.0475H67.0072V17.2516ZM62.8915 17.2516H65.2861V19.0475H62.8915V17.2516Z" fill="#000928"/>
    <path d="M67.2314 13.136H61.3947V14.7823H75.1634V13.136H69.4763V12.0136H76.1362V10.2177H69.4763V8.7959H67.2314V10.2177H60.4219V12.0136H67.2314V13.136Z" fill="#000928"/>
    <path d="M51.667 34.0881H53.8371H57.2044H59.3745V24.4351H51.667V34.0881ZM53.8371 26.4555H57.2044V31.9929H53.8371V26.4555Z" fill="#000928"/>
    <path d="M76.5102 32.891C75.0136 32.2175 73.4422 31.5441 71.7211 31.0951H74.7143V21.6665H61.7687V31.0951H65.136C63.7143 31.7685 61.9184 32.2924 59.8231 32.7413H59.5986L60.4966 34.6121H60.6463C63.2653 33.9386 65.3605 33.1155 67.0816 32.2175H67.2313C67.2313 32.1427 66.3333 31.0951 66.3333 31.0951H70L69.2517 32.1427H69.4762C71.4218 32.7413 73.3673 33.5645 75.3877 34.5373H75.5374L76.6599 32.9658H76.5102V32.891ZM63.8639 23.1631H72.4694V24.2856H63.8639V23.1631ZM63.8639 25.7073H72.4694V26.7549H63.8639V25.7073ZM63.8639 29.374V28.2515H72.4694V29.374H63.8639Z" fill="#000928"/>
    <path d="M59.2246 20.3193H51.8164V22.3397H59.2246V20.3193Z" fill="#000928"/>
    <path d="M59.9724 12.3127H58.4758H56.9044V8.94531H54.6595V12.3127H54.5098H51.0676H50.918V14.4827H59.9724V12.3127Z" fill="#000928"/>
    <path d="M59.2246 16.4282H51.8164V18.4486H59.2246V16.4282Z" fill="#000928"/>
    <path d="M97.6127 17.9249H103.674V16.0542H98.5106C97.8372 16.0542 97.7623 15.7548 97.7623 15.4555V14.2582H103.225V9.02014H95.6671V16.2786C95.6671 17.4011 96.3406 17.9249 97.6127 17.9249ZM97.7623 12.4623V10.7412H101.13V12.4623H97.7623ZM88.0344 11.9385V9.69361H92.9732V11.9385H88.0344ZM106.293 17.8501H112.354V15.9793H107.191C106.517 15.9793 106.443 15.68 106.443 15.3807V14.1834H111.905V8.94531H104.347V16.2038C104.347 17.3263 105.021 17.8501 106.293 17.8501ZM106.443 12.3875V10.6664H109.81V12.3875H106.443ZM113.402 31.8433L112.878 34.163H105.619C103.449 34.163 101.504 34.163 99.8576 34.0882C97.912 34.0882 96.3406 33.7888 95.2929 33.265C94.0957 32.7412 92.9732 31.9929 92.0004 30.9453C91.7759 30.7208 91.5514 30.646 91.4018 30.646C90.9528 30.646 90.0548 31.2446 88.4834 34.3127V34.4623C88.4086 34.4623 86.6875 32.8909 86.6875 32.8909C88.0344 30.3467 89.2317 28.9249 90.5038 28.4759C91.0276 27.0542 91.4766 25.4827 91.8508 23.612H87.7351V21.8161C89.0821 20.2446 90.2045 18.748 91.1025 17.1766H86.9868V15.0065H93.7963V16.8025C92.8984 18.4487 91.7759 19.9453 90.5787 21.5167H94.1705V23.0133C93.7215 25.4079 93.2725 27.2786 92.7487 28.7004C92.9732 28.8501 93.1977 28.9997 93.4222 29.2242C94.2453 30.0474 95.2181 30.7208 96.1161 31.095C97.014 31.4691 98.2861 31.6188 99.9324 31.6936C100.681 31.6936 101.429 31.6936 102.252 31.6936C103.225 31.6936 104.198 31.6936 105.32 31.6936C107.49 31.6936 110.334 31.6936 113.177 31.544H113.402V31.8433ZM100.98 26.4555C99.5583 27.578 97.7623 28.6256 95.6671 29.5235H95.4426C95.4426 29.5984 96.7895 31.3195 96.7895 31.3195H96.9392C99.1093 30.2718 100.98 29.1494 102.477 27.8025L102.626 27.6528L101.205 26.3807H106.143L105.021 27.9521H105.17C107.191 28.8501 109.136 29.9725 111.007 31.3195H111.157C111.157 31.3943 112.354 29.5984 112.354 29.5984H112.205C110.483 28.3263 108.538 27.2786 106.293 26.3807H112.728V24.2854H108.164V22.0406H111.905V19.9453H108.164V18.0746H105.994V19.9453H101.653V18.0746H99.4834V19.9453H95.6671V22.0406H99.4834V24.2854H94.9188V26.3807H100.905L100.98 26.4555ZM101.728 24.3603V22.1154H106.068V24.3603H101.728Z" fill="#000928"/>
</svg>
