<svg width="16" height="16" viewBox="0 0 16 16" fill="none"
    xmlns="http://www.w3.org/2000/svg">
    <mask id="mask0_5727_8735" style="mask-type:alpha" maskUnits="userSpaceOnUse" x="0" y="0" width="16" height="16">
        <rect width="16" height="16" fill="#D9D9D9"/>
    </mask>
    <g mask="url(#mask0_5727_8735)">
        <path d="M1.93359 14.7589V4.00515C1.93359 3.70506 2.0372 3.45141 2.24443 3.24418C2.45165 3.03696 2.70531 2.93335 3.00539 2.93335H12.9951C13.2952 2.93335 13.5488 3.03696 13.7561 3.24418C13.9633 3.45141 14.0669 3.70506 14.0669 4.00515V11.5949C14.0669 11.8949 13.9633 12.1486 13.7561 12.3558C13.5488 12.563 13.2952 12.6667 12.9951 12.6667H4.02589L1.93359 14.7589ZM3.66693 11.8H12.9951C13.0464 11.8 13.0934 11.7786 13.1361 11.7359C13.1789 11.6932 13.2002 11.6461 13.2002 11.5949V4.00515C13.2002 3.95386 13.1789 3.90684 13.1361 3.8641C13.0934 3.82137 13.0464 3.8 12.9951 3.8H3.00539C2.95411 3.8 2.90709 3.82137 2.86434 3.8641C2.82161 3.90684 2.80024 3.95386 2.80024 4.00515V12.6731L3.66693 11.8Z" fill="#B2B5BE"/>
    </g>
</svg>
