<svg width="120" height="60" viewBox="0 0 120 60" fill="none" xmlns="http://www.w3.org/2000/svg">
<g clip-path="url(#clip0_5915_46688)">
<path d="M90.1427 45.233C89.9862 45.2017 89.7983 45.1704 89.6417 45.1704C89.2347 45.1704 88.8903 45.2643 88.6398 45.4522C88.4832 45.5775 88.358 45.734 88.2641 45.8906V45.2017H86.5732V50.963H88.3267V47.3622C88.4832 47.143 88.6711 46.9865 88.9216 46.8925C89.1721 46.7673 89.4852 46.7047 89.8609 46.7047H90.2053V45.233H90.1427Z" fill="#000928"/>
<path d="M96.8121 50.2115L93.8375 43.1665H93.0234V50.9943H93.6497V44.1685L96.499 50.9943H97.0939L99.9119 44.1685V50.9943H100.538V43.1665H99.724L96.8121 50.2115Z" fill="#000928"/>
<path d="M62.5894 47.0177C62.9025 46.642 63.059 46.141 63.059 45.6087C63.059 45.233 62.9651 44.8886 62.8086 44.5441C62.652 44.231 62.4015 43.9805 62.1197 43.7927C61.8066 43.5735 61.4309 43.4169 61.0551 43.3543C60.6168 43.2604 60.1784 43.1978 59.7088 43.1978H57.3291V50.9942H59.1138V48.2075H59.5209L61.744 50.9942H63.9671L61.3369 47.8631C61.8692 47.6752 62.3076 47.3934 62.5894 47.0177ZM61.3056 45.64C61.3056 46.0471 61.1491 46.3289 60.836 46.5167C60.5228 46.7359 60.0845 46.8298 59.5209 46.8298H59.1138V44.6068H59.7088C60.1784 44.6068 60.5855 44.7007 60.8673 44.8572C61.1491 45.0138 61.3056 45.2643 61.3056 45.64Z" fill="#000928"/>
<path d="M118.511 47.0803C118.511 46.9238 118.511 46.7672 118.448 46.5794C118.417 46.4228 118.354 46.2349 118.26 46.0784C118.166 45.9218 118.041 45.7653 117.916 45.6087C117.759 45.4835 117.571 45.3582 117.321 45.2956C117.102 45.2017 116.789 45.1704 116.476 45.1704C116.162 45.1704 116.037 45.1704 115.818 45.2643C115.599 45.3269 115.411 45.4208 115.223 45.5461C115.035 45.6713 114.879 45.7966 114.753 45.9844C114.691 46.0784 114.628 46.1723 114.566 46.2662V43.1978H114.002V50.9942H114.566V47.9257C114.566 47.6126 114.597 47.2995 114.691 47.0177C114.785 46.7359 114.91 46.5167 115.067 46.3289C115.223 46.141 115.442 45.9844 115.661 45.8592C115.881 45.7653 116.162 45.7026 116.476 45.7026C116.789 45.7026 117.102 45.7653 117.321 45.8905C117.509 46.0158 117.665 46.1723 117.759 46.3602C117.853 46.548 117.916 46.7359 117.947 46.9238C117.947 47.1116 117.978 47.2995 117.978 47.4248V50.9942H118.542V47.5187C118.542 47.3934 118.542 47.2682 118.542 47.1116L118.511 47.0803Z" fill="#000928"/>
<path d="M112.061 48.1761C111.873 48.0509 111.653 47.9569 111.403 47.8943C111.152 47.8317 110.902 47.7691 110.62 47.7064C110.401 47.6438 110.182 47.6125 109.963 47.5499C109.743 47.4873 109.556 47.4246 109.399 47.362C109.243 47.2994 109.086 47.1741 108.992 47.0489C108.898 46.9237 108.835 46.7671 108.835 46.5479C108.835 46.3287 108.867 46.2348 108.961 46.1096C109.055 45.9843 109.18 45.8904 109.305 45.7964C109.462 45.7025 109.618 45.6712 109.806 45.6086C110.213 45.546 110.62 45.546 110.996 45.6086C111.184 45.6712 111.34 45.7338 111.497 45.8278C111.622 45.9217 111.747 46.0783 111.81 46.2348C111.873 46.3914 111.935 46.6105 111.935 46.8297V46.8923H112.499V46.8297C112.499 46.5166 112.436 46.2348 112.342 45.9843C112.248 45.7651 112.092 45.546 111.873 45.4207C111.685 45.2642 111.466 45.1702 111.184 45.1076C110.714 44.9824 110.151 44.9824 109.618 45.1076C109.368 45.1702 109.149 45.2328 108.961 45.3581C108.773 45.4833 108.585 45.6399 108.46 45.8278C108.334 46.0156 108.272 46.2661 108.272 46.5479C108.272 46.8297 108.366 47.2681 108.585 47.4559C108.773 47.6751 109.023 47.8317 109.305 47.9256C109.587 48.0195 109.9 48.1135 110.244 48.1761C110.558 48.2387 110.871 48.3013 111.152 48.3953C111.434 48.4892 111.653 48.5831 111.841 48.7397C111.998 48.8963 112.092 49.0841 112.092 49.3659C112.092 49.6477 112.029 49.773 111.935 49.8982C111.841 50.0548 111.685 50.1487 111.528 50.2426C111.372 50.3366 111.184 50.3679 110.965 50.3992C110.495 50.4618 110.088 50.4618 109.712 50.3366C109.493 50.2739 109.336 50.18 109.18 50.0235C109.023 49.8982 108.898 49.7417 108.804 49.5538C108.71 49.3659 108.648 49.1467 108.648 48.8963V48.8336H108.084V48.9276C108.084 49.272 108.147 49.5538 108.272 49.8043C108.397 50.0548 108.554 50.2739 108.773 50.4618C108.992 50.6497 109.242 50.7749 109.493 50.8375C109.775 50.9315 110.057 50.9628 110.401 50.9628C110.745 50.9628 110.902 50.9628 111.152 50.9002C111.403 50.8375 111.653 50.7749 111.873 50.6497C112.092 50.5244 112.28 50.3679 112.405 50.1487C112.561 49.9295 112.624 49.679 112.624 49.3659C112.624 49.0528 112.561 48.8023 112.468 48.6145C112.374 48.4266 112.217 48.27 112.029 48.1448L112.061 48.1761Z" fill="#000928"/>
<path d="M106.268 45.8903C106.049 45.6398 105.799 45.4206 105.486 45.2953C105.172 45.1388 104.828 45.0762 104.421 45.0762C104.014 45.0762 103.607 45.1701 103.294 45.3267C102.981 45.4832 102.699 45.7024 102.48 45.9842C102.261 46.266 102.104 46.5791 102.01 46.9548C101.916 47.2993 101.854 47.7063 101.854 48.082C101.854 48.4578 101.916 48.8648 102.01 49.2092C102.104 49.5537 102.261 49.8668 102.48 50.1486C102.699 50.3991 102.949 50.6182 103.263 50.7748C103.576 50.9314 103.951 50.994 104.358 50.994C105.047 50.994 105.611 50.8061 106.018 50.4617C106.425 50.1173 106.707 49.585 106.832 48.9274V48.8335H106.268V48.8961C106.143 49.3971 105.924 49.7728 105.611 50.0546C105.298 50.3364 104.891 50.4617 104.358 50.4617C103.826 50.4617 103.732 50.3991 103.513 50.2738C103.263 50.1486 103.075 49.992 102.887 49.7728C102.73 49.5537 102.605 49.3032 102.511 49.0214C102.417 48.7396 102.386 48.4578 102.386 48.1447H106.863V48.082C106.863 48.082 106.863 48.0194 106.863 47.9881C106.863 47.9255 106.863 47.8942 106.863 47.8629C106.863 47.4871 106.801 47.1114 106.707 46.7983C106.613 46.4539 106.425 46.1721 106.237 45.9216L106.268 45.8903ZM102.417 47.6437C102.417 47.3932 102.511 47.1427 102.574 46.9235C102.668 46.673 102.793 46.4226 102.949 46.2347C103.106 46.0468 103.325 45.8903 103.576 45.765C103.826 45.6398 104.108 45.5771 104.421 45.5771C104.734 45.5771 104.985 45.6398 105.204 45.765C105.423 45.8903 105.642 46.0468 105.799 46.2347C105.955 46.4226 106.081 46.673 106.174 46.9235C106.237 47.174 106.3 47.4245 106.331 47.675H102.448L102.417 47.6437Z" fill="#000928"/>
<path d="M66.315 47.7379H69.1643V46.2976H66.315V44.6068H69.3209V43.1978H64.5303V50.9942H69.3522V49.5539H66.315V47.7379Z" fill="#000928"/>
<path d="M84.3813 44.2936C83.9429 43.9178 83.4733 43.6673 82.941 43.4795C82.3461 43.2916 81.6885 43.1664 81.0623 43.1977H78.6514V50.9941H81.0623H81.1249C81.7512 50.9941 82.3461 50.9002 82.9097 50.7123C83.442 50.5245 83.9116 50.274 84.35 49.8983C84.757 49.5538 85.0702 49.1468 85.258 48.6458C85.6964 47.6438 85.6964 46.5166 85.258 45.5147C85.0388 45.045 84.7257 44.638 84.35 44.2936H84.3813ZM83.6612 48.1448C83.5359 48.4266 83.348 48.7084 83.0976 48.9276C82.8471 49.1468 82.5339 49.3033 82.2208 49.4286C81.8764 49.5538 81.5007 49.5851 81.1249 49.5851H80.4674V44.638H81.1249C81.1249 44.638 81.1249 44.638 81.1563 44.638C81.532 44.638 81.8764 44.7006 82.2208 44.7945C82.5339 44.8885 82.8471 45.0763 83.0976 45.2955C83.348 45.5147 83.5359 45.7652 83.6612 46.0783C83.943 46.7671 83.943 47.4873 83.6612 48.1761V48.1448Z" fill="#000928"/>
<path d="M74.8317 43.1978H72.9531L69.9785 50.9943H71.8259L72.3582 49.3974H75.4267L75.9589 50.9943H77.8063L74.8317 43.2291V43.1665V43.1978ZM74.957 47.9571H72.8591L73.8924 44.7947L74.957 47.9571Z" fill="#000928"/>
<path d="M49 12.7006V21.8434C49 25.5382 46.0567 28.544 42.4873 28.544H32.8748C31.5597 28.544 30.3072 28.137 29.2113 27.3855L22.5108 34.274C23.2935 35.4012 23.7006 36.7476 23.7006 38.1252V47.2681C23.7006 50.9628 20.7573 53.9687 17.1879 53.9687H7.57534C3.97456 53.9687 1.06262 50.9628 1.06262 47.2681V38.1252C1.06262 34.4305 4.00587 31.4247 7.57534 31.4247H17.1879C18.5969 31.4247 19.9746 31.8943 21.1018 32.771L27.7397 25.9452C26.8317 24.7554 26.362 23.3464 26.362 21.8434V12.7006C26.362 9.00587 29.3053 6 32.8748 6H42.4873C46.0881 6 49 9.00587 49 12.7006ZM49 38.0939V47.2368C49 50.9315 46.0567 53.9374 42.4873 53.9374H32.8748C29.274 53.9374 26.362 50.9315 26.362 47.2368V38.0939C26.362 34.3992 29.3053 31.3933 32.8748 31.3933H42.4873C46.0881 31.3933 49 34.3992 49 38.0939ZM28.0841 38.0939V47.2368C28.0841 49.9295 30.2133 52.1526 32.8434 52.1526H42.456C45.0861 52.1526 47.2153 49.9609 47.2153 47.2368V38.0939C47.2153 35.4012 45.0861 33.1781 42.456 33.1781H32.8434C30.2133 33.1781 28.0841 35.3699 28.0841 38.0939ZM1 21.9374V12.7945C1 9.0998 3.94325 6.06262 7.51272 6.06262H17.1252C20.726 6.06262 23.638 9.06849 23.638 12.7632V21.9061C23.638 25.6008 20.6947 28.6066 17.1252 28.6066H7.51272C3.91194 28.6066 1 25.6008 1 21.9061V21.9374ZM7.51272 26.8532H17.1252C19.7554 26.8532 21.8845 24.6614 21.8845 21.9374V12.7945C21.8845 10.1018 19.7554 7.87867 17.1252 7.87867H7.51272C4.88258 7.87867 2.75342 10.0704 2.75342 12.7945V21.9374C2.75342 24.6301 4.88258 26.8532 7.51272 26.8532Z" fill="#000928"/>
<path d="M67.0039 20.6537H81.5323V15.7065H67.0039V20.6537ZM77.1487 17.3034H79.5284V19.0568H77.1487V17.3034ZM73.1096 17.3034H75.4579V19.0568H73.1096V17.3034ZM69.0391 17.3034H71.4188V19.0568H69.0391V17.3034Z" fill="#000928"/>
<path d="M73.266 13.1392H67.5048V14.7987H81.1564V13.1392H75.5204V12.012H82.0331V10.2899H75.5204V8.88086H73.266V10.2899H66.5654V12.012H73.266V13.1392Z" fill="#000928"/>
<path d="M57.8926 33.8355H60.0217H63.372H65.5325V24.3169H57.9239V33.8355H57.8926ZM60.0217 26.3208H63.372V31.7689H60.0217V26.3208Z" fill="#000928"/>
<path d="M82.4719 32.6458C81.0002 31.9569 79.4034 31.362 77.7439 30.8297H80.6871V21.499H67.9122V30.8297H71.2625C69.8222 31.4873 68.1 32.0509 66.0648 32.4579H65.877C65.877 32.4892 66.7537 34.3053 66.7537 34.3053H66.8789C69.4777 33.6164 71.5443 32.865 73.2351 31.9256L73.3916 31.8317L72.5149 30.8297H76.147L75.4269 31.8943L75.646 31.9569C77.5873 32.5205 79.4973 33.272 81.4699 34.3053L81.5952 34.3679L82.6597 32.7397L82.5032 32.6771L82.4719 32.6458ZM70.01 23.0646H78.4953V24.1605H70.01V23.0646ZM70.01 25.5695H78.4953V26.6341H70.01V25.5695ZM70.01 29.1703V28.0744H78.4953V29.1703H70.01Z" fill="#000928"/>
<path d="M65.4069 20.2778H58.0801V22.2817H65.4069V20.2778Z" fill="#000928"/>
<path d="M66.1269 12.3562H64.6552H63.0584V9.00586H60.8353V12.3562H60.7413H57.3284H57.1719V14.454H66.1269V12.3562Z" fill="#000928"/>
<path d="M65.4069 16.458H58.0801V18.4619H65.4069V16.458Z" fill="#000928"/>
<path d="M103.294 17.8981H109.305V16.0507H104.202C103.544 16.0507 103.45 15.7376 103.45 15.4558V14.266H108.836V9.06836H101.415V16.2386C101.415 17.3345 102.072 17.8981 103.325 17.8981H103.294ZM103.419 12.5439V10.8844H106.769V12.5439H103.419ZM93.775 12.0429V9.81983H98.6596V12.0429H93.775ZM111.81 17.8981H117.822V16.0507H112.718C112.061 16.0507 111.967 15.7376 111.967 15.4558V14.266H117.352V9.06836H109.932V16.2386C109.932 17.3345 110.589 17.8981 111.842 17.8981H111.81ZM111.935 12.5439V10.8844H115.286V12.5439H111.935ZM118.793 31.7689L118.26 34.0547H111.09C108.961 34.0547 107.051 34.0547 105.423 33.9607C103.481 33.8981 101.979 33.6476 100.945 33.1779C99.7555 32.677 98.6909 31.9568 97.6889 30.8922C97.4697 30.6731 97.2506 30.6417 97.094 30.6417C96.6557 30.6417 95.8103 31.268 94.2134 34.2425L94.1194 34.4304L92.46 32.8961L92.5226 32.8022C93.8376 30.3599 95.0588 28.9823 96.2486 28.5752C96.8122 27.1662 97.2193 25.6006 97.5637 23.8159H93.4932V22.0625H93.5245C94.8396 20.4969 95.9355 18.994 96.8748 17.4911H92.8357V15.3619H99.5363V17.1153C98.6283 18.7435 97.5637 20.2464 96.3425 21.7807H99.8494V23.2836C99.4424 25.6633 98.9727 27.4793 98.4717 28.8883C98.6909 29.0136 98.9101 29.2014 99.1605 29.4206C100.006 30.2347 100.914 30.8609 101.853 31.2993C102.73 31.6437 103.982 31.8629 105.579 31.8942C106.299 31.8942 107.051 31.8942 107.896 31.8942C108.836 31.8942 109.838 31.8942 110.902 31.8942C113.031 31.8942 115.881 31.8316 118.636 31.7376H118.824L118.793 31.7689ZM106.55 26.4147C105.141 27.5419 103.388 28.5439 101.29 29.4206L101.102 29.4832L102.417 31.174L102.542 31.1114C104.671 30.1408 106.519 29.0136 108.022 27.6985L108.147 27.5733L106.769 26.3521H111.685L110.62 27.9177L110.808 27.9803C112.812 28.7944 114.754 29.8903 116.57 31.2367L116.695 31.3306L117.853 29.5459L117.728 29.4519C116.006 28.2621 114.096 27.2288 111.904 26.3208H118.292V24.2543H113.783V21.9999H117.446V19.9646H113.783V18.1486H111.622V19.9646H107.333V18.1486H105.204V19.9646H101.446V21.9999H105.204V24.2543H100.695V26.3208H106.613L106.55 26.4147ZM107.301 24.3482V22.0938H111.591V24.3482H107.301Z" fill="#000928"/>
</g>
<defs>
<clipPath id="clip0_5915_46688">
<rect width="117.793" height="48" fill="white" transform="translate(1 6)"/>
</clipPath>
</defs>
</svg>
