<svg width="24" height="24" viewBox="0 0 24 24" fill="none" xmlns="http://www.w3.org/2000/svg">
<g clip-path="url(#clip0_6073_353546)">
<path d="M10.8226 6.80955H20.1996C20.1996 4.98505 18.7146 3.5 16.8901 3.5H4.30955C2.48505 3.5 1 4.98505 1 6.80955V14.447C1 16.2715 2.48505 17.7565 4.30955 17.7565H5.11572V19.7295C5.11572 20.1962 5.45516 20.3872 5.85825 20.175L8.14947 18.9021C7.53423 18.2445 7.15236 17.3746 7.15236 16.3987V10.4373C7.15236 8.42189 8.78592 6.78833 10.8014 6.78833L10.8226 6.80955Z" fill="#212944"/>
<path d="M20.6237 8.08252H10.8224C9.50704 8.08252 8.44629 9.14327 8.44629 10.4586V16.42C8.44629 17.7354 9.50704 18.7961 10.8224 18.7961H15.8928L19.3508 20.7055C19.669 20.8752 19.9448 20.7267 19.9448 20.3448V18.7961H20.6449C21.9603 18.7961 23.021 17.7354 23.021 16.42V10.4586C23.021 9.14327 21.9603 8.08252 20.6449 8.08252H20.6237Z" fill="#212944"/>
</g>
<defs>
<clipPath id="clip0_6073_353546">
<rect width="22" height="17.269" fill="white" transform="translate(1 3.5)"/>
</clipPath>
</defs>
</svg>
