<svg width="16" height="16" viewBox="0 0 16 16" fill="none"
    xmlns="http://www.w3.org/2000/svg">
    <mask id="mask0_5677_2700" style="mask-type:alpha" maskUnits="userSpaceOnUse" x="0" y="0" width="16" height="16">
        <rect width="16" height="16" fill="#D9D9D9"/>
    </mask>
    <g mask="url(#mask0_5677_2700)">
        <path d="M7.56179 12.272H8.42203V11.5143C8.92801 11.4554 9.36839 11.2445 9.74318 10.8816C10.118 10.5188 10.3054 10.0917 10.3054 9.60024C10.3054 9.10024 10.1483 8.68743 9.83421 8.36179C9.52011 8.03615 9.04639 7.75666 8.41306 7.52333C7.70108 7.26178 7.24958 7.04063 7.05856 6.85986C6.86754 6.67909 6.77203 6.437 6.77203 6.13358C6.77203 5.88571 6.88421 5.6746 7.10858 5.50024C7.33293 5.32588 7.61349 5.23869 7.95024 5.23869C8.25281 5.23869 8.52717 5.30942 8.77333 5.45088C9.01948 5.59233 9.19427 5.78656 9.29768 6.03356L10.0374 5.71948C9.88698 5.387 9.67095 5.11392 9.38933 4.90024C9.1077 4.68658 8.78527 4.54854 8.42203 4.48614V3.72846H7.57846V4.50281C7.06564 4.6011 6.66243 4.8011 6.36884 5.10281C6.07525 5.40452 5.92846 5.75367 5.92846 6.15024C5.92846 6.62888 6.09684 7.03464 6.43359 7.36754C6.77034 7.70046 7.32034 8.0011 8.08359 8.26948C8.59214 8.45152 8.95389 8.64575 9.16884 8.85216C9.3838 9.05857 9.49128 9.30793 9.49128 9.60024C9.49128 9.94042 9.35431 10.2163 9.08038 10.4278C8.80644 10.6394 8.49084 10.7451 8.13358 10.7451C7.75837 10.7451 7.42268 10.624 7.12653 10.3817C6.83037 10.1394 6.61947 9.83445 6.49383 9.46693L5.71693 9.81051C5.86735 10.2387 6.10709 10.5985 6.43616 10.89C6.76522 11.1814 7.14043 11.384 7.56179 11.4977V12.272ZM8.00024 14.0669C7.16948 14.0669 6.38551 13.9088 5.64833 13.5925C4.91115 13.2763 4.26585 12.8415 3.71244 12.288C3.15902 11.7346 2.72419 11.0893 2.40796 10.3522C2.09172 9.61498 1.93359 8.83101 1.93359 8.00024C1.93359 7.15837 2.09172 6.37162 2.40796 5.63999C2.72419 4.90837 3.15902 4.26586 3.71244 3.71244C4.26585 3.15902 4.91115 2.72419 5.64833 2.40796C6.38551 2.09172 7.16948 1.93359 8.00024 1.93359C8.84212 1.93359 9.62887 2.09172 10.3605 2.40796C11.0921 2.72419 11.7346 3.15902 12.288 3.71244C12.8415 4.26586 13.2763 4.90837 13.5925 5.63999C13.9088 6.37162 14.0669 7.15837 14.0669 8.00024C14.0669 8.83101 13.9088 9.61498 13.5925 10.3522C13.2763 11.0893 12.8415 11.7346 12.288 12.288C11.7346 12.8415 11.0921 13.2763 10.3605 13.5925C9.62887 13.9088 8.84212 14.0669 8.00024 14.0669ZM8.00024 13.2002C9.44469 13.2002 10.6725 12.6947 11.6836 11.6836C12.6947 10.6725 13.2002 9.44469 13.2002 8.00024C13.2002 6.5558 12.6947 5.32802 11.6836 4.31691C10.6725 3.3058 9.44469 2.80024 8.00024 2.80024C6.5558 2.80024 5.32802 3.3058 4.31691 4.31691C3.3058 5.32802 2.80024 6.5558 2.80024 8.00024C2.80024 9.44469 3.3058 10.6725 4.31691 11.6836C5.32802 12.6947 6.5558 13.2002 8.00024 13.2002Z" fill="white"/>
    </g>
</svg>
