<svg width="24" height="24" viewBox="0 0 24 24" fill="none" xmlns="http://www.w3.org/2000/svg">
<g clip-path="url(#clip0_6073_353545)">
<path d="M20.4365 7.82876H20.0162V6.79916C20.0162 4.99209 18.5454 3.52122 16.7383 3.52122H4.27794C2.47087 3.50021 1 4.97108 1 6.77814V14.3426C1 16.1497 2.47087 17.6206 4.27794 17.6206H5.07641V19.5747C5.07641 20.037 5.41261 20.2261 5.81184 20.016L9.04776 18.2299C9.48902 18.6081 10.0774 18.8393 10.7077 18.8393H15.8558L19.2388 20.7094C19.554 20.8775 19.8061 20.7304 19.8061 20.3732V18.8603H20.4365C21.8443 18.8603 23 17.7046 23 16.2968V10.3923C23 8.98445 21.8443 7.82876 20.4365 7.82876ZM4.27794 16.2758C3.22732 16.2758 2.36581 15.4142 2.36581 14.3636V6.77814C2.36581 5.72752 3.22732 4.86601 4.27794 4.86601H16.7173C17.7679 4.86601 18.6294 5.72752 18.6294 6.77814V7.80775H10.7077C9.2999 7.80775 8.14422 8.96343 8.14422 10.3713V16.2758C8.14422 16.633 8.20726 16.9482 8.33333 17.2633L6.23209 18.419V16.2547H4.27794V16.2758ZM8.81662 18.0198C8.81662 18.0198 8.81662 18.0198 8.83763 18.0408C8.83763 18.0408 8.83763 18.0408 8.81662 18.0198ZM8.48042 17.5575C8.48042 17.5575 8.48042 17.5575 8.48042 17.5785C8.48042 17.5785 8.48042 17.5785 8.48042 17.5575ZM8.62751 17.7887C8.62751 17.7887 8.62751 17.8097 8.64852 17.8307C8.64852 17.8307 8.62751 17.8097 8.62751 17.7887ZM21.6552 16.2968C21.6552 16.9692 21.1089 17.5365 20.4155 17.5365H18.6084V19.0494L15.8768 17.5365H10.6867C10.0143 17.5365 9.44699 16.9902 9.44699 16.2968V10.3923C9.44699 9.71988 9.99331 9.15255 10.6867 9.15255H20.3945C21.0669 9.15255 21.6342 9.69887 21.6342 10.3923V16.2968H21.6552Z" fill="#575D71"/>
</g>
<defs>
<clipPath id="clip0_6073_353545">
<rect width="22" height="17.2932" fill="white" transform="translate(1 3.5)"/>
</clipPath>
</defs>
</svg>
