<svg width="21" height="24" viewBox="0 0 21 24" fill="none" xmlns="http://www.w3.org/2000/svg">
<path d="M13.9219 11.4375C13.9219 12.1406 13.3594 12.75 12.7031 12.75C12 12.75 11.4375 12.1406 11.4375 11.4375C11.4375 10.6875 12 10.0781 12.7031 10.0781C13.3594 10.0781 13.9219 10.6875 13.9219 11.4375ZM8.29688 10.0781C9 10.0781 9.5625 10.6875 9.51562 11.4375C9.51562 12.1406 9 12.75 8.29688 12.75C7.64062 12.75 7.07812 12.1406 7.07812 11.4375C7.07812 10.6875 7.64062 10.0781 8.29688 10.0781ZM21 2.48438V24C17.9531 21.375 18.9375 22.2188 15.4219 18.9844L16.0312 21.1875H2.4375C1.07812 21.1875 0 20.1094 0 18.7031V2.48438C0 1.125 1.07812 0 2.4375 0H18.5156C19.875 0 21 1.125 21 2.48438ZM17.5781 13.875C17.5781 9.98438 15.8438 6.89062 15.8438 6.89062C14.1094 5.57812 12.4688 5.625 12.4688 5.625L12.2812 5.8125C14.3438 6.42188 15.2812 7.3125 15.2812 7.3125C12.4219 5.76562 9.09375 5.76562 6.32812 6.98438C5.85938 7.17188 5.625 7.3125 5.625 7.3125C5.625 7.3125 6.60938 6.375 8.76562 5.76562L8.625 5.625C8.625 5.625 6.98438 5.57812 5.25 6.89062C5.25 6.89062 3.5625 9.98438 3.5625 13.875C3.5625 13.875 4.54688 15.6094 7.21875 15.7031C7.21875 15.7031 7.64062 15.1406 8.01562 14.7188C6.46875 14.25 5.90625 13.2656 5.90625 13.2656C6.09375 13.4062 6.375 13.5469 6.375 13.5938C8.4375 14.7188 11.2969 15.0938 13.875 14.0156C14.2969 13.8281 14.7656 13.6406 15.2812 13.3125C15.2812 13.3125 14.6719 14.2969 13.0781 14.7188C13.4531 15.1875 13.875 15.7031 13.875 15.7031C16.5469 15.6094 17.5781 13.875 17.5781 13.875Z" fill="#7F8493"/>
</svg>
