<svg width="44" height="44" viewBox="0 0 44 44" fill="none" xmlns="http://www.w3.org/2000/svg">
<path d="M19.3086 24.6914C20.0534 25.4362 20.9505 25.8086 22 25.8086C23.0495 25.8086 23.9466 25.4362 24.6914 24.6914C25.4362 23.9466 25.8086 23.0495 25.8086 22C25.8086 20.9505 25.4362 20.0534 24.6914 19.3086C23.9466 18.5638 23.0495 18.1914 22 18.1914C20.9505 18.1914 20.0534 18.5638 19.3086 19.3086C18.5638 20.0534 18.1914 20.9505 18.1914 22C18.1914 23.0495 18.5638 23.9466 19.3086 24.6914ZM30.0742 23.0664L32.3594 24.8438C32.5964 25.013 32.6302 25.25 32.4609 25.5547L30.2773 29.3125C30.1419 29.5495 29.9219 29.6172 29.6172 29.5156L26.9258 28.4492C26.2148 28.957 25.6055 29.3125 25.0977 29.5156L24.6914 32.3594C24.6237 32.6641 24.4544 32.8164 24.1836 32.8164H19.8164C19.5456 32.8164 19.3763 32.6641 19.3086 32.3594L18.9023 29.5156C18.2591 29.2448 17.6497 28.8893 17.0742 28.4492L14.3828 29.5156C14.0781 29.6172 13.8581 29.5495 13.7227 29.3125L11.5391 25.5547C11.3698 25.25 11.4036 25.013 11.6406 24.8438L13.9258 23.0664C13.8919 22.8294 13.875 22.474 13.875 22C13.875 21.526 13.8919 21.1706 13.9258 20.9336L11.6406 19.1562C11.4036 18.987 11.3698 18.75 11.5391 18.4453L13.7227 14.6875C13.8581 14.4505 14.0781 14.3828 14.3828 14.4844L17.0742 15.5508C17.7852 15.043 18.3945 14.6875 18.9023 14.4844L19.3086 11.6406C19.3763 11.3359 19.5456 11.1836 19.8164 11.1836H24.1836C24.4544 11.1836 24.6237 11.3359 24.6914 11.6406L25.0977 14.4844C25.7409 14.7552 26.3503 15.1107 26.9258 15.5508L29.6172 14.4844C29.9219 14.3828 30.1419 14.4505 30.2773 14.6875L32.4609 18.4453C32.6302 18.75 32.5964 18.987 32.3594 19.1562L30.0742 20.9336C30.1081 21.1706 30.125 21.526 30.125 22C30.125 22.474 30.1081 22.8294 30.0742 23.0664Z" fill="#000928"/>
</svg>
