<svg width="20" height="20" viewBox="0 0 20 20" fill="none" xmlns="http://www.w3.org/2000/svg">
<mask id="mask0_13045_67380" style="mask-type:alpha" maskUnits="userSpaceOnUse" x="0" y="0" width="20" height="20">
<rect width="20" height="20" fill="#D9D9D9"/>
</mask>
<g mask="url(#mask0_13045_67380)">
<path d="M8.92081 11.1633L7.52656 9.7899C7.41118 9.67451 7.28699 9.61548 7.15397 9.61282C7.02096 9.61014 6.89409 9.66916 6.77337 9.7899C6.65265 9.91062 6.59229 10.0396 6.59229 10.1769C6.59229 10.3142 6.65265 10.4432 6.77337 10.5639L8.45606 12.2466C8.59281 12.3833 8.74772 12.4517 8.92081 12.4517C9.09388 12.4517 9.24879 12.3833 9.38554 12.2466L13.2092 8.42288C13.3246 8.3075 13.3837 8.17984 13.3863 8.03988C13.389 7.89992 13.33 7.76958 13.2092 7.64886C13.0885 7.52814 12.963 7.46777 12.8327 7.46777C12.7023 7.46777 12.5768 7.52814 12.4561 7.64886L8.92081 11.1633ZM10.0007 17.5831C8.96134 17.5831 7.98075 17.3858 7.05897 16.991C6.13718 16.5963 5.33036 16.0532 4.63852 15.3617C3.94665 14.6701 3.40327 13.8637 3.00837 12.9423C2.61347 12.021 2.41602 11.0406 2.41602 10.0012C2.41602 8.94793 2.61338 7.96388 3.0081 7.04905C3.40282 6.1342 3.94595 5.33085 4.63747 4.63901C5.32902 3.94714 6.13547 3.40376 7.05683 3.00886C7.97818 2.61396 8.95854 2.4165 9.99793 2.4165C11.0512 2.4165 12.0353 2.61387 12.9501 3.00859C13.8649 3.40331 14.6683 3.94643 15.3601 4.63796C16.052 5.3295 16.5954 6.13248 16.9903 7.0469C17.3852 7.9613 17.5826 8.94514 17.5826 9.99842C17.5826 11.0378 17.3853 12.0184 16.9906 12.9402C16.5958 13.862 16.0527 14.6688 15.3612 15.3606C14.6696 16.0525 13.8667 16.5959 12.9522 16.9908C12.0378 17.3857 11.054 17.5831 10.0007 17.5831Z" fill="white"/>
</g>
</svg>
