<svg width="16" height="16" viewBox="0 0 16 16" fill="none"
    xmlns="http://www.w3.org/2000/svg">
    <mask id="mask0_5695_891" style="mask-type:alpha" maskUnits="userSpaceOnUse" x="0" y="0" width="16" height="16">
        <rect width="16" height="16" fill="#D9D9D9"/>
    </mask>
    <g mask="url(#mask0_5695_891)">
        <path d="M7.99977 10.8594L5.43952 12.3901C5.34294 12.4354 5.25449 12.4536 5.17415 12.4446C5.09381 12.4356 5.01987 12.4085 4.95235 12.3632C4.88484 12.3179 4.83527 12.2497 4.80365 12.1587C4.77202 12.0677 4.77074 11.9782 4.7998 11.8901L5.47159 9.04528L3.21519 7.1299C3.14083 7.06665 3.09468 6.99166 3.07674 6.90492C3.05879 6.81816 3.06221 6.73419 3.08699 6.653C3.11177 6.5718 3.15793 6.5047 3.22545 6.45172C3.29297 6.39873 3.37417 6.36881 3.46904 6.36198L6.42415 6.09788L7.59722 3.38378C7.63995 3.29148 7.69636 3.22332 7.76644 3.1793C7.83652 3.13529 7.9143 3.11328 7.99977 3.11328C8.08524 3.11328 8.16301 3.13529 8.2331 3.1793C8.30318 3.22332 8.35959 3.29148 8.40232 3.38378L9.57539 6.11455L12.5305 6.36198C12.6254 6.36881 12.7066 6.4015 12.7741 6.46005C12.8416 6.51859 12.8878 6.58847 12.9126 6.66967C12.9373 6.75085 12.938 6.83205 12.9145 6.91325C12.891 6.99444 12.842 7.06665 12.7677 7.1299L10.528 9.04528L11.1997 11.8901C11.2288 11.9782 11.2275 12.0677 11.1959 12.1587C11.1643 12.2497 11.1147 12.3179 11.0472 12.3632C10.9797 12.4085 10.9057 12.4356 10.8254 12.4446C10.7451 12.4536 10.6566 12.4354 10.56 12.3901L7.99977 10.8594Z" fill="white"/>
    </g>
</svg>
