<svg width="24" height="24" viewBox="0 0 24 24" fill="none" xmlns="http://www.w3.org/2000/svg">
<mask id="mask0_6073_353548" style="mask-type:alpha" maskUnits="userSpaceOnUse" x="0" y="0" width="24" height="24">
<rect width="24" height="24" fill="#D9D9D9"/>
</mask>
<g mask="url(#mask0_6073_353548)">
<path d="M3.64643 20.8947C3.194 20.8947 2.80649 20.7334 2.4839 20.4108C2.1613 20.0882 2 19.7007 2 19.2483V4.64643C2 4.194 2.1613 3.80649 2.4839 3.4839C2.80649 3.1613 3.194 3 3.64643 3H20.3536C20.806 3 21.1935 3.1613 21.5161 3.4839C21.8387 3.80649 22 4.194 22 4.64643V19.2483C22 19.7007 21.8387 20.0882 21.5161 20.4108C21.1935 20.7334 20.806 20.8947 20.3536 20.8947H3.64643ZM3.64643 19.5722H20.3536C20.4346 19.5722 20.5088 19.5385 20.5763 19.471C20.6437 19.4035 20.6775 19.3293 20.6775 19.2483V4.64643C20.6775 4.56544 20.6437 4.49122 20.5763 4.42374C20.5088 4.35625 20.4346 4.3225 20.3536 4.3225H3.64643C3.56544 4.3225 3.49121 4.35625 3.42374 4.42374C3.35625 4.49122 3.3225 4.56544 3.3225 4.64643V19.2483C3.3225 19.3293 3.35625 19.4035 3.42374 19.471C3.49121 19.5385 3.56544 19.5722 3.64643 19.5722ZM6.86775 16.7274H17.1322C17.32 16.7274 17.4771 16.6638 17.6036 16.5366C17.7302 16.4094 17.7935 16.2515 17.7935 16.0629C17.7935 15.8743 17.7302 15.7175 17.6036 15.5925C17.4771 15.4674 17.32 15.4049 17.1322 15.4049H6.86775C6.68005 15.4049 6.52292 15.4685 6.39635 15.5956C6.26977 15.7228 6.20648 15.8807 6.20648 16.0693C6.20648 16.2579 6.26977 16.4147 6.39635 16.5398C6.52292 16.6648 6.68005 16.7274 6.86775 16.7274ZM6.86775 12.5803H9.36439C9.55209 12.5803 9.70922 12.517 9.83578 12.3904C9.96236 12.2638 10.0257 12.1067 10.0257 11.919V7.82862C10.0257 7.64092 9.96236 7.48378 9.83578 7.35722C9.70922 7.23064 9.55209 7.16735 9.36439 7.16735H6.86775C6.68005 7.16735 6.52292 7.23064 6.39635 7.35722C6.26977 7.48378 6.20648 7.64092 6.20648 7.82862V11.919C6.20648 12.1067 6.26977 12.2638 6.39635 12.3904C6.52292 12.517 6.68005 12.5803 6.86775 12.5803ZM13.3009 12.5803H17.1322C17.32 12.5803 17.4771 12.5167 17.6036 12.3895C17.7302 12.2623 17.7935 12.1044 17.7935 11.9158C17.7935 11.7272 17.7302 11.5704 17.6036 11.4454C17.4771 11.3203 17.32 11.2578 17.1322 11.2578H13.3009C13.1133 11.2578 12.9561 11.3214 12.8296 11.4485C12.703 11.5757 12.6397 11.7336 12.6397 11.9222C12.6397 12.1108 12.703 12.2677 12.8296 12.3927C12.9561 12.5178 13.1133 12.5803 13.3009 12.5803ZM13.3009 8.48986H17.1322C17.32 8.48986 17.4771 8.42627 17.6036 8.29909C17.7302 8.1719 17.7935 8.01401 17.7935 7.82541C17.7935 7.63681 17.7302 7.47999 17.6036 7.35493C17.4771 7.22988 17.32 7.16735 17.1322 7.16735H13.3009C13.1133 7.16735 12.9561 7.23095 12.8296 7.35814C12.703 7.48532 12.6397 7.64321 12.6397 7.8318C12.6397 8.0204 12.703 8.17722 12.8296 8.30228C12.9561 8.42733 13.1133 8.48986 13.3009 8.48986Z" fill="#575D71"/>
</g>
</svg>
