<svg width="24" height="24" viewBox="0 0 24 24" fill="none" xmlns="http://www.w3.org/2000/svg">
<mask id="mask0_9768_13829" style="mask-type:alpha" maskUnits="userSpaceOnUse" x="2" y="2" width="20" height="20">
<rect x="2" y="2" width="20" height="20" fill="#D9D9D9"/>
</mask>
<g mask="url(#mask0_9768_13829)">
<path d="M9.06232 15.7115L11.9998 12.774L14.9373 15.7115L15.7113 14.9375L12.7738 12L15.7113 9.0625L14.9373 8.28848L11.9998 11.226L9.06232 8.28848L8.2883 9.0625L11.2258 12L8.2883 14.9375L9.06232 15.7115ZM12.0012 19.5833C10.9618 19.5833 9.98124 19.386 9.05946 18.9912C8.13767 18.5965 7.33085 18.0534 6.639 17.3619C5.94714 16.6703 5.40376 15.8639 5.00886 14.9425C4.61396 14.0212 4.4165 13.0408 4.4165 12.0014C4.4165 10.9481 4.61387 9.96406 5.00859 9.04923C5.40331 8.13438 5.94643 7.33104 6.63796 6.63919C7.3295 5.94733 8.13596 5.40394 9.05732 5.00904C9.97866 4.61414 10.959 4.41669 11.9984 4.41669C13.0517 4.41669 14.0358 4.61405 14.9506 5.00877C15.8654 5.40349 16.6688 5.94662 17.3606 6.63815C18.0525 7.32969 18.5959 8.13267 18.9908 9.04708C19.3857 9.96149 19.5831 10.9453 19.5831 11.9986C19.5831 13.038 19.3858 14.0186 18.991 14.9404C18.5963 15.8621 18.0532 16.669 17.3617 17.3608C16.6701 18.0527 15.8671 18.5961 14.9527 18.991C14.0383 19.3859 13.0545 19.5833 12.0012 19.5833Z" fill="#212944"/>
</g>
</svg>
