<svg width="16" height="16" viewBox="0 0 16 16" fill="none" xmlns="http://www.w3.org/2000/svg">
<mask id="mask0_7794_2678" style="mask-type:alpha" maskUnits="userSpaceOnUse" x="0" y="0" width="16" height="16">
<rect width="16" height="16" fill="#D9D9D9"/>
</mask>
<g mask="url(#mask0_7794_2678)">
<path d="M7.56179 12.2718H8.42203V11.5141C8.92801 11.4551 9.36839 11.2442 9.74318 10.8814C10.118 10.5186 10.3054 10.0915 10.3054 9.6C10.3054 9.1 10.1483 8.68718 9.83421 8.36155C9.52011 8.03591 9.04639 7.75642 8.41306 7.52308C7.70108 7.26154 7.24958 7.04038 7.05856 6.85962C6.86754 6.67885 6.77203 6.43676 6.77203 6.13333C6.77203 5.88547 6.88421 5.67436 7.10858 5.5C7.33293 5.32563 7.61349 5.23845 7.95024 5.23845C8.25281 5.23845 8.52717 5.30918 8.77333 5.45063C9.01948 5.59209 9.19427 5.78632 9.29768 6.03332L10.0374 5.71923C9.88698 5.38676 9.67095 5.11368 9.38933 4.9C9.1077 4.68633 8.78527 4.5483 8.42203 4.4859V3.72822H7.57846V4.50257C7.06564 4.60086 6.66243 4.80086 6.36884 5.10257C6.07525 5.40428 5.92846 5.75342 5.92846 6.15C5.92846 6.62863 6.09684 7.0344 6.43359 7.3673C6.77034 7.70021 7.32034 8.00086 8.08359 8.26923C8.59214 8.45128 8.95389 8.64551 9.16884 8.85192C9.3838 9.05833 9.49128 9.30769 9.49128 9.6C9.49128 9.94018 9.35431 10.216 9.08038 10.4276C8.80644 10.6391 8.49084 10.7449 8.13358 10.7449C7.75837 10.7449 7.42268 10.6237 7.12653 10.3814C6.83037 10.1391 6.61947 9.83421 6.49383 9.46668L5.71693 9.81027C5.86735 10.2385 6.10709 10.5983 6.43616 10.8897C6.76522 11.1812 7.14043 11.3838 7.56179 11.4974V12.2718ZM8.00024 14.0667C7.16948 14.0667 6.38551 13.9085 5.64833 13.5923C4.91115 13.2761 4.26585 12.8412 3.71244 12.2878C3.15902 11.7344 2.72419 11.0891 2.40796 10.3519C2.09172 9.61474 1.93359 8.83077 1.93359 8C1.93359 7.15812 2.09172 6.37137 2.40796 5.63975C2.72419 4.90813 3.15902 4.26561 3.71244 3.7122C4.26585 3.15878 4.91115 2.72395 5.64833 2.40772C6.38551 2.09147 7.16948 1.93335 8.00024 1.93335C8.84212 1.93335 9.62887 2.09147 10.3605 2.40772C11.0921 2.72395 11.7346 3.15878 12.288 3.7122C12.8415 4.26561 13.2763 4.90813 13.5925 5.63975C13.9088 6.37137 14.0669 7.15812 14.0669 8C14.0669 8.83077 13.9088 9.61474 13.5925 10.3519C13.2763 11.0891 12.8415 11.7344 12.288 12.2878C11.7346 12.8412 11.0921 13.2761 10.3605 13.5923C9.62887 13.9085 8.84212 14.0667 8.00024 14.0667ZM8.00024 13.2C9.44469 13.2 10.6725 12.6944 11.6836 11.6833C12.6947 10.6722 13.2002 9.44444 13.2002 8C13.2002 6.55556 12.6947 5.32778 11.6836 4.31667C10.6725 3.30556 9.44469 2.8 8.00024 2.8C6.5558 2.8 5.32802 3.30556 4.31691 4.31667C3.3058 5.32778 2.80024 6.55556 2.80024 8C2.80024 9.44444 3.3058 10.6722 4.31691 11.6833C5.32802 12.6944 6.5558 13.2 8.00024 13.2Z" fill="white"/>
</g>
</svg>
