<svg width="24" height="24" viewBox="0 0 24 24" fill="none" xmlns="http://www.w3.org/2000/svg">
<mask id="mask0_5453_463901" style="mask-type:alpha" maskUnits="userSpaceOnUse" x="2" y="2" width="20" height="20">
<rect x="2" y="2" width="20" height="20" fill="#D9D9D9"/>
</mask>
<g mask="url(#mask0_5453_463901)">
<path d="M18.0404 17.8061L16.8336 19.0209C16.7183 19.1363 16.5927 19.1905 16.457 19.1835C16.3214 19.1766 16.1958 19.1154 16.0805 19.0001C15.9597 18.8793 15.8994 18.7503 15.8994 18.613C15.8994 18.4758 15.9597 18.3468 16.0805 18.226L17.2744 17.0401L16.0596 15.8334C15.9442 15.718 15.89 15.589 15.897 15.4464C15.9039 15.3037 15.9651 15.1747 16.0805 15.0594C16.2012 14.9387 16.3302 14.8783 16.4675 14.8783C16.6047 14.8783 16.7337 14.9387 16.8545 15.0594L18.0404 16.2741L19.2471 15.0594C19.3625 14.944 19.4915 14.8863 19.6341 14.8863C19.7767 14.8863 19.9058 14.944 20.0211 15.0594C20.1419 15.1801 20.2022 15.3091 20.2022 15.4464C20.2022 15.5837 20.1419 15.7127 20.0211 15.8334L18.8064 17.0401L20.0211 18.2469C20.1365 18.3622 20.1942 18.4878 20.1942 18.6235C20.1942 18.7591 20.1365 18.8847 20.0211 19.0001C19.9004 19.1208 19.7714 19.1811 19.6341 19.1811C19.4968 19.1811 19.3678 19.1208 19.2471 19.0001L18.0404 17.8061ZM7.0003 19.5834C6.55694 19.5834 6.18221 19.4303 5.87612 19.1242C5.57003 18.8182 5.41699 18.4434 5.41699 18.0001V16.436C5.41699 16.0662 5.54785 15.7505 5.80955 15.4888C6.07125 15.2271 6.38698 15.0962 6.75674 15.0962H7.41699V5.7565C7.41699 5.38674 7.54785 5.07101 7.80955 4.80931C8.07125 4.5476 8.38698 4.41675 8.75674 4.41675H17.2439C17.6136 4.41675 17.9294 4.5476 18.1911 4.80931C18.4528 5.07101 18.5836 5.38674 18.5836 5.7565V12.5065C18.5836 12.6602 18.5322 12.7889 18.4293 12.8926C18.3265 12.9963 18.1988 13.0481 18.0463 13.0481C17.8938 13.0481 17.7647 12.9963 17.659 12.8926C17.5532 12.7889 17.5003 12.6602 17.5003 12.5065V5.7565C17.5003 5.68171 17.4763 5.62027 17.4282 5.57219C17.3801 5.5241 17.3187 5.50006 17.2439 5.50006H8.75674C8.68195 5.50006 8.62051 5.5241 8.57243 5.57219C8.52435 5.62027 8.5003 5.68171 8.5003 5.7565V15.0962H13.643C13.7967 15.0962 13.9254 15.1476 14.0291 15.2505C14.1328 15.3533 14.1846 15.481 14.1846 15.6335C14.1846 15.786 14.1328 15.9151 14.0291 16.0209C13.9254 16.1266 13.7967 16.1795 13.643 16.1795H6.75674C6.68195 16.1795 6.62051 16.2036 6.57243 16.2516C6.52435 16.2997 6.5003 16.3612 6.5003 16.436V18.0001C6.5003 18.1417 6.54822 18.2605 6.64405 18.3563C6.73989 18.4521 6.85864 18.5001 7.0003 18.5001H13.643C13.7967 18.5001 13.9254 18.5515 14.0291 18.6543C14.1328 18.7572 14.1846 18.8848 14.1846 19.0373C14.1846 19.1898 14.1328 19.3189 14.0291 19.4247C13.9254 19.5305 13.7967 19.5834 13.643 19.5834H7.0003ZM14.2119 18.5001H6.5003H13.9891H13.9122H14.2119ZM10.2022 9.24362C10.0485 9.24362 9.91978 9.19221 9.8161 9.08937C9.71242 8.98653 9.66058 8.85886 9.66058 8.70637C9.66058 8.55387 9.71242 8.42474 9.8161 8.31898C9.91978 8.21321 10.0485 8.16033 10.2022 8.16033H15.7984C15.9521 8.16033 16.0808 8.21176 16.1845 8.3146C16.2882 8.41744 16.34 8.5451 16.34 8.6976C16.34 8.85009 16.2882 8.97921 16.1845 9.08498C16.0808 9.19074 15.9521 9.24362 15.7984 9.24362H10.2022ZM10.2022 11.6475C10.0485 11.6475 9.91978 11.5961 9.8161 11.4932C9.71242 11.3904 9.66058 11.2627 9.66058 11.1102C9.66058 10.9577 9.71242 10.8286 9.8161 10.7228C9.91978 10.617 10.0485 10.5642 10.2022 10.5642H15.7984C15.9521 10.5642 16.0808 10.6156 16.1845 10.7184C16.2882 10.8213 16.34 10.9489 16.34 11.1014C16.34 11.2539 16.2882 11.3831 16.1845 11.4888C16.0808 11.5946 15.9521 11.6475 15.7984 11.6475H10.2022Z" fill="#212944"/>
</g>
</svg>
