<svg width="32" height="32" viewBox="0 0 32 32" fill="none" xmlns="http://www.w3.org/2000/svg">
<mask id="mask0_6073_353674" style="mask-type:alpha" maskUnits="userSpaceOnUse" x="0" y="0" width="32" height="32">
<rect width="32" height="32" fill="#D9D9D9"/>
</mask>
<g mask="url(#mask0_6073_353674)">
<path d="M16 28.6665C13.2102 28.6665 10.8461 27.6973 8.9077 25.7588C6.96923 23.8204 6 21.4563 6 18.6666C6 16.3788 6.67379 14.1442 8.02137 11.9628C9.36892 9.78131 11.221 7.8883 13.5777 6.28374C13.9555 6.01536 14.3468 5.99115 14.7516 6.21111C15.1565 6.43104 15.3589 6.7695 15.3589 7.22648V8.68197C15.3589 9.49737 15.6905 10.2098 16.3538 10.8192C17.017 11.4286 17.7991 11.7333 18.7 11.7333C19.104 11.7333 19.491 11.6564 19.8611 11.5025C20.2312 11.3487 20.5709 11.1245 20.8803 10.8299C21.0581 10.6595 21.256 10.5534 21.4739 10.5115C21.6919 10.4696 21.894 10.5199 22.0803 10.6624C23.3082 11.6025 24.2685 12.7759 24.961 14.1824C25.6536 15.589 25.9999 17.0837 25.9999 18.6666C25.9999 21.4563 25.0307 23.8204 23.0922 25.7588C21.1538 27.6973 18.7897 28.6665 16 28.6665ZM7.67517 18.6666C7.67517 20.1276 8.036 21.4848 8.75767 22.7384C9.47933 23.992 10.4678 24.9854 11.7231 25.7187C11.5909 25.4555 11.4929 25.1844 11.4291 24.9055C11.3652 24.6266 11.3333 24.3469 11.3333 24.0666C11.3333 23.4495 11.4517 22.8683 11.6885 22.323C11.9252 21.7777 12.265 21.2837 12.7077 20.841L16 17.6025L19.3051 20.841C19.7478 21.2837 20.0854 21.7777 20.3179 22.323C20.5504 22.8683 20.6666 23.4495 20.6666 24.0666C20.6666 24.3469 20.6347 24.6266 20.5709 24.9055C20.507 25.1844 20.409 25.4555 20.2768 25.7187C21.5321 24.9854 22.5206 23.992 23.2423 22.7384C23.9639 21.4848 24.3248 20.1276 24.3248 18.6666C24.3248 17.5133 24.0944 16.4032 23.6337 15.3362C23.173 14.2693 22.5116 13.3048 21.6495 12.4426C21.196 12.7555 20.7188 12.9946 20.2179 13.1602C19.7171 13.3257 19.2111 13.4084 18.7 13.4084C17.3285 13.4084 16.1665 12.9506 15.2141 12.0349C14.2616 11.1193 13.7495 9.96971 13.6777 8.58624V8.26144C11.7883 9.71955 10.3155 11.3686 9.25937 13.2084C8.20323 15.0483 7.67517 16.8677 7.67517 18.6666ZM16 19.9486L13.8743 22.0409C13.5968 22.3184 13.3832 22.6293 13.2333 22.9734C13.0834 23.3176 13.0085 23.682 13.0085 24.0666C13.0085 24.8768 13.299 25.5669 13.8799 26.1367C14.4608 26.7065 15.1675 26.9914 16 26.9914C16.8325 26.9914 17.5392 26.7065 18.1201 26.1367C18.701 25.5669 18.9914 24.8768 18.9914 24.0666C18.9914 23.6689 18.9165 23.2998 18.7666 22.9593C18.6168 22.6188 18.4031 22.3127 18.1256 22.0409L16 19.9486Z" fill="#212944"/>
</g>
</svg>
