<svg width="163" height="48" viewBox="0 0 163 48" fill="none" xmlns="http://www.w3.org/2000/svg">
<g clip-path="url(#clip0_5915_2260)">
<path d="M156.547 0H6.45299C3.1372 0 0.449219 2.68629 0.449219 6V42C0.449219 45.3137 3.1372 48 6.45299 48H156.547C159.863 48 162.551 45.3137 162.551 42V6C162.551 2.68629 159.863 0 156.547 0Z" fill="black"/>
<path d="M156.547 0.96C157.885 0.96 159.167 1.491 160.113 2.43618C161.059 3.38137 161.59 4.66331 161.59 6V42C161.59 43.3367 161.059 44.6186 160.113 45.5638C159.167 46.509 157.885 47.04 156.547 47.04H6.45299C5.11546 47.04 3.83271 46.509 2.88693 45.5638C1.94115 44.6186 1.40982 43.3367 1.40982 42V6C1.40982 4.66331 1.94115 3.38137 2.88693 2.43618C3.83271 1.491 5.11546 0.96 6.45299 0.96H156.547ZM156.547 0H6.45299C4.87031 0.0307209 3.36103 0.672725 2.2417 1.79135C1.12237 2.90998 0.479959 4.41832 0.449219 6V42C0.449219 43.5913 1.08176 45.1174 2.20768 46.2426C3.33361 47.3679 4.86069 48 6.45299 48H156.547C158.139 48 159.667 47.3679 160.792 46.2426C161.918 45.1174 162.551 43.5913 162.551 42V6C162.551 4.4087 161.918 2.88258 160.792 1.75736C159.667 0.632141 158.139 0 156.547 0Z" fill="#A6A6A6"/>
<path d="M78.138 15.3601C77.2648 15.3837 76.418 15.6641 75.7033 16.166C74.9887 16.668 74.438 17.3694 74.12 18.1825C73.8021 18.9956 73.7311 19.8843 73.9158 20.7376C74.1006 21.5908 74.5329 22.3707 75.1587 22.9797C75.7846 23.5886 76.5762 23.9998 77.4346 24.1616C78.293 24.3234 79.18 24.2287 79.9849 23.8894C80.7897 23.5501 81.4766 22.9813 81.9597 22.2539C82.4428 21.5266 82.7006 20.6731 82.7009 19.8001C82.7011 19.2068 82.5823 18.6195 82.3516 18.0728C82.1209 17.5262 81.7828 17.0313 81.3575 16.6174C80.9321 16.2035 80.4281 15.879 79.8751 15.663C79.3222 15.4471 78.7315 15.3441 78.138 15.3601ZM78.138 22.5601C77.791 22.5447 77.4504 22.4611 77.1358 22.314C76.8212 22.1669 76.5387 21.9592 76.3044 21.7028C76.0702 21.4464 75.8889 21.1464 75.7708 20.82C75.6528 20.4935 75.6003 20.1469 75.6164 19.8001C75.6002 19.4593 75.6534 19.1186 75.7728 18.7989C75.8922 18.4792 76.0754 18.187 76.3112 17.9401C76.547 17.6933 76.8305 17.4968 77.1445 17.3628C77.4585 17.2287 77.7965 17.1598 78.138 17.1601C78.4795 17.1598 78.8175 17.2287 79.1316 17.3628C79.4456 17.4968 79.7291 17.6933 79.9649 17.9401C80.2007 18.187 80.3838 18.4792 80.5033 18.7989C80.6227 19.1186 80.6759 19.4593 80.6596 19.8001C80.6758 20.1469 80.6233 20.4935 80.5052 20.82C80.3872 21.1464 80.2059 21.4464 79.9716 21.7028C79.7374 21.9592 79.4549 22.1669 79.1403 22.314C78.8256 22.4611 78.4851 22.5447 78.138 22.5601ZM68.4119 15.3601C67.8285 15.3601 67.2508 15.475 66.7118 15.6981C66.1727 15.9212 65.683 16.2483 65.2704 16.6606C64.8579 17.0729 64.5306 17.5623 64.3073 18.101C64.0841 18.6397 63.9691 19.2171 63.9691 19.8001C63.9691 20.3832 64.0841 20.9606 64.3073 21.4993C64.5306 22.0379 64.8579 22.5274 65.2704 22.9397C65.683 23.352 66.1727 23.679 66.7118 23.9022C67.2508 24.1253 67.8285 24.2401 68.4119 24.2401C68.9954 24.2401 69.5731 24.1253 70.1121 23.9022C70.6511 23.679 71.1409 23.352 71.5535 22.9397C71.966 22.5274 72.2933 22.0379 72.5165 21.4993C72.7398 20.9606 72.8547 20.3832 72.8547 19.8001C72.8547 19.2171 72.7398 18.6397 72.5165 18.101C72.2933 17.5623 71.966 17.0729 71.5535 16.6606C71.1409 16.2483 70.6511 15.9212 70.1121 15.6981C69.5731 15.475 68.9954 15.3601 68.4119 15.3601ZM68.4119 22.5601C68.0649 22.5447 67.7243 22.4611 67.4097 22.314C67.0951 22.1669 66.8125 21.9592 66.5783 21.7028C66.3441 21.4464 66.1628 21.1464 66.0447 20.82C65.9267 20.4935 65.8742 20.1469 65.8903 19.8001C65.8903 19.1318 66.156 18.4908 66.6289 18.0182C67.1018 17.5456 67.7432 17.2801 68.4119 17.2801C69.0807 17.2801 69.7221 17.5456 70.195 18.0182C70.6678 18.4908 70.9335 19.1318 70.9335 19.8001C70.9496 20.1469 70.8972 20.4935 70.7791 20.82C70.6611 21.1464 70.4798 21.4464 70.2455 21.7028C70.0113 21.9592 69.7288 22.1669 69.4142 22.314C69.0995 22.4611 68.759 22.5447 68.4119 22.5601ZM56.7646 16.6801V18.6001H61.3275C61.2719 19.505 60.8876 20.3585 60.2468 21.0001C59.7876 21.4465 59.2416 21.7939 58.6427 22.021C58.0437 22.248 57.4045 22.3498 56.7646 22.3201C55.5759 22.1352 54.4925 21.5316 53.7099 20.6184C52.9274 19.7052 52.4973 18.5425 52.4973 17.3401C52.4973 16.1378 52.9274 14.9751 53.7099 14.0619C54.4925 13.1487 55.5759 12.5451 56.7646 12.3601C57.388 12.3165 58.0132 12.4124 58.5948 12.6407C59.1764 12.8691 59.6998 13.2242 60.1267 13.6801L61.5676 12.3601C60.9335 11.7391 60.1826 11.2496 59.3583 10.9201C58.5339 10.5906 57.6524 10.4274 56.7646 10.4401C54.9063 10.4399 53.1223 11.1693 51.7971 12.4712C50.4719 13.7731 49.7117 15.5433 49.6802 17.4001C49.7425 19.236 50.5163 20.9757 51.8382 22.252C53.1601 23.5283 54.9266 24.2412 56.7646 24.2401C57.6569 24.2897 58.5492 24.1435 59.3789 23.8119C60.2087 23.4802 60.9557 22.971 61.5676 22.3201C62.1412 21.7375 62.587 21.0417 62.8764 20.2772C63.1659 19.5127 63.2927 18.6963 63.2487 17.8801C63.2684 17.4764 63.2279 17.072 63.1286 16.6801H56.7646ZM104.314 18.2401C104.078 17.4059 103.574 16.6723 102.88 16.152C102.186 15.6318 101.34 15.3536 100.472 15.3601C99.8993 15.3592 99.3325 15.4753 98.8063 15.7012C98.2801 15.9271 97.8057 16.2581 97.4121 16.6739C97.0185 17.0897 96.7142 17.5815 96.5177 18.1191C96.3212 18.6567 96.2367 19.2287 96.2694 19.8001C96.2528 20.3877 96.3564 20.9725 96.5738 21.5187C96.7912 22.0648 97.1179 22.5609 97.5338 22.9766C97.9497 23.3922 98.4461 23.7186 98.9926 23.9359C99.5391 24.1532 100.124 24.2567 100.712 24.2401C101.443 24.2507 102.165 24.081 102.814 23.7461C103.463 23.4112 104.02 22.9214 104.435 22.3201L102.874 21.2401C102.672 21.6396 102.363 21.9748 101.981 22.2081C101.599 22.4413 101.16 22.5633 100.712 22.5601C100.248 22.5683 99.7926 22.4349 99.4064 22.1776C99.0202 21.9203 98.7218 21.5514 98.5508 21.1201L104.555 18.7201L104.314 18.2401ZM98.1906 19.6801C98.1745 19.3491 98.2238 19.0182 98.3358 18.7062C98.4478 18.3943 98.6203 18.1075 98.8434 17.8623C99.0665 17.6171 99.3357 17.4182 99.6358 17.2771C99.9359 17.1361 100.261 17.0555 100.592 17.0401C100.93 17.0486 101.26 17.1407 101.554 17.3083C101.847 17.4758 102.094 17.7136 102.273 18.0001L98.1906 19.6801ZM93.3876 24.0001H95.3088V10.9201H93.3876V24.0001ZM90.1456 16.3201C89.8285 16.0096 89.4531 15.7649 89.0409 15.6001C88.6287 15.4353 88.1879 15.3538 87.7441 15.3601C86.5658 15.3601 85.4357 15.8279 84.6025 16.6606C83.7693 17.4932 83.3013 18.6226 83.3013 19.8001C83.3013 20.9777 83.7693 22.107 84.6025 22.9397C85.4357 23.7724 86.5658 24.2401 87.7441 24.2401C88.1879 24.2465 88.6287 24.1649 89.0409 24.0002C89.4531 23.8354 89.8285 23.5907 90.1456 23.2801V23.8801C90.1456 25.5601 89.305 26.5201 87.7441 26.5201C87.2656 26.5194 86.7995 26.3684 86.4116 26.0885C86.0238 25.8085 85.7338 25.4138 85.5827 24.9601L83.7816 25.6801C84.0973 26.4691 84.6451 27.1438 85.3525 27.6152C86.06 28.0865 86.8939 28.3323 87.7441 28.3201C90.0255 28.3201 92.0668 26.8801 92.0668 23.6401V15.6001H90.1456V16.3201ZM87.8641 22.5601C87.1847 22.499 86.5553 22.1775 86.1076 21.6631C85.66 21.1486 85.4289 20.4811 85.4626 19.8001C85.4465 19.4691 85.4958 19.1382 85.6078 18.8262C85.7198 18.5143 85.8923 18.2275 86.1154 17.9823C86.3385 17.7371 86.6078 17.5382 86.9078 17.3971C87.2079 17.2561 87.5329 17.1755 87.8641 17.1601C88.2008 17.1585 88.534 17.2275 88.8422 17.3628C89.1504 17.4982 89.4267 17.6968 89.6531 17.9457C89.8796 18.1946 90.0511 18.4884 90.1567 18.8078C90.2622 19.1273 90.2993 19.4654 90.2656 19.8001C90.2986 20.1408 90.2617 20.4846 90.1574 20.8105C90.053 21.1365 89.8833 21.4378 89.6585 21.696C89.4338 21.9543 89.1588 22.1641 88.8503 22.3127C88.5418 22.4612 88.2063 22.5454 87.8641 22.5601ZM113.56 10.9201H108.757V24.0001H110.799V19.0801H113.56C114.643 19.0801 115.681 18.6503 116.447 17.8851C117.213 17.12 117.643 16.0822 117.643 15.0001C117.643 13.9181 117.213 12.8803 116.447 12.1151C115.681 11.35 114.643 10.9201 113.56 10.9201ZM113.56 17.1601H110.799V12.7201H113.56C113.895 12.6418 114.243 12.6402 114.579 12.7152C114.914 12.7903 115.228 12.9402 115.498 13.1536C115.767 13.3671 115.985 13.6387 116.134 13.9481C116.284 14.2574 116.362 14.5966 116.362 14.9401C116.362 15.2837 116.284 15.6229 116.134 15.9322C115.985 16.2416 115.767 16.5132 115.498 16.7266C115.228 16.9401 114.914 17.09 114.579 17.1651C114.243 17.2401 113.895 17.2384 113.56 17.1601ZM125.688 15.3601C124.985 15.3184 124.285 15.4766 123.669 15.8164C123.052 16.1563 122.545 16.6638 122.206 17.2801L123.887 18.0001C124.066 17.6872 124.331 17.4311 124.649 17.2613C124.968 17.0915 125.328 17.0149 125.688 17.0401C125.94 17.0239 126.193 17.0576 126.433 17.1393C126.672 17.2211 126.893 17.3492 127.083 17.5165C127.272 17.6837 127.427 17.8867 127.538 18.1139C127.649 18.341 127.714 18.5878 127.729 18.8401C127.122 18.4459 126.412 18.2374 125.688 18.2401C123.887 18.2401 121.966 19.3201 121.966 21.2401C121.98 21.6449 122.077 22.0425 122.25 22.409C122.423 22.7754 122.668 23.103 122.971 23.3721C123.274 23.6413 123.628 23.8463 124.013 23.9748C124.397 24.1034 124.804 24.1528 125.208 24.1201C125.708 24.1497 126.207 24.0424 126.652 23.8098C127.096 23.5773 127.468 23.2282 127.729 22.8001V24.0001H129.65V18.9601C129.653 18.4555 129.549 17.956 129.346 17.494C129.143 17.0319 128.845 16.6178 128.471 16.2783C128.098 15.9388 127.657 15.6817 127.177 15.5235C126.698 15.3653 126.19 15.3097 125.688 15.3601ZM125.448 22.5601C124.727 22.5601 123.887 22.2001 123.887 21.3601C123.887 20.5201 124.967 20.0401 125.928 20.0401C126.549 20.0079 127.168 20.1317 127.729 20.4001C127.672 20.9741 127.41 21.5082 126.991 21.9049C126.572 22.3015 126.024 22.5341 125.448 22.5601ZM136.495 15.6001L134.333 21.2401H134.213L131.932 15.6001H129.77L133.253 23.5201L131.331 27.9601H133.373L138.656 15.6001H136.495ZM118.844 24.0001H120.885V10.9201H118.844V24.0001Z" fill="white"/>
<path d="M12.9373 9C12.5716 9.4798 12.4002 10.0796 12.457 10.68V37.32C12.4002 37.9204 12.5716 38.5202 12.9373 39H13.0573L27.9467 24.12L13.0573 9H12.9373Z" fill="url(#paint0_linear_5915_2260)"/>
<path d="M32.8694 29.1598L27.9463 24.1198L32.8694 18.8398H32.9894L38.8731 22.3198C40.5542 23.2798 40.5542 24.8398 38.8731 25.6798L32.9894 29.0398L32.8694 29.1598Z" fill="url(#paint1_linear_5915_2260)"/>
<path d="M32.9896 29.04L27.9464 24L12.937 39C13.2867 39.3039 13.7344 39.4713 14.1978 39.4713C14.6612 39.4713 15.109 39.3039 15.4586 39L32.9896 29.04Z" fill="url(#paint2_linear_5915_2260)"/>
<path d="M32.9896 18.9598L15.4586 8.99981C15.0912 8.73609 14.6502 8.59424 14.1978 8.59424C13.7454 8.59424 13.3044 8.73609 12.937 8.99981L27.9464 23.9998L32.9896 18.9598Z" fill="url(#paint3_linear_5915_2260)"/>
<path opacity="0.2" d="M32.8696 28.9199L15.4586 38.8799C15.1032 39.1173 14.6853 39.2439 14.2579 39.2439C13.8304 39.2439 13.4126 39.1173 13.0571 38.8799C13.3873 39.1751 13.8148 39.3383 14.2579 39.3383C14.7009 39.3383 15.1284 39.1751 15.4586 38.8799L32.9896 28.9199H32.8696Z" fill="black"/>
<path opacity="0.12" d="M12.9373 38.7601C12.5716 38.2803 12.4002 37.6805 12.457 37.0801V37.3201C12.4002 37.9205 12.5716 38.5203 12.9373 39.0001V38.7601Z" fill="black"/>
<path opacity="0.12" d="M38.8734 25.56L32.8696 28.92H32.9897L38.8734 25.68C39.7139 25.2 40.1942 24.6 40.1942 24C40.0888 24.3347 39.9178 24.645 39.691 24.9129C39.4642 25.1808 39.1862 25.4007 38.8734 25.56Z" fill="black"/>
<path opacity="0.25" d="M15.4584 9.12003L38.8731 22.44C39.186 22.5993 39.4639 22.8193 39.6907 23.0871C39.9175 23.355 40.0886 23.6653 40.1939 24C40.1939 23.4 39.7136 22.8 38.8731 22.32L15.4584 9.00003C13.7774 8.04003 12.4565 8.76003 12.4565 10.68V10.92C12.4565 9.00003 13.7774 8.16003 15.4584 9.12003Z" fill="white"/>
<path d="M50.1606 38.8799H58.3258V39.4799H50.1606V38.8799ZM58.0856 33.3599V33.9599H50.5209V33.3599H54.0031V31.4399H54.7235C54.7235 31.4718 54.7109 31.5023 54.6883 31.5248C54.6658 31.5473 54.6353 31.5599 54.6034 31.5599V33.2399L58.0856 33.3599ZM52.322 34.4399C52.818 35.6631 53.1022 36.9616 53.1625 38.2799H52.5622C52.5018 36.9616 52.2176 35.6631 51.7216 34.4399H52.322ZM57.0049 34.5599C57.0049 34.5918 56.9923 34.6223 56.9698 34.6448C56.9472 34.6673 56.9167 34.6799 56.8849 34.6799L55.6841 38.6399L55.0837 38.3999C55.5446 37.0686 55.9058 35.7048 56.1644 34.3199L57.0049 34.5599Z" fill="white" stroke="white" stroke-width="0.2" stroke-miterlimit="10"/>
<path d="M62.288 37.8L61.4475 36.72L61.9278 36.48C62.5677 37.2214 63.1309 38.0254 63.6088 38.88L63.1285 39.12C62.9425 38.8557 62.7817 38.5745 62.6482 38.28L59.6464 39.24H59.5263L59.2861 38.52H59.8865V32.04H63.1285V36.12H60.4869V38.4L62.288 37.8ZM62.5282 32.52H60.4869V33.84H62.5282V32.52ZM60.4869 35.64H62.5282V34.32H60.4869V35.64ZM67.2111 32.04V37.56C67.2111 38.4 66.8509 38.4 65.53 38.4C65.5019 38.1978 65.4618 37.9975 65.41 37.8H66.1304C66.6107 37.8 66.6107 37.8 66.6107 37.56V32.64H64.5694V39.84H63.9691V32.04H67.2111Z" fill="white" stroke="white" stroke-width="0.2" stroke-miterlimit="10"/>
<path d="M76.5772 32.7602H72.6147V34.3202L75.9769 36.2402L75.6166 36.8402L72.6147 34.9202V39.8402H72.0144V32.7602H68.4121V32.1602H76.5772V32.7602Z" fill="white" stroke="white" stroke-width="0.2" stroke-miterlimit="10"/>
<path d="M82.9414 34.0799C82.9875 35.0874 83.1079 36.0901 83.3016 37.0799C83.8908 36.3436 84.3017 35.4812 84.5024 34.5599L85.2228 34.7999H84.9827C84.6747 35.8368 84.187 36.8116 83.5418 37.6799C83.902 38.6399 84.2622 39.1199 84.7425 39.1199C85.2228 39.1199 85.1027 38.6399 85.1027 37.5599L85.5831 37.9199C85.463 39.3599 85.3429 39.7199 84.6224 39.7199C83.902 39.7199 83.5418 39.2399 83.1815 38.2799C82.7097 38.8544 82.1407 39.3418 81.5005 39.7199L81.1403 39.2399L81.7406 38.7599H79.9395V39.7199H79.4592V38.7599H77.4179V38.3999H79.4592V37.9199H77.7782V35.6399H79.4592V35.1599H77.538V34.6799H79.4592V34.0799H79.9395V34.4399H81.8607V34.9199H79.9395V35.3999H81.6206V37.6799H79.9395V38.3999H81.8607V38.7599L82.9414 37.7999C82.5961 36.5877 82.3946 35.3392 82.341 34.0799H77.2979V33.4799H79.4592V32.7599H77.7782V32.2799H79.4592V31.4399H80.1797C80.1797 31.4718 80.167 31.5023 80.1445 31.5248C80.122 31.5473 80.0914 31.5599 80.0596 31.5599V32.1599H81.7406V32.6399H80.0596V33.3599H82.341C82.2413 32.7251 82.2011 32.0823 82.2209 31.4399H83.0615C83.0615 31.5599 82.9414 31.5599 82.8213 31.5599V33.3599H85.463V33.9599L82.9414 34.0799ZM78.2585 36.1199V36.5999H79.4592V36.1199H78.2585ZM78.2585 36.9599V37.5599H79.4592V36.9599H78.2585ZM81.1403 36.5999V36.1199H79.9395V36.5999H81.1403ZM81.1403 37.5599V36.9599H79.9395V37.5599H81.1403ZM83.902 31.6799C84.3946 32.0184 84.8389 32.422 85.2228 32.8799L84.7425 33.2399C84.4103 32.7426 84.0056 32.2977 83.5418 31.9199L83.902 31.6799Z" fill="white" stroke="white" stroke-width="0.2" stroke-miterlimit="10"/>
</g>
<defs>
<linearGradient id="paint0_linear_5915_2260" x1="26.6258" y1="10.452" x2="6.48985" y2="30.6006" gradientUnits="userSpaceOnUse">
<stop stop-color="#00A0FF"/>
<stop offset="0.01" stop-color="#00A1FF"/>
<stop offset="0.26" stop-color="#00BEFF"/>
<stop offset="0.51" stop-color="#00D2FF"/>
<stop offset="0.76" stop-color="#00DFFF"/>
<stop offset="1" stop-color="#00E3FF"/>
</linearGradient>
<linearGradient id="paint1_linear_5915_2260" x1="41.0705" y1="23.9998" x2="12.0243" y2="23.9998" gradientUnits="userSpaceOnUse">
<stop stop-color="#FFE000"/>
<stop offset="0.41" stop-color="#FFBD00"/>
<stop offset="0.78" stop-color="#FFA500"/>
<stop offset="1" stop-color="#FF9C00"/>
</linearGradient>
<linearGradient id="paint2_linear_5915_2260" x1="30.2639" y1="26.76" x2="2.95188" y2="54.0771" gradientUnits="userSpaceOnUse">
<stop stop-color="#FF3A44"/>
<stop offset="1" stop-color="#C31162"/>
</linearGradient>
<linearGradient id="paint3_linear_5915_2260" x1="9.21468" y1="0.215814" x2="21.4067" y2="12.4155" gradientUnits="userSpaceOnUse">
<stop stop-color="#32A071"/>
<stop offset="0.07" stop-color="#2DA771"/>
<stop offset="0.48" stop-color="#15CF74"/>
<stop offset="0.8" stop-color="#06E775"/>
<stop offset="1" stop-color="#00F076"/>
</linearGradient>
<clipPath id="clip0_5915_2260">
<rect width="162.102" height="48" fill="white" transform="translate(0.449219)"/>
</clipPath>
</defs>
</svg>
