<svg width="44" height="44" viewBox="0 0 44 44" fill="none" xmlns="http://www.w3.org/2000/svg">
<mask id="mask0_5453_461058" style="mask-type:alpha" maskUnits="userSpaceOnUse" x="10" y="10" width="24" height="24">
<rect x="10" y="10" width="24" height="24" fill="#D9D9D9"/>
</mask>
<g mask="url(#mask0_5453_461058)">
<path d="M19.5195 25.6153C17.8119 25.6153 16.3657 25.023 15.181 23.8385C13.9965 22.6538 13.4043 21.2077 13.4043 19.5C13.4043 17.7923 13.9965 16.3462 15.181 15.1615C16.3657 13.977 17.8119 13.3848 19.5195 13.3848C21.2272 13.3848 22.6734 13.977 23.858 15.1615C25.0425 16.3462 25.6348 17.7923 25.6348 19.5C25.6348 20.2142 25.515 20.8963 25.2753 21.5463C25.0355 22.1963 24.7155 22.7616 24.3155 23.2423L30.0695 28.9963C30.208 29.1346 30.2789 29.3086 30.282 29.5183C30.2852 29.7279 30.2144 29.9052 30.0695 30.05C29.9247 30.1948 29.749 30.2673 29.5425 30.2673C29.3362 30.2673 29.1606 30.1948 29.0158 30.05L23.2618 24.296C22.7618 24.7088 22.1868 25.0319 21.5368 25.2653C20.8868 25.4986 20.2144 25.6153 19.5195 25.6153ZM19.5195 24.1155C20.808 24.1155 21.8994 23.6683 22.7935 22.774C23.6879 21.8798 24.135 20.7885 24.135 19.5C24.135 18.2115 23.6879 17.1202 22.7935 16.226C21.8994 15.3317 20.808 14.8845 19.5195 14.8845C18.231 14.8845 17.1397 15.3317 16.2455 16.226C15.3512 17.1202 14.904 18.2115 14.904 19.5C14.904 20.7885 15.3512 21.8798 16.2455 22.774C17.1397 23.6683 18.231 24.1155 19.5195 24.1155Z" fill="#212944"/>
</g>
</svg>
