<svg width="20" height="20" viewBox="0 0 20 20" fill="none" xmlns="http://www.w3.org/2000/svg">
<mask id="mask0_13131_62490" style="mask-type:alpha" maskUnits="userSpaceOnUse" x="0" y="0" width="20" height="20">
<rect width="20" height="20" fill="#D9D9D9"/>
</mask>
<g mask="url(#mask0_13131_62490)">
<path d="M5.68788 11.0833C5.38876 11.0833 5.13416 10.9768 4.92409 10.7638C4.71404 10.5508 4.60901 10.2947 4.60901 9.99558C4.60901 9.69646 4.71552 9.44186 4.92853 9.23179C5.14154 9.02172 5.39761 8.91669 5.69674 8.91669C5.99586 8.91669 6.25045 9.02319 6.46051 9.23621C6.67058 9.44922 6.77561 9.70529 6.77561 10.0044C6.77561 10.3035 6.66911 10.5581 6.45609 10.7682C6.24308 10.9783 5.98701 11.0833 5.68788 11.0833ZM9.99557 11.0833C9.69645 11.0833 9.44185 10.9768 9.23178 10.7638C9.02171 10.5508 8.91668 10.2947 8.91668 9.99558C8.91668 9.69646 9.02318 9.44186 9.2362 9.23179C9.44921 9.02172 9.70528 8.91669 10.0044 8.91669C10.3035 8.91669 10.5581 9.02319 10.7682 9.23621C10.9783 9.44922 11.0833 9.70529 11.0833 10.0044C11.0833 10.3035 10.9768 10.5581 10.7638 10.7682C10.5508 10.9783 10.2947 11.0833 9.99557 11.0833ZM14.3032 11.0833C14.0041 11.0833 13.7495 10.9768 13.5395 10.7638C13.3294 10.5508 13.2244 10.2947 13.2244 9.99558C13.2244 9.69646 13.3309 9.44186 13.5439 9.23179C13.7569 9.02172 14.013 8.91669 14.3121 8.91669C14.6112 8.91669 14.8658 9.02319 15.0759 9.23621C15.2859 9.44922 15.391 9.70529 15.391 10.0044C15.391 10.3035 15.2845 10.5581 15.0714 10.7682C14.8584 10.9783 14.6024 11.0833 14.3032 11.0833Z" fill="#212944"/>
</g>
</svg>
