<svg width="24" height="24" viewBox="0 0 24 24" fill="none" xmlns="http://www.w3.org/2000/svg">
<mask id="mask0_12328_10177" style="mask-type:alpha" maskUnits="userSpaceOnUse" x="2" y="2" width="20" height="20">
<rect x="2" y="2" width="20" height="20" fill="#D9D9D9"/>
</mask>
<g mask="url(#mask0_12328_10177)">
<path d="M7.49982 12.5834V18.2501C7.49982 18.4035 7.4483 18.5322 7.34527 18.636C7.24225 18.7398 7.11458 18.7917 6.96227 18.7917C6.80997 18.7917 6.68093 18.7398 6.57517 18.636C6.46939 18.5322 6.4165 18.4035 6.4165 18.2501V6.08662C6.4165 5.89683 6.48071 5.73774 6.60911 5.60935C6.7375 5.48095 6.89659 5.41675 7.08638 5.41675H12.1387C12.3062 5.41675 12.4506 5.46281 12.572 5.55494C12.6934 5.64705 12.7697 5.76712 12.8011 5.91514L13.1633 7.41675H16.9133C17.103 7.41675 17.2621 7.48064 17.3905 7.60844C17.5189 7.73621 17.5831 7.89455 17.5831 8.08344V13.9169C17.5831 14.1057 17.5189 14.264 17.3905 14.3918C17.2621 14.5195 17.103 14.5834 16.9133 14.5834H13.8556C13.6977 14.5834 13.5568 14.5373 13.4327 14.4452C13.3087 14.3531 13.2306 14.233 13.1986 14.085L12.8364 12.5834H7.49982ZM14.1665 13.5001H16.4998V8.50006H12.8524C12.6945 8.50006 12.5535 8.45401 12.4295 8.36189C12.3054 8.26978 12.2274 8.14971 12.1953 8.00167L11.8331 6.50006H7.49982V11.5001H13.1473C13.3051 11.5001 13.4461 11.5461 13.5701 11.6382C13.6942 11.7303 13.7723 11.8504 13.8043 11.9985L14.1665 13.5001Z" fill="#212944"/>
</g>
</svg>
