<svg width="64" height="65" viewBox="0 0 64 65" fill="none" xmlns="http://www.w3.org/2000/svg">
<path d="M32 58.2402C17.7881 58.2402 6.13379 46.5859 6.13379 32.4004C6.13379 18.1885 17.7881 6.53418 31.9736 6.53418C46.1855 6.53418 57.8398 18.1885 57.8398 32.4004C57.8398 46.5859 46.1855 58.2402 32 58.2402ZM32 56.2363C45.1572 56.2363 55.8359 45.5576 55.8359 32.4004C55.8359 19.2432 45.1572 8.53809 31.9736 8.53809C18.8164 8.53809 8.1377 19.2432 8.1377 32.4004C8.1377 45.5576 18.8164 56.2363 32 56.2363ZM26.8584 42.7363C25.9355 43.29 24.8545 42.8154 24.8545 41.8398V22.9609C24.8545 21.9854 25.9619 21.5371 26.8584 22.0645L41.9932 31.293C42.916 31.8467 42.916 33.0332 41.9932 33.6133L26.8584 42.7363Z" fill="#212944"/>
</svg>
