<svg width="32" height="32" viewBox="0 0 32 32" fill="none" xmlns="http://www.w3.org/2000/svg">
<path d="M17.8223 26.1934C17.6986 26.1934 17.5911 26.151 17.5 26.0664C17.4154 25.9883 17.3633 25.8809 17.3438 25.7441C17.194 24.6764 17.0312 23.778 16.8555 23.0488C16.6862 22.3262 16.4583 21.7305 16.1719 21.2617C15.8854 20.793 15.5078 20.4186 15.0391 20.1387C14.5768 19.8587 13.9844 19.6341 13.2617 19.4648C12.5456 19.2891 11.6602 19.1328 10.6055 18.9961C10.4622 18.9831 10.3483 18.931 10.2637 18.8398C10.179 18.7487 10.1367 18.638 10.1367 18.5078C10.1367 18.3841 10.179 18.2767 10.2637 18.1855C10.3483 18.0944 10.4622 18.0423 10.6055 18.0293C11.6602 17.9121 12.5488 17.7721 13.2715 17.6094C13.9941 17.4466 14.5898 17.222 15.0586 16.9355C15.5273 16.6491 15.9049 16.2682 16.1914 15.793C16.4779 15.3177 16.7057 14.7155 16.875 13.9863C17.0508 13.2507 17.207 12.3457 17.3438 11.2715C17.3633 11.1413 17.4154 11.0371 17.5 10.959C17.5911 10.8743 17.6986 10.832 17.8223 10.832C17.9525 10.832 18.0599 10.8743 18.1445 10.959C18.2292 11.0371 18.2845 11.1413 18.3105 11.2715C18.4473 12.3457 18.6003 13.2507 18.7695 13.9863C18.9453 14.7155 19.1732 15.3177 19.4531 15.793C19.7396 16.2682 20.1172 16.6491 20.5859 16.9355C21.0547 17.222 21.6504 17.4466 22.373 17.6094C23.0957 17.7721 23.9876 17.9121 25.0488 18.0293C25.1855 18.0423 25.2962 18.0944 25.3809 18.1855C25.4655 18.2767 25.5078 18.3841 25.5078 18.5078C25.5078 18.638 25.4655 18.7487 25.3809 18.8398C25.2962 18.931 25.1855 18.9831 25.0488 18.9961C23.9876 19.1133 23.0957 19.2533 22.373 19.416C21.6504 19.5788 21.0547 19.8034 20.5859 20.0898C20.1172 20.3698 19.7396 20.7474 19.4531 21.2227C19.1732 21.6979 18.9453 22.3034 18.7695 23.0391C18.6003 23.7747 18.4473 24.6764 18.3105 25.7441C18.2845 25.8809 18.2292 25.9883 18.1445 26.0664C18.0599 26.151 17.9525 26.1934 17.8223 26.1934ZM11.2012 15.3926C11.0059 15.3926 10.8952 15.2852 10.8691 15.0703C10.791 14.4193 10.7064 13.9082 10.6152 13.5371C10.5306 13.166 10.3906 12.8893 10.1953 12.707C10.0065 12.5182 9.72005 12.375 9.33594 12.2773C8.95833 12.1797 8.4375 12.0755 7.77344 11.9648C7.55208 11.9323 7.44141 11.8216 7.44141 11.6328C7.44141 11.4505 7.53906 11.3431 7.73438 11.3105C8.40495 11.1803 8.93229 11.0664 9.31641 10.9688C9.70052 10.8646 9.99023 10.7214 10.1855 10.5391C10.3809 10.3568 10.5241 10.0866 10.6152 9.72852C10.7064 9.36393 10.791 8.85612 10.8691 8.20508C10.8952 7.99023 11.0059 7.88281 11.2012 7.88281C11.3965 7.88281 11.5072 7.98698 11.5332 8.19531C11.6178 8.85286 11.7025 9.37044 11.7871 9.74805C11.8783 10.1257 12.0182 10.4121 12.207 10.6074C12.4023 10.7962 12.6921 10.9362 13.0762 11.0273C13.4603 11.1185 13.9909 11.2129 14.668 11.3105C14.7526 11.3171 14.821 11.3496 14.873 11.4082C14.9316 11.4668 14.9609 11.5417 14.9609 11.6328C14.9609 11.8151 14.8633 11.9258 14.668 11.9648C13.9909 12.0951 13.4603 12.2122 13.0762 12.3164C12.6986 12.4141 12.4121 12.5573 12.2168 12.7461C12.028 12.9284 11.888 13.2018 11.7969 13.5664C11.7057 13.931 11.6178 14.4388 11.5332 15.0898C11.5202 15.1745 11.4844 15.2461 11.4258 15.3047C11.3672 15.3633 11.2923 15.3926 11.2012 15.3926ZM15.9277 8.67383C15.804 8.67383 15.7324 8.60872 15.7129 8.47852C15.6348 8.08138 15.5664 7.76888 15.5078 7.54102C15.4557 7.31315 15.3711 7.14062 15.2539 7.02344C15.1432 6.89974 14.9707 6.80208 14.7363 6.73047C14.502 6.65885 14.1732 6.58724 13.75 6.51562C13.6198 6.48958 13.5547 6.41471 13.5547 6.29102C13.5547 6.17383 13.6198 6.10221 13.75 6.07617C14.1732 5.99805 14.502 5.92643 14.7363 5.86133C14.9707 5.78971 15.1432 5.69531 15.2539 5.57812C15.3711 5.45443 15.4557 5.27865 15.5078 5.05078C15.5664 4.82292 15.6348 4.51042 15.7129 4.11328C15.7324 3.98307 15.804 3.91797 15.9277 3.91797C16.0449 3.91797 16.1165 3.98307 16.1426 4.11328C16.2142 4.51042 16.2793 4.82292 16.3379 5.05078C16.3965 5.27865 16.4811 5.45443 16.5918 5.57812C16.709 5.69531 16.8848 5.78971 17.1191 5.86133C17.3535 5.92643 17.6823 5.99805 18.1055 6.07617C18.2357 6.10221 18.3008 6.17383 18.3008 6.29102C18.3008 6.41471 18.2357 6.48958 18.1055 6.51562C17.6823 6.58724 17.3535 6.65885 17.1191 6.73047C16.8848 6.80208 16.709 6.89974 16.5918 7.02344C16.4811 7.14062 16.3965 7.31315 16.3379 7.54102C16.2793 7.76888 16.2142 8.08138 16.1426 8.47852C16.1165 8.60872 16.0449 8.67383 15.9277 8.67383Z" fill="#007AFF"/>
</svg>
