<svg width="36" height="36" viewBox="0 0 36 36" fill="none" xmlns="http://www.w3.org/2000/svg">
<mask id="mask0_8445_139175" style="mask-type:alpha" maskUnits="userSpaceOnUse" x="6" y="6" width="24" height="24">
<rect width="24" height="24" transform="matrix(-1 0 0 1 30 6)" fill="#D9D9D9"/>
</mask>
<g mask="url(#mask0_8445_139175)">
<path d="M17.0533 18L21.1264 13.9269C21.2649 13.7885 21.3357 13.6144 21.3389 13.4048C21.3421 13.1952 21.2713 13.018 21.1264 12.8731C20.9816 12.7282 20.8059 12.6558 20.5995 12.6558C20.3931 12.6558 20.2175 12.7282 20.0726 12.8731L15.5784 17.3673C15.4848 17.4609 15.4188 17.5596 15.3803 17.6635C15.3419 17.7673 15.3226 17.8795 15.3226 18C15.3226 18.1205 15.3419 18.2327 15.3803 18.3365C15.4188 18.4404 15.4848 18.5391 15.5784 18.6327L20.0726 23.1269C20.2111 23.2654 20.3851 23.3362 20.5947 23.3394C20.8043 23.3426 20.9816 23.2718 21.1264 23.1269C21.2713 22.982 21.3438 22.8064 21.3438 22.6C21.3438 22.3936 21.2713 22.218 21.1264 22.0731L17.0533 18Z" fill="#7F8493"/>
</g>
</svg>
