<svg width="32" height="32" viewBox="0 0 32 32" fill="none" xmlns="http://www.w3.org/2000/svg">
<mask id="mask0_6073_353781" style="mask-type:alpha" maskUnits="userSpaceOnUse" x="0" y="0" width="32" height="32">
<rect width="32" height="32" fill="#D9D9D9"/>
</mask>
<g mask="url(#mask0_6073_353781)">
<path d="M15.9996 23.2818L10.2561 25.7519C9.55523 26.0476 8.89284 25.9905 8.26891 25.5804C7.64497 25.1704 7.33301 24.5896 7.33301 23.8383V6.66652C7.33301 6.09785 7.53732 5.60811 7.94594 5.19729C8.35456 4.78647 8.84541 4.58105 9.41847 4.58105H22.5808C23.1539 4.58105 23.6447 4.78647 24.0533 5.19729C24.462 5.60811 24.6663 6.09785 24.6663 6.66652V23.8383C24.6663 24.5896 24.3543 25.1704 23.7304 25.5804C23.1064 25.9905 22.4441 26.0476 21.7432 25.7519L15.9996 23.2818ZM15.9996 21.4545L22.4141 24.1904C22.5509 24.2502 22.6812 24.2388 22.8052 24.1562C22.9291 24.0736 22.9911 23.9568 22.9911 23.8058V6.66652C22.9911 6.56394 22.9484 6.46992 22.8629 6.38445C22.7774 6.29897 22.6834 6.25622 22.5808 6.25622H9.41847C9.3159 6.25622 9.22187 6.29897 9.13641 6.38445C9.05092 6.46992 9.00817 6.56394 9.00817 6.66652V23.8058C9.00817 23.9568 9.07015 24.0736 9.19411 24.1562C9.31804 24.2388 9.44839 24.2502 9.58514 24.1904L15.9996 21.4545Z" fill="#212944"/>
</g>
</svg>
