<svg width="20" height="20" viewBox="0 0 20 20" fill="none"
    xmlns="http://www.w3.org/2000/svg">
    <g clip-path="url(#clip0_8152_45606)">
        <mask id="mask0_8152_45606" style="mask-type:luminance" maskUnits="userSpaceOnUse" x="2" y="2" width="16" height="16">
            <path d="M18 2H2V18H18V2Z" fill="white"/>
        </mask>
        <g mask="url(#mask0_8152_45606)">
            <path fill-rule="evenodd" clip-rule="evenodd" d="M9.05834 4.27477C8.46714 3.66502 8.03994 3.34255 7.53345 3.27483C7.42661 3.26055 7.3188 3.2549 7.21106 3.25794C6.47398 3.27875 5.84559 3.84437 4.58883 4.97561C2.96254 6.4395 2.14938 7.17144 2.0229 8.11691C2.00441 8.25514 1.9971 8.39463 2.00103 8.534C2.0082 8.78777 2.06532 9.03154 2.17289 9.28337C2.25154 9.42343 2.33621 9.51228 2.42057 9.55811C2.54188 9.624 2.97641 9.7444 4.03857 8.78668C4.59494 8.28502 5.9118 7.10188 7.33866 5.81992L7.33923 5.8194C7.90851 5.30791 8.49531 4.78069 9.05834 4.27477ZM3.00209 10.5685C3.10723 10.7046 3.19425 10.8118 3.22917 10.8457L3.24183 10.8346L3.22901 10.8462L5.94991 13.8917C7.62509 15.7667 8.46269 16.7042 9.5664 16.7681C10.6701 16.8318 11.6101 15.997 13.4903 14.3274L15.813 12.2648C17.2395 10.9981 17.9527 10.3647 17.9978 9.52977C18.0429 8.69485 17.4019 7.9884 16.1202 6.57554L16.1201 6.57553L15.1513 5.5076C13.8869 4.11401 13.2548 3.41723 12.4281 3.37479C11.8221 3.34369 11.2841 3.67311 10.4882 4.34634C9.70977 5.0461 8.84 5.82754 8.00811 6.57497L8.00771 6.57532C6.58182 7.85645 5.26719 9.03754 4.7143 9.53611C4.08483 10.1037 3.51373 10.4494 3.00209 10.5685Z" fill="#4779FF"/>
        </g>
    </g>
    <defs>
        <clipPath id="clip0_8152_45606">
            <rect width="16" height="16" fill="white" transform="translate(2 2)"/>
        </clipPath>
    </defs>
</svg>
