<svg width="24" height="24" viewBox="0 0 24 24" fill="none" xmlns="http://www.w3.org/2000/svg">
<mask id="mask0_8543_317684" style="mask-type:alpha" maskUnits="userSpaceOnUse" x="2" y="2" width="20" height="20">
<rect x="2" y="2" width="20" height="20" fill="#D9D9D9"/>
</mask>
<g mask="url(#mask0_8543_317684)">
<path d="M12.0003 18.4394L11.2471 17.7583C9.8796 16.5329 8.75113 15.4872 7.8617 14.6213C6.97228 13.7554 6.27384 12.992 5.76637 12.3312C5.25888 11.6704 4.90712 11.0713 4.71108 10.534C4.51502 9.99656 4.41699 9.45062 4.41699 8.89614C4.41699 7.7829 4.80187 6.8414 5.57164 6.07164C6.3414 5.30187 7.2829 4.91699 8.39614 4.91699C9.08204 4.91699 9.74176 5.08019 10.3753 5.4066C11.0088 5.73299 11.5505 6.20013 12.0003 6.80803C12.4501 6.20013 12.9918 5.73299 13.6253 5.4066C14.2588 5.08019 14.9186 4.91699 15.6045 4.91699C16.7177 4.91699 17.6592 5.30187 18.429 6.07164C19.1987 6.8414 19.5836 7.7829 19.5836 8.89614C19.5836 9.45062 19.4891 9.98962 19.3 10.5131C19.1109 11.0366 18.7626 11.6253 18.2551 12.2791C17.7476 12.933 17.047 13.6998 16.1533 14.5796C15.2596 15.4594 14.1125 16.5329 12.7118 17.8L12.0003 18.4394Z" fill="#FF554B"/>
</g>
</svg>
