<svg width="16" height="16" viewBox="0 0 16 16" fill="none"
    xmlns="http://www.w3.org/2000/svg">
    <mask id="mask0_5453_463827" style="mask-type:alpha" maskUnits="userSpaceOnUse" x="0" y="0" width="16" height="16">
        <rect width="16" height="16" fill="#D9D9D9"/>
    </mask>
    <g mask="url(#mask0_5453_463827)">
        <path d="M5.86644 11.1166L7.99977 9.84993L10.1498 11.1166L9.5831 8.71659L11.4331 7.13326L8.9831 6.91659L7.99977 4.63326L7.01644 6.91659L4.56644 7.13326L6.4331 8.71659L5.86644 11.1166ZM7.99977 10.8589L5.43952 12.3896C5.34294 12.4349 5.25449 12.4531 5.17415 12.4441C5.09381 12.4351 5.01987 12.408 4.95235 12.3627C4.88484 12.3174 4.83527 12.2492 4.80365 12.1582C4.77202 12.0672 4.77074 11.9777 4.7998 11.8896L5.47159 9.04479L3.21519 7.12941C3.14083 7.06617 3.09468 6.99117 3.07674 6.90443C3.05879 6.81767 3.06221 6.7337 3.08699 6.65251C3.11177 6.57131 3.15793 6.50422 3.22545 6.45123C3.29297 6.39824 3.37417 6.36833 3.46904 6.36149L6.42415 6.09739L7.59722 3.38329C7.63995 3.29099 7.69636 3.22283 7.76644 3.17881C7.83652 3.1348 7.9143 3.11279 7.99977 3.11279C8.08524 3.11279 8.16301 3.1348 8.2331 3.17881C8.30318 3.22283 8.35959 3.29099 8.40232 3.38329L9.57539 6.11406L12.5305 6.36149C12.6254 6.36833 12.7066 6.40102 12.7741 6.45956C12.8416 6.5181 12.8878 6.58798 12.9126 6.66918C12.9373 6.75037 12.938 6.83156 12.9145 6.91276C12.891 6.99395 12.842 7.06617 12.7677 7.12941L10.528 9.04479L11.1997 11.8896C11.2288 11.9777 11.2275 12.0672 11.1959 12.1582C11.1643 12.2492 11.1147 12.3174 11.0472 12.3627C10.9797 12.408 10.9057 12.4351 10.8254 12.4441C10.7451 12.4531 10.6566 12.4349 10.56 12.3896L7.99977 10.8589Z" fill="#212944"/>
    </g>
</svg>
