<svg width="21" height="21" viewBox="0 0 21 21" fill="none" xmlns="http://www.w3.org/2000/svg">
<mask id="mask0_9959_21505" style="mask-type:alpha" maskUnits="userSpaceOnUse" x="0" y="0" width="21" height="21">
<rect x="0.5" y="0.5" width="20" height="20" fill="#D9D9D9"/>
</mask>
<g mask="url(#mask0_9959_21505)">
<path d="M5.2565 17.0834C4.88139 17.0834 4.56432 16.9539 4.30529 16.6948C4.04626 16.4358 3.91675 16.1187 3.91675 15.7436V5.2565C3.91675 4.88139 4.04626 4.56432 4.30529 4.30529C4.56432 4.04626 4.88139 3.91675 5.2565 3.91675H10.1795V5.00006H5.2565C5.19239 5.00006 5.13362 5.02677 5.08019 5.08019C5.02677 5.13362 5.00006 5.19239 5.00006 5.2565V15.7436C5.00006 15.8077 5.02677 15.8665 5.08019 15.9199C5.13362 15.9734 5.19239 16.0001 5.2565 16.0001H15.7436C15.8077 16.0001 15.8665 15.9734 15.9199 15.9199C15.9734 15.8665 16.0001 15.8077 16.0001 15.7436V10.8206H17.0834V15.7436C17.0834 16.1187 16.9539 16.4358 16.6948 16.6948C16.4358 16.9539 16.1187 17.0834 15.7436 17.0834H5.2565ZM8.57858 13.1956L7.80456 12.4215L15.226 5.00006H12.5001V3.91675H17.0834V8.50006H16.0001V5.77408L8.57858 13.1956Z" fill="white"/>
</g>
</svg>
