<svg width="16" height="16" viewBox="0 0 16 16" fill="none" xmlns="http://www.w3.org/2000/svg">
<mask id="mask0_12012_16032" style="mask-type:alpha" maskUnits="userSpaceOnUse" x="0" y="0" width="16" height="16">
<rect width="16" height="16" fill="#D9D9D9"/>
</mask>
<g mask="url(#mask0_12012_16032)">
<path d="M8.32423 10.8809L13.7127 5.50906C13.7426 5.47917 13.7576 5.44284 13.7576 5.40006C13.7576 5.35728 13.7426 5.32095 13.7127 5.29106L12.9807 4.55906C12.9507 4.52917 12.9144 4.51423 12.8717 4.51423C12.8289 4.51423 12.7926 4.52917 12.7627 4.55906L7.39089 9.94756L8.32423 10.8809ZM1.96139 10.4564C1.96139 10.8172 2.09089 11.0992 2.34989 11.3026C2.60889 11.506 3.01662 11.6419 3.57306 11.7104C3.68584 11.7283 3.78045 11.784 3.85689 11.8776C3.93345 11.9712 3.96828 12.0744 3.96139 12.1872C3.95462 12.3069 3.90678 12.4101 3.81789 12.4969C3.729 12.5836 3.63028 12.618 3.52173 12.6001C2.75673 12.5086 2.161 12.2768 1.73456 11.9046C1.308 11.5323 1.09473 11.0496 1.09473 10.4564C1.09473 9.80351 1.35862 9.28089 1.88639 8.88856C2.41417 8.49623 3.149 8.26673 4.09089 8.20006C4.53112 8.16928 4.87517 8.08167 5.12306 7.93723C5.37084 7.79278 5.49473 7.60817 5.49473 7.38339C5.49473 7.08084 5.37678 6.84345 5.14089 6.67123C4.905 6.49901 4.4935 6.36973 3.90639 6.28339C3.7935 6.26539 3.69112 6.21456 3.59923 6.13089C3.50734 6.04712 3.47039 5.94323 3.48839 5.81923C3.50628 5.69967 3.56245 5.59823 3.65689 5.51489C3.75134 5.43156 3.86267 5.40101 3.99089 5.42323C4.77378 5.53001 5.36462 5.74945 5.76339 6.08156C6.16206 6.41356 6.36139 6.84751 6.36139 7.38339C6.36139 7.85684 6.16656 8.24295 5.77689 8.54173C5.38712 8.84039 4.84434 9.01539 4.14856 9.06673C3.41956 9.13084 2.87278 9.27678 2.50823 9.50456C2.14367 9.73234 1.96139 10.0496 1.96139 10.4564ZM8.41389 12.0231L6.24856 9.84106L12.2242 3.88856C12.4097 3.70312 12.6283 3.61145 12.8801 3.61356C13.1317 3.61567 13.3503 3.70734 13.5357 3.88856L14.3832 4.73589C14.5687 4.92145 14.6614 5.14112 14.6614 5.39489C14.6614 5.64878 14.5687 5.86845 14.3832 6.05389L8.41389 12.0231ZM6.28706 12.4667C6.13662 12.5026 6.00973 12.4688 5.90639 12.3654C5.80295 12.262 5.76917 12.1351 5.80506 11.9847L6.24856 9.84106L8.41389 12.0231L6.28706 12.4667Z" fill="#7F8493"/>
</g>
</svg>
