<svg width="64" height="64" viewBox="0 0 64 64" fill="none"
    xmlns="http://www.w3.org/2000/svg">
    <mask id="mask0_11073_49777" style="mask-type:alpha" maskUnits="userSpaceOnUse" x="0" y="0" width="65" height="64">
        <rect x="0.5" width="64" height="64" fill="#D9D9D9"/>
    </mask>
    <g mask="url(#mask0_11073_49777)">
        <path d="M41.3665 56.1333L32.5665 47.4L33.6331 46.3333L41.3665 54L56.8998 38.4L57.9665 39.4667L41.3665 56.1333ZM32.4331 29.2L53.0331 15.6H11.8998L32.4331 29.2ZM32.4331 31.0667L10.7665 16.6V46C10.7665 46.6222 10.9665 47.1333 11.3665 47.5333C11.7665 47.9333 12.2776 48.1333 12.8998 48.1333H26.3665L27.8331 49.6H12.8998C11.8878 49.6 11.0347 49.2531 10.3405 48.5593C9.64669 47.8651 9.2998 47.012 9.2998 46V17.7333C9.2998 16.7209 9.64669 15.8678 10.3405 15.174C11.0347 14.4802 11.8878 14.1333 12.8998 14.1333H52.0331C53.0456 14.1333 53.8987 14.4802 54.5925 15.174C55.2863 15.8678 55.6331 16.7209 55.6331 17.7333V32.7333L54.1665 34.2V16.6L32.4331 31.0667Z" fill="#007AFF"/>
    </g>
</svg>
