<svg width="20" height="20" viewBox="0 0 20 20" fill="none"
    xmlns="http://www.w3.org/2000/svg">
    <path d="M9.76786 5.50769C10.4539 5.50769 11.314 5.04386 11.8261 4.42543C12.2899 3.86497 12.6281 3.08226 12.6281 2.29956C12.6281 2.19326 12.6185 2.08697 12.5991 2C11.8358 2.02899 10.9178 2.51214 10.367 3.15957C9.93213 3.65238 9.53595 4.42543 9.53595 5.2178C9.53595 5.33376 9.55527 5.44971 9.56494 5.48837C9.61325 5.49803 9.69056 5.50769 9.76786 5.50769ZM7.3521 17.2C8.28941 17.2 8.70492 16.5719 9.87416 16.5719C11.0627 16.5719 11.3236 17.1807 12.3672 17.1807C13.3915 17.1807 14.0776 16.2337 14.725 15.306C15.4497 14.2431 15.7493 13.1995 15.7686 13.1512C15.701 13.1319 13.7394 12.3298 13.7394 10.0783C13.7394 8.12638 15.2855 7.24704 15.3724 7.1794C14.3482 5.71062 12.7924 5.67196 12.3672 5.67196C11.2173 5.67196 10.28 6.3677 9.69056 6.3677C9.05279 6.3677 8.21211 5.71062 7.21681 5.71062C5.32285 5.71062 3.3999 7.27603 3.3999 10.2329C3.3999 12.0689 4.11497 14.0112 4.99431 15.2674C5.74803 16.3303 6.40512 17.2 7.3521 17.2Z" fill="black"/>
</svg>
