<svg width="64" height="64" viewBox="0 0 64 64" fill="none"
    xmlns="http://www.w3.org/2000/svg">
    <mask id="mask0_12570_128608" style="mask-type:alpha" maskUnits="userSpaceOnUse" x="0" y="0" width="65" height="64">
        <rect x="0.5" width="64" height="64" fill="#D9D9D9"/>
    </mask>
    <g mask="url(#mask0_12570_128608)">
        <path d="M28.5667 41.7998L45.1 25.2665L43.9667 24.1331L28.5667 39.5998L20.8333 31.8665L19.7667 32.9998L28.5667 41.7998ZM32.5113 55.1998C29.3038 55.1998 26.2987 54.5911 23.496 53.3738C20.6933 52.1565 18.2362 50.4931 16.1247 48.3838C14.0127 46.2745 12.3473 43.8205 11.1287 41.0218C9.90954 38.2227 9.29999 35.2191 9.29999 32.0111C9.29999 28.8036 9.90865 25.7874 11.126 22.9625C12.3433 20.1376 14.0067 17.6805 16.116 15.5911C18.2253 13.5014 20.6793 11.8471 23.478 10.6285C26.2771 9.40936 29.2807 8.7998 32.4887 8.7998C35.6962 8.7998 38.7124 9.40847 41.5373 10.6258C44.3622 11.8431 46.8193 13.4954 48.9087 15.5825C50.9984 17.6696 52.6527 20.1236 53.8713 22.9445C55.0904 25.7658 55.7 28.7805 55.7 31.9885C55.7 35.196 55.0913 38.2011 53.874 41.0038C52.6567 43.8065 51.0044 46.2636 48.9173 48.3751C46.8302 50.4871 44.3762 52.1525 41.5553 53.3711C38.734 54.5902 35.7193 55.1998 32.5113 55.1998ZM32.5 53.7331C38.5444 53.7331 43.6778 51.622 47.9 47.3998C52.1222 43.1776 54.2333 38.0442 54.2333 31.9998C54.2333 25.9554 52.1222 20.822 47.9 16.5998C43.6778 12.3776 38.5444 10.2665 32.5 10.2665C26.4555 10.2665 21.3222 12.3776 17.1 16.5998C12.8778 20.822 10.7667 25.9554 10.7667 31.9998C10.7667 38.0442 12.8778 43.1776 17.1 47.3998C21.3222 51.622 26.4555 53.7331 32.5 53.7331Z" fill="#007AFF"/>
    </g>
</svg>
