<svg width="32" height="32" viewBox="0 0 32 32" fill="none" xmlns="http://www.w3.org/2000/svg">
<mask id="mask0_6073_353675" style="mask-type:alpha" maskUnits="userSpaceOnUse" x="0" y="0" width="32" height="32">
<rect width="32" height="32" fill="#D9D9D9"/>
</mask>
<g mask="url(#mask0_6073_353675)">
<path d="M11.133 20.0189C11.5535 20.9848 12.0933 21.7426 12.7522 22.2924C13.4112 22.8423 14.2168 23.2354 15.1689 23.4719V24.4061C15.1689 24.6215 15.2494 24.806 15.4103 24.9595C15.5713 25.1131 15.7566 25.1899 15.9663 25.1899C16.176 25.1899 16.359 25.1094 16.5154 24.9484C16.6718 24.7874 16.75 24.6021 16.75 24.3924V23.5386C17.9016 23.428 18.8861 23.0507 19.7035 22.4065C20.5209 21.7624 20.9295 20.8355 20.9295 19.6258C20.9295 18.5933 20.6273 17.7346 20.0227 17.0497C19.4182 16.3648 18.3324 15.717 16.7654 15.1061C15.382 14.5853 14.4438 14.1286 13.9509 13.736C13.458 13.3434 13.2116 12.7996 13.2116 12.1044C13.2116 11.4241 13.4696 10.8708 13.9855 10.4446C14.5015 10.0183 15.1951 9.80523 16.0663 9.80523C16.7421 9.80523 17.3139 9.96064 17.7817 10.2715C18.2495 10.5823 18.6355 11.0104 18.9398 11.5557L20.3244 10.9437C19.9797 10.2343 19.5006 9.65869 18.8872 9.2168C18.2738 8.77493 17.5837 8.52038 16.8167 8.45313V7.60783C16.8167 7.39814 16.7385 7.2151 16.5821 7.0587C16.4257 6.9023 16.2427 6.8241 16.033 6.8241C15.8233 6.8241 15.638 6.9023 15.477 7.0587C15.316 7.2151 15.2355 7.39814 15.2355 7.60783V8.45313C14.0897 8.62978 13.2038 9.05699 12.5779 9.73476C11.9519 10.4125 11.639 11.2024 11.639 12.1044C11.639 13.13 11.9552 13.948 12.5877 14.5582C13.2202 15.1685 14.2293 15.7409 15.615 16.2753C17.0743 16.852 18.0656 17.3701 18.589 17.8296C19.1123 18.2892 19.374 18.8879 19.374 19.6258C19.374 20.4526 19.0572 21.0764 18.4236 21.4972C17.79 21.918 17.0553 22.1284 16.2197 22.1284C15.4046 22.1284 14.6739 21.8959 14.0274 21.4309C13.381 20.966 12.8988 20.313 12.5808 19.472L11.133 20.0189ZM16.0019 28.6668C14.2591 28.6668 12.6183 28.3343 11.0797 27.6694C9.54101 27.0045 8.19782 26.0985 7.05011 24.9513C5.9024 23.8041 4.99595 22.4615 4.33077 20.9235C3.6656 19.3855 3.33301 17.7451 3.33301 16.0024C3.33301 14.2505 3.66545 12.6037 4.33034 11.0622C4.99523 9.5207 5.90127 8.17979 7.04847 7.0395C8.19567 5.89919 9.53826 4.99644 11.0762 4.33126C12.6142 3.66609 14.2546 3.3335 15.9974 3.3335C17.7493 3.3335 19.396 3.66594 20.9375 4.33083C22.4791 4.99572 23.82 5.89805 24.9603 7.03783C26.1006 8.17763 27.0033 9.51795 27.6685 11.0588C28.3337 12.5996 28.6663 14.246 28.6663 15.9979C28.6663 17.7407 28.3338 19.3814 27.6689 20.9201C27.0041 22.4588 26.1017 23.802 24.9619 24.9497C23.8221 26.0974 22.4818 27.0038 20.941 27.669C19.4002 28.3342 17.7538 28.6668 16.0019 28.6668ZM15.9996 26.9916C19.0618 26.9916 21.6592 25.9229 23.7919 23.7856C25.9247 21.6483 26.9911 19.0531 26.9911 16.0001C26.9911 12.938 25.9247 10.3406 23.7919 8.20783C21.6592 6.07505 19.0618 5.00866 15.9996 5.00866C12.9466 5.00866 10.3515 6.07505 8.21417 8.20783C6.07684 10.3406 5.00817 12.938 5.00817 16.0001C5.00817 19.0531 6.07684 21.6483 8.21417 23.7856C10.3515 25.9229 12.9466 26.9916 15.9996 26.9916Z" fill="#212944"/>
</g>
</svg>
