<svg width="80" height="80" viewBox="0 0 80 80" fill="none" xmlns="http://www.w3.org/2000/svg">
<rect x="0.5" y="0.5" width="79" height="79" stroke="#007AFF" stroke-dasharray="8 8"/>
<path d="M46.4153 30.1495C46.4153 31.4517 45.9545 32.678 45.0375 33.8875C44.5473 34.4737 43.4965 35.5267 41.766 37.0536L41.766 37.0535L41.7617 37.0574C40.1432 38.5193 38.9741 39.947 38.2222 41.3435L38.2217 41.3444C37.4077 42.8638 37.0347 44.5366 37.0347 46.4503V47.6293V48.1293H37.5347H41.6355H42.1355V47.6293V46.4503C42.1355 45.1418 42.4257 43.9509 43.0399 42.9114L43.0401 42.9115L43.0465 42.8998C43.5238 42.0408 44.2484 41.1652 45.3353 40.2759L45.3429 40.2697L45.3503 40.2631C47.6068 38.2631 49.0078 36.9156 49.5906 36.2798L49.6097 36.2589L49.6264 36.236C50.9205 34.4566 51.6186 32.3539 51.6186 29.9445C51.6186 26.7569 50.6048 24.2032 48.5355 22.3489C46.4716 20.3964 43.7228 19.5 40.354 19.5C36.5556 19.5 33.5388 20.6649 31.3741 23.0449C29.2743 25.3073 28.2193 28.3056 28.1667 31.9878L28.1595 32.4949H28.6667H32.7675H33.2675V31.9949C33.2675 29.555 33.815 27.729 34.8522 26.4089L34.858 26.4016L34.8634 26.3941C35.9759 24.8645 37.7008 24.0882 40.149 24.0882C42.2096 24.0882 43.7076 24.6245 44.8189 25.7359C45.8346 26.7516 46.4153 28.2035 46.4153 30.1495Z" stroke="#007AFF"/>
<path d="M42.1786 59.4971L42.1866 59.4898L42.1943 59.4821C42.8565 58.8199 43.2121 57.973 43.2121 56.9244C43.2121 55.9225 42.8534 55.077 42.1943 54.4179C41.4679 53.6915 40.5623 53.4 39.5852 53.4C38.6028 53.4 37.7545 53.6949 37.0352 54.4103C36.3021 55.0865 36.0096 55.9469 36.0096 56.9244C36.0096 57.9103 36.3066 58.7612 37.0275 59.4821L37.0352 59.4898L37.0432 59.4971C37.7438 60.1394 38.5799 60.5 39.5852 60.5C40.5823 60.5 41.4716 60.1452 42.1786 59.4971Z" stroke="#007AFF"/>
</svg>
