<svg width="52" height="52" viewBox="0 0 52 52" fill="none" xmlns="http://www.w3.org/2000/svg">
<path d="M26 51.8027C11.7881 51.8027 0.133789 40.1484 0.133789 25.9629C0.133789 11.751 11.7881 0.0966797 25.9736 0.0966797C40.1855 0.0966797 51.8398 11.751 51.8398 25.9629C51.8398 40.1484 40.1855 51.8027 26 51.8027ZM26 49.7988C39.1572 49.7988 49.8359 39.1201 49.8359 25.9629C49.8359 12.8057 39.1572 2.10059 25.9736 2.10059C12.8164 2.10059 2.1377 12.8057 2.1377 25.9629C2.1377 39.1201 12.8164 49.7988 26 49.7988ZM20.8584 36.2988C19.9355 36.8525 18.8545 36.3779 18.8545 35.4023V16.5234C18.8545 15.5479 19.9619 15.0996 20.8584 15.627L35.9932 24.8555C36.916 25.4092 36.916 26.5957 35.9932 27.1758L20.8584 36.2988Z" fill="white"/>
</svg>
