<svg width="64" height="64" viewBox="0 0 64 64" fill="none" xmlns="http://www.w3.org/2000/svg">
<path d="M31.9736 57.8027C28.4229 57.8027 25.083 57.126 21.9541 55.7725C18.8428 54.4365 16.1006 52.582 13.7275 50.209C11.3545 47.8359 9.49121 45.0938 8.1377 41.9824C6.80176 38.8535 6.13379 35.5137 6.13379 31.9629C6.13379 28.4121 6.80176 25.0811 8.1377 21.9697C9.49121 18.8408 11.3545 16.0898 13.7275 13.7168C16.1006 11.3438 18.8428 9.48926 21.9541 8.15332C25.083 6.7998 28.4229 6.12305 31.9736 6.12305C35.5244 6.12305 38.8555 6.7998 41.9668 8.15332C45.0957 9.48926 47.8467 11.3438 50.2197 13.7168C52.5928 16.0898 54.4561 18.8408 55.8096 21.9697C57.1631 25.0811 57.8398 28.4121 57.8398 31.9629C57.8398 35.5137 57.1631 38.8535 55.8096 41.9824C54.4561 45.0938 52.5928 47.8359 50.2197 50.209C47.8467 52.582 45.1045 54.4365 41.9932 55.7725C38.8818 57.126 35.542 57.8027 31.9736 57.8027ZM24.8018 41.9561H27.4912C28.0361 41.9561 28.4404 41.8154 28.7041 41.5342C28.9678 41.2529 29.0996 40.8926 29.0996 40.4531V23.4463C29.0996 22.9893 28.9678 22.6289 28.7041 22.3652C28.4404 22.084 28.0361 21.9434 27.4912 21.9434H24.8018C24.2568 21.9434 23.8525 22.084 23.5889 22.3652C23.3252 22.6289 23.1934 22.9893 23.1934 23.4463V40.4531C23.1934 40.8926 23.3252 41.2529 23.5889 41.5342C23.8525 41.8154 24.2568 41.9561 24.8018 41.9561ZM36.4824 41.9561H39.1719C39.7168 41.9561 40.1211 41.8154 40.3848 41.5342C40.6484 41.2529 40.7803 40.8926 40.7803 40.4531V23.4463C40.7803 22.9893 40.6484 22.6289 40.3848 22.3652C40.1211 22.084 39.7168 21.9434 39.1719 21.9434H36.4824C35.9375 21.9434 35.5332 22.084 35.2695 22.3652C35.0234 22.6289 34.9004 22.9893 34.9004 23.4463V40.4531C34.9004 40.8926 35.0234 41.2529 35.2695 41.5342C35.5332 41.8154 35.9375 41.9561 36.4824 41.9561Z" fill="#212944"/>
</svg>
