<svg width="20" height="20" viewBox="0 0 20 20" fill="none"
    xmlns="http://www.w3.org/2000/svg">
    <mask id="mask0_7961_40439" style="mask-type:alpha" maskUnits="userSpaceOnUse" x="0" y="0" width="21" height="20">
        <rect x="0.5" width="20" height="20" fill="#D9D9D9"/>
    </mask>
    <g mask="url(#mask0_7961_40439)">
        <path d="M4.25654 15.5834C3.8814 15.5834 3.56432 15.4538 3.30529 15.1946C3.04626 14.9354 2.91675 14.6181 2.91675 14.2427V5.75065C2.91675 5.37523 3.04626 5.05905 3.30529 4.8021C3.56432 4.54516 3.8814 4.41669 4.25654 4.41669H16.7436C17.1188 4.41669 17.4358 4.54627 17.6949 4.80544C17.9539 5.0646 18.0834 5.38189 18.0834 5.75731V14.2494C18.0834 14.6248 17.9539 14.941 17.6949 15.1979C17.4358 15.4549 17.1188 15.5834 16.7436 15.5834H4.25654ZM10.5001 10.6315L4.00008 6.80606V14.2436C4.00008 14.3184 4.02411 14.3799 4.07216 14.4279C4.12022 14.476 4.18168 14.5 4.25654 14.5H16.7436C16.8185 14.5 16.8799 14.476 16.928 14.4279C16.9761 14.3799 17.0001 14.3184 17.0001 14.2436V6.80606L10.5001 10.6315ZM10.5001 9.22919L16.872 5.50002H4.12821L10.5001 9.22919ZM4.00008 6.80606V5.50002V14.2436C4.00008 14.3184 4.02411 14.3799 4.07216 14.4279C4.12022 14.476 4.18168 14.5 4.25654 14.5H4.00008V6.80606Z" fill="#212944"/>
    </g>
</svg>
