<svg width="36" height="36" viewBox="0 0 36 36" fill="none" xmlns="http://www.w3.org/2000/svg">
<mask id="mask0_8407_14827" style="mask-type:alpha" maskUnits="userSpaceOnUse" x="6" y="6" width="24" height="24">
<rect x="6" y="6" width="24" height="24" fill="#D9D9D9"/>
</mask>
<g mask="url(#mask0_8407_14827)">
<path d="M18.9467 18L14.8736 13.9269C14.7351 13.7884 14.6643 13.6144 14.6611 13.4048C14.6579 13.1952 14.7287 13.018 14.8736 12.8731C15.0184 12.7282 15.1941 12.6558 15.4005 12.6558C15.6069 12.6558 15.7825 12.7282 15.9274 12.8731L20.4216 17.3673C20.5152 17.4609 20.5812 17.5596 20.6197 17.6635C20.6581 17.7673 20.6774 17.8795 20.6774 18C20.6774 18.1205 20.6581 18.2327 20.6197 18.3365C20.5812 18.4404 20.5152 18.5391 20.4216 18.6327L15.9274 23.1269C15.7889 23.2654 15.6149 23.3362 15.4053 23.3394C15.1957 23.3426 15.0184 23.2718 14.8736 23.1269C14.7287 22.982 14.6562 22.8064 14.6562 22.6C14.6562 22.3936 14.7287 22.218 14.8736 22.0731L18.9467 18Z" fill="#212944"/>
</g>
</svg>
