<svg width="32" height="32" viewBox="0 0 32 32" fill="none" xmlns="http://www.w3.org/2000/svg">
<mask id="mask0_6073_353539" style="mask-type:alpha" maskUnits="userSpaceOnUse" x="0" y="0" width="32" height="32">
<rect width="32" height="32" fill="#D9D9D9"/>
</mask>
<g mask="url(#mask0_6073_353539)">
<path d="M5.41847 27.3331C4.84541 27.3331 4.35456 27.1288 3.94594 26.7202C3.53732 26.3115 3.33301 25.8207 3.33301 25.2476V6.75197C3.33301 6.1789 3.53732 5.68806 3.94594 5.27944C4.35456 4.87081 4.84541 4.6665 5.41847 4.6665H26.5808C27.1539 4.6665 27.6447 4.87081 28.0533 5.27944C28.462 5.68806 28.6663 6.1789 28.6663 6.75197V25.2476C28.6663 25.8207 28.462 26.3115 28.0533 26.7202C27.6447 27.1288 27.1539 27.3331 26.5808 27.3331H5.41847ZM9.49881 22.0545H22.5005C22.7378 22.0545 22.9367 21.9738 23.0973 21.8124C23.2578 21.651 23.3381 21.451 23.3381 21.2124C23.3381 20.9738 23.2578 20.7753 23.0973 20.6169C22.9367 20.4585 22.7378 20.3793 22.5005 20.3793H9.49881C9.2615 20.3793 9.06256 20.46 8.90201 20.6214C8.74147 20.7828 8.66121 20.9828 8.66121 21.2214C8.66121 21.46 8.74147 21.6585 8.90201 21.8169C9.06256 21.9753 9.2615 22.0545 9.49881 22.0545ZM9.49881 16.8015H12.6612C12.8985 16.8015 13.0974 16.7212 13.258 16.5607C13.4185 16.4001 13.4988 16.2012 13.4988 15.9639V10.7827C13.4988 10.5454 13.4185 10.3465 13.258 10.1859C13.0974 10.0254 12.8985 9.94514 12.6612 9.94514H9.49881C9.2615 9.94514 9.06256 10.0254 8.90201 10.1859C8.74147 10.3465 8.66121 10.5454 8.66121 10.7827V15.9639C8.66121 16.2012 8.74147 16.4001 8.90201 16.5607C9.06256 16.7212 9.2615 16.8015 9.49881 16.8015ZM17.6475 16.8015H22.5005C22.7378 16.8015 22.9367 16.7208 23.0973 16.5594C23.2578 16.398 23.3381 16.198 23.3381 15.9594C23.3381 15.7208 23.2578 15.5223 23.0973 15.3639C22.9367 15.2055 22.7378 15.1263 22.5005 15.1263H17.6475C17.4102 15.1263 17.2113 15.207 17.0507 15.3684C16.8902 15.5298 16.8099 15.7298 16.8099 15.9684C16.8099 16.207 16.8902 16.4055 17.0507 16.5639C17.2113 16.7223 17.4102 16.8015 17.6475 16.8015ZM17.6475 11.6203H22.5005C22.7378 11.6203 22.9367 11.5396 23.0973 11.3782C23.2578 11.2168 23.3381 11.0168 23.3381 10.7782C23.3381 10.5396 23.2578 10.3411 23.0973 10.1827C22.9367 10.0243 22.7378 9.94514 22.5005 9.94514H17.6475C17.4102 9.94514 17.2113 10.0258 17.0507 10.1872C16.8902 10.3486 16.8099 10.5486 16.8099 10.7872C16.8099 11.0258 16.8902 11.2243 17.0507 11.3827C17.2113 11.5411 17.4102 11.6203 17.6475 11.6203Z" fill="#212944"/>
</g>
</svg>
