<svg width="24" height="24" viewBox="0 0 24 24" fill="none" xmlns="http://www.w3.org/2000/svg">
<mask id="mask0_6073_353713" style="mask-type:alpha" maskUnits="userSpaceOnUse" x="0" y="0" width="24" height="24">
<rect width="24" height="24" fill="#D9D9D9"/>
</mask>
<g mask="url(#mask0_6073_353713)">
<path d="M12 22.4139C9.48923 22.4139 7.36154 21.5416 5.61694 19.797C3.87231 18.0524 3 15.9247 3 13.4139C3 11.3401 3.61692 9.30934 4.85077 7.32165C6.08461 5.33396 7.78228 3.62012 9.94379 2.18011C10.2607 1.96011 10.5865 1.94165 10.9211 2.12473C11.2557 2.30781 11.423 2.59011 11.423 2.97164V4.42775C11.423 5.16161 11.7215 5.80278 12.3184 6.35124C12.9154 6.8997 13.6192 7.17393 14.43 7.17393C14.7977 7.17393 15.1481 7.1047 15.4812 6.96624C15.8143 6.82778 16.12 6.62394 16.3985 6.35472C16.5585 6.2055 16.7308 6.10935 16.9154 6.06627C17.1 6.02318 17.2708 6.06165 17.4277 6.18165C18.5477 7.02781 19.4231 8.08588 20.0539 9.35587C20.6846 10.6259 21 11.9785 21 13.4139C21 15.9247 20.1277 18.0524 18.3831 19.797C16.6385 21.5416 14.5108 22.4139 12 22.4139ZM4.36152 13.4139C4.36152 14.7816 4.70423 16.0512 5.38963 17.2228C6.07501 18.3943 7.01232 19.3155 8.20157 19.9863C8.06773 19.7155 7.96735 19.4339 7.90043 19.1416C7.83349 18.8493 7.80002 18.5601 7.80002 18.2739C7.80002 17.7186 7.90656 17.1955 8.11964 16.7047C8.33272 16.214 8.63849 15.7693 9.03695 15.3709L12 12.4563L14.9746 15.3709C15.3731 15.7693 15.6769 16.214 15.8861 16.7047C16.0954 17.1955 16.2 17.7186 16.2 18.2739C16.2 18.5601 16.1665 18.8493 16.0996 19.1416C16.0327 19.4339 15.9323 19.7155 15.7984 19.9863C16.9877 19.3155 17.925 18.3943 18.6104 17.2228C19.2958 16.0512 19.6385 14.7816 19.6385 13.4139C19.6385 12.357 19.42 11.3308 18.9831 10.3355C18.5462 9.34008 17.9208 8.43546 17.1069 7.62162C16.6946 7.91392 16.2604 8.1393 15.8043 8.29776C15.3481 8.45622 14.89 8.53545 14.43 8.53545C13.2023 8.53545 12.1731 8.12237 11.3423 7.29621C10.5115 6.47007 10.0808 5.42699 10.05 4.16699V3.72854C8.27921 5.04084 6.88843 6.56354 5.87767 8.29662C4.86691 10.0297 4.36152 11.7355 4.36152 13.4139ZM12 14.3647L9.98537 16.3493C9.72077 16.6139 9.51731 16.9086 9.37499 17.2332C9.23269 17.5578 9.16154 17.9047 9.16154 18.2739C9.16154 19.0478 9.43615 19.7043 9.98537 20.2436C10.5346 20.7828 11.2062 21.0524 12 21.0524C12.7938 21.0524 13.4654 20.7828 14.0146 20.2436C14.5638 19.7043 14.8385 19.0478 14.8385 18.2739C14.8385 17.897 14.7673 17.5462 14.625 17.2216C14.4827 16.897 14.2792 16.6063 14.0146 16.3493L12 14.3647Z" fill="#212944"/>
</g>
</svg>
