<svg width="24" height="24" viewBox="0 0 24 24" fill="none" xmlns="http://www.w3.org/2000/svg">
<mask id="mask0_5453_463906" style="mask-type:alpha" maskUnits="userSpaceOnUse" x="2" y="2" width="20" height="20">
<rect x="2" y="2" width="20" height="20" fill="#D9D9D9"/>
</mask>
<g mask="url(#mask0_5453_463906)">
<path d="M8.03237 15.6155C7.03212 15.6155 6.17949 15.2626 5.47449 14.5567C4.76949 13.8509 4.41699 12.9973 4.41699 11.9959C4.41699 10.9944 4.76949 10.1422 5.47449 9.43924C6.17949 8.73626 7.03212 8.38477 8.03237 8.38477H10.2984C10.4519 8.38477 10.5805 8.43628 10.6843 8.53931C10.7881 8.64233 10.84 8.77 10.84 8.92231C10.84 9.07461 10.7881 9.20365 10.6843 9.30941C10.5805 9.41518 10.4519 9.46806 10.2984 9.46806H8.03141C7.33226 9.46806 6.73562 9.71512 6.24149 10.2092C5.74737 10.7034 5.5003 11.3003 5.5003 12.0001C5.5003 12.6999 5.74737 13.2969 6.24149 13.791C6.73562 14.2851 7.33226 14.5322 8.03141 14.5322H10.2984C10.4519 14.5322 10.5805 14.5837 10.6843 14.6867C10.7881 14.7898 10.84 14.9174 10.84 15.0697C10.84 15.222 10.7881 15.3511 10.6843 15.4568C10.5805 15.5626 10.4519 15.6155 10.2984 15.6155H8.03237ZM9.7562 12.5418C9.60296 12.5418 9.4734 12.4903 9.36751 12.3872C9.26161 12.2842 9.20866 12.1565 9.20866 12.0042C9.20866 11.8519 9.26048 11.7229 9.36414 11.6171C9.46779 11.5114 9.59624 11.4585 9.74947 11.4585H14.2444C14.3976 11.4585 14.5272 11.51 14.6331 11.613C14.739 11.716 14.792 11.8437 14.792 11.996C14.792 12.1483 14.7401 12.2774 14.6365 12.3831C14.5328 12.4889 14.4044 12.5418 14.2511 12.5418H9.7562ZM13.7022 15.6155C13.5487 15.6155 13.4201 15.564 13.3163 15.4609C13.2125 15.3579 13.1606 15.2302 13.1606 15.0779C13.1606 14.9256 13.2125 14.7966 13.3163 14.6908C13.4201 14.5851 13.5487 14.5322 13.7022 14.5322H15.9692C16.6684 14.5322 17.265 14.2851 17.7591 13.791C18.2532 13.2969 18.5003 12.6999 18.5003 12.0001C18.5003 11.3003 18.2532 10.7034 17.7591 10.2092C17.265 9.71512 16.6684 9.46806 15.9692 9.46806H13.7022C13.5487 9.46806 13.4201 9.41654 13.3163 9.31352C13.2125 9.21049 13.1606 9.08282 13.1606 8.93052C13.1606 8.77821 13.2125 8.64918 13.3163 8.54341C13.4201 8.43765 13.5487 8.38477 13.7022 8.38477H15.9682C16.9685 8.38477 17.8211 8.73767 18.5261 9.44349C19.2311 10.1493 19.5836 11.003 19.5836 12.0044C19.5836 13.0058 19.2311 13.858 18.5261 14.561C17.8211 15.264 16.9685 15.6155 15.9682 15.6155H13.7022Z" fill="#212944"/>
</g>
</svg>
