<svg width="24" height="24" viewBox="0 0 24 24" fill="none" xmlns="http://www.w3.org/2000/svg">
<mask id="mask0_5783_28508" style="mask-type:alpha" maskUnits="userSpaceOnUse" x="0" y="0" width="24" height="24">
<rect width="24" height="24" fill="#D9D9D9"/>
</mask>
<g mask="url(#mask0_5783_28508)">
<path d="M19.5427 20.577L13.2619 14.2962C12.7619 14.7091 12.1869 15.0321 11.5369 15.2655C10.8869 15.4988 10.2145 15.6155 9.51965 15.6155C7.81048 15.6155 6.36396 15.0237 5.1801 13.8401C3.99623 12.6566 3.4043 11.2104 3.4043 9.50169C3.4043 7.79296 3.99608 6.34628 5.17965 5.16167C6.36321 3.97707 7.80936 3.38477 9.5181 3.38477C11.2268 3.38477 12.6735 3.9767 13.8581 5.16057C15.0427 6.34443 15.635 7.79095 15.635 9.50012C15.635 10.2142 15.5151 10.8963 15.2754 11.5463C15.0356 12.1963 14.7158 12.7617 14.3158 13.2424L20.5965 19.5232L19.5427 20.577ZM9.51965 14.1155C10.8081 14.1155 11.8995 13.6684 12.7937 12.7742C13.6879 11.8799 14.135 10.7886 14.135 9.50012C14.135 8.21165 13.6879 7.1203 12.7937 6.22607C11.8995 5.33183 10.8081 4.88472 9.51965 4.88472C8.23118 4.88472 7.13983 5.33183 6.2456 6.22607C5.35138 7.1203 4.90427 8.21165 4.90427 9.50012C4.90427 10.7886 5.35138 11.8799 6.2456 12.7742C7.13983 13.6684 8.23118 14.1155 9.51965 14.1155Z" fill="#B2B5BE"/>
</g>
</svg>
