<svg width="32" height="32" viewBox="0 0 32 32" fill="none" xmlns="http://www.w3.org/2000/svg">
<g clip-path="url(#clip0_6073_353537)">
<path d="M25.0872 11.2563H14.0557C12.4559 11.2563 11.1426 12.6597 11.1426 14.3693V21.5395C11.1426 23.2491 12.4559 24.6525 14.0557 24.6525H19.9057L23.75 26.9234C24.1082 27.1275 24.3947 26.9489 24.3947 26.5152V24.678H25.1111C26.7109 24.678 28.0241 23.2746 28.0241 21.565V14.3949C28.0241 12.6853 26.7109 11.2819 25.1111 11.2819L25.0872 11.2563ZM26.3766 21.565C26.3766 22.3305 25.8035 22.9429 25.0872 22.9429H22.9143V24.678L19.9535 22.9429H14.0318C13.3155 22.9429 12.7424 22.3305 12.7424 21.565V14.3949C12.7424 13.6294 13.3155 13.017 14.0318 13.017H25.0633C25.7796 13.017 26.3527 13.6294 26.3527 14.3949V21.565H26.3766Z" fill="#575D71"/>
<path d="M11.3095 22.6112L9.06495 23.938V21.3864H6.72493C5.5788 21.3864 4.67144 20.3913 4.67144 19.192V9.98056C4.67144 8.75577 5.60267 7.78615 6.72493 7.78615H20.8606C22.0067 7.78615 22.914 8.78129 22.914 9.98056V11.2309H24.5855V9.98056C24.5855 7.78615 22.914 6 20.8606 6H6.72493C4.67144 6 3 7.78615 3 9.98056V19.1665C3 21.3609 4.67144 23.147 6.72493 23.147H7.63228V25.5201C7.63228 26.0814 8.01433 26.3111 8.468 26.0559L12.1452 23.887C11.7631 23.5553 11.4766 23.096 11.3095 22.5857V22.6112Z" fill="#575D71"/>
</g>
<defs>
<clipPath id="clip0_6073_353537">
<rect width="25" height="21" fill="white" transform="translate(3 6)"/>
</clipPath>
</defs>
</svg>
