<svg width="64" height="65" viewBox="0 0 64 65" fill="none"
    xmlns="http://www.w3.org/2000/svg">
    <mask id="mask0_11073_45646" style="mask-type:alpha" maskUnits="userSpaceOnUse" x="0" y="0" width="64" height="65">
        <rect y="0.5" width="64" height="64" fill="#D9D9D9"/>
    </mask>
    <g mask="url(#mask0_11073_45646)">
        <path d="M32 31.6334L10.2667 17.0334V46.7667C10.2667 47.3889 10.4667 47.9 10.8667 48.3C11.2667 48.7 11.7778 48.9 12.4 48.9H36.6V50.3667H12.4C11.388 50.3667 10.5349 50.0198 9.84072 49.326C9.14694 48.6318 8.80005 47.7787 8.80005 46.7667V18.2334C8.80005 17.2209 9.14694 16.3678 9.84072 15.674C10.5349 14.9802 11.388 14.6334 12.4 14.6334H51.6001C52.6125 14.6334 53.4656 14.9802 54.1594 15.674C54.8532 16.3678 55.2001 17.2209 55.2001 18.2334V37.1H53.7334V17.0334L32 31.6334ZM32 29.7667L52.6667 16.1H11.3334L32 29.7667ZM49.6001 57.5667L48.6001 56.5667L54.6667 50.3667H40.2001V48.9H54.7334L48.5334 42.7L49.6001 41.7L57.5334 49.6334L49.6001 57.5667ZM10.2667 17.0334V50.3V37.1V37.6334V16.1V17.0334Z" fill="#007AFF"/>
    </g>
</svg>
