<svg width="24" height="24" viewBox="0 0 24 24" fill="none" xmlns="http://www.w3.org/2000/svg">
<mask id="mask0_11687_7782" style="mask-type:alpha" maskUnits="userSpaceOnUse" x="2" y="2" width="20" height="20">
<rect x="2" y="2" width="20" height="20" fill="#D9D9D9"/>
</mask>
<g mask="url(#mask0_11687_7782)">
<path d="M6.24874 18.5514C5.99768 18.5962 5.79042 18.5335 5.62694 18.3631C5.46349 18.1927 5.40419 17.9819 5.44907 17.7309L6.08367 14.6556L9.32401 17.9168L6.24874 18.5514ZM9.32401 17.9168L6.08367 14.6556L14.8497 5.91041C15.1093 5.6508 15.4199 5.521 15.7816 5.521C16.1432 5.521 16.4538 5.6508 16.7134 5.91041L18.09 7.26616C18.3496 7.52577 18.4794 7.83987 18.4794 8.20845C18.4794 8.57704 18.3496 8.89113 18.09 9.15075L9.32401 17.9168ZM15.5949 6.68443L7.57403 14.7181L9.28236 16.4264L17.316 8.40558C17.3641 8.3575 17.3881 8.2974 17.3881 8.22529C17.3881 8.15316 17.3641 8.09306 17.316 8.04498L15.9555 6.68443C15.9074 6.63635 15.8473 6.61231 15.7752 6.61231C15.703 6.61231 15.6429 6.63635 15.5949 6.68443Z" fill="#212944"/>
</g>
</svg>
