<svg width="32" height="32" viewBox="0 0 32 32" fill="none" xmlns="http://www.w3.org/2000/svg">
<mask id="mask0_6073_353746" style="mask-type:alpha" maskUnits="userSpaceOnUse" x="0" y="0" width="32" height="32">
<rect width="32" height="32" fill="#D9D9D9"/>
</mask>
<g mask="url(#mask0_6073_353746)">
<path d="M15.9996 23.2818L10.2561 25.7519C9.55523 26.0476 8.89284 25.9887 8.26891 25.575C7.64497 25.1613 7.33301 24.5824 7.33301 23.8383V6.66652C7.33301 6.09785 7.537 5.60811 7.94497 5.19729C8.35295 4.78647 8.84412 4.58105 9.41847 4.58105H22.5808C23.1552 4.58105 23.6463 4.78647 24.0543 5.19729C24.4623 5.60811 24.6663 6.09785 24.6663 6.66652V23.8383C24.6663 24.5824 24.3543 25.1613 23.7304 25.575C23.1064 25.9887 22.4441 26.0476 21.7432 25.7519L15.9996 23.2818Z" fill="#212944"/>
</g>
</svg>
