<svg width="24" height="24" viewBox="0 0 24 24" fill="none" xmlns="http://www.w3.org/2000/svg">
<mask id="mask0_6073_353554" style="mask-type:alpha" maskUnits="userSpaceOnUse" x="0" y="0" width="24" height="24">
<rect width="24" height="24" fill="#D9D9D9"/>
</mask>
<g mask="url(#mask0_6073_353554)">
<path d="M12 22C10.6333 22 9.34167 21.7375 8.125 21.2125C6.90833 20.6875 5.84583 19.9708 4.9375 19.0625C4.02917 18.1542 3.3125 17.0917 2.7875 15.875C2.2625 14.6583 2 13.3667 2 12C2 10.6167 2.2625 9.31667 2.7875 8.1C3.3125 6.88333 4.02917 5.825 4.9375 4.925C5.84583 4.025 6.90833 3.3125 8.125 2.7875C9.34167 2.2625 10.6333 2 12 2C13.3833 2 14.6833 2.2625 15.9 2.7875C17.1167 3.3125 18.175 4.025 19.075 4.925C19.975 5.825 20.6875 6.88333 21.2125 8.1C21.7375 9.31667 22 10.6167 22 12C22 13.3667 21.7375 14.6583 21.2125 15.875C20.6875 17.0917 19.975 18.1542 19.075 19.0625C18.175 19.9708 17.1167 20.6875 15.9 21.2125C14.6833 21.7375 13.3833 22 12 22ZM11.975 19.175C12.1583 19.175 12.3167 19.1042 12.45 18.9625C12.5833 18.8208 12.65 18.6583 12.65 18.475V17.875C13.65 17.7583 14.4375 17.4208 15.0125 16.8625C15.5875 16.3042 15.875 15.5917 15.875 14.725C15.875 13.8583 15.6375 13.1667 15.1625 12.65C14.6875 12.1333 13.8667 11.6833 12.7 11.3C11.65 10.95 10.9292 10.6042 10.5375 10.2625C10.1458 9.92083 9.95 9.475 9.95 8.925C9.95 8.40833 10.1375 8.00417 10.5125 7.7125C10.8875 7.42083 11.4 7.275 12.05 7.275C12.45 7.275 12.8083 7.35 13.125 7.5C13.4417 7.65 13.7167 7.875 13.95 8.175C14.0667 8.30833 14.2083 8.4 14.375 8.45C14.5417 8.5 14.7 8.48333 14.85 8.4C15.0333 8.31667 15.1542 8.18333 15.2125 8C15.2708 7.81667 15.2417 7.65 15.125 7.5C14.8417 7.1 14.4958 6.78333 14.0875 6.55C13.6792 6.31667 13.2167 6.175 12.7 6.125V5.525C12.7 5.34167 12.6333 5.18333 12.5 5.05C12.3667 4.91667 12.2083 4.85 12.025 4.85C11.8417 4.85 11.6792 4.91667 11.5375 5.05C11.3958 5.18333 11.325 5.34167 11.325 5.525V6.125C10.475 6.24167 9.80417 6.55 9.3125 7.05C8.82083 7.55 8.575 8.175 8.575 8.925C8.575 9.74167 8.7875 10.3917 9.2125 10.875C9.6375 11.3583 10.425 11.8167 11.575 12.25C12.7583 12.7 13.5417 13.0917 13.925 13.425C14.3083 13.7583 14.5 14.1917 14.5 14.725C14.5 15.275 14.275 15.7375 13.825 16.1125C13.375 16.4875 12.825 16.675 12.175 16.675C11.625 16.675 11.1208 16.5417 10.6625 16.275C10.2042 16.0083 9.85 15.6333 9.6 15.15C9.51667 15.0167 9.40417 14.9125 9.2625 14.8375C9.12083 14.7625 8.975 14.75 8.825 14.8C8.60833 14.8833 8.4625 15.0125 8.3875 15.1875C8.3125 15.3625 8.33333 15.5417 8.45 15.725C8.78333 16.275 9.17917 16.7208 9.6375 17.0625C10.0958 17.4042 10.6417 17.6583 11.275 17.825V18.5C11.275 18.6833 11.3458 18.8417 11.4875 18.975C11.6292 19.1083 11.7917 19.175 11.975 19.175Z" fill="#212944"/>
</g>
</svg>
