<svg width="24" height="24" viewBox="0 0 24 24" fill="none" xmlns="http://www.w3.org/2000/svg">
<mask id="mask0_9872_110441" style="mask-type:alpha" maskUnits="userSpaceOnUse" x="0" y="0" width="24" height="24">
<rect width="24" height="24" fill="#D9D9D9"/>
</mask>
<g mask="url(#mask0_9872_110441)">
<path d="M5.5 20.2499V5.3077C5.5 4.80257 5.675 4.375 6.025 4.025C6.375 3.675 6.80257 3.5 7.3077 3.5H16.6922C17.1974 3.5 17.625 3.675 17.975 4.025C18.325 4.375 18.5 4.80257 18.5 5.3077V20.2499L12 17.4615L5.5 20.2499ZM6.99997 17.95L12 15.8L17 17.95V5.3077C17 5.23077 16.9679 5.16024 16.9038 5.09613C16.8397 5.03203 16.7692 4.99998 16.6922 4.99998H7.3077C7.23077 4.99998 7.16024 5.03203 7.09613 5.09613C7.03202 5.16024 6.99997 5.23077 6.99997 5.3077V17.95Z" fill="#212944"/>
</g>
</svg>
