<svg width="32" height="32" viewBox="0 0 32 32" fill="none" xmlns="http://www.w3.org/2000/svg">
<mask id="mask0_6073_353672" style="mask-type:alpha" maskUnits="userSpaceOnUse" x="0" y="0" width="32" height="32">
<rect width="32" height="32" fill="#D9D9D9"/>
</mask>
<g mask="url(#mask0_6073_353672)">
<path d="M5.41847 27.3331C4.84541 27.3331 4.35456 27.1288 3.94594 26.7202C3.53732 26.3115 3.33301 25.8207 3.33301 25.2476V6.75197C3.33301 6.1789 3.53732 5.68806 3.94594 5.27944C4.35456 4.87081 4.84541 4.6665 5.41847 4.6665H26.5808C27.1539 4.6665 27.6447 4.87081 28.0533 5.27944C28.462 5.68806 28.6663 6.1789 28.6663 6.75197V25.2476C28.6663 25.8207 28.462 26.3115 28.0533 26.7202C27.6447 27.1288 27.1539 27.3331 26.5808 27.3331H5.41847ZM5.41847 25.6579H26.5808C26.6834 25.6579 26.7774 25.6152 26.8629 25.5297C26.9484 25.4442 26.9911 25.3502 26.9911 25.2476V6.75197C26.9911 6.64939 26.9484 6.55537 26.8629 6.46991C26.7774 6.38442 26.6834 6.34167 26.5808 6.34167H5.41847C5.3159 6.34167 5.22187 6.38442 5.13641 6.46991C5.05092 6.55537 5.00817 6.64939 5.00817 6.75197V25.2476C5.00817 25.3502 5.05092 25.4442 5.13641 25.5297C5.22187 25.6152 5.3159 25.6579 5.41847 25.6579ZM9.49881 22.0545H22.5005C22.7382 22.0545 22.9373 21.9739 23.0976 21.8128C23.2579 21.6517 23.3381 21.4517 23.3381 21.2128C23.3381 20.9739 23.2579 20.7753 23.0976 20.6169C22.9373 20.4585 22.7382 20.3793 22.5005 20.3793H9.49881C9.26105 20.3793 9.06202 20.4598 8.90171 20.6209C8.74137 20.782 8.66121 20.982 8.66121 21.2209C8.66121 21.4598 8.74137 21.6585 8.90171 21.8169C9.06202 21.9753 9.26105 22.0545 9.49881 22.0545ZM9.49881 16.8015H12.6612C12.899 16.8015 13.098 16.7213 13.2583 16.561C13.4186 16.4007 13.4988 16.2016 13.4988 15.9639V10.7827C13.4988 10.545 13.4186 10.3459 13.2583 10.1856C13.098 10.0253 12.899 9.94514 12.6612 9.94514H9.49881C9.26105 9.94514 9.06202 10.0253 8.90171 10.1856C8.74137 10.3459 8.66121 10.545 8.66121 10.7827V15.9639C8.66121 16.2016 8.74137 16.4007 8.90171 16.561C9.06202 16.7213 9.26105 16.8015 9.49881 16.8015ZM17.6475 16.8015H22.5005C22.7382 16.8015 22.9373 16.7209 23.0976 16.5598C23.2579 16.3987 23.3381 16.1988 23.3381 15.9599C23.3381 15.721 23.2579 15.5223 23.0976 15.3639C22.9373 15.2055 22.7382 15.1263 22.5005 15.1263H17.6475C17.4098 15.1263 17.2107 15.2069 17.0504 15.368C16.8901 15.5291 16.8099 15.7291 16.8099 15.968C16.8099 16.2069 16.8901 16.4055 17.0504 16.5639C17.2107 16.7223 17.4098 16.8015 17.6475 16.8015ZM17.6475 11.6203H22.5005C22.7382 11.6203 22.9373 11.5398 23.0976 11.3787C23.2579 11.2176 23.3381 11.0176 23.3381 10.7787C23.3381 10.5398 23.2579 10.3411 23.0976 10.1827C22.9373 10.0243 22.7382 9.94514 22.5005 9.94514H17.6475C17.4098 9.94514 17.2107 10.0257 17.0504 10.1868C16.8901 10.3479 16.8099 10.5479 16.8099 10.7868C16.8099 11.0257 16.8901 11.2243 17.0504 11.3827C17.2107 11.5411 17.4098 11.6203 17.6475 11.6203Z" fill="#212944"/>
</g>
</svg>
