<svg width="24" height="24" viewBox="0 0 24 24" fill="none" xmlns="http://www.w3.org/2000/svg">
<mask id="mask0_6073_353547" style="mask-type:alpha" maskUnits="userSpaceOnUse" x="0" y="0" width="24" height="24">
<rect width="24" height="24" fill="#D9D9D9"/>
</mask>
<g mask="url(#mask0_6073_353547)">
<path d="M3.51824 20.8947C3.10545 20.8947 2.74921 20.7449 2.44953 20.4452C2.14984 20.1455 2 19.7893 2 19.3765V4.51824C2 4.10545 2.14984 3.74921 2.44953 3.44953C2.74921 3.14984 3.10545 3 3.51824 3H20.4818C20.8946 3 21.2508 3.14984 21.5505 3.44953C21.8502 3.74921 22 4.10545 22 4.51824V19.3765C22 19.7893 21.8502 20.1455 21.5505 20.4452C21.2508 20.7449 20.8946 20.8947 20.4818 20.8947H3.51824ZM6.86235 16.6882H17.1376C17.3068 16.6882 17.4487 16.6305 17.5631 16.5151C17.6776 16.3996 17.7348 16.2566 17.7348 16.0859C17.7348 15.9153 17.6776 15.774 17.5631 15.662C17.4487 15.5499 17.3068 15.4939 17.1376 15.4939H6.86235C6.69316 15.4939 6.55134 15.5516 6.43688 15.6671C6.32242 15.7825 6.2652 15.9256 6.2652 16.0962C6.2652 16.2669 6.32242 16.4082 6.43688 16.5202C6.55134 16.6322 6.69316 16.6882 6.86235 16.6882ZM6.86235 12.502H9.45344C9.62263 12.502 9.76446 12.4448 9.87891 12.3303C9.99337 12.2159 10.0506 12.0741 10.0506 11.9049V7.80364C10.0506 7.63445 9.99337 7.49263 9.87891 7.37817C9.76446 7.26371 9.62263 7.20648 9.45344 7.20648H6.86235C6.69316 7.20648 6.55134 7.26371 6.43688 7.37817C6.32242 7.49263 6.2652 7.63445 6.2652 7.80364V11.9049C6.2652 12.0741 6.32242 12.2159 6.43688 12.3303C6.55134 12.4448 6.69316 12.502 6.86235 12.502ZM13.415 12.502H17.1376C17.3068 12.502 17.4487 12.4443 17.5631 12.3288C17.6776 12.2134 17.7348 12.0704 17.7348 11.8997C17.7348 11.7291 17.6776 11.5877 17.5631 11.4757C17.4487 11.3637 17.3068 11.3077 17.1376 11.3077H13.415C13.2458 11.3077 13.104 11.3654 12.9895 11.4809C12.875 11.5963 12.8178 11.7393 12.8178 11.91C12.8178 12.0806 12.875 12.222 12.9895 12.334C13.104 12.446 13.2458 12.502 13.415 12.502ZM13.415 8.4008H17.1376C17.3068 8.4008 17.4487 8.34308 17.5631 8.22765C17.6776 8.11219 17.7348 7.96914 17.7348 7.79849C17.7348 7.62784 17.6776 7.48651 17.5631 7.37451C17.4487 7.26249 17.3068 7.20648 17.1376 7.20648H13.415C13.2458 7.20648 13.104 7.2642 12.9895 7.37964C12.875 7.49508 12.8178 7.63814 12.8178 7.8088C12.8178 7.97945 12.875 8.12078 12.9895 8.23278C13.104 8.3448 13.2458 8.4008 13.415 8.4008Z" fill="#212944"/>
</g>
</svg>
