<svg width="20" height="20" viewBox="0 0 20 20" fill="none"
    xmlns="http://www.w3.org/2000/svg">
    <mask id="mask0_8424_46692" style="mask-type:alpha" maskUnits="userSpaceOnUse" x="0" y="0" width="20" height="20">
        <rect width="20" height="20" fill="#D9D9D9"/>
    </mask>
    <g mask="url(#mask0_8424_46692)">
        <path d="M8.92154 11.1635L7.52729 9.79008C7.41191 9.6747 7.28772 9.61567 7.15471 9.613C7.02169 9.61032 6.89482 9.66935 6.7741 9.79008C6.65338 9.91081 6.59302 10.0398 6.59302 10.1771C6.59302 10.3144 6.65338 10.4434 6.7741 10.5641L8.45679 12.2468C8.59354 12.3835 8.74846 12.4519 8.92154 12.4519C9.09461 12.4519 9.24952 12.3835 9.38627 12.2468L13.21 8.42306C13.3254 8.30769 13.3844 8.18002 13.3871 8.04006C13.3897 7.9001 13.3307 7.76976 13.21 7.64904C13.0893 7.52832 12.9637 7.46796 12.8334 7.46796C12.7031 7.46796 12.5775 7.52832 12.4568 7.64904L8.92154 11.1635ZM10.0015 17.5833C8.96207 17.5833 7.98148 17.386 7.05971 16.9912C6.13792 16.5965 5.3311 16.0534 4.63925 15.3619C3.94739 14.6703 3.40401 13.8639 3.0091 12.9425C2.6142 12.0212 2.41675 11.0408 2.41675 10.0014C2.41675 8.94812 2.61411 7.96406 3.00883 7.04923C3.40355 6.13438 3.94668 5.33104 4.63821 4.63919C5.32975 3.94733 6.1362 3.40394 7.05756 3.00904C7.97891 2.61414 8.95928 2.41669 9.99866 2.41669C11.0519 2.41669 12.036 2.61405 12.9508 3.00877C13.8657 3.40349 14.669 3.94662 15.3609 4.63815C16.0527 5.32969 16.5961 6.13267 16.991 7.04708C17.3859 7.96149 17.5834 8.94533 17.5834 9.9986C17.5834 11.038 17.386 12.0186 16.9913 12.9404C16.5966 13.8621 16.0534 14.669 15.3619 15.3608C14.6704 16.0527 13.8674 16.5961 12.953 16.991C12.0386 17.3859 11.0547 17.5833 10.0015 17.5833Z" fill="#007AFF"/>
    </g>
</svg>
