<svg width="144" height="36" viewBox="0 0 144 36" fill="none"
    xmlns="http://www.w3.org/2000/svg">
    <path d="M101.847 27.4898L98.7246 20.2041H97.9287V28.2857H98.541V21.2449L101.541 28.2857H102.153L105.031 21.2449V28.2857H105.704V20.2041H104.847L101.847 27.4898Z" fill="#000928"/>
    <path d="M124.316 24.2449C124.316 24.0612 124.316 23.9388 124.255 23.7551C124.255 23.5714 124.132 23.3878 124.071 23.2041C124.01 23.0204 123.826 22.898 123.704 22.7143C123.52 22.5919 123.337 22.4694 123.092 22.347C122.847 22.2857 122.541 22.2245 122.235 22.2245C121.928 22.2245 121.806 22.2245 121.561 22.347C121.316 22.347 121.132 22.5306 120.949 22.6531C120.765 22.7755 120.581 22.898 120.459 23.0817C120.398 23.1429 120.337 23.2653 120.275 23.3878V20.2041H119.663V28.2857H120.275V25.1021C120.275 24.7347 120.275 24.4286 120.398 24.1837C120.459 23.8776 120.643 23.6327 120.765 23.449C120.949 23.2653 121.132 23.0817 121.377 22.9592C121.622 22.8368 121.928 22.7755 122.235 22.7755C122.541 22.7755 122.908 22.8368 123.092 22.9592C123.275 23.0817 123.459 23.2653 123.581 23.449C123.704 23.6327 123.765 23.8163 123.765 24.0612C123.765 24.2449 123.765 24.4286 123.765 24.6123V28.2857H124.377V24.6735C124.377 24.551 124.377 24.4286 124.377 24.2449H124.316Z" fill="#000928"/>
    <path d="M117.642 25.3469C117.459 25.2244 117.214 25.102 116.969 25.0407C116.724 24.9795 116.418 24.9183 116.173 24.8571C115.928 24.8571 115.683 24.7346 115.5 24.6734C115.255 24.6734 115.071 24.5509 114.887 24.4897C114.704 24.4285 114.581 24.306 114.459 24.1836C114.336 24.0611 114.336 23.8775 114.336 23.6938C114.336 23.5101 114.336 23.3264 114.459 23.204C114.581 23.0815 114.704 22.9591 114.826 22.8979C114.949 22.8367 115.132 22.7754 115.316 22.7142C115.745 22.653 116.173 22.653 116.54 22.7142C116.724 22.7142 116.908 22.8367 117.03 22.9591C117.153 23.0815 117.275 23.204 117.336 23.3877C117.398 23.5713 117.459 23.755 117.459 23.9999C117.459 24.0611 118.071 24.0611 118.071 24.0611C118.071 23.6326 118.071 23.3264 117.887 23.1428C117.765 22.8979 117.642 22.7142 117.398 22.5305C117.214 22.3469 116.969 22.2856 116.663 22.2244C116.173 22.102 115.622 22.102 115.071 22.2244C114.826 22.2244 114.581 22.3469 114.398 22.4693C114.214 22.5918 114.03 22.7754 113.908 22.9591C113.785 23.1428 113.724 23.3877 113.724 23.6938C113.724 23.9999 113.847 24.4285 114.03 24.6122C114.214 24.7958 114.459 24.9795 114.765 25.102C115.071 25.2244 115.377 25.2856 115.745 25.3469C116.051 25.3469 116.418 25.4693 116.663 25.5305C116.969 25.5918 117.153 25.7142 117.336 25.8979C117.52 26.0203 117.581 26.2652 117.581 26.5713C117.581 26.8775 117.581 26.9999 117.398 27.1224C117.275 27.2448 117.153 27.3673 116.969 27.4897C116.785 27.5509 116.602 27.6122 116.418 27.6734C115.928 27.7346 115.5 27.7346 115.132 27.6734C114.949 27.6122 114.704 27.4897 114.581 27.3673C114.398 27.2448 114.275 27.0611 114.214 26.8775C114.091 26.6938 114.03 26.4489 114.03 26.204C114.03 26.1428 113.418 26.1428 113.418 26.1428C113.418 26.5713 113.479 26.8775 113.602 27.1224C113.724 27.3673 113.908 27.6122 114.091 27.7958C114.336 27.9795 114.581 28.102 114.826 28.2244C115.132 28.2856 115.438 28.3469 115.745 28.3469C116.051 28.3469 116.296 28.3469 116.54 28.2856C116.785 28.2856 117.091 28.1632 117.275 28.0407C117.52 27.9183 117.704 27.7346 117.826 27.5509C117.949 27.3673 118.071 27.0611 118.071 26.755C118.071 26.4489 118.071 26.204 117.887 25.9591C117.765 25.7754 117.642 25.5918 117.459 25.4693L117.642 25.3469Z" fill="#000928"/>
    <path d="M111.643 23.0205C111.398 22.7756 111.153 22.5307 110.847 22.4082C110.541 22.2858 110.173 22.1633 109.745 22.1633C109.316 22.1633 108.888 22.2246 108.581 22.4082C108.275 22.5919 107.969 22.8368 107.724 23.0817C107.479 23.3878 107.357 23.6939 107.234 24.0613C107.112 24.4286 107.051 24.8572 107.051 25.2246C107.051 25.5919 107.051 26.0205 107.234 26.3878C107.357 26.7552 107.479 27.0613 107.724 27.3674C107.969 27.6123 108.214 27.8572 108.52 28.0409C108.826 28.2246 109.255 28.2858 109.683 28.2858C110.418 28.2858 110.969 28.1021 111.398 27.7348C111.826 27.3674 112.132 26.8164 112.255 26.1429V26.0205H111.704C111.581 26.5715 111.336 27.0001 111.03 27.3062C110.724 27.6123 110.296 27.7348 109.745 27.7348C109.194 27.7348 109.132 27.6735 108.826 27.5511C108.581 27.4286 108.336 27.245 108.214 27.0001C108.03 26.7552 107.908 26.5103 107.847 26.2041C107.785 25.898 107.724 25.5919 107.724 25.2858H112.377C112.377 25.1633 112.377 25.1633 112.377 25.1021V24.9797C112.377 24.6123 112.377 24.245 112.194 23.8776C112.071 23.5103 111.888 23.2041 111.704 22.9592L111.643 23.0205ZM107.663 24.8572C107.663 24.6123 107.724 24.3674 107.847 24.1225C107.969 23.8776 108.092 23.6327 108.275 23.3878C108.459 23.2041 108.643 23.0205 108.888 22.898C109.132 22.7756 109.439 22.7143 109.745 22.7143C110.051 22.7143 110.357 22.7144 110.541 22.898C110.785 23.0205 110.969 23.2041 111.153 23.3878C111.336 23.5715 111.459 23.8164 111.52 24.1225C111.581 24.3674 111.643 24.6123 111.643 24.9184H107.602L107.663 24.8572Z" fill="#000928"/>
    <path d="M131.908 10.2858C131.724 10.2858 131.54 10.2246 131.418 10.2246C130.989 10.2246 130.622 10.3471 130.377 10.5307C130.194 10.6532 130.071 10.8369 129.949 11.0205V10.2858H128.234V16.2246H130.01V12.4899C130.132 12.245 130.377 12.1226 130.622 12.0001C130.867 11.8777 131.234 11.8164 131.602 11.8164H131.969V10.2858H131.908Z" fill="#000928"/>
    <path d="M103.378 12.1225C103.684 11.6939 103.867 11.2041 103.867 10.6531C103.867 10.2858 103.806 9.91843 103.623 9.55108C103.439 9.24496 103.194 8.93883 102.888 8.75516C102.582 8.51026 102.153 8.38781 101.786 8.26536C101.357 8.14292 100.867 8.08169 100.378 8.14292H97.9287V16.2245H99.7654V13.347H100.194L102.521 16.2245H104.847L102.092 12.9797C102.643 12.796 103.072 12.4899 103.378 12.1225ZM102.031 10.7143C102.031 11.1429 101.847 11.449 101.541 11.6327C101.235 11.8164 100.745 11.9388 100.194 11.9388H99.7654V9.6123H100.378C100.867 9.6123 101.296 9.67353 101.602 9.8572C101.908 10.0409 102.031 10.2858 102.031 10.6531V10.7143Z" fill="#000928"/>
    <path d="M107.234 12.8571H110.173V11.3877H107.234V9.61221H110.357V8.14282H105.397V16.2245H110.357V14.7551H107.234V12.8571Z" fill="#000928"/>
    <path d="M125.908 9.30609C125.479 8.93874 124.989 8.63262 124.438 8.44894C123.826 8.26527 123.152 8.14282 122.479 8.14282H119.969V16.2245H122.479C122.479 16.2245 122.479 16.2245 122.54 16.2245C123.152 16.2245 123.826 16.102 124.377 15.9183C124.928 15.7347 125.418 15.4285 125.846 15.0612C126.275 14.6938 126.581 14.2653 126.826 13.7755C127.254 12.7347 127.254 11.5714 126.826 10.5306C126.581 10.0408 126.275 9.61221 125.846 9.24486L125.908 9.30609ZM125.173 13.2857C125.05 13.5918 124.867 13.8367 124.561 14.0816C124.316 14.3265 124.01 14.4489 123.642 14.5714C123.275 14.6938 122.908 14.7551 122.479 14.7551H121.805V9.61221H122.479C122.846 9.61221 123.214 9.61221 123.581 9.79588C123.887 9.91833 124.193 10.102 124.499 10.2857C124.744 10.5306 124.928 10.7755 125.112 11.0816C125.418 11.7551 125.418 12.551 125.112 13.2245L125.173 13.2857Z" fill="#000928"/>
    <path d="M116.05 8.14282H114.091L110.969 16.2245H112.867L113.418 14.5714H116.601L117.152 16.2245H119.05L115.989 8.20405L116.05 8.14282ZM116.173 13.102H114.03L115.132 9.85711L116.234 13.102H116.173Z" fill="#000928"/>
    <path d="M36.5201 9.1837V13.8368C36.5201 15.7347 35.0507 17.2653 33.2139 17.2653H28.316C27.6425 17.2653 26.969 17.0817 26.418 16.6531L22.9895 20.2041C23.3568 20.7551 23.6017 21.4898 23.6017 22.1633V26.8164C23.6017 28.7143 22.1323 30.2449 20.2956 30.2449H15.3976C13.5609 30.2449 12.0915 28.7143 12.0915 26.8164V22.1633C12.0915 20.2653 13.5609 18.7347 15.3976 18.7347H20.2956C21.0303 18.7347 21.7037 18.9796 22.316 19.4082L25.6833 15.9184C25.1935 15.3061 25.0099 14.5715 25.0099 13.8368V9.1837C25.0099 7.28574 26.4793 5.75513 28.316 5.75513H33.2139C35.0507 5.75513 36.5201 7.28574 36.5201 9.1837ZM36.5201 22.1633V26.8164C36.5201 28.7143 35.0507 30.2449 33.2139 30.2449H28.316C26.4793 30.2449 25.0099 28.7143 25.0099 26.8164V22.1633C25.0099 20.2653 26.4793 18.7347 28.316 18.7347H33.2139C35.0507 18.7347 36.5201 20.2653 36.5201 22.1633ZM25.867 22.1633V26.8164C25.867 28.2245 26.969 29.3266 28.316 29.3266H33.2139C34.5609 29.3266 35.6629 28.2245 35.6629 26.8164V22.1633C35.6629 20.7551 34.5609 19.6531 33.2139 19.6531H28.316C26.969 19.6531 25.867 20.7551 25.867 22.1633ZM12.0303 13.898V9.24492C12.0303 7.34696 13.4997 5.81635 15.3364 5.81635H20.2344C22.0711 5.81635 23.5405 7.34696 23.5405 9.24492V13.898C23.5405 15.7959 22.0711 17.3266 20.2344 17.3266H15.3364C13.4997 17.3266 12.0303 15.7959 12.0303 13.898ZM15.3364 16.4082H20.2344C21.5813 16.4082 22.6833 15.3061 22.6833 13.898V9.24492C22.6833 7.83676 21.5813 6.73472 20.2344 6.73472H15.3364C13.9895 6.73472 12.8874 7.83676 12.8874 9.24492V13.898C12.8874 15.3061 13.9895 16.4082 15.3364 16.4082Z" fill="#000928"/>
    <path d="M49.5605 16.9592H61.6218V12.8572H49.5605V16.9592ZM57.9483 14.1429H59.9075V15.6123H57.9483V14.1429ZM54.581 14.1429H56.5401V15.6123H54.581V14.1429ZM51.2136 14.1429H53.1728V15.6123H51.2136V14.1429Z" fill="#000928"/>
    <path d="M54.7648 10.7756H49.9893V12.1226H61.2546V10.7756H56.6015V9.85726H62.0505V8.38787H56.6015V7.22461H54.7648V8.38787H49.1934V9.85726H54.7648V10.7756Z" fill="#000928"/>
    <path d="M42.0303 27.9185H43.8058H46.5609H48.3364V20.0205H42.0303V27.9185ZM43.8058 21.6736H46.5609V26.2042H43.8058V21.6736Z" fill="#000928"/>
    <path d="M62.3572 26.9388C61.1328 26.3878 59.847 25.8368 58.4389 25.4694H60.8879V17.7551H50.296V25.4694H53.0511C51.8879 26.0204 50.4185 26.449 48.7042 26.8164H48.5205L49.2552 28.347H49.3777C51.5205 27.7959 53.2348 27.1225 54.643 26.3878H54.7654C54.7654 26.3266 54.0307 25.4694 54.0307 25.4694H57.0307L56.4185 26.3266H56.6021C58.194 26.8164 59.7858 27.4898 61.4389 28.2857H61.5613L62.4797 27H62.3572V26.9388ZM52.0103 18.9796H59.0511V19.898H52.0103V18.9796ZM52.0103 21.0613H59.0511V21.9184H52.0103V21.0613ZM52.0103 24.0612V23.1429H59.0511V24.0612H52.0103Z" fill="#000928"/>
    <path d="M48.2145 16.6531H42.1533V18.3061H48.2145V16.6531Z" fill="#000928"/>
    <path d="M48.8261 10.102H47.6016H46.3159V7.34692H44.4792V10.102H44.3567H41.5404H41.418V11.8775H48.8261V10.102Z" fill="#000928"/>
    <path d="M48.2145 13.4695H42.1533V15.1225H48.2145V13.4695Z" fill="#000928"/>
    <path d="M79.6224 14.6939H84.5815V13.1633H80.3571C79.806 13.1633 79.7448 12.9184 79.7448 12.6735V11.6939H84.2142V7.40815H78.0305V13.3469C78.0305 14.2653 78.5816 14.6939 79.6224 14.6939ZM79.7448 10.2245V8.81631H82.4999V10.2245H79.7448ZM71.7856 9.7959V7.95917H75.8265V9.7959H71.7856ZM86.7244 14.6326H91.6836V13.102H87.4591C86.9081 13.102 86.8469 12.8571 86.8469 12.6122V11.6326H91.3162V7.34692H85.1326V13.2857C85.1326 14.2041 85.6836 14.6326 86.7244 14.6326ZM86.8469 10.1633V8.75509H89.602V10.1633H86.8469ZM92.5407 26.0816L92.1122 27.9796H86.1734C84.3979 27.9796 82.806 27.9796 81.4591 27.9184C79.8673 27.9184 78.5816 27.6735 77.7244 27.2449C76.7448 26.8163 75.8265 26.2041 75.0305 25.3469C74.8469 25.1633 74.6632 25.102 74.5407 25.102C74.1734 25.102 73.4387 25.5918 72.153 28.102V28.2245C72.0918 28.2245 70.6836 26.9388 70.6836 26.9388C71.7856 24.8571 72.7652 23.6939 73.806 23.3265C74.2346 22.1633 74.602 20.8775 74.9081 19.3469H71.5407V17.8775C72.6428 16.5918 73.5611 15.3673 74.2958 14.0816H70.9285V12.3061H76.4999V13.7755C75.7652 15.1224 74.8469 16.3469 73.8673 17.6326H76.806V18.8571C76.4387 20.8163 76.0714 22.3469 75.6428 23.5102C75.8265 23.6326 76.0101 23.7551 76.1938 23.9388C76.8673 24.6122 77.6632 25.1633 78.3979 25.4694C79.1326 25.7755 80.1734 25.8979 81.5203 25.9592C82.1326 25.9592 82.7448 25.9592 83.4183 25.9592C84.2142 25.9592 85.0101 25.9592 85.9285 25.9592C87.704 25.9592 90.0305 25.9592 92.3571 25.8367H92.5407V26.0816ZM82.3775 21.6735C81.2142 22.5918 79.7448 23.449 78.0305 24.1837H77.8469C77.8469 24.2449 78.9489 25.653 78.9489 25.653H79.0713C80.8469 24.7959 82.3775 23.8775 83.602 22.7755L83.7244 22.653L82.5611 21.6122H86.602L85.6836 22.8979H85.806C87.4591 23.6326 89.0509 24.551 90.5816 25.653H90.704C90.704 25.7143 91.6836 24.2449 91.6836 24.2449H91.5611C90.153 23.2041 88.5611 22.3469 86.7244 21.6122H91.9897V19.8979H88.255V18.0612H91.3162V16.3469H88.255V14.8163H86.4795V16.3469H82.9285V14.8163H81.153V16.3469H78.0305V18.0612H81.153V19.8979H77.4183V21.6122H82.3162L82.3775 21.6735ZM82.9897 19.9592V18.1224H86.5407V19.9592H82.9897Z" fill="#000928"/>
</svg>
