<svg width="32" height="32" viewBox="0 0 32 32" fill="none" xmlns="http://www.w3.org/2000/svg">
<mask id="mask0_6073_353748" style="mask-type:alpha" maskUnits="userSpaceOnUse" x="0" y="0" width="32" height="32">
<rect width="32" height="32" fill="#D9D9D9"/>
</mask>
<g mask="url(#mask0_6073_353748)">
<path d="M14.3249 28.6668C14.0115 28.6668 13.7353 28.5641 13.4963 28.3586C13.2573 28.1532 13.1138 27.8961 13.066 27.5873L12.6412 24.6411C12.2178 24.4975 11.7681 24.291 11.292 24.0215C10.8159 23.7519 10.4015 23.4656 10.0488 23.1625L7.35049 24.3787C7.04909 24.5064 6.74697 24.5206 6.44412 24.4215C6.14128 24.3223 5.90581 24.1311 5.73772 23.848L4.05055 20.8822C3.88247 20.599 3.83375 20.3051 3.90442 20.0006C3.97507 19.696 4.14144 19.444 4.40355 19.2446L6.83859 17.4335C6.7987 17.2113 6.77007 16.9745 6.75269 16.7232C6.73531 16.4719 6.72662 16.2352 6.72662 16.013C6.72662 15.7993 6.73531 15.5675 6.75269 15.3176C6.77007 15.0678 6.7987 14.8175 6.83859 14.5668L4.40355 12.7557C4.14144 12.5562 3.9772 12.3021 3.91082 11.9933C3.84444 11.6845 3.8953 11.3885 4.06339 11.1053L5.73772 8.17793C5.90581 7.90331 6.14128 7.71429 6.44412 7.61086C6.74697 7.50744 7.04909 7.51955 7.35049 7.6472L10.036 8.84206C10.4143 8.53609 10.8342 8.25047 11.2954 7.98523C11.7567 7.71996 12.201 7.51868 12.6284 7.38136L13.066 4.41296C13.1138 4.10414 13.2573 3.84703 13.4963 3.64163C13.7353 3.43621 14.0115 3.3335 14.3249 3.3335H17.6753C17.9887 3.3335 18.2649 3.43621 18.5039 3.64163C18.7429 3.84703 18.8864 4.10414 18.9342 4.41296L19.359 7.37196C19.8194 7.54119 20.2671 7.7476 20.7022 7.9912C21.1373 8.2348 21.5408 8.51842 21.9129 8.84206L24.6625 7.6472C24.9639 7.51955 25.2638 7.50744 25.5621 7.61086C25.8603 7.71429 26.0935 7.90331 26.2616 8.17793L27.9496 11.1181C28.1177 11.4013 28.1664 11.6988 28.0958 12.0108C28.0251 12.3228 27.8587 12.571 27.5966 12.7557L25.1103 14.5693C25.1673 14.8178 25.2016 15.0627 25.2133 15.304C25.225 15.5453 25.2308 15.7773 25.2308 16.0001C25.2308 16.2144 25.2228 16.4399 25.2069 16.6766C25.1909 16.9134 25.1565 17.166 25.1035 17.4343L27.5513 19.2446C27.8134 19.4292 27.982 19.6775 28.0569 19.9895C28.1318 20.3014 28.0852 20.599 27.9171 20.8822L26.2445 23.8351C26.0707 24.1183 25.8303 24.3095 25.5232 24.4086C25.216 24.5078 24.9146 24.4935 24.6189 24.3659L21.9129 23.1496C21.526 23.4699 21.1149 23.7621 20.6796 24.0262C20.2442 24.2903 19.804 24.491 19.359 24.6283L18.9342 27.5873C18.8864 27.8961 18.7429 28.1532 18.5039 28.3586C18.2649 28.5641 17.9887 28.6668 17.6753 28.6668H14.3249ZM15.9796 19.8377C17.0468 19.8377 17.9532 19.4649 18.6988 18.7193C19.4443 17.9738 19.8171 17.0674 19.8171 16.0001C19.8171 14.9329 19.4443 14.0265 18.6988 13.2809C17.9532 12.5354 17.0468 12.1626 15.9796 12.1626C14.9135 12.1626 14.0074 12.5354 13.2612 13.2809C12.5151 14.0265 12.142 14.9329 12.142 16.0001C12.142 17.0674 12.5151 17.9738 13.2612 18.7193C14.0074 19.4649 14.9135 19.8377 15.9796 19.8377Z" fill="#212944"/>
</g>
</svg>
