<svg width="131" height="48" viewBox="0 0 131 48" fill="none" xmlns="http://www.w3.org/2000/svg">
<path d="M119.254 0H11.7531C11.314 0 10.8802 0 10.4424 0.0024C10.0758 0.0048 9.7122 0.011772 9.34213 0.01764C8.53817 0.0271222 7.73611 0.0980115 6.9429 0.229692C6.15081 0.364239 5.38354 0.617899 4.66702 0.982092C3.95139 1.34937 3.29749 1.8266 2.72905 2.39648C2.15763 2.96476 1.6813 3.62162 1.31839 4.34179C0.95448 5.06053 0.702142 5.83073 0.570093 6.62578C0.43679 7.41982 0.365058 8.22303 0.355541 9.02818C0.34443 9.3961 0.343257 9.76524 0.337402 10.1332V37.8703C0.343257 38.2429 0.34443 38.6039 0.355541 38.9766C0.36506 39.7817 0.436792 40.5849 0.570093 41.3789C0.701777 42.1744 0.95413 42.945 1.31839 43.664C1.68114 44.3819 2.15753 45.0361 2.72905 45.6012C3.29533 46.1736 3.94965 46.6512 4.66702 47.0156C5.38353 47.3808 6.15073 47.636 6.9429 47.7726C7.73624 47.9032 8.53823 47.9741 9.34213 47.9848C9.7122 47.9929 10.0758 47.9976 10.4424 47.9976C10.8802 48 11.314 48 11.7531 48H119.254C119.684 48 120.121 48 120.552 47.9976C120.916 47.9976 121.291 47.9929 121.655 47.9848C122.458 47.9747 123.258 47.9038 124.05 47.7726C124.845 47.635 125.615 47.3799 126.335 47.0156C127.051 46.651 127.705 46.1734 128.271 45.6012C128.841 45.0339 129.318 44.3801 129.686 43.664C130.047 42.9445 130.297 42.1739 130.427 41.3789C130.56 40.5848 130.635 39.7818 130.649 38.9766C130.654 38.6039 130.654 38.2429 130.654 37.8703C130.663 37.4344 130.663 37.0008 130.663 36.5578V11.4434C130.663 11.0039 130.663 10.568 130.654 10.1332C130.654 9.76524 130.654 9.3961 130.649 9.02813C130.635 8.22291 130.56 7.41988 130.427 6.62573C130.297 5.83114 130.047 5.061 129.686 4.34174C128.946 2.89824 127.775 1.72323 126.335 0.981984C125.615 0.618681 124.845 0.365089 124.05 0.229584C123.258 0.0973234 122.458 0.0264093 121.655 0.017472C121.291 0.011616 120.916 0.004584 120.552 0.002244C120.121 0 119.684 0 119.254 0Z" fill="#A6A6A6"/>
<path d="M10.4484 46.9498C10.0836 46.9498 9.72763 46.9451 9.3657 46.937C8.61594 46.9272 7.86794 46.8617 7.12782 46.7412C6.4377 46.6221 5.76915 46.4005 5.14424 46.0838C4.52506 45.7696 3.96032 45.3577 3.47164 44.8638C2.9759 44.3758 2.56317 43.8097 2.24981 43.188C1.933 42.5623 1.71374 41.8917 1.59969 41.1994C1.47652 40.4555 1.40988 39.7034 1.40034 38.9494C1.39275 38.6963 1.38281 37.8537 1.38281 37.8537V10.133C1.38281 10.133 1.3934 9.30332 1.4004 9.05956C1.40953 8.30678 1.47578 7.55579 1.59859 6.81308C1.71285 6.1189 1.93228 5.4463 2.24926 4.81856C2.56147 4.19734 2.97191 3.63084 3.46466 3.14102C3.95687 2.64655 4.52342 2.23253 5.14366 1.91406C5.76713 1.59832 6.43441 1.37828 7.12314 1.26133C7.86569 1.13961 8.61629 1.0738 9.36865 1.06446L10.449 1.0498H120.546L121.639 1.06504C122.385 1.07392 123.128 1.13914 123.864 1.26015C124.56 1.37857 125.234 1.60014 125.865 1.91757C127.107 2.55939 128.118 3.5748 128.756 4.82149C129.068 5.4449 129.284 6.11201 129.397 6.8002C129.521 7.54901 129.591 8.3059 129.605 9.06486C129.609 9.4047 129.609 9.76974 129.609 10.133C129.618 10.583 129.618 11.0113 129.618 11.4432V36.5576C129.618 36.9935 129.618 37.4189 129.609 37.8478C129.609 38.238 129.609 38.5955 129.604 38.9634C129.59 39.7089 129.522 40.4522 129.399 41.1876C129.288 41.8849 129.069 42.5608 128.753 43.1916C128.437 43.8065 128.027 44.3677 127.537 44.8545C127.048 45.351 126.482 45.7653 125.861 46.0815C125.232 46.4007 124.559 46.6231 123.864 46.7412C123.124 46.8624 122.376 46.9278 121.626 46.937C121.276 46.9451 120.908 46.9498 120.552 46.9498L119.254 46.9522L10.4484 46.9498Z" fill="black"/>
<path d="M49.6261 19.8656H44.7752L43.6103 23.3132H41.5557L46.1503 10.5581H48.2851L52.8797 23.3132H50.79L49.6261 19.8656ZM45.2776 18.2747H49.1227L47.2272 12.6796H47.1742L45.2776 18.2747Z" fill="white"/>
<path d="M62.8025 18.6637C62.8025 21.5536 61.2592 23.4103 58.9304 23.4103C58.3404 23.4412 57.7537 23.305 57.2374 23.0173C56.7211 22.7295 56.2961 22.3019 56.0111 21.7833H55.967V26.3894H54.0625V14.0135H55.906V15.5603H55.941C56.2392 15.0442 56.6714 14.6187 57.1916 14.3293C57.7118 14.0398 58.3006 13.897 58.8954 13.9163C61.2502 13.9162 62.8025 15.7819 62.8025 18.6637ZM60.8449 18.6637C60.8449 16.7809 59.8741 15.5432 58.393 15.5432C56.9378 15.5432 55.959 16.8071 55.959 18.6637C55.959 20.5375 56.9378 21.7923 58.393 21.7923C59.8742 21.7923 60.8449 20.5635 60.8449 18.6637H60.8449Z" fill="white"/>
<path d="M73.0154 18.6637C73.0154 21.5536 71.4716 23.4103 69.1428 23.4103C68.5528 23.4412 67.9661 23.305 67.4498 23.0173C66.9335 22.7295 66.5085 22.3019 66.2234 21.7833H66.1794V26.3894H64.2749V14.0135H66.1184V15.5603H66.1534C66.4516 15.0442 66.8838 14.6187 67.404 14.3293C67.9242 14.0398 68.513 13.897 69.1078 13.9163C71.4626 13.9162 73.0154 15.7819 73.0154 18.6637ZM71.0573 18.6637C71.0573 16.7809 70.0865 15.5432 68.6053 15.5432C67.1502 15.5432 66.1714 16.8071 66.1714 18.6637C66.1714 20.5375 67.1502 21.7923 68.6053 21.7923C70.0865 21.7923 71.0573 20.5635 71.0573 18.6637H71.0573Z" fill="white"/>
<path d="M79.7635 19.759C79.9046 21.0239 81.1306 21.8545 82.8059 21.8545C84.4112 21.8545 85.5661 21.0239 85.5661 19.8834C85.5661 18.8934 84.8696 18.3006 83.2203 17.8943L81.571 17.4961C79.2341 16.9304 78.1492 15.835 78.1492 14.0576C78.1492 11.8568 80.0628 10.3452 82.7789 10.3452C85.4691 10.3452 87.3125 11.8568 87.3746 14.0576H85.452C85.337 12.7847 84.2871 12.0164 82.7529 12.0164C81.2187 12.0164 80.1688 12.7938 80.1688 13.9252C80.1688 14.827 80.8393 15.3576 82.4797 15.7639L83.8818 16.1089C86.4929 16.7278 87.5768 17.779 87.5768 19.6447C87.5768 22.0311 85.6812 23.5256 82.6648 23.5256C79.8426 23.5256 77.9371 22.0662 77.814 19.7591L79.7635 19.759Z" fill="white"/>
<path d="M91.6889 11.8126V14.0134H93.4533V15.525H91.6889V20.6517C91.6889 21.4481 92.0421 21.8193 92.8178 21.8193C93.0272 21.8156 93.2364 21.8009 93.4443 21.7752V23.2778C93.0956 23.3431 92.7411 23.3726 92.3864 23.366C90.5079 23.366 89.7753 22.6589 89.7753 20.8554V15.525H88.4263V14.0133H89.7753V11.8125L91.6889 11.8126Z" fill="white"/>
<path d="M94.4741 18.6635C94.4741 15.7376 96.1935 13.8989 98.8746 13.8989C101.565 13.8989 103.276 15.7376 103.276 18.6635C103.276 21.5975 101.574 23.4281 98.8746 23.4281C96.1765 23.4281 94.4741 21.5975 94.4741 18.6635ZM101.336 18.6635C101.336 16.6564 100.418 15.4717 98.8746 15.4717C97.3314 15.4717 96.4137 16.6654 96.4137 18.6635C96.4137 20.6787 97.3314 21.8543 98.8746 21.8543C100.418 21.8543 101.336 20.6787 101.336 18.6635Z" fill="white"/>
<path d="M104.847 14.0135H106.663V15.5963H106.707C106.83 15.102 107.119 14.6651 107.525 14.3591C107.932 14.0532 108.431 13.8967 108.939 13.9162C109.158 13.9154 109.377 13.9393 109.591 13.9874V15.7729C109.314 15.688 109.025 15.649 108.736 15.6575C108.459 15.6462 108.183 15.6951 107.927 15.8008C107.671 15.9065 107.441 16.0665 107.252 16.2697C107.064 16.473 106.921 16.7148 106.835 16.9784C106.748 17.2421 106.72 17.5213 106.751 17.7971V23.313H104.847V14.0135Z" fill="white"/>
<path d="M118.372 20.5814C118.163 21.4602 117.643 22.2331 116.908 22.7566C116.173 23.2801 115.274 23.5187 114.377 23.4281C111.678 23.4281 110.002 21.6156 110.002 18.7076C110.002 15.7907 111.687 13.8989 114.297 13.8989C116.864 13.8989 118.478 15.6663 118.478 18.486V19.14H111.925V19.2553C111.895 19.5976 111.937 19.9424 112.05 20.2668C112.163 20.5912 112.344 20.8878 112.58 21.1369C112.816 21.3861 113.102 21.582 113.42 21.7117C113.737 21.8415 114.078 21.902 114.421 21.8894C114.871 21.9317 115.323 21.8272 115.709 21.5915C116.095 21.3559 116.395 21.0016 116.564 20.5814L118.372 20.5814ZM111.934 17.8059H116.573C116.59 17.4982 116.543 17.1902 116.436 16.9014C116.329 16.6125 116.163 16.349 115.949 16.1274C115.736 15.9058 115.479 15.7308 115.194 15.6135C114.91 15.4962 114.604 15.439 114.297 15.4457C113.987 15.4438 113.679 15.5035 113.392 15.6214C113.105 15.7392 112.844 15.9129 112.625 16.1323C112.405 16.3518 112.231 16.6126 112.112 16.8999C111.994 17.1871 111.933 17.495 111.934 17.8059Z" fill="white"/>
<path d="M41.5581 28.8481H50.4915V29.7845H46.2449V31.1087C46.8535 31.3911 47.466 31.7024 48.0823 32.0427C48.6985 32.3825 49.3219 32.7474 49.9525 33.1372L49.4024 33.9974C48.7534 33.5825 48.1704 33.2169 47.6532 32.9005C47.1358 32.5841 46.6664 32.3212 46.2449 32.1118V37.6419H45.2984V29.7845H41.5581L41.5581 28.8481Z" fill="white"/>
<path d="M53.0199 28.9465H54.7416V28.418H55.6548V28.9465H57.3215V29.6965H55.6547V30.2367H58.0206C57.9984 29.9578 57.9873 29.6656 57.9873 29.3602V28.418H58.8788C58.8788 28.7414 58.8823 29.0566 58.8893 29.366C58.8969 29.6742 58.9081 29.9644 58.9227 30.2367H61.3318V31.0254H58.9554C58.9776 31.5843 59.0115 32.0777 59.0572 32.5054C59.1034 32.9343 59.1553 33.3058 59.2144 33.6222C59.229 33.7218 59.2442 33.8109 59.2612 33.8894C59.2776 33.9691 59.2969 34.0488 59.3185 34.1297C59.4885 33.7347 59.6365 33.3306 59.7616 32.9191C59.899 32.4638 60.0101 32.0009 60.0943 31.5328L60.9028 31.8961C60.6654 33.1182 60.2483 34.2983 59.6652 35.3977C59.7213 35.5552 59.7855 35.7097 59.8575 35.8605C60.0668 36.3129 60.2429 36.5391 60.386 36.5391C60.4994 36.5391 60.6167 36.0262 60.7379 35.0004L61.5137 35.4305C61.2828 36.8824 60.949 37.6086 60.5123 37.609C60.1896 37.609 59.8211 37.3039 59.4068 36.6937C59.2946 36.5455 59.2039 36.3822 59.1373 36.2086C58.7928 36.66 58.3743 37.0496 57.8996 37.3606L57.4705 36.7547H55.622V37.5973H54.7416V36.7547H52.492V35.9825H54.7416V35.5524H52.9866V32.6414H54.7416V32.2441H52.6236V31.5328H54.7416V31.152H55.622V31.5329H57.7289V32.2442H55.622V32.6414H57.415V35.5524H55.622V35.9825H57.7178V36.3903C58.1171 36.0613 58.4591 35.668 58.7297 35.2266C58.6643 35.025 58.6064 34.8141 58.5567 34.5961C58.507 34.377 58.4565 34.1426 58.4053 33.893C58.2126 32.948 58.0949 31.9891 58.0534 31.0254H52.3984V30.2368H54.7416V29.6965H53.0199V28.9465ZM53.7735 33.7828H54.8076V33.2859H53.7735V33.7828ZM54.8076 34.8902V34.3664H53.7735V34.8902H54.8076ZM55.5781 33.2859V33.7828H56.6123V33.2859H55.5781ZM56.6123 34.8902V34.3664H55.5781V34.8902H56.6123ZM59.2583 28.8691L59.9236 28.4391C60.3157 28.8362 60.6712 29.268 60.9858 29.7293L60.2977 30.2262C60.1697 30.0199 60.0212 29.8055 59.8523 29.5805C59.6833 29.3566 59.4853 29.1195 59.2582 28.8691L59.2583 28.8691Z" fill="white"/>
<path d="M29.9929 24.3608C30.0057 23.3592 30.2712 22.3771 30.7645 21.506C31.2578 20.6348 31.9629 19.9029 32.8143 19.3783C32.2735 18.6041 31.56 17.967 30.7304 17.5175C29.9009 17.0681 28.9783 16.8187 28.0358 16.7891C26.0253 16.5776 24.0762 17.9949 23.0516 17.9949C22.0073 17.9949 20.4299 16.8101 18.7313 16.8451C17.6326 16.8807 16.5618 17.2009 15.6233 17.7746C14.6847 18.3483 13.9105 19.1558 13.3759 20.1186C11.0604 24.1367 12.7876 30.0419 15.0057 33.2899C16.1154 34.8803 17.4124 36.6568 19.1095 36.5938C20.7702 36.5248 21.3904 35.5324 23.395 35.5324C25.381 35.5324 25.9629 36.5938 27.6945 36.5538C29.4765 36.5248 30.5992 34.9563 31.67 33.3508C32.4674 32.2176 33.081 30.9651 33.488 29.6398C32.4527 29.2009 31.5692 28.4663 30.9477 27.5275C30.3261 26.5888 29.9941 25.4874 29.9929 24.3608Z" fill="white"/>
<path d="M26.7225 14.6531C27.6941 13.484 28.1728 11.9814 28.0569 10.4644C26.5724 10.6206 25.2013 11.3317 24.2165 12.4559C23.735 13.0051 23.3663 13.644 23.1313 14.3361C22.8964 15.0283 22.7998 15.76 22.8472 16.4896C23.5896 16.4972 24.3242 16.3359 24.9955 16.0178C25.6667 15.6997 26.2572 15.2331 26.7225 14.6531Z" fill="white"/>
</svg>
