<svg width="24" height="24" viewBox="0 0 24 24" fill="none" xmlns="http://www.w3.org/2000/svg">
<mask id="mask0_9872_106045" style="mask-type:alpha" maskUnits="userSpaceOnUse" x="0" y="0" width="24" height="24">
<rect width="24" height="24" fill="#D9D9D9"/>
</mask>
<g mask="url(#mask0_9872_106045)">
<path d="M6.30775 22.5003C5.80258 22.5003 5.375 22.3253 5.025 21.9753C4.675 21.6253 4.5 21.1977 4.5 20.6925V10.308C4.5 9.80284 4.675 9.37526 5.025 9.02526C5.375 8.67526 5.80258 8.50026 6.30775 8.50026H8.1155C8.32817 8.50026 8.50633 8.57209 8.65 8.71576C8.7935 8.85926 8.86525 9.03742 8.86525 9.25026C8.86525 9.46309 8.7935 9.64126 8.65 9.78476C8.50633 9.92842 8.32817 10.0003 8.1155 10.0003H6.30775C6.23075 10.0003 6.16025 10.0323 6.09625 10.0965C6.03208 10.1605 6 10.231 6 10.308V20.6925C6 20.7695 6.03208 20.84 6.09625 20.904C6.16025 20.9682 6.23075 21.0003 6.30775 21.0003H17.6923C17.7692 21.0003 17.8398 20.9682 17.9038 20.904C17.9679 20.84 18 20.7695 18 20.6925V10.308C18 10.231 17.9679 10.1605 17.9038 10.0965C17.8398 10.0323 17.7692 10.0003 17.6923 10.0003H15.8845C15.6718 10.0003 15.4937 9.92842 15.35 9.78476C15.2065 9.64126 15.1348 9.46309 15.1348 9.25026C15.1348 9.03742 15.2065 8.85926 15.35 8.71576C15.4937 8.57209 15.6718 8.50026 15.8845 8.50026H17.6923C18.1974 8.50026 18.625 8.67526 18.975 9.02526C19.325 9.37526 19.5 9.80284 19.5 10.308V20.6925C19.5 21.1977 19.325 21.6253 18.975 21.9753C18.625 22.3253 18.1974 22.5003 17.6923 22.5003H6.30775ZM11.25 4.71951L9.927 6.04251C9.77817 6.19134 9.60408 6.26476 9.40475 6.26276C9.20542 6.26092 9.02817 6.18243 8.873 6.02726C8.72817 5.87209 8.65317 5.69642 8.648 5.50026C8.643 5.30409 8.718 5.12851 8.873 4.97351L11.3672 2.47926C11.5481 2.29842 11.759 2.20801 12 2.20801C12.241 2.20801 12.4519 2.29842 12.6328 2.47926L15.127 4.97351C15.2653 5.11184 15.3362 5.28326 15.3395 5.48776C15.3427 5.69226 15.2718 5.87209 15.127 6.02726C14.9718 6.18243 14.7936 6.26001 14.5922 6.26001C14.3911 6.26001 14.2129 6.18243 14.0577 6.02726L12.75 4.71951V15.0003C12.75 15.2131 12.6782 15.3913 12.5345 15.5348C12.391 15.6784 12.2128 15.7503 12 15.7503C11.7872 15.7503 11.609 15.6784 11.4655 15.5348C11.3218 15.3913 11.25 15.2131 11.25 15.0003V4.71951Z" fill="#212944"/>
</g>
</svg>
