<svg width="44" height="44" viewBox="0 0 44 44" fill="none" xmlns="http://www.w3.org/2000/svg">
<mask id="mask0_8554_15082" style="mask-type:alpha" maskUnits="userSpaceOnUse" x="10" y="10" width="24" height="24">
<rect x="10" y="10" width="24" height="24" fill="#D9D9D9"/>
</mask>
<g mask="url(#mask0_8554_15082)">
<path d="M22.0005 23.0543L16.9274 28.1274C16.7889 28.2658 16.6149 28.3367 16.4053 28.3399C16.1957 28.3431 16.0184 28.2723 15.8736 28.1274C15.7287 27.9825 15.6562 27.8069 15.6562 27.6005C15.6562 27.3941 15.7287 27.2184 15.8736 27.0736L20.9466 22.0005L15.8736 16.9274C15.7351 16.7889 15.6643 16.6149 15.6611 16.4053C15.6579 16.1957 15.7287 16.0184 15.8736 15.8736C16.0184 15.7287 16.1941 15.6562 16.4005 15.6562C16.6069 15.6562 16.7825 15.7287 16.9274 15.8736L22.0005 20.9466L27.0736 15.8736C27.212 15.7351 27.3861 15.6643 27.5957 15.6611C27.8053 15.6579 27.9825 15.7287 28.1274 15.8736C28.2723 16.0184 28.3447 16.1941 28.3447 16.4005C28.3447 16.6069 28.2723 16.7825 28.1274 16.9274L23.0543 22.0005L28.1274 27.0736C28.2658 27.212 28.3367 27.3861 28.3399 27.5957C28.3431 27.8053 28.2723 27.9825 28.1274 28.1274C27.9825 28.2723 27.8069 28.3447 27.6005 28.3447C27.3941 28.3447 27.2184 28.2723 27.0736 28.1274L22.0005 23.0543Z" fill="#1C1B1F"/>
</g>
</svg>
