<svg width="24" height="24" viewBox="0 0 24 24" fill="none" xmlns="http://www.w3.org/2000/svg">
<mask id="mask0_6242_144074" style="mask-type:alpha" maskUnits="userSpaceOnUse" x="0" y="0" width="24" height="24">
<rect width="24" height="24" transform="matrix(-1 0 0 1 24 0)" fill="#D9D9D9"/>
</mask>
<g mask="url(#mask0_6242_144074)">
<path d="M11.0538 12L15.1269 7.92689C15.2654 7.78844 15.3362 7.6144 15.3394 7.40479C15.3426 7.19519 15.2718 7.01795 15.1269 6.87309C14.982 6.7282 14.8064 6.65576 14.6 6.65576C14.3936 6.65576 14.218 6.7282 14.0731 6.87309L9.57889 11.3673C9.48529 11.4609 9.41926 11.5596 9.38081 11.6635C9.34235 11.7673 9.32311 11.8795 9.32311 12C9.32311 12.1205 9.34235 12.2327 9.38081 12.3365C9.41926 12.4404 9.48529 12.5391 9.57889 12.6327L14.0731 17.1269C14.2116 17.2654 14.3856 17.3362 14.5952 17.3394C14.8048 17.3426 14.982 17.2718 15.1269 17.1269C15.2718 16.982 15.3442 16.8064 15.3442 16.6C15.3442 16.3936 15.2718 16.218 15.1269 16.0731L11.0538 12Z" fill="#212944"/>
</g>
</svg>
