<svg width="100" height="44" viewBox="0 0 100 44" fill="none" xmlns="http://www.w3.org/2000/svg">
<g clip-path="url(#clip0_5398_6732)">
<path d="M70.4285 34.1553C70.3241 34.1344 70.1989 34.1135 70.0945 34.1135C69.8231 34.1135 69.5935 34.1761 69.4265 34.3014C69.3221 34.3849 69.2387 34.4893 69.176 34.5936V34.1344H68.0488V37.9752H69.2178V35.5747C69.3221 35.4286 69.4474 35.3242 69.6144 35.2616C69.7814 35.1781 69.9901 35.1364 70.2406 35.1364H70.4702V34.1553H70.4285Z" fill="#000928"/>
<path d="M74.8749 37.4743L72.8918 32.7776H72.3491V37.9961H72.7666V33.4456L74.6661 37.9961H75.0628L76.9414 33.4456V37.9961H77.3589V32.7776H76.8162L74.8749 37.4743Z" fill="#000928"/>
<path d="M52.0596 35.3451C52.2683 35.0946 52.3727 34.7606 52.3727 34.4058C52.3727 34.1553 52.3101 33.9257 52.2057 33.696C52.1013 33.4873 51.9343 33.3203 51.7465 33.1951C51.5377 33.0489 51.2872 32.9446 51.0368 32.9028C50.7445 32.8402 50.4523 32.7985 50.1392 32.7985H48.5527V37.9961H49.7426V36.1383H50.0139L51.496 37.9961H52.978L51.2246 35.9087C51.5795 35.7835 51.8717 35.5956 52.0596 35.3451ZM51.2037 34.4266C51.2037 34.698 51.0994 34.8859 50.8906 35.0111C50.6819 35.1572 50.3897 35.2199 50.0139 35.2199H49.7426V33.7378H50.1392C50.4523 33.7378 50.7236 33.8004 50.9115 33.9048C51.0994 34.0092 51.2037 34.1762 51.2037 34.4266Z" fill="#000928"/>
<path d="M89.3403 35.3868C89.3403 35.2825 89.3403 35.1781 89.2986 35.0529C89.2777 34.9485 89.236 34.8232 89.1734 34.7189C89.1107 34.6145 89.0272 34.5101 88.9437 34.4058C88.8394 34.3223 88.7141 34.2388 88.5471 34.197C88.401 34.1344 88.1923 34.1135 87.9835 34.1135C87.7748 34.1135 87.6913 34.1135 87.5452 34.1762C87.3991 34.2179 87.2738 34.2805 87.1486 34.364C87.0233 34.4475 86.9189 34.531 86.8354 34.6563C86.7937 34.7189 86.752 34.7815 86.7102 34.8441V32.7985H86.3345V37.9961H86.7102V35.9504C86.7102 35.7417 86.7311 35.533 86.7937 35.3451C86.8563 35.1572 86.9398 35.0111 87.0442 34.8859C87.1486 34.7606 87.2947 34.6563 87.4408 34.5728C87.5869 34.5101 87.7748 34.4684 87.9835 34.4684C88.1923 34.4684 88.401 34.5101 88.5471 34.5936C88.6724 34.6771 88.7767 34.7815 88.8394 34.9067C88.902 35.032 88.9437 35.1572 88.9646 35.2825C88.9646 35.4077 88.9855 35.533 88.9855 35.6165V37.9961H89.3612V35.6791C89.3612 35.5956 89.3612 35.5121 89.3612 35.4077L89.3403 35.3868Z" fill="#000928"/>
<path d="M85.0407 36.1174C84.9154 36.0339 84.7693 35.9713 84.6023 35.9296C84.4353 35.8878 84.2683 35.8461 84.0805 35.8043C83.9343 35.7626 83.7882 35.7417 83.6421 35.7C83.496 35.6582 83.3707 35.6165 83.2664 35.5747C83.162 35.533 83.0576 35.4495 82.995 35.366C82.9324 35.2825 82.8906 35.1781 82.8906 35.032C82.8906 34.8859 82.9115 34.8232 82.9741 34.7397C83.0367 34.6563 83.1202 34.5936 83.2037 34.531C83.3081 34.4684 83.4125 34.4475 83.5377 34.4058C83.8091 34.364 84.0804 34.364 84.3309 34.4058C84.4562 34.4475 84.5606 34.4893 84.6649 34.5519C84.7484 34.6145 84.8319 34.7189 84.8737 34.8232C84.9154 34.9276 84.9572 35.0737 84.9572 35.2199V35.2616H85.3329V35.2199C85.3329 35.0111 85.2912 34.8232 85.2285 34.6563C85.1659 34.5101 85.0615 34.364 84.9154 34.2805C84.7902 34.1761 84.6441 34.1135 84.4562 34.0718C84.1431 33.9883 83.7673 33.9883 83.4125 34.0718C83.2455 34.1135 83.0994 34.1553 82.9741 34.2388C82.8489 34.3223 82.7236 34.4266 82.6401 34.5519C82.5566 34.6771 82.5149 34.8441 82.5149 35.032C82.5149 35.2199 82.5775 35.5121 82.7236 35.6373C82.8489 35.7835 83.0159 35.8878 83.2037 35.9504C83.3916 36.0131 83.6003 36.0757 83.83 36.1174C84.0387 36.1592 84.2474 36.2009 84.4353 36.2636C84.6232 36.3262 84.7693 36.3888 84.8945 36.4932C84.9989 36.5975 85.0615 36.7228 85.0615 36.9107C85.0615 37.0985 85.0198 37.182 84.9572 37.2655C84.8945 37.3699 84.7902 37.4325 84.6858 37.4951C84.5814 37.5578 84.4562 37.5786 84.3101 37.5995C83.997 37.6412 83.7256 37.6413 83.4751 37.5578C83.329 37.516 83.2246 37.4534 83.1202 37.349C83.0159 37.2655 82.9324 37.1611 82.8698 37.0359C82.8071 36.9107 82.7654 36.7645 82.7654 36.5975V36.5558H82.3896V36.6184C82.3896 36.848 82.4314 37.0359 82.5149 37.2029C82.5984 37.3699 82.7028 37.516 82.8489 37.6412C82.995 37.7665 83.162 37.85 83.329 37.8917C83.5168 37.9544 83.7047 37.9752 83.9343 37.9752C84.1639 37.9752 84.2683 37.9752 84.4353 37.9335C84.6023 37.8917 84.7693 37.85 84.9154 37.7665C85.0615 37.683 85.1868 37.5786 85.2703 37.4325C85.3746 37.2864 85.4164 37.1194 85.4164 36.9107C85.4164 36.7019 85.3746 36.5349 85.312 36.4097C85.2494 36.2844 85.145 36.1801 85.0198 36.0966L85.0407 36.1174Z" fill="#000928"/>
<path d="M81.1786 34.5936C81.0325 34.4266 80.8655 34.2805 80.6567 34.197C80.448 34.0927 80.2184 34.0509 79.947 34.0509C79.6757 34.0509 79.4043 34.1135 79.1956 34.2179C78.9868 34.3223 78.799 34.4684 78.6528 34.6563C78.5067 34.8441 78.4023 35.0529 78.3397 35.3033C78.2771 35.533 78.2354 35.8043 78.2354 36.0548C78.2354 36.3053 78.2771 36.5767 78.3397 36.8063C78.4023 37.0359 78.5067 37.2446 78.6528 37.4325C78.799 37.5995 78.9659 37.7456 79.1747 37.85C79.3834 37.9544 79.6339 37.9961 79.9053 37.9961C80.3645 37.9961 80.7402 37.8709 81.0116 37.6412C81.283 37.4116 81.4708 37.0568 81.5543 36.6184V36.5558H81.1786V36.5975C81.0951 36.9315 80.949 37.182 80.7402 37.3699C80.5315 37.5578 80.2601 37.6412 79.9053 37.6412C79.5504 37.6412 79.4878 37.5995 79.3417 37.516C79.1747 37.4325 79.0494 37.3281 78.9242 37.182C78.8198 37.0359 78.7363 36.8689 78.6737 36.681C78.6111 36.4932 78.5902 36.3053 78.5902 36.0966H81.5752V36.0548C81.5752 36.0548 81.5752 36.0131 81.5752 35.9922C81.5752 35.9504 81.5752 35.9296 81.5752 35.9087C81.5752 35.6582 81.5335 35.4077 81.4708 35.199C81.4082 34.9694 81.283 34.7815 81.1577 34.6145L81.1786 34.5936ZM78.6111 35.7626C78.6111 35.5956 78.6737 35.4286 78.7155 35.2825C78.7781 35.1155 78.8616 34.9485 78.9659 34.8232C79.0703 34.698 79.2164 34.5936 79.3834 34.5101C79.5504 34.4266 79.7383 34.3849 79.947 34.3849C80.1558 34.3849 80.3228 34.4266 80.4689 34.5101C80.615 34.5936 80.7611 34.698 80.8655 34.8232C80.9699 34.9485 81.0534 35.1155 81.116 35.2825C81.1577 35.4495 81.1995 35.6165 81.2203 35.7835H78.632L78.6111 35.7626Z" fill="#000928"/>
<path d="M54.5433 35.8252H56.4429V34.865H54.5433V33.7378H56.5473V32.7985H53.3535V37.9961H56.5681V37.0359H54.5433V35.8252Z" fill="#000928"/>
<path d="M66.5875 33.5291C66.2953 33.2786 65.9822 33.1116 65.6273 32.9864C65.2307 32.8611 64.7924 32.7776 64.3749 32.7985H62.7676V37.9961H64.3749H64.4166C64.8341 37.9961 65.2307 37.9335 65.6065 37.8083C65.9613 37.683 66.2744 37.516 66.5667 37.2655C66.838 37.0359 67.0468 36.7646 67.172 36.4306C67.4643 35.7626 67.4643 35.0111 67.172 34.3432C67.0259 34.0301 66.8172 33.7587 66.5667 33.5291H66.5875ZM66.1074 36.0966C66.0239 36.2845 65.8987 36.4723 65.7317 36.6184C65.5647 36.7646 65.356 36.8689 65.1472 36.9524C64.9176 37.0359 64.6671 37.0568 64.4166 37.0568H63.9783V33.7587H64.4166C64.4166 33.7587 64.4166 33.7587 64.4375 33.7587C64.688 33.7587 64.9176 33.8004 65.1472 33.8631C65.356 33.9257 65.5647 34.0509 65.7317 34.197C65.8987 34.3432 66.0239 34.5102 66.1074 34.7189C66.2953 35.1781 66.2953 35.6582 66.1074 36.1175V36.0966Z" fill="#000928"/>
<path d="M60.2213 32.7985H58.9689L56.9858 37.9961H58.2174L58.5723 36.9315H60.6179L60.9728 37.9961H62.2044L60.2213 32.8193V32.7776V32.7985ZM60.3048 35.9713H58.9063L59.5951 33.863L60.3048 35.9713Z" fill="#000928"/>
<path d="M43 12.4671V18.5623C43 21.0254 41.0378 23.0294 38.6582 23.0294H32.2498C31.3731 23.0294 30.5382 22.758 29.8076 22.257L25.3405 26.8493C25.8624 27.6008 26.1337 28.4984 26.1337 29.4168V35.5121C26.1337 37.9752 24.1716 39.9791 21.7919 39.9791H15.3836C12.983 39.9791 11.0417 37.9752 11.0417 35.5121V29.4168C11.0417 26.9537 13.0039 24.9498 15.3836 24.9498H21.7919C22.7312 24.9498 23.6497 25.2629 24.4012 25.8474L28.8265 21.2968C28.2211 20.5036 27.908 19.5643 27.908 18.5623V12.4671C27.908 10.0039 29.8702 8 32.2498 8H38.6582C41.0587 8 43 10.0039 43 12.4671ZM43 29.396V35.4912C43 37.9543 41.0378 39.9583 38.6582 39.9583H32.2498C29.8493 39.9583 27.908 37.9543 27.908 35.4912V29.396C27.908 26.9328 29.8702 24.9289 32.2498 24.9289H38.6582C41.0587 24.9289 43 26.9328 43 29.396ZM29.0561 29.396V35.4912C29.0561 37.2864 30.4755 38.7684 32.229 38.7684H38.6373C40.3907 38.7684 41.8102 37.3072 41.8102 35.4912V29.396C41.8102 27.6008 40.3907 26.1187 38.6373 26.1187H32.229C30.4755 26.1187 29.0561 27.5799 29.0561 29.396ZM11 18.6249V12.5297C11 10.0665 12.9622 8.04175 15.3418 8.04175H21.7502C24.1507 8.04175 26.092 10.0457 26.092 12.5088V18.604C26.092 21.0672 24.1298 23.0711 21.7502 23.0711H15.3418C12.9413 23.0711 11 21.0672 11 18.604V18.6249ZM15.3418 21.9022H21.7502C23.5036 21.9022 24.923 20.441 24.923 18.6249V12.5297C24.923 10.7345 23.5036 9.25245 21.7502 9.25245H15.3418C13.5884 9.25245 12.1689 10.7136 12.1689 12.5297V18.6249C12.1689 20.4201 13.5884 21.9022 15.3418 21.9022Z" fill="#000928"/>
<path d="M55.0024 17.7691H64.688V14.4709H55.0024V17.7691ZM61.7656 15.5355H63.3521V16.7045H61.7656V15.5355ZM59.0729 15.5355H60.6384V16.7045H59.0729V15.5355ZM56.3593 15.5355H57.9457V16.7045H56.3593V15.5355Z" fill="#000928"/>
<path d="M59.1775 12.7593H55.3367V13.8656H64.4378V12.7593H60.6804V12.0078H65.0223V10.8597H60.6804V9.92041H59.1775V10.8597H54.7104V12.0078H59.1775V12.7593Z" fill="#000928"/>
<path d="M48.9282 26.557H50.3477H52.5812H54.0215V20.2113H48.9491V26.557H48.9282ZM50.3477 21.5472H52.5812V25.1793H50.3477V21.5472Z" fill="#000928"/>
<path d="M65.3143 25.7638C64.3332 25.3046 63.2686 24.908 62.1623 24.5531H64.1244V18.3326H55.6078V24.5531H57.8413C56.8811 24.9915 55.733 25.3672 54.3762 25.6386H54.251C54.251 25.6595 54.8355 26.8701 54.8355 26.8701H54.9189C56.6515 26.4109 58.0292 25.9099 59.1564 25.2837L59.2608 25.2211L58.6763 24.5531H61.0977L60.6176 25.2628L60.7637 25.3046C62.0579 25.6803 63.3312 26.1813 64.6463 26.8701L64.7298 26.9119L65.4395 25.8264L65.3351 25.7847L65.3143 25.7638ZM57.0064 19.3763H62.6632V20.1069H57.0064V19.3763ZM57.0064 21.0463H62.6632V21.756H57.0064V21.0463ZM57.0064 23.4468V22.7162H62.6632V23.4468H57.0064Z" fill="#000928"/>
<path d="M53.9382 17.5186H49.0537V18.8545H53.9382V17.5186Z" fill="#000928"/>
<path d="M54.4182 12.2374H53.4372H52.3726V10.0039H50.8905V12.2374H50.8279H48.5526H48.4482V13.636H54.4182V12.2374Z" fill="#000928"/>
<path d="M53.9382 14.9719H49.0537V16.3079H53.9382V14.9719Z" fill="#000928"/>
<path d="M79.1956 15.9322H83.2034V14.7006H79.8009C79.3626 14.7006 79.3 14.4918 79.3 14.304V13.5108H82.8903V10.0457H77.9431V14.8258C77.9431 15.5564 78.3815 15.9322 79.2165 15.9322H79.1956ZM79.2791 12.3627V11.2564H81.5126V12.3627H79.2791ZM72.8499 12.0287V10.5466H76.1062V12.0287H72.8499ZM84.8733 15.9322H88.8812V14.7006H85.4787C85.0403 14.7006 84.9777 14.4918 84.9777 14.304V13.5108H88.5681V10.0457H83.6209V14.8258C83.6209 15.5564 84.0592 15.9322 84.8942 15.9322H84.8733ZM84.9568 12.3627V11.2564H87.1904V12.3627H84.9568ZM89.5283 25.1794L89.1734 26.7032H84.3932C82.9738 26.7032 81.7005 26.7032 80.615 26.6406C79.3208 26.5988 78.3189 26.4318 77.63 26.1187C76.8368 25.7847 76.1271 25.3046 75.4591 24.5949C75.313 24.4488 75.1669 24.4279 75.0625 24.4279C74.7703 24.4279 74.2067 24.8454 73.1421 26.8284L73.0795 26.9537L71.9731 25.9308L72.0149 25.8682C72.8916 24.24 73.7057 23.3216 74.4989 23.0502C74.8746 22.1109 75.146 21.0672 75.3756 19.8774H72.662V18.7084H72.6829C73.5596 17.6647 74.2902 16.6627 74.9164 15.6608H72.2236V14.2413H76.6907V15.4103C76.0853 16.4958 75.3756 17.4977 74.5615 18.5205H76.8994V19.5225C76.6281 21.1089 76.315 22.3196 75.981 23.259C76.1271 23.3425 76.2732 23.4677 76.4402 23.6138C77.0038 24.1565 77.6092 24.574 78.2354 24.8663C78.8198 25.0959 79.6548 25.242 80.7194 25.2629C81.1995 25.2629 81.7005 25.2629 82.2641 25.2629C82.8903 25.2629 83.5583 25.2629 84.268 25.2629C85.6874 25.2629 87.587 25.2211 89.4239 25.1585H89.5491L89.5283 25.1794ZM81.3665 21.6099C80.4272 22.3614 79.2582 23.0293 77.8596 23.6138L77.7344 23.6556L78.6111 24.7828L78.6946 24.741C80.114 24.0939 81.3456 23.3425 82.3476 22.4657L82.4311 22.3822L81.5126 21.5682H84.7898L84.0801 22.6119L84.2054 22.6536C85.5413 23.1963 86.8355 23.9269 88.0462 24.8245L88.1297 24.8871L88.902 23.6973L88.8185 23.6347C87.6705 22.8415 86.3972 22.1526 84.936 21.5473H89.1943V20.1696H86.1884V18.6667H88.6307V17.3098H86.1884V16.0991H84.7481V17.3098H81.8883V16.0991H80.4689V17.3098H77.964V18.6667H80.4689V20.1696H77.463V21.5473H81.4082L81.3665 21.6099ZM81.8675 20.2322V18.7293H84.7272V20.2322H81.8675Z" fill="#000928"/>
</g>
<defs>
<clipPath id="clip0_5398_6732">
<rect width="78.5284" height="32" fill="white" transform="translate(11 8)"/>
</clipPath>
</defs>
</svg>
