<svg width="24" height="24" viewBox="0 0 24 24" fill="none" xmlns="http://www.w3.org/2000/svg">
<mask id="mask0_10056_23036" style="mask-type:alpha" maskUnits="userSpaceOnUse" x="2" y="2" width="20" height="20">
<rect x="2" y="2" width="20" height="20" fill="#D9D9D9"/>
</mask>
<g mask="url(#mask0_10056_23036)">
<path d="M12.7435 13.2565L11.6121 11.819C11.5446 11.7238 11.4594 11.6763 11.3565 11.6763C11.2537 11.6763 11.1685 11.7265 11.101 11.8269L9.97437 13.3317C9.88785 13.446 9.87396 13.5646 9.93271 13.6875C9.9916 13.8104 10.0894 13.8719 10.226 13.8719H16.3573C16.494 13.8719 16.5917 13.8104 16.6504 13.6875C16.7093 13.5646 16.6981 13.446 16.6169 13.3317L14.9423 11.0721C14.8747 10.9717 14.7881 10.9215 14.6827 10.9215C14.5772 10.9215 14.4906 10.9717 14.4231 11.0721L12.7435 13.2565ZM8.54813 16.5834C8.17299 16.5834 7.8559 16.4538 7.59687 16.1948C7.33785 15.9358 7.20833 15.6187 7.20833 15.2436V5.75648C7.20833 5.38134 7.33785 5.06426 7.59687 4.80523C7.8559 4.5462 8.17299 4.41669 8.54813 4.41669H18.0352C18.4103 4.41669 18.7274 4.5462 18.9865 4.80523C19.2455 5.06426 19.375 5.38134 19.375 5.75648V15.2436C19.375 15.6187 19.2455 15.9358 18.9865 16.1948C18.7274 16.4538 18.4103 16.5834 18.0352 16.5834H8.54813ZM8.54813 15.5H18.0352C18.0994 15.5 18.1581 15.4733 18.2115 15.4198C18.2649 15.3665 18.2917 15.3077 18.2917 15.2436V5.75648C18.2917 5.69231 18.2649 5.63356 18.2115 5.58023C18.1581 5.52676 18.0994 5.50002 18.0352 5.50002H8.54813C8.48396 5.50002 8.42521 5.52676 8.37188 5.58023C8.3184 5.63356 8.29167 5.69231 8.29167 5.75648V15.2436C8.29167 15.3077 8.3184 15.3665 8.37188 15.4198C8.42521 15.4733 8.48396 15.5 8.54813 15.5ZM5.96479 19.1667C5.58965 19.1667 5.27257 19.0372 5.01354 18.7781C4.75451 18.5191 4.625 18.202 4.625 17.8269V7.79815C4.625 7.6444 4.67646 7.51565 4.77938 7.4119C4.88215 7.30828 5.00979 7.25648 5.16229 7.25648C5.31479 7.25648 5.44396 7.30828 5.54979 7.4119C5.65549 7.51565 5.70833 7.6444 5.70833 7.79815V17.8269C5.70833 17.8911 5.73507 17.9498 5.78854 18.0031C5.84188 18.0566 5.90062 18.0834 5.96479 18.0834H15.9935C16.1473 18.0834 16.276 18.1347 16.3798 18.2375C16.4834 18.3404 16.5352 18.4681 16.5352 18.6206C16.5352 18.7731 16.4834 18.9022 16.3798 19.0079C16.276 19.1138 16.1473 19.1667 15.9935 19.1667H5.96479Z" fill="#212944"/>
</g>
</svg>
