<svg width="24" height="24" viewBox="0 0 24 24" fill="none" xmlns="http://www.w3.org/2000/svg">
<mask id="mask0_12805_52972" style="mask-type:alpha" maskUnits="userSpaceOnUse" x="2" y="2" width="20" height="20">
<rect x="2" y="2" width="20" height="20" fill="#D9D9D9"/>
</mask>
<g mask="url(#mask0_12805_52972)">
<path d="M15.291 7.75031C15.1417 7.75031 15.0141 7.69733 14.9082 7.59137C14.8023 7.48542 14.7493 7.35776 14.7493 7.20837C14.7493 7.05899 14.8023 6.93142 14.9082 6.82566C15.0141 6.71988 15.1417 6.66699 15.291 6.66699H18.291C18.4403 6.66699 18.5679 6.71997 18.6738 6.82593C18.7797 6.93189 18.8326 7.05955 18.8326 7.20893C18.8326 7.35832 18.7797 7.4859 18.6738 7.59166C18.5679 7.69742 18.4403 7.75031 18.291 7.75031H15.291ZM11.9993 16.5516L9.25414 17.6589C8.82146 17.832 8.40694 17.7846 8.01058 17.5167C7.6142 17.2487 7.41602 16.879 7.41602 16.4073V6.75674C7.41602 6.38415 7.54616 6.06771 7.80645 5.80743C8.06673 5.54714 8.38317 5.41699 8.75577 5.41699H12.5859C12.7979 5.41699 12.9605 5.49873 13.0735 5.6622C13.1864 5.82566 13.2093 6.00781 13.142 6.20866C13.095 6.37259 13.0595 6.53652 13.0355 6.70045C13.0114 6.86437 12.9993 7.03377 12.9993 7.20866C12.9993 8.02596 13.2277 8.75326 13.6844 9.39053C14.1412 10.0278 14.7461 10.4752 15.4993 10.7327C15.5741 10.7914 15.659 10.8368 15.7541 10.8689C15.8492 10.9009 15.9491 10.9309 16.0538 10.9586C16.2023 10.9918 16.3275 11.0641 16.4296 11.1758C16.5316 11.2874 16.5826 11.4132 16.5826 11.5532V16.4073C16.5826 16.879 16.3845 17.2487 15.9881 17.5167C15.5917 17.7846 15.1772 17.832 14.7445 17.6589L11.9993 16.5516Z" fill="#212944"/>
</g>
</svg>
