<svg width="20" height="21" viewBox="0 0 20 21" fill="none" xmlns="http://www.w3.org/2000/svg">
<path d="M17.3828 10.8516C17.3828 11.0964 17.2917 11.3099 17.1094 11.4922L11.9531 16.6328C11.7708 16.8099 11.5651 16.8984 11.3359 16.8984C11.0964 16.8984 10.8958 16.8203 10.7344 16.6641C10.5781 16.5078 10.5 16.3125 10.5 16.0781C10.5 15.9583 10.5208 15.8464 10.5625 15.7422C10.6094 15.638 10.6719 15.5469 10.75 15.4688L12.5 13.7031L15.4141 11.0469L15.6875 11.5469L12.9766 11.7031H3.48438C3.22396 11.7031 3.01302 11.625 2.85156 11.4688C2.69531 11.3073 2.61719 11.1016 2.61719 10.8516C2.61719 10.5964 2.69531 10.3906 2.85156 10.2344C3.01302 10.0729 3.22396 9.99219 3.48438 9.99219H12.9766L15.6875 10.1562L15.4141 10.6641L12.5 8L10.75 6.22656C10.6719 6.14844 10.6094 6.0599 10.5625 5.96094C10.5208 5.85677 10.5 5.74219 10.5 5.61719C10.5 5.38281 10.5781 5.1875 10.7344 5.03125C10.8958 4.875 11.0964 4.79688 11.3359 4.79688C11.4505 4.79688 11.5599 4.82031 11.6641 4.86719C11.7682 4.91406 11.8672 4.98438 11.9609 5.07812L17.1094 10.2109C17.2917 10.3932 17.3828 10.6068 17.3828 10.8516Z" fill="#0F2D35"/>
</svg>
