<svg width="48" height="49" viewBox="0 0 48 49" fill="none" xmlns="http://www.w3.org/2000/svg">
<path d="M7.38867 24.791C7.38867 24.2637 7.61719 23.7363 8.02148 23.3672L19.5703 11.8008C20.0273 11.3613 20.502 11.1855 20.9766 11.1855C22.084 11.1855 22.875 11.959 22.875 13.0137C22.875 13.5586 22.6641 14.0332 22.3125 14.3848L18.375 18.375L13.1895 23.1211L17.2852 22.875H38.6602C39.8027 22.875 40.6113 23.6484 40.6113 24.791C40.6113 25.916 39.8027 26.707 38.6602 26.707H17.2852L13.1719 26.4609L18.375 31.207L22.3125 35.1973C22.6641 35.5312 22.875 36.0059 22.875 36.5508C22.875 37.6055 22.084 38.3965 20.9766 38.3965C20.502 38.3965 20.0273 38.2031 19.6055 37.7988L8.02148 26.2148C7.61719 25.8281 7.38867 25.3184 7.38867 24.791Z" fill="#0F2D35"/>
</svg>
