<svg width="20" height="21" viewBox="0 0 20 21" fill="none" xmlns="http://www.w3.org/2000/svg">
<path d="M10 15.1406C9.73958 15.1406 9.5026 15.0365 9.28906 14.8281L3.34375 8.74219C3.25521 8.65885 3.1875 8.5651 3.14062 8.46094C3.09896 8.35156 3.07812 8.23438 3.07812 8.10938C3.07812 7.9375 3.11719 7.78125 3.19531 7.64062C3.27865 7.5 3.38802 7.39062 3.52344 7.3125C3.65885 7.22917 3.8125 7.1875 3.98438 7.1875C4.23438 7.1875 4.45312 7.28125 4.64062 7.46875L10.3828 13.3516H9.625L15.3594 7.46875C15.5469 7.28125 15.7656 7.1875 16.0156 7.1875C16.1875 7.1875 16.3411 7.22917 16.4766 7.3125C16.612 7.39062 16.7188 7.5 16.7969 7.64062C16.8802 7.78125 16.9219 7.9375 16.9219 8.10938C16.9219 8.35417 16.8333 8.5651 16.6562 8.74219L10.7109 14.8281C10.612 14.9323 10.5026 15.0104 10.3828 15.0625C10.263 15.1146 10.1354 15.1406 10 15.1406Z" fill="#B3800D"/>
</svg>
