<svg width="40" height="40" viewBox="0 0 40 40" fill="none" xmlns="http://www.w3.org/2000/svg">
<path d="M2.21094 37.8906C1.57812 37.2812 1.60156 36.2734 2.21094 35.6641L17.75 20.125L2.21094 4.58594C1.60156 3.97656 1.60156 2.96875 2.21094 2.33594C2.82031 1.70312 3.85156 1.72656 4.46094 2.33594L20 17.875L35.5156 2.33594C36.125 1.72656 37.1328 1.72656 37.7656 2.33594C38.3984 2.94531 38.375 3.97656 37.7656 4.58594L22.2266 20.125L37.7656 35.6641C38.375 36.2734 38.375 37.2812 37.7656 37.8906C37.1562 38.5234 36.125 38.5234 35.5156 37.8906L20 22.375L4.46094 37.8906C3.85156 38.5234 2.84375 38.5234 2.21094 37.8906Z" fill="#0F2D35"/>
</svg>
