<svg width="32" height="32" viewBox="0 0 32 32" fill="none" xmlns="http://www.w3.org/2000/svg">
<path d="M8.44141 23.5078C8.02148 23.0977 8.03125 22.375 8.44141 21.9746L14.4473 15.959L8.44141 9.95312C8.03125 9.55273 8.02148 8.83984 8.44141 8.41016C8.86133 7.99023 9.57422 8 9.98438 8.41016L15.9902 14.416L21.9961 8.41016C22.416 8 23.1094 8 23.5391 8.41992C23.9688 8.83008 23.959 9.54297 23.5488 9.95312L17.543 15.959L23.5488 21.9746C23.959 22.3848 23.959 23.0879 23.5391 23.5078C23.1191 23.9375 22.416 23.9277 21.9961 23.5176L15.9902 17.5117L9.98438 23.5176C9.57422 23.9277 8.87109 23.9277 8.44141 23.5078Z" fill="#0F2D35"/>
</svg>
