<svg width="20" height="21" viewBox="0 0 20 21" fill="none" xmlns="http://www.w3.org/2000/svg">
<rect width="20" height="20" transform="translate(0 0.5)" fill="white"/>
<path d="M3.42 2.49832H16.58C16.9566 2.49832 17.3178 2.64793 17.5841 2.91423C17.8504 3.18053 18 3.54171 18 3.91832V6.76499C17.9753 7.12565 17.8146 7.46348 17.5504 7.71022C17.2862 7.95695 16.9382 8.09419 16.5767 8.09419C16.2152 8.09419 15.8671 7.95695 15.6029 7.71022C15.3387 7.46348 15.178 7.12565 15.1533 6.76499V5.34499H11.5867V15.6517H13.0067C13.2018 15.6383 13.3975 15.6652 13.5818 15.7307C13.7661 15.7961 13.9349 15.8988 14.0779 16.0323C14.2208 16.1658 14.3348 16.3272 14.4127 16.5066C14.4906 16.686 14.5308 16.8794 14.5308 17.075C14.5308 17.2706 14.4906 17.464 14.4127 17.6434C14.3348 17.8228 14.2208 17.9842 14.0779 18.1177C13.9349 18.2512 13.7661 18.3538 13.5818 18.4193C13.3975 18.4848 13.2018 18.5117 13.0067 18.4983H7.32C6.95934 18.4736 6.62151 18.3129 6.37477 18.0487C6.12804 17.7845 5.9908 17.4365 5.9908 17.075C5.9908 16.7135 6.12804 16.3655 6.37477 16.1013C6.62151 15.837 6.95934 15.6764 7.32 15.6517H8.74V5.34499H4.84667V6.76499C4.82197 7.12565 4.66128 7.46348 4.39707 7.71022C4.13286 7.95695 3.78484 8.09419 3.42333 8.09419C3.06183 8.09419 2.71381 7.95695 2.4496 7.71022C2.18539 7.46348 2.0247 7.12565 2 6.76499V3.91832C2 3.54171 2.14961 3.18053 2.41591 2.91423C2.68221 2.64793 3.04339 2.49832 3.42 2.49832Z" fill="#0F2D35" fill-opacity="0.66" stroke="white"/>
</svg>
