<svg width="20" height="20" viewBox="0 0 20 20" fill="none" xmlns="http://www.w3.org/2000/svg">
<rect width="20" height="20" fill="white"/>
<path d="M7.625 11H6.375C6.15625 11 6 10.8438 6 10.625V9.375C6 9.1875 6.15625 9 6.375 9H7.625C7.8125 9 8 9.1875 8 9.375V10.625C8 10.8438 7.8125 11 7.625 11ZM11 10.625C11 10.8438 10.8125 11 10.625 11H9.375C9.15625 11 9 10.8438 9 10.625V9.375C9 9.1875 9.15625 9 9.375 9H10.625C10.8125 9 11 9.1875 11 9.375V10.625ZM14 10.625C14 10.8438 13.8125 11 13.625 11H12.375C12.1562 11 12 10.8438 12 10.625V9.375C12 9.1875 12.1562 9 12.375 9H13.625C13.8125 9 14 9.1875 14 9.375V10.625ZM11 13.625C11 13.8438 10.8125 14 10.625 14H9.375C9.15625 14 9 13.8438 9 13.625V12.375C9 12.1875 9.15625 12 9.375 12H10.625C10.8125 12 11 12.1875 11 12.375V13.625ZM8 13.625C8 13.8438 7.8125 14 7.625 14H6.375C6.15625 14 6 13.8438 6 13.625V12.375C6 12.1875 6.15625 12 6.375 12H7.625C7.8125 12 8 12.1875 8 12.375V13.625ZM14 13.625C14 13.8438 13.8125 14 13.625 14H12.375C12.1562 14 12 13.8438 12 13.625V12.375C12 12.1875 12.1562 12 12.375 12H13.625C13.8125 12 14 12.1875 14 12.375V13.625ZM17 5.5V16.5C17 17.3438 16.3125 18 15.5 18H4.5C3.65625 18 3 17.3438 3 16.5V5.5C3 4.6875 3.65625 4 4.5 4H6V2.375C6 2.1875 6.15625 2 6.375 2H7.625C7.8125 2 8 2.1875 8 2.375V4H12V2.375C12 2.1875 12.1562 2 12.375 2H13.625C13.8125 2 14 2.1875 14 2.375V4H15.5C16.3125 4 17 4.6875 17 5.5ZM15.5 16.3125V7H4.5V16.3125C4.5 16.4375 4.5625 16.5 4.6875 16.5H15.3125C15.4062 16.5 15.5 16.4375 15.5 16.3125Z" fill="#0F2D35" fill-opacity="0.66"/>
</svg>
