<svg width="20" height="20" viewBox="0 0 20 20" fill="none" xmlns="http://www.w3.org/2000/svg">
<rect width="20" height="20" fill="white"/>
<path d="M17.7379 10.3485C19.4207 8.66568 19.4207 5.94043 17.7379 4.25763C16.2487 2.76843 13.9017 2.57483 12.1891 3.79896L12.1415 3.83172C11.7126 4.1385 11.6143 4.73418 11.9211 5.16009C12.2278 5.586 12.8235 5.68727 13.2494 5.38049L13.2971 5.34773C14.2532 4.66568 15.5607 4.7729 16.3887 5.60387C17.3269 6.54207 17.3269 8.06106 16.3887 8.99926L13.0469 12.347C12.1087 13.2852 10.5897 13.2852 9.65153 12.347C8.82055 11.516 8.71333 10.2085 9.39538 9.2554L9.42815 9.20775C9.73492 8.77885 9.63366 8.18317 9.20774 7.87938C8.78183 7.57558 8.18317 7.67387 7.87937 8.09978L7.84661 8.14743C6.61951 9.85704 6.81311 12.204 8.30231 13.6932C9.98511 15.376 12.7104 15.376 14.3931 13.6932L17.7379 10.3485ZM2.2621 9.65153C0.5793 11.3343 0.5793 14.0596 2.2621 15.7424C3.7513 17.2316 6.09829 17.4252 7.81087 16.201L7.85853 16.1683C8.28742 15.8615 8.3857 15.2658 8.07893 14.8399C7.77215 14.414 7.17647 14.3127 6.75056 14.6195L6.7029 14.6523C5.74684 15.3343 4.43932 15.2271 3.61132 14.3961C2.67312 13.455 2.67312 11.936 3.61132 10.9978L6.95309 7.65302C7.89129 6.71482 9.41028 6.71482 10.3485 7.65302C11.1794 8.48399 11.2867 9.79151 10.6046 10.7476L10.5719 10.7952C10.2651 11.2241 10.3663 11.8198 10.7923 12.1236C11.2182 12.4274 11.8168 12.3291 12.1206 11.9032L12.1534 11.8555C13.3805 10.143 13.1869 7.79598 11.6977 6.30678C10.0149 4.62398 7.28965 4.62398 5.60685 6.30678L2.2621 9.65153Z" fill="#0F2D35" fill-opacity="0.66"/>
</svg>
