<svg width="17" height="16" viewBox="0 0 17 16" fill="none" xmlns="http://www.w3.org/2000/svg">
<path d="M3.34375 15.6484C2.5 15.6484 1.85938 15.4323 1.42188 15C0.989583 14.5729 0.773438 13.9427 0.773438 13.1094V4.14844C0.773438 3.3099 0.989583 2.67708 1.42188 2.25C1.85938 1.82292 2.5 1.60938 3.34375 1.60938H11.6406L10.1094 3.14062H3.4375C3.07292 3.14062 2.79427 3.23698 2.60156 3.42969C2.40885 3.61719 2.3125 3.90104 2.3125 4.28125V12.9766C2.3125 13.3568 2.40885 13.6406 2.60156 13.8281C2.79427 14.0156 3.07292 14.1094 3.4375 14.1094H12.3516C12.612 14.1094 12.8307 14.0156 13.0078 13.8281C13.1849 13.6406 13.2734 13.3568 13.2734 12.9766V6.38281L14.8125 4.85156V13.1094C14.8125 13.9427 14.6042 14.5729 14.1875 15C13.776 15.4323 13.1953 15.6484 12.4453 15.6484H3.34375ZM6.28906 10.4219C6.20052 10.4583 6.11979 10.4401 6.04688 10.3672C5.97396 10.2891 5.95573 10.2057 5.99219 10.1172L6.69531 8.57031L13.8203 1.44531L15.0156 2.625L7.88281 9.75L6.28906 10.4219ZM15.6094 2.03906L14.4141 0.835938L14.9609 0.296875C15.1068 0.15625 15.276 0.078125 15.4688 0.0625C15.6667 0.046875 15.8307 0.104167 15.9609 0.234375L16.1641 0.445312C16.3151 0.591146 16.388 0.760417 16.3828 0.953125C16.3828 1.14583 16.3073 1.32031 16.1562 1.47656L15.6094 2.03906Z" fill="black"/>
</svg>
