<svg width="16" height="16" viewBox="0 0 16 16" fill="none" xmlns="http://www.w3.org/2000/svg">
<path d="M10.6045 3.27246C10.4359 3.27246 10.2923 3.21549 10.1738 3.10156C10.0599 2.98307 10.0029 2.83952 10.0029 2.6709C10.0029 2.50684 10.0599 2.36556 10.1738 2.24707C10.2923 2.12858 10.4359 2.06934 10.6045 2.06934H14.4395C14.6081 2.06934 14.7516 2.12858 14.8701 2.24707C14.9886 2.36556 15.0479 2.50684 15.0479 2.6709C15.0479 2.83952 14.9886 2.98307 14.8701 3.10156C14.7516 3.21549 14.6081 3.27246 14.4395 3.27246H10.6045ZM10.6045 6.85449C10.4359 6.85449 10.2923 6.79753 10.1738 6.68359C10.0599 6.5651 10.0029 6.42155 10.0029 6.25293C10.0029 6.08431 10.0599 5.94303 10.1738 5.8291C10.2923 5.71061 10.4359 5.65137 10.6045 5.65137H14.4395C14.6081 5.65137 14.7516 5.71061 14.8701 5.8291C14.9886 5.94303 15.0479 6.08431 15.0479 6.25293C15.0479 6.42155 14.9886 6.5651 14.8701 6.68359C14.7516 6.79753 14.6081 6.85449 14.4395 6.85449H10.6045ZM1.54688 10.4365C1.37826 10.4365 1.2347 10.3796 1.11621 10.2656C1.00228 10.1471 0.945312 10.0036 0.945312 9.83496C0.945312 9.66634 1.00228 9.52507 1.11621 9.41113C1.2347 9.29264 1.37826 9.2334 1.54688 9.2334H14.4395C14.6081 9.2334 14.7516 9.29264 14.8701 9.41113C14.9886 9.52507 15.0479 9.66634 15.0479 9.83496C15.0479 10.0036 14.9886 10.1471 14.8701 10.2656C14.7516 10.3796 14.6081 10.4365 14.4395 10.4365H1.54688ZM1.54688 14.0117C1.37826 14.0117 1.2347 13.9548 1.11621 13.8408C1.00228 13.7269 0.945312 13.5856 0.945312 13.417C0.945312 13.2438 1.00228 13.1003 1.11621 12.9863C1.2347 12.8678 1.37826 12.8086 1.54688 12.8086H14.4395C14.6081 12.8086 14.7516 12.8678 14.8701 12.9863C14.9886 13.1003 15.0479 13.2438 15.0479 13.417C15.0479 13.5856 14.9886 13.7269 14.8701 13.8408C14.7516 13.9548 14.6081 14.0117 14.4395 14.0117H1.54688ZM2.86621 7.22363C2.32845 7.22363 1.875 7.03451 1.50586 6.65625C1.14128 6.27344 0.958984 5.76302 0.958984 5.125C0.958984 4.54167 1.0957 4.01986 1.36914 3.55957C1.64258 3.09473 2.00033 2.73014 2.44238 2.46582C2.88444 2.2015 3.36296 2.06934 3.87793 2.06934C4.05566 2.06934 4.20378 2.11263 4.32227 2.19922C4.44076 2.28581 4.5 2.40885 4.5 2.56836C4.5 2.70052 4.45443 2.81445 4.36328 2.91016C4.27214 3.0013 4.16048 3.04915 4.02832 3.05371C3.65007 3.0765 3.3151 3.17448 3.02344 3.34766C2.73633 3.52083 2.50846 3.75781 2.33984 4.05859C2.17122 4.35482 2.0778 4.69661 2.05957 5.08398L1.92969 5.03613C2.01628 4.74447 2.15755 4.52799 2.35352 4.38672C2.55404 4.24544 2.79329 4.1748 3.07129 4.1748C3.48145 4.1748 3.82324 4.3138 4.09668 4.5918C4.37012 4.86523 4.50684 5.22526 4.50684 5.67188C4.50684 5.98177 4.43164 6.25521 4.28125 6.49219C4.13542 6.72461 3.93717 6.90462 3.68652 7.03223C3.44043 7.15983 3.16699 7.22363 2.86621 7.22363ZM7.13867 7.22363C6.60091 7.22363 6.14746 7.03451 5.77832 6.65625C5.41374 6.27344 5.23145 5.76302 5.23145 5.125C5.23145 4.54167 5.36816 4.01986 5.6416 3.55957C5.91504 3.09473 6.27279 2.73014 6.71484 2.46582C7.16146 2.2015 7.63997 2.06934 8.15039 2.06934C8.32812 2.06934 8.47624 2.11263 8.59473 2.19922C8.71777 2.28581 8.7793 2.40885 8.7793 2.56836C8.7793 2.70052 8.73372 2.81445 8.64258 2.91016C8.55143 3.0013 8.43522 3.04915 8.29395 3.05371C7.92025 3.0765 7.58757 3.17448 7.2959 3.34766C7.00879 3.52083 6.78092 3.75781 6.6123 4.05859C6.44368 4.35482 6.35026 4.69661 6.33203 5.08398L6.20215 5.03613C6.28874 4.74447 6.43229 4.52799 6.63281 4.38672C6.83333 4.24544 7.07031 4.1748 7.34375 4.1748C7.75846 4.1748 8.10254 4.3138 8.37598 4.5918C8.64941 4.86523 8.78613 5.22526 8.78613 5.67188C8.78613 5.98177 8.71094 6.25521 8.56055 6.49219C8.41016 6.72461 8.20964 6.90462 7.95898 7.03223C7.71289 7.15983 7.43945 7.22363 7.13867 7.22363Z" fill="#0F2D35" fill-opacity="0.66"/>
</svg>
