<svg width="16" height="13" viewBox="0 0 16 13" fill="none" xmlns="http://www.w3.org/2000/svg">
<path d="M10.6045 1.27246C10.4359 1.27246 10.2923 1.21549 10.1738 1.10156C10.0599 0.983073 10.0029 0.839518 10.0029 0.670898C10.0029 0.506836 10.0599 0.36556 10.1738 0.24707C10.2923 0.128581 10.4359 0.0693359 10.6045 0.0693359H14.4395C14.6081 0.0693359 14.7516 0.128581 14.8701 0.24707C14.9886 0.36556 15.0479 0.506836 15.0479 0.670898C15.0479 0.839518 14.9886 0.983073 14.8701 1.10156C14.7516 1.21549 14.6081 1.27246 14.4395 1.27246H10.6045ZM10.6045 4.85449C10.4359 4.85449 10.2923 4.79753 10.1738 4.68359C10.0599 4.5651 10.0029 4.42155 10.0029 4.25293C10.0029 4.08431 10.0599 3.94303 10.1738 3.8291C10.2923 3.71061 10.4359 3.65137 10.6045 3.65137H14.4395C14.6081 3.65137 14.7516 3.71061 14.8701 3.8291C14.9886 3.94303 15.0479 4.08431 15.0479 4.25293C15.0479 4.42155 14.9886 4.5651 14.8701 4.68359C14.7516 4.79753 14.6081 4.85449 14.4395 4.85449H10.6045ZM1.54688 8.43652C1.37826 8.43652 1.2347 8.37956 1.11621 8.26562C1.00228 8.14714 0.945312 8.00358 0.945312 7.83496C0.945312 7.66634 1.00228 7.52507 1.11621 7.41113C1.2347 7.29264 1.37826 7.2334 1.54688 7.2334H14.4395C14.6081 7.2334 14.7516 7.29264 14.8701 7.41113C14.9886 7.52507 15.0479 7.66634 15.0479 7.83496C15.0479 8.00358 14.9886 8.14714 14.8701 8.26562C14.7516 8.37956 14.6081 8.43652 14.4395 8.43652H1.54688ZM1.54688 12.0117C1.37826 12.0117 1.2347 11.9548 1.11621 11.8408C1.00228 11.7269 0.945312 11.5856 0.945312 11.417C0.945312 11.2438 1.00228 11.1003 1.11621 10.9863C1.2347 10.8678 1.37826 10.8086 1.54688 10.8086H14.4395C14.6081 10.8086 14.7516 10.8678 14.8701 10.9863C14.9886 11.1003 15.0479 11.2438 15.0479 11.417C15.0479 11.5856 14.9886 11.7269 14.8701 11.8408C14.7516 11.9548 14.6081 12.0117 14.4395 12.0117H1.54688ZM2.86621 5.22363C2.32845 5.22363 1.875 5.03451 1.50586 4.65625C1.14128 4.27344 0.958984 3.76302 0.958984 3.125C0.958984 2.54167 1.0957 2.01986 1.36914 1.55957C1.64258 1.09473 2.00033 0.730143 2.44238 0.46582C2.88444 0.201497 3.36296 0.0693359 3.87793 0.0693359C4.05566 0.0693359 4.20378 0.11263 4.32227 0.199219C4.44076 0.285807 4.5 0.408854 4.5 0.568359C4.5 0.700521 4.45443 0.814453 4.36328 0.910156C4.27214 1.0013 4.16048 1.04915 4.02832 1.05371C3.65007 1.0765 3.3151 1.17448 3.02344 1.34766C2.73633 1.52083 2.50846 1.75781 2.33984 2.05859C2.17122 2.35482 2.0778 2.69661 2.05957 3.08398L1.92969 3.03613C2.01628 2.74447 2.15755 2.52799 2.35352 2.38672C2.55404 2.24544 2.79329 2.1748 3.07129 2.1748C3.48145 2.1748 3.82324 2.3138 4.09668 2.5918C4.37012 2.86523 4.50684 3.22526 4.50684 3.67188C4.50684 3.98177 4.43164 4.25521 4.28125 4.49219C4.13542 4.72461 3.93717 4.90462 3.68652 5.03223C3.44043 5.15983 3.16699 5.22363 2.86621 5.22363ZM7.13867 5.22363C6.60091 5.22363 6.14746 5.03451 5.77832 4.65625C5.41374 4.27344 5.23145 3.76302 5.23145 3.125C5.23145 2.54167 5.36816 2.01986 5.6416 1.55957C5.91504 1.09473 6.27279 0.730143 6.71484 0.46582C7.16146 0.201497 7.63997 0.0693359 8.15039 0.0693359C8.32812 0.0693359 8.47624 0.11263 8.59473 0.199219C8.71777 0.285807 8.7793 0.408854 8.7793 0.568359C8.7793 0.700521 8.73372 0.814453 8.64258 0.910156C8.55143 1.0013 8.43522 1.04915 8.29395 1.05371C7.92025 1.0765 7.58757 1.17448 7.2959 1.34766C7.00879 1.52083 6.78092 1.75781 6.6123 2.05859C6.44368 2.35482 6.35026 2.69661 6.33203 3.08398L6.20215 3.03613C6.28874 2.74447 6.43229 2.52799 6.63281 2.38672C6.83333 2.24544 7.07031 2.1748 7.34375 2.1748C7.75846 2.1748 8.10254 2.3138 8.37598 2.5918C8.64941 2.86523 8.78613 3.22526 8.78613 3.67188C8.78613 3.98177 8.71094 4.25521 8.56055 4.49219C8.41016 4.72461 8.20964 4.90462 7.95898 5.03223C7.71289 5.15983 7.43945 5.22363 7.13867 5.22363Z" fill="#0F2D35" fill-opacity="0.66"/>
</svg>
