<svg width="16" height="16" viewBox="0 0 16 16" fill="none" xmlns="http://www.w3.org/2000/svg">
<path d="M4.52051 15.7275C4.31087 15.7275 4.14909 15.6592 4.03516 15.5225C3.92578 15.3903 3.87109 15.2126 3.87109 14.9893V13.0068H3.59082C2.93001 13.0068 2.36263 12.8815 1.88867 12.6309C1.41927 12.3757 1.05697 12.0111 0.801758 11.5371C0.551107 11.0586 0.425781 10.4798 0.425781 9.80078V4.49609C0.425781 3.81706 0.551107 3.24056 0.801758 2.7666C1.05241 2.28809 1.41471 1.92122 1.88867 1.66602C2.36719 1.41081 2.95052 1.2832 3.63867 1.2832H12.3545C13.0426 1.2832 13.6237 1.41081 14.0977 1.66602C14.5762 1.92122 14.9408 2.28809 15.1914 2.7666C15.4421 3.24056 15.5674 3.81706 15.5674 4.49609V9.80078C15.5674 10.4798 15.4421 11.0586 15.1914 11.5371C14.9408 12.0111 14.5762 12.3757 14.0977 12.6309C13.6237 12.8815 13.0426 13.0068 12.3545 13.0068H7.87012L5.36133 15.2764C5.18815 15.4359 5.04004 15.5498 4.91699 15.6182C4.79395 15.6911 4.66178 15.7275 4.52051 15.7275ZM4.54102 6.41016C4.54102 6.82487 4.66178 7.17122 4.90332 7.44922C5.14486 7.72721 5.46615 7.86621 5.86719 7.86621C6.02669 7.86621 6.17708 7.8457 6.31836 7.80469C6.45964 7.76367 6.57812 7.68392 6.67383 7.56543H6.74902C6.67155 7.75684 6.56445 7.92546 6.42773 8.07129C6.29557 8.21712 6.14518 8.34017 5.97656 8.44043C5.80794 8.54069 5.63704 8.61133 5.46387 8.65234C5.33626 8.68424 5.2474 8.72982 5.19727 8.78906C5.15169 8.84375 5.12891 8.91667 5.12891 9.00781C5.12891 9.10352 5.16309 9.18327 5.23145 9.24707C5.30436 9.31087 5.39095 9.34277 5.49121 9.34277C5.68262 9.34277 5.90137 9.28581 6.14746 9.17188C6.39355 9.05794 6.63053 8.8916 6.8584 8.67285C7.08626 8.44954 7.27539 8.17383 7.42578 7.8457C7.58073 7.51758 7.6582 7.13704 7.6582 6.7041C7.6582 6.37142 7.58984 6.07292 7.45312 5.80859C7.32096 5.53971 7.13639 5.3278 6.89941 5.17285C6.66243 5.01335 6.38444 4.93359 6.06543 4.93359C5.63249 4.93359 5.27018 5.07259 4.97852 5.35059C4.68685 5.62858 4.54102 5.98177 4.54102 6.41016ZM8.39648 6.41016C8.39648 6.82487 8.51497 7.17122 8.75195 7.44922C8.99349 7.72721 9.31478 7.86621 9.71582 7.86621C9.87533 7.86621 10.0257 7.8457 10.167 7.80469C10.3128 7.76367 10.4336 7.68392 10.5293 7.56543H10.6045C10.527 7.75684 10.4199 7.92546 10.2832 8.07129C10.151 8.21712 10.0007 8.34017 9.83203 8.44043C9.66341 8.54069 9.49023 8.61133 9.3125 8.65234C9.18945 8.68424 9.10286 8.72982 9.05273 8.78906C9.00716 8.84375 8.98438 8.91667 8.98438 9.00781C8.98438 9.10352 9.01855 9.18327 9.08691 9.24707C9.15527 9.31087 9.24186 9.34277 9.34668 9.34277C9.53809 9.34277 9.75456 9.28581 9.99609 9.17188C10.2422 9.05794 10.4814 8.8916 10.7139 8.67285C10.9463 8.44954 11.1377 8.17383 11.2881 7.8457C11.4385 7.51758 11.5137 7.13704 11.5137 6.7041C11.5137 6.37142 11.4453 6.07292 11.3086 5.80859C11.1764 5.53971 10.9896 5.3278 10.748 5.17285C10.5111 5.01335 10.2331 4.93359 9.91406 4.93359C9.48112 4.93359 9.11882 5.07259 8.82715 5.35059C8.54004 5.62858 8.39648 5.98177 8.39648 6.41016Z" fill="#8379F8"/>
</svg>
