<svg width="16" height="16" viewBox="0 0 16 16" fill="none" xmlns="http://www.w3.org/2000/svg">
<path d="M2.71582 14.6201C2.31934 14.6201 1.97526 14.5335 1.68359 14.3604C1.39193 14.1872 1.16634 13.9548 1.00684 13.6631C0.851888 13.3714 0.774414 13.0479 0.774414 12.6924C0.774414 12.346 0.86556 12.0156 1.04785 11.7012L6.33887 2.47949C6.5166 2.15592 6.75586 1.91211 7.05664 1.74805C7.35742 1.58398 7.67188 1.50195 8 1.50195C8.32812 1.50195 8.6403 1.58398 8.93652 1.74805C9.23275 1.90755 9.47428 2.15137 9.66113 2.47949L14.9521 11.7012C15.0433 11.8561 15.1117 12.0179 15.1572 12.1865C15.2028 12.3551 15.2256 12.5238 15.2256 12.6924C15.2256 13.0479 15.1458 13.3714 14.9863 13.6631C14.8268 13.9548 14.6012 14.1872 14.3096 14.3604C14.0225 14.5335 13.6807 14.6201 13.2842 14.6201H2.71582ZM8.00684 9.9375C8.41243 9.9375 8.61979 9.72559 8.62891 9.30176L8.73828 5.87012C8.7474 5.66048 8.68132 5.48958 8.54004 5.35742C8.39876 5.2207 8.21875 5.15234 8 5.15234C7.77669 5.15234 7.59668 5.2207 7.45996 5.35742C7.32324 5.48958 7.25944 5.6582 7.26855 5.86328L7.36426 9.30859C7.37793 9.72786 7.59212 9.9375 8.00684 9.9375ZM8.00684 12.2891C8.2347 12.2891 8.43066 12.2161 8.59473 12.0703C8.75879 11.9245 8.84082 11.7376 8.84082 11.5098C8.84082 11.2865 8.75879 11.0996 8.59473 10.9492C8.43066 10.7988 8.2347 10.7236 8.00684 10.7236C7.77441 10.7236 7.57617 10.7988 7.41211 10.9492C7.24805 11.0996 7.16602 11.2865 7.16602 11.5098C7.16602 11.7376 7.24805 11.9245 7.41211 12.0703C7.58073 12.2161 7.77897 12.2891 8.00684 12.2891Z" fill="#DB4C65"/>
</svg>
