<svg width="16" height="16" viewBox="0 0 16 16" fill="none" xmlns="http://www.w3.org/2000/svg">
<path d="M3.86426 14.0459C3.23535 14.0459 2.76823 13.8932 2.46289 13.5879C2.16211 13.2871 2.01172 12.8223 2.01172 12.1934V10.7305C2.01172 10.6029 1.96842 10.4958 1.88184 10.4092L0.849609 9.37012C0.402995 8.92806 0.179688 8.49284 0.179688 8.06445C0.179688 7.63607 0.402995 7.19857 0.849609 6.75195L1.88184 5.71289C1.96842 5.6263 2.01172 5.52148 2.01172 5.39844V3.92871C2.01172 3.29525 2.16211 2.82812 2.46289 2.52734C2.76823 2.22656 3.23535 2.07617 3.86426 2.07617H5.32715C5.45475 2.07617 5.56185 2.03288 5.64844 1.94629L6.6875 0.914062C7.13411 0.467448 7.56934 0.244141 7.99316 0.244141C8.42155 0.239583 8.85677 0.462891 9.29883 0.914062L10.3379 1.94629C10.429 2.03288 10.5384 2.07617 10.666 2.07617H12.1221C12.7555 2.07617 13.2227 2.22884 13.5234 2.53418C13.8242 2.83952 13.9746 3.30436 13.9746 3.92871V5.39844C13.9746 5.52148 14.0202 5.6263 14.1113 5.71289L15.1436 6.75195C15.5856 7.19857 15.8066 7.63607 15.8066 8.06445C15.8112 8.49284 15.5902 8.92806 15.1436 9.37012L14.1113 10.4092C14.0202 10.4958 13.9746 10.6029 13.9746 10.7305V12.1934C13.9746 12.8268 13.8219 13.2939 13.5166 13.5947C13.2158 13.8955 12.751 14.0459 12.1221 14.0459H10.666C10.5384 14.0459 10.429 14.0892 10.3379 14.1758L9.29883 15.2148C8.85677 15.6569 8.42155 15.8779 7.99316 15.8779C7.56934 15.8825 7.13411 15.6615 6.6875 15.2148L5.64844 14.1758C5.56185 14.0892 5.45475 14.0459 5.32715 14.0459H3.86426ZM7.23438 11.4277C7.36198 11.4277 7.47819 11.3981 7.58301 11.3389C7.69238 11.2796 7.78809 11.1908 7.87012 11.0723L11.0693 6.08203C11.1149 6.00911 11.1559 5.93164 11.1924 5.84961C11.2288 5.76302 11.2471 5.68099 11.2471 5.60352C11.2471 5.42578 11.1787 5.28223 11.042 5.17285C10.9098 5.06348 10.7594 5.00879 10.5908 5.00879C10.3675 5.00879 10.1829 5.12728 10.0371 5.36426L7.20703 9.88965L5.89453 8.22168C5.80339 8.10775 5.71452 8.02799 5.62793 7.98242C5.54134 7.93685 5.44336 7.91406 5.33398 7.91406C5.16081 7.91406 5.0127 7.97786 4.88965 8.10547C4.77116 8.22852 4.71191 8.37663 4.71191 8.5498C4.71191 8.63639 4.72786 8.7207 4.75977 8.80273C4.79167 8.88477 4.83724 8.96452 4.89648 9.04199L6.57129 11.0791C6.67155 11.2021 6.77409 11.291 6.87891 11.3457C6.98372 11.4004 7.10221 11.4277 7.23438 11.4277Z" fill="#2FB7BF"/>
</svg>
