<svg width="16" height="16" viewBox="0 0 16 16" fill="none" xmlns="http://www.w3.org/2000/svg">
<path d="M1.24609 6.82031C1.24609 6.05469 1.38965 5.33691 1.67676 4.66699C1.96842 3.99251 2.36947 3.40007 2.87988 2.88965C3.3903 2.37467 3.98047 1.97363 4.65039 1.68652C5.32487 1.39941 6.04492 1.25586 6.81055 1.25586C7.58073 1.25586 8.30078 1.39941 8.9707 1.68652C9.64518 1.97363 10.2376 2.37467 10.748 2.88965C11.2585 3.40007 11.6572 3.99251 11.9443 4.66699C12.236 5.33691 12.3818 6.05469 12.3818 6.82031C12.3818 7.42188 12.2884 7.99382 12.1016 8.53613C11.9193 9.07845 11.6663 9.57292 11.3428 10.0195L14.46 13.1504C14.5557 13.2415 14.6263 13.3486 14.6719 13.4717C14.722 13.5947 14.7471 13.7246 14.7471 13.8613C14.7471 14.0527 14.7038 14.2259 14.6172 14.3809C14.5306 14.5358 14.4121 14.6566 14.2617 14.7432C14.1113 14.8343 13.9382 14.8799 13.7422 14.8799C13.6055 14.8799 13.4733 14.8548 13.3457 14.8047C13.2227 14.7591 13.111 14.6862 13.0107 14.5859L9.87305 11.4482C9.43555 11.7399 8.95703 11.9701 8.4375 12.1387C7.92253 12.3027 7.38021 12.3848 6.81055 12.3848C6.04492 12.3848 5.32487 12.2412 4.65039 11.9541C3.98047 11.667 3.3903 11.2682 2.87988 10.7578C2.36947 10.2474 1.96842 9.65723 1.67676 8.9873C1.38965 8.31283 1.24609 7.59049 1.24609 6.82031ZM2.70215 6.82031C2.70215 7.38997 2.80697 7.92318 3.0166 8.41992C3.23079 8.91667 3.52702 9.35417 3.90527 9.73242C4.28353 10.1061 4.72103 10.4001 5.21777 10.6143C5.71452 10.8285 6.24544 10.9355 6.81055 10.9355C7.38021 10.9355 7.91341 10.8285 8.41016 10.6143C8.9069 10.4001 9.34212 10.1061 9.71582 9.73242C10.0941 9.35417 10.3903 8.91667 10.6045 8.41992C10.8187 7.92318 10.9258 7.38997 10.9258 6.82031C10.9258 6.25521 10.8187 5.72428 10.6045 5.22754C10.3903 4.73079 10.0941 4.29329 9.71582 3.91504C9.34212 3.53678 8.9069 3.24284 8.41016 3.0332C7.91341 2.81901 7.38021 2.71191 6.81055 2.71191C6.24544 2.71191 5.71452 2.81901 5.21777 3.0332C4.72103 3.24284 4.28353 3.53678 3.90527 3.91504C3.52702 4.29329 3.23079 4.73079 3.0166 5.22754C2.80697 5.72428 2.70215 6.25521 2.70215 6.82031Z" fill="#0F2D35" fill-opacity="0.66"/>
</svg>
