<svg width="25" height="24" viewBox="0 0 25 24" fill="none" xmlns="http://www.w3.org/2000/svg">
<path fill-rule="evenodd" clip-rule="evenodd" d="M0.0214844 22.0001C0.0214844 23.1047 0.916915 24.0001 2.02148 24.0001H22.0215C23.1261 24.0001 24.0215 23.1047 24.0215 22.0001V2.00012C24.0215 0.895552 23.1261 0.00012207 22.0215 0.00012207H2.02148C0.916914 0.00012207 0.0214844 0.895553 0.0214844 2.00012V22.0001Z" fill="black" fill-opacity="0.66"/>
<path fill-rule="evenodd" clip-rule="evenodd" d="M20.0004 7.59964C19.1763 6.18771 18.0585 5.06983 16.6467 4.24587C15.2347 3.42181 13.6932 3.00989 12.021 3.00989C10.3491 3.00989 8.80713 3.42197 7.39536 4.24587C5.98343 5.06977 4.86566 6.18771 4.04159 7.59964C3.21764 9.01157 2.80566 10.5534 2.80566 12.2251C2.80566 14.2331 3.39151 16.0389 4.56352 17.6427C5.73542 19.2466 7.24935 20.3565 9.10516 20.9724C9.32117 21.0124 9.48108 20.9843 9.58506 20.8885C9.68909 20.7926 9.74103 20.6725 9.74103 20.5286C9.74103 20.5046 9.73895 20.2888 9.73495 19.8807C9.73085 19.4727 9.72893 19.1167 9.72893 18.813L9.45295 18.8607C9.27695 18.8929 9.05498 18.9066 8.78693 18.9027C8.51905 18.899 8.24099 18.8709 7.95302 18.8187C7.665 18.767 7.39706 18.647 7.14904 18.459C6.90119 18.271 6.72519 18.0249 6.62116 17.7212L6.5012 17.4451C6.42124 17.2612 6.29532 17.057 6.12331 16.8332C5.95126 16.6091 5.77734 16.4573 5.60134 16.3772L5.51733 16.3171C5.46135 16.2771 5.40941 16.2289 5.36136 16.173C5.31337 16.1171 5.27747 16.0611 5.25345 16.005C5.22942 15.9489 5.24934 15.9029 5.31342 15.8668C5.37751 15.8307 5.49336 15.8131 5.66143 15.8131L5.90129 15.849C6.06131 15.8811 6.2592 15.9769 6.49529 16.1369C6.73121 16.2969 6.92516 16.5049 7.07719 16.7607C7.26128 17.0888 7.48303 17.3387 7.74315 17.5108C8.00304 17.6828 8.26512 17.7687 8.52901 17.7687C8.79295 17.7687 9.02094 17.7487 9.21298 17.7088C9.40484 17.6689 9.58484 17.6087 9.7529 17.5287C9.82492 16.9926 10.0209 16.5807 10.3408 16.2927C9.8849 16.2448 9.47495 16.1727 9.11091 16.0767C8.74704 15.9806 8.37102 15.8247 7.98312 15.6085C7.59495 15.3926 7.273 15.1245 7.0171 14.8047C6.76114 14.4847 6.55111 14.0646 6.38726 13.5447C6.22324 13.0247 6.14126 12.4248 6.14126 11.7449C6.14126 10.7768 6.45731 9.95297 7.08928 9.273C6.79327 8.54514 6.82118 7.72923 7.17323 6.82527C7.40521 6.7532 7.74928 6.80727 8.20514 6.9872C8.66117 7.16725 8.995 7.32142 9.20712 7.44925C9.41918 7.57704 9.58911 7.68534 9.71711 7.77323C10.4612 7.56533 11.2291 7.46135 12.021 7.46135C12.8128 7.46135 13.5809 7.56533 14.325 7.77323L14.781 7.48537C15.0928 7.29329 15.461 7.11729 15.8847 6.95727C16.3087 6.79736 16.6329 6.75336 16.857 6.82543C17.2168 7.7294 17.2489 8.54525 16.9528 9.27311C17.5847 9.95308 17.9009 10.7771 17.9009 11.745C17.9009 12.4249 17.8186 13.0267 17.6549 13.5508C17.491 14.0749 17.2791 14.4946 17.0192 14.8107C16.759 15.1268 16.435 15.3928 16.0471 15.6086C15.6591 15.8247 15.2829 15.9806 14.919 16.0767C14.555 16.1727 14.1451 16.2449 13.6892 16.2929C14.105 16.6528 14.313 17.2208 14.313 17.9967V20.5283C14.313 20.6721 14.363 20.7922 14.4631 20.8881C14.5631 20.9839 14.721 21.0121 14.937 20.972C16.7931 20.3561 18.307 19.2463 19.4788 17.6423C20.6505 16.0385 21.2366 14.2328 21.2366 12.2247C21.2362 10.5533 20.824 9.01157 20.0004 7.59964Z" fill="white"/>
</svg>
