<svg width="20" height="20" viewBox="0 0 20 20" fill="none" xmlns="http://www.w3.org/2000/svg">
<path d="M15.0078 10.3594C15.0078 10.4948 14.9818 10.6198 14.9297 10.7344C14.8776 10.849 14.7995 10.9583 14.6953 11.0625L8.60938 17.0156C8.4375 17.1927 8.22396 17.2812 7.96875 17.2812C7.80208 17.2812 7.64844 17.2396 7.50781 17.1562C7.36719 17.0781 7.25521 16.9688 7.17188 16.8281C7.09375 16.6927 7.05469 16.5417 7.05469 16.375C7.05469 16.125 7.14844 15.9036 7.33594 15.7109L12.8203 10.3594L7.33594 5.00781C7.14844 4.8151 7.05469 4.59635 7.05469 4.35156C7.05469 4.17969 7.09375 4.02604 7.17188 3.89062C7.25521 3.75521 7.36719 3.64844 7.50781 3.57031C7.64844 3.48698 7.80208 3.44531 7.96875 3.44531C8.22396 3.44531 8.4375 3.53125 8.60938 3.70312L14.6953 9.65625C14.7995 9.76042 14.8776 9.86979 14.9297 9.98438C14.9818 10.099 15.0078 10.224 15.0078 10.3594Z" fill="#0F2D35" fill-opacity="0.5"/>
</svg>
