<svg width="20" height="21" viewBox="0 0 20 21" fill="none" xmlns="http://www.w3.org/2000/svg">
<path d="M3.46094 10.8594C3.46094 11.1042 3.54688 11.3125 3.71875 11.4844C3.89062 11.651 4.09635 11.7344 4.33594 11.7344H9.125V16.5312C9.125 16.7656 9.21094 16.9688 9.38281 17.1406C9.55469 17.3125 9.76042 17.3984 10 17.3984C10.2448 17.3984 10.4531 17.3125 10.625 17.1406C10.7969 16.9688 10.8828 16.7656 10.8828 16.5312V11.7344H15.6641C15.9036 11.7344 16.1094 11.651 16.2812 11.4844C16.4531 11.3125 16.5391 11.1042 16.5391 10.8594C16.5391 10.6198 16.4531 10.4141 16.2812 10.2422C16.1094 10.0651 15.9036 9.97656 15.6641 9.97656H10.8828V5.19531C10.8828 4.95573 10.7969 4.75 10.625 4.57812C10.4531 4.40625 10.2448 4.32031 10 4.32031C9.76042 4.32031 9.55469 4.40625 9.38281 4.57812C9.21094 4.75 9.125 4.95573 9.125 5.19531V9.97656H4.33594C4.09635 9.97656 3.89062 10.0651 3.71875 10.2422C3.54688 10.4141 3.46094 10.6198 3.46094 10.8594Z" fill="black"/>
</svg>
