<svg width="16" height="16" viewBox="0 0 16 16" fill="none" xmlns="http://www.w3.org/2000/svg">
<path d="M7.99316 15.126C7.02702 15.126 6.11784 14.9414 5.26562 14.5723C4.41341 14.2077 3.66146 13.6995 3.00977 13.0479C2.36263 12.3962 1.85449 11.6442 1.48535 10.792C1.11621 9.93978 0.931641 9.0306 0.931641 8.06445C0.931641 7.09831 1.11621 6.18913 1.48535 5.33691C1.85449 4.4847 2.36263 3.73503 3.00977 3.08789C3.66146 2.4362 4.41113 1.92578 5.25879 1.55664C6.111 1.1875 7.02018 1.00293 7.98633 1.00293C8.95703 1.00293 9.86849 1.1875 10.7207 1.55664C11.5729 1.92578 12.3249 2.4362 12.9766 3.08789C13.6283 3.73503 14.1387 4.4847 14.5078 5.33691C14.877 6.18913 15.0615 7.09831 15.0615 8.06445C15.0615 9.0306 14.877 9.93978 14.5078 10.792C14.1387 11.6442 13.6283 12.3962 12.9766 13.0479C12.3249 13.6995 11.5729 14.2077 10.7207 14.5723C9.86849 14.9414 8.95931 15.126 7.99316 15.126ZM7.23438 11.4346C7.36198 11.4346 7.47819 11.4049 7.58301 11.3457C7.69238 11.2865 7.78809 11.1976 7.87012 11.0791L11.0693 6.08887C11.1149 6.01595 11.1559 5.93848 11.1924 5.85645C11.2288 5.76986 11.2471 5.68783 11.2471 5.61035C11.2471 5.43262 11.1787 5.28906 11.042 5.17969C10.9098 5.07031 10.7594 5.01562 10.5908 5.01562C10.3675 5.01562 10.1829 5.13411 10.0371 5.37109L7.20703 9.89648L5.89453 8.22852C5.80339 8.11458 5.71452 8.03483 5.62793 7.98926C5.54134 7.94368 5.44336 7.9209 5.33398 7.9209C5.16081 7.9209 5.0127 7.9847 4.88965 8.1123C4.77116 8.23535 4.71191 8.38346 4.71191 8.55664C4.71191 8.64323 4.72786 8.72754 4.75977 8.80957C4.79167 8.8916 4.83724 8.97135 4.89648 9.04883L6.57129 11.0859C6.67155 11.209 6.77409 11.2979 6.87891 11.3525C6.98372 11.4072 7.10221 11.4346 7.23438 11.4346Z" fill="#838383"/>
</svg>
