<svg width="16" height="16" viewBox="0 0 16 16" fill="none" xmlns="http://www.w3.org/2000/svg">
<path d="M7.99316 15.126C7.02702 15.126 6.11784 14.9414 5.26562 14.5723C4.41341 14.2077 3.66146 13.6995 3.00977 13.0479C2.36263 12.3962 1.85449 11.6442 1.48535 10.792C1.11621 9.93978 0.931641 9.0306 0.931641 8.06445C0.931641 7.09831 1.11621 6.18913 1.48535 5.33691C1.85449 4.4847 2.36263 3.73503 3.00977 3.08789C3.66146 2.4362 4.41113 1.92578 5.25879 1.55664C6.111 1.1875 7.02018 1.00293 7.98633 1.00293C8.95703 1.00293 9.86849 1.1875 10.7207 1.55664C11.5729 1.92578 12.3249 2.4362 12.9766 3.08789C13.6283 3.73503 14.1387 4.4847 14.5078 5.33691C14.877 6.18913 15.0615 7.09831 15.0615 8.06445C15.0615 9.0306 14.877 9.93978 14.5078 10.792C14.1387 11.6442 13.6283 12.3962 12.9766 13.0479C12.3249 13.6995 11.5729 14.2077 10.7207 14.5723C9.86849 14.9414 8.95931 15.126 7.99316 15.126ZM7.84277 9.48633C8.03874 9.48633 8.19596 9.4362 8.31445 9.33594C8.43294 9.23568 8.49674 9.11035 8.50586 8.95996C8.50586 8.94629 8.50586 8.93262 8.50586 8.91895C8.50586 8.90072 8.50586 8.88704 8.50586 8.87793C8.51953 8.69108 8.58789 8.5293 8.71094 8.39258C8.83398 8.25586 9.01172 8.1123 9.24414 7.96191C9.59505 7.73861 9.87533 7.50618 10.085 7.26465C10.2992 7.01855 10.4062 6.68815 10.4062 6.27344C10.4062 5.87695 10.2969 5.54199 10.0781 5.26855C9.86393 4.99056 9.58138 4.77865 9.23047 4.63281C8.87956 4.48698 8.49219 4.41406 8.06836 4.41406C7.45312 4.41406 6.94954 4.53255 6.55762 4.76953C6.16569 5.00651 5.91048 5.29362 5.79199 5.63086C5.77376 5.6901 5.75781 5.75163 5.74414 5.81543C5.73047 5.87923 5.72363 5.94303 5.72363 6.00684C5.72363 6.17546 5.7806 6.3099 5.89453 6.41016C6.01302 6.51042 6.14518 6.56055 6.29102 6.56055C6.42318 6.56055 6.53483 6.53548 6.62598 6.48535C6.71712 6.43066 6.79915 6.35775 6.87207 6.2666L6.97461 6.11621C7.0612 5.98861 7.15462 5.88151 7.25488 5.79492C7.35514 5.70833 7.46452 5.64225 7.58301 5.59668C7.70605 5.55111 7.83822 5.52832 7.97949 5.52832C8.26204 5.52832 8.49219 5.60352 8.66992 5.75391C8.84766 5.9043 8.93652 6.10026 8.93652 6.3418C8.93652 6.56966 8.86133 6.75651 8.71094 6.90234C8.56055 7.04362 8.33496 7.21908 8.03418 7.42871C7.78353 7.60645 7.57389 7.79785 7.40527 8.00293C7.24121 8.20345 7.15918 8.46777 7.15918 8.7959C7.15918 8.80501 7.15918 8.81641 7.15918 8.83008C7.15918 8.84375 7.15918 8.85742 7.15918 8.87109C7.15918 9.28125 7.38704 9.48633 7.84277 9.48633ZM7.8291 11.6602C8.05697 11.6602 8.25293 11.5872 8.41699 11.4414C8.58105 11.291 8.66309 11.1042 8.66309 10.8809C8.66309 10.6576 8.58105 10.4707 8.41699 10.3203C8.25749 10.1699 8.06152 10.0947 7.8291 10.0947C7.59668 10.0947 7.39844 10.1699 7.23438 10.3203C7.07487 10.4707 6.99512 10.6576 6.99512 10.8809C6.99512 11.1042 7.07715 11.291 7.24121 11.4414C7.40527 11.5872 7.60124 11.6602 7.8291 11.6602Z" fill="#F7BA31"/>
</svg>
