<svg width="16" height="16" viewBox="0 0 16 16" fill="none" xmlns="http://www.w3.org/2000/svg">
<path d="M9.10689 0.906072C5.09408 0.7957 1.80658 4.02014 1.80658 8.00141H0.395395C0.0406282 8.00141 -0.132813 8.42713 0.119465 8.67152L2.31902 10.879C2.47669 11.0366 2.72109 11.0366 2.87876 10.879L5.07832 8.67152C5.32271 8.42713 5.14927 8.00141 4.7945 8.00141H3.38332C3.38332 4.92676 5.89034 2.44339 8.98075 2.48281C11.9135 2.52223 14.3811 4.98983 14.4205 7.92257C14.4599 11.0051 11.9766 13.52 8.90191 13.52C7.63264 13.52 6.45796 13.0864 5.52769 12.3532C5.21234 12.1088 4.77085 12.1325 4.48704 12.4163C4.15592 12.7474 4.17957 13.3071 4.55011 13.591C5.74843 14.537 7.25422 15.0967 8.90191 15.0967C12.8832 15.0967 16.1076 11.8092 15.9972 7.79643C15.8948 4.09897 12.8043 1.00856 9.10689 0.906072ZM8.70482 4.84792C8.38159 4.84792 8.11354 5.11597 8.11354 5.4392V8.34041C8.11354 8.61634 8.26333 8.8765 8.49984 9.01841L10.9596 10.4769C11.2434 10.6424 11.606 10.5478 11.7716 10.2719C11.9371 9.9881 11.8425 9.62545 11.5666 9.45989L9.2961 8.11178V5.43132C9.2961 5.11597 9.02805 4.84792 8.70482 4.84792Z" fill="#0F2D35" fill-opacity="0.66"/>
</svg>
