<svg width="16" height="16" viewBox="0 0 16 16" fill="none" xmlns="http://www.w3.org/2000/svg">
<path d="M9.10689 0.906011C5.09408 0.795639 1.80658 4.02007 1.80658 8.00135H0.395395C0.0406282 8.00135 -0.132813 8.42707 0.119465 8.67146L2.31902 10.8789C2.47669 11.0366 2.72109 11.0366 2.87876 10.8789L5.07832 8.67146C5.32271 8.42707 5.14927 8.00135 4.7945 8.00135H3.38332C3.38332 4.9267 5.89034 2.44333 8.98075 2.48275C11.9135 2.52217 14.3811 4.98977 14.4205 7.92251C14.4599 11.005 11.9766 13.5199 8.90191 13.5199C7.63264 13.5199 6.45796 13.0863 5.52769 12.3532C5.21234 12.1088 4.77085 12.1324 4.48704 12.4162C4.15592 12.7473 4.17957 13.3071 4.55011 13.5909C5.74843 14.5369 7.25422 15.0967 8.90191 15.0967C12.8832 15.0967 16.1076 11.8092 15.9972 7.79637C15.8948 4.09891 12.8043 1.0085 9.10689 0.906011ZM8.70482 4.84786C8.38159 4.84786 8.11354 5.11591 8.11354 5.43914V8.34035C8.11354 8.61628 8.26333 8.87644 8.49984 9.01834L10.9596 10.4768C11.2434 10.6424 11.606 10.5478 11.7716 10.2719C11.9371 9.98804 11.8425 9.62539 11.5666 9.45983L9.2961 8.11172V5.43126C9.2961 5.11591 9.02805 4.84786 8.70482 4.84786Z" fill="#0F2D35" fill-opacity="0.66"/>
</svg>
