<svg width="20" height="20" viewBox="0 0 20 20" fill="none" xmlns="http://www.w3.org/2000/svg">
<path d="M5 10.3594C5 10.224 5.02344 10.099 5.07031 9.98438C5.1224 9.86979 5.20052 9.76042 5.30469 9.65625L11.3906 3.70312C11.5677 3.53125 11.7812 3.44531 12.0312 3.44531C12.2031 3.44531 12.3568 3.48698 12.4922 3.57031C12.6328 3.64844 12.7448 3.75521 12.8281 3.89062C12.9115 4.02604 12.9531 4.17969 12.9531 4.35156C12.9531 4.59635 12.8568 4.8151 12.6641 5.00781L7.17969 10.3594L12.6641 15.7109C12.8568 15.9036 12.9531 16.125 12.9531 16.375C12.9531 16.5417 12.9115 16.6927 12.8281 16.8281C12.7448 16.9688 12.6328 17.0781 12.4922 17.1562C12.3568 17.2396 12.2031 17.2812 12.0312 17.2812C11.7812 17.2812 11.5677 17.1927 11.3906 17.0156L5.30469 11.0625C5.20052 10.9583 5.1224 10.849 5.07031 10.7344C5.02344 10.6198 5 10.4948 5 10.3594Z" fill="#0F2D35" fill-opacity="0.5"/>
</svg>
