<svg width="48" height="48" viewBox="0 0 48 48" fill="none" xmlns="http://www.w3.org/2000/svg">
<path d="M27.4968 38.9437C27.4968 39.3562 27.3796 39.7077 27.1452 39.989C26.9109 40.2702 26.5781 40.4906 26.1374 40.6406L28.1062 42.9937H26.5827L24.8953 40.8702H24.5015V42.9937H23.2781V37.1718H25.0171C25.3499 37.1671 25.6874 37.2046 26.0109 37.2796C26.2874 37.3406 26.5546 37.4531 26.7937 37.6124C27.0046 37.7531 27.1827 37.9453 27.3046 38.1656C27.4359 38.4046 27.5015 38.6765 27.4968 38.9437ZM26.2687 38.9718C26.2687 38.6765 26.1515 38.4609 25.9171 38.3249C25.6827 38.189 25.3828 38.1234 25.0078 38.1234H24.5015V39.9421H24.8671C25.289 39.9421 25.6265 39.8624 25.8796 39.6984C26.1421 39.5343 26.2687 39.2906 26.2687 38.9718Z" fill="#000928"/>
<path d="M28.7205 37.1719H32.2173V38.1422H29.9439V39.5484H32.1095V40.5188H29.9439V42.0234H32.2455V42.9938H28.7205V37.1719Z" fill="#000928"/>
<path d="M38.6156 42.9938H37.3453L36.9328 41.7703H34.5375L34.125 42.9938H32.8594L35.0766 37.1719H36.4031L38.6156 42.9938ZM35.7422 38.1516L34.8656 40.8H36.6141L35.7422 38.1516Z" fill="#000928"/>
<path d="M39.3938 37.172H41.1516C41.6251 37.1674 42.0985 37.2377 42.5485 37.3924C42.9423 37.5236 43.3032 37.7299 43.6173 38.0017C43.9079 38.2549 44.1423 38.5689 44.2969 38.9205C44.6157 39.6611 44.6157 40.5049 44.2969 41.2455C44.1376 41.597 43.9079 41.9111 43.6173 42.1689C43.3032 42.4408 42.9423 42.647 42.5485 42.7783C42.0985 42.9283 41.6297 43.0033 41.1516 42.9986H39.3938V37.172ZM41.1797 42.0236C41.4704 42.0283 41.761 41.9814 42.0376 41.8924C42.286 41.8127 42.5157 41.6814 42.7172 41.508C42.9094 41.3392 43.0594 41.133 43.1579 40.8986C43.3688 40.3736 43.3688 39.7877 43.1579 39.2674C43.0594 39.033 42.9047 38.8267 42.7172 38.658C42.5204 38.4845 42.2907 38.358 42.0376 38.2736C41.761 38.1845 41.4704 38.1377 41.1797 38.1424H40.6219V42.0236H41.1797Z" fill="#000928"/>
<path d="M48 39.7595H47.7984C47.5031 39.7595 47.2546 39.8064 47.0531 39.9001C46.8609 39.9892 46.6968 40.1251 46.5796 40.3032V42.9986H45.3796V38.7376H46.5328V39.4876C46.5984 39.2579 46.7343 39.0517 46.9218 38.9017C47.1 38.7611 47.339 38.6907 47.6343 38.6907C47.7562 38.6907 47.8781 38.7048 47.9953 38.7329L48 39.7595Z" fill="#000928"/>
<path d="M5.27808 9.29072V6.86259H14.6156V9.29072H5.27808ZM5.97183 13.3313V11.1376H13.9265V13.3313H5.97183ZM5.97183 17.4892V15.2954H13.9265V17.4892H5.97183ZM6.54839 5.01572V2.82197H13.4671V5.01572H6.54839ZM14.9625 29.6204L14.5031 28.697C14.3484 28.2329 14.1937 27.886 14.0437 27.6563C16.425 27.1173 18.8859 26.5782 21.4218 26.0392L22.3453 27.6563C19.9265 28.4579 17.4609 29.1142 14.9625 29.6204ZM14.7328 5.47978V3.62822H22.2281V1.89384H25.1109V3.62822H32.8359V5.47509H25.1109V6.86259H31.6828V8.47978H15.6562V6.86259H22.2281V5.47509L14.7328 5.47978ZM15.0796 14.372V9.75009H32.2593V14.372H15.0796ZM15.8859 25.8095V15.6423H31.4531V25.8095H15.8859ZM17.5031 11.1376V12.872H20.1562V11.1376H17.5031ZM18.539 17.2595V18.647H28.8V17.2595H18.539ZM18.539 20.0345V21.3048H28.8V20.0345H18.539ZM18.539 22.8048V24.0751H28.8V22.8048H18.539ZM22.2281 11.1376V12.872H25.1109V11.1376H22.2281ZM32.489 29.6204C30.4875 29.236 27.914 28.5423 24.764 27.5392L25.6875 25.8048C28.2234 26.4188 30.7593 27.0001 33.2953 27.5392L32.489 29.6204ZM29.9531 11.1376H27.0703V12.872H29.9531V11.1376Z" fill="#000928"/>
<path d="M6.08911 19.4531V29.1562H13.8141V19.4531H6.08911ZM11.6204 27.0563H8.39067V21.7641H11.6204V27.0563Z" fill="#000928"/>
<path d="M21.8391 32.1375L11.0391 39.5766V32.1375H2.87813V1.89844H0V35.0156H7.92188V46.0547L23.5219 35.0156H48V32.1375H21.8391Z" fill="#000928"/>
<path d="M47.9999 7.17656H42.7218V1.89844H39.8389V7.17656H34.5608V10.0547H39.8389V15.3375H42.7218V10.0547H47.9999V7.17656Z" fill="#000928"/>
</svg>
