<svg width="16" height="14" viewBox="0 0 16 14" fill="none" xmlns="http://www.w3.org/2000/svg">
<path d="M1.18457 7.32422C0.984049 7.32422 0.81543 7.25586 0.678711 7.11914C0.546549 6.98242 0.480469 6.8138 0.480469 6.61328V5.86816C0.480469 5.21191 0.626302 4.64681 0.917969 4.17285C1.21419 3.69434 1.62891 3.32747 2.16211 3.07227C2.69531 2.81706 3.3265 2.68945 4.05566 2.68945H9.23047V1.15137C9.23047 0.982747 9.27604 0.855143 9.36719 0.768555C9.46289 0.677409 9.59505 0.631836 9.76367 0.631836C9.84115 0.631836 9.91178 0.643229 9.97559 0.666016C10.0439 0.688802 10.1055 0.722982 10.1602 0.768555L12.8467 3.01074C12.9788 3.12012 13.0426 3.25 13.0381 3.40039C13.0381 3.54622 12.9743 3.67155 12.8467 3.77637L10.1602 6.01172C10.1055 6.06185 10.0439 6.10059 9.97559 6.12793C9.91178 6.15072 9.84115 6.16211 9.76367 6.16211C9.59505 6.16211 9.46289 6.11654 9.36719 6.02539C9.27604 5.93424 9.23047 5.80664 9.23047 5.64258V4.06348H3.94629C3.31738 4.06348 2.81608 4.23893 2.44238 4.58984C2.07324 4.94076 1.88867 5.41243 1.88867 6.00488V6.61328C1.88867 6.8138 1.82031 6.98242 1.68359 7.11914C1.55143 7.25586 1.38509 7.32422 1.18457 7.32422ZM14.8154 6.66797C15.016 6.66797 15.1823 6.73633 15.3145 6.87305C15.4512 7.00521 15.5195 7.17155 15.5195 7.37207V8.11719C15.5195 8.77344 15.3737 9.34082 15.082 9.81934C14.7904 10.2933 14.3757 10.6602 13.8379 10.9199C13.3047 11.1751 12.6735 11.3027 11.9443 11.3027H6.7627V12.8408C6.7627 13.0049 6.71712 13.1325 6.62598 13.2236C6.53483 13.3193 6.40723 13.3672 6.24316 13.3672C6.16569 13.3672 6.09277 13.3535 6.02441 13.3262C5.95605 13.2988 5.89453 13.2624 5.83984 13.2168L3.15332 10.9746C3.02116 10.8698 2.95508 10.7445 2.95508 10.5986C2.95964 10.4528 3.02572 10.3229 3.15332 10.209L5.83984 7.97363C5.89453 7.92806 5.95605 7.89388 6.02441 7.87109C6.09277 7.84375 6.16569 7.83008 6.24316 7.83008C6.40723 7.83008 6.53483 7.87565 6.62598 7.9668C6.71712 8.05794 6.7627 8.18783 6.7627 8.35645V9.91504H12.0469C12.6803 9.91504 13.1816 9.74186 13.5508 9.39551C13.9245 9.0446 14.1113 8.57292 14.1113 7.98047V7.37207C14.1113 7.17155 14.1774 7.00521 14.3096 6.87305C14.4463 6.73633 14.6149 6.66797 14.8154 6.66797Z" fill="#838383"/>
</svg>
