<svg width="16" height="16" viewBox="0 0 16 16" fill="none" xmlns="http://www.w3.org/2000/svg">
<path d="M1.18457 8.32422C0.984049 8.32422 0.81543 8.25586 0.678711 8.11914C0.546549 7.98242 0.480469 7.8138 0.480469 7.61328V6.86816C0.480469 6.21191 0.626302 5.64681 0.917969 5.17285C1.21419 4.69434 1.62891 4.32747 2.16211 4.07227C2.69531 3.81706 3.3265 3.68945 4.05566 3.68945H9.23047V2.15137C9.23047 1.98275 9.27604 1.85514 9.36719 1.76855C9.46289 1.67741 9.59505 1.63184 9.76367 1.63184C9.84115 1.63184 9.91178 1.64323 9.97559 1.66602C10.0439 1.6888 10.1055 1.72298 10.1602 1.76855L12.8467 4.01074C12.9788 4.12012 13.0426 4.25 13.0381 4.40039C13.0381 4.54622 12.9743 4.67155 12.8467 4.77637L10.1602 7.01172C10.1055 7.06185 10.0439 7.10059 9.97559 7.12793C9.91178 7.15072 9.84115 7.16211 9.76367 7.16211C9.59505 7.16211 9.46289 7.11654 9.36719 7.02539C9.27604 6.93424 9.23047 6.80664 9.23047 6.64258V5.06348H3.94629C3.31738 5.06348 2.81608 5.23893 2.44238 5.58984C2.07324 5.94076 1.88867 6.41243 1.88867 7.00488V7.61328C1.88867 7.8138 1.82031 7.98242 1.68359 8.11914C1.55143 8.25586 1.38509 8.32422 1.18457 8.32422ZM14.8154 7.66797C15.016 7.66797 15.1823 7.73633 15.3145 7.87305C15.4512 8.00521 15.5195 8.17155 15.5195 8.37207V9.11719C15.5195 9.77344 15.3737 10.3408 15.082 10.8193C14.7904 11.2933 14.3757 11.6602 13.8379 11.9199C13.3047 12.1751 12.6735 12.3027 11.9443 12.3027H6.7627V13.8408C6.7627 14.0049 6.71712 14.1325 6.62598 14.2236C6.53483 14.3193 6.40723 14.3672 6.24316 14.3672C6.16569 14.3672 6.09277 14.3535 6.02441 14.3262C5.95605 14.2988 5.89453 14.2624 5.83984 14.2168L3.15332 11.9746C3.02116 11.8698 2.95508 11.7445 2.95508 11.5986C2.95964 11.4528 3.02572 11.3229 3.15332 11.209L5.83984 8.97363C5.89453 8.92806 5.95605 8.89388 6.02441 8.87109C6.09277 8.84375 6.16569 8.83008 6.24316 8.83008C6.40723 8.83008 6.53483 8.87565 6.62598 8.9668C6.71712 9.05794 6.7627 9.18783 6.7627 9.35645V10.915H12.0469C12.6803 10.915 13.1816 10.7419 13.5508 10.3955C13.9245 10.0446 14.1113 9.57292 14.1113 8.98047V8.37207C14.1113 8.17155 14.1774 8.00521 14.3096 7.87305C14.4463 7.73633 14.6149 7.66797 14.8154 7.66797Z" fill="#0F2D35" fill-opacity="0.66"/>
</svg>
