<svg width="20" height="20" viewBox="0 0 20 20" fill="none" xmlns="http://www.w3.org/2000/svg">
<path d="M8.9375 17.0156L2.84375 11.0625C2.63542 10.8542 2.53125 10.6198 2.53125 10.3594C2.53125 10.224 2.55729 10.0964 2.60938 9.97656C2.66146 9.85677 2.74219 9.75 2.85156 9.65625L8.9375 3.70312C9.11458 3.52604 9.32552 3.4375 9.57031 3.4375C9.74219 3.4375 9.89583 3.47917 10.0312 3.5625C10.1719 3.64062 10.2812 3.75 10.3594 3.89062C10.4427 4.02604 10.4844 4.17969 10.4844 4.35156C10.4844 4.59635 10.3932 4.8151 10.2109 5.00781L4.32812 10.7344V9.96875L10.2109 15.7109C10.3932 15.9036 10.4844 16.125 10.4844 16.375C10.4844 16.5417 10.4427 16.6927 10.3594 16.8281C10.2812 16.9688 10.1719 17.0781 10.0312 17.1562C9.89583 17.2396 9.74219 17.2812 9.57031 17.2812C9.44531 17.2812 9.33073 17.2578 9.22656 17.2109C9.1224 17.1641 9.02604 17.099 8.9375 17.0156ZM15.9141 17.0156L9.82812 11.0625C9.61458 10.8542 9.50781 10.6198 9.50781 10.3594C9.50781 10.224 9.53385 10.0964 9.58594 9.97656C9.64323 9.85677 9.72396 9.75 9.82812 9.65625L15.9141 3.70312C16.0911 3.52604 16.3047 3.4375 16.5547 3.4375C16.7214 3.4375 16.875 3.47917 17.0156 3.5625C17.1562 3.64062 17.2656 3.75 17.3438 3.89062C17.4271 4.02604 17.4688 4.17969 17.4688 4.35156C17.4688 4.59635 17.375 4.8151 17.1875 5.00781L11.3125 10.7344V9.96875L17.1875 15.7109C17.375 15.9036 17.4688 16.125 17.4688 16.375C17.4688 16.5417 17.4271 16.6927 17.3438 16.8281C17.2656 16.9688 17.1562 17.0781 17.0156 17.1562C16.875 17.2396 16.7214 17.2812 16.5547 17.2812C16.4297 17.2812 16.3125 17.2578 16.2031 17.2109C16.099 17.1641 16.0026 17.099 15.9141 17.0156Z" fill="#0F2D35" fill-opacity="0.5"/>
</svg>
