<svg width="20" height="20" viewBox="0 0 20 20" fill="none" xmlns="http://www.w3.org/2000/svg">
<path d="M3.4375 17.2812C3.27083 17.2812 3.11719 17.2396 2.97656 17.1562C2.84115 17.0781 2.73177 16.9688 2.64844 16.8281C2.57031 16.6927 2.53125 16.5417 2.53125 16.375C2.53125 16.125 2.6224 15.9036 2.80469 15.7109L8.6875 9.96875V10.7344L2.80469 5.00781C2.6224 4.8151 2.53125 4.59635 2.53125 4.35156C2.53125 4.17969 2.57031 4.02604 2.64844 3.89062C2.73177 3.75 2.84115 3.64062 2.97656 3.5625C3.11719 3.47917 3.27083 3.4375 3.4375 3.4375C3.69271 3.4375 3.90625 3.52604 4.07812 3.70312L10.1719 9.65625C10.276 9.75 10.3542 9.85677 10.4062 9.97656C10.4583 10.0964 10.4844 10.224 10.4844 10.3594C10.4844 10.6198 10.3802 10.8542 10.1719 11.0625L4.08594 17.0156C3.9974 17.099 3.89844 17.1641 3.78906 17.2109C3.6849 17.2578 3.56771 17.2812 3.4375 17.2812ZM10.4219 17.2812C10.2552 17.2812 10.1016 17.2396 9.96094 17.1562C9.82552 17.0781 9.71615 16.9688 9.63281 16.8281C9.54948 16.6927 9.50781 16.5417 9.50781 16.375C9.50781 16.125 9.60156 15.9036 9.78906 15.7109L15.6641 9.96875V10.7344L9.78906 5.00781C9.60156 4.8151 9.50781 4.59635 9.50781 4.35156C9.50781 4.17969 9.54948 4.02604 9.63281 3.89062C9.71615 3.75 9.82552 3.64062 9.96094 3.5625C10.1016 3.47917 10.2552 3.4375 10.4219 3.4375C10.6719 3.4375 10.8854 3.52604 11.0625 3.70312L17.1484 9.65625C17.2526 9.75 17.3307 9.85677 17.3828 9.97656C17.4401 10.0964 17.4688 10.224 17.4688 10.3594C17.4688 10.6198 17.362 10.8542 17.1484 11.0625L11.0625 17.0156C10.974 17.099 10.875 17.1641 10.7656 17.2109C10.6615 17.2578 10.5469 17.2812 10.4219 17.2812Z" fill="#0F2D35" fill-opacity="0.5"/>
</svg>
