<svg width="26" height="24" viewBox="0 0 26 24" fill="none" xmlns="http://www.w3.org/2000/svg">
<path fill-rule="evenodd" clip-rule="evenodd" d="M0.34082 2.00012C0.34082 0.895553 1.23625 0.00012207 2.34082 0.00012207H23.3308C24.4354 0.00012207 25.3308 0.895552 25.3308 2.00012V22.0001C25.3308 23.1047 24.4354 24.0001 23.3308 24.0001H2.34082C1.23625 24.0001 0.34082 23.1047 0.34082 22.0001V2.00012ZM20.1592 9.05836C20.1592 8.91591 20.1561 8.77446 20.1504 8.63353C20.3653 8.47107 21.6944 7.44804 22.0201 6.79045C22.0201 6.79045 20.9408 7.22123 19.8776 7.32318C19.8776 7.32318 19.8784 7.3228 19.8799 7.32193C19.8808 7.32139 19.882 7.32065 19.8833 7.31971C19.9807 7.25725 21.3415 6.36767 21.5257 5.30762C21.5257 5.30762 20.7623 5.69896 19.6934 6.04132C19.5164 6.09777 19.3312 6.15328 19.1402 6.20473C18.4512 5.49853 17.4719 5.05774 16.3848 5.05774C14.2996 5.05774 12.6099 6.68001 12.6099 8.68109C12.6099 8.96346 12.6437 9.23831 12.7077 9.5022C12.4163 9.49067 7.97889 9.25179 4.96012 5.74088C4.96012 5.74088 3.15594 8.10633 6.03527 10.5387C6.03527 10.5387 5.15994 10.5052 4.40486 10.0719C4.40486 10.0719 4.1275 12.9377 7.38827 13.6703C7.38827 13.6703 6.74664 13.9037 5.72304 13.7373C5.72304 13.7373 6.29546 16.0528 9.1925 16.2691C9.1925 16.2691 6.90221 18.2562 3.65088 17.7905C5.31402 18.8035 7.28682 19.3897 9.4017 19.3897C15.343 19.3897 20.1592 14.7638 20.1592 9.05836Z" fill="black" fill-opacity="0.66"/>
</svg>
