<svg width="40" height="40" viewBox="0 0 40 40" fill="none" xmlns="http://www.w3.org/2000/svg">
<path d="M5.01531 36.0315H13.9231V23.5514C13.9231 23.0279 14.103 22.5891 14.4627 22.2349C14.8225 21.8808 15.2682 21.7037 15.8 21.7037H24.2C24.7318 21.7037 25.1775 21.8808 25.5372 22.2349C25.897 22.5891 26.0769 23.0279 26.0769 23.5514V36.0315H34.9847V14.2621C34.9847 14.141 34.9577 14.0312 34.9039 13.9327C34.85 13.8343 34.7769 13.7472 34.6846 13.6714L20.4385 3.12754C20.3154 3.03161 20.1692 2.98365 20 2.98365C19.8308 2.98365 19.6846 3.03161 19.5615 3.12754L5.31537 13.6714C5.22305 13.7472 5.14997 13.8343 5.09613 13.9327C5.04225 14.0312 5.01531 14.141 5.01531 14.2621V36.0315ZM2 36.0315V14.2671C2 13.6752 2.13046 13.1199 2.39138 12.6012C2.65226 12.0825 3.02436 11.6533 3.50768 11.3138L17.7538 0.742134C18.4009 0.247379 19.1463 0 19.9899 0C20.8336 0 21.5856 0.247379 22.2462 0.742134L36.4923 11.3138C36.9756 11.6533 37.3477 12.0825 37.6086 12.6012C37.8695 13.1199 38 13.6752 38 14.2671V36.0315C38 36.8395 37.7026 37.5362 37.1079 38.1217C36.5131 38.7072 35.8054 39 34.9847 39H24.9385C24.4067 39 23.9609 38.8229 23.6012 38.4687C23.2414 38.1146 23.0616 37.6758 23.0616 37.1522V24.6722H16.9384V37.1522C16.9384 37.6758 16.7585 38.1146 16.3988 38.4687C16.0391 38.8229 15.5933 39 15.0615 39H5.01531C4.19459 39 3.48686 38.7072 2.89214 38.1217C2.29738 37.5362 2 36.8395 2 36.0315Z" fill="#0F2D35"/>
</svg>
